<svg width="1326" height="526" viewBox="0 0 1326 526" fill="none" xmlns="http://www.w3.org/2000/svg">
<rect width="1326" height="526" fill="white"/>
<g filter="url(#filter0_d_1452_5565)">
<mask id="path-1-inside-1_1452_5565" fill="white">
<path fill-rule="evenodd" clip-rule="evenodd" d="M88.4632 121.024C88.4632 124.409 85.622 127.305 81.603 128.484C89.3791 131.073 96.0202 140.521 94.8289 145.264C94.0624 148.315 88.3101 150.378 82.4697 152.473C77.5314 154.244 72.5302 156.037 70.4268 158.47C65.8357 163.781 70.4268 170.248 77.1526 170.326C83.8785 170.403 91.204 160.708 88.3747 158.47C85.5455 156.233 78.7377 155.821 78.7377 155.821L84.6614 153.12C84.6614 153.12 93.1491 154.304 94.8289 158.47C96.2522 162 88.5407 171.438 81.097 174.379C85.3814 175.456 88.4632 178.45 88.4632 181.976C88.4632 186.408 83.5943 190 77.5883 190C71.5822 190 66.7134 186.408 66.7134 181.976C66.7134 178.668 69.4266 175.827 73.3007 174.6C66.5121 172.122 60.9799 163.307 63.7137 157.763C65.652 153.832 73.6559 151.01 80.2088 148.699L80.2089 148.699C84.6086 147.147 88.3542 145.827 89.1705 144.556C91.2023 141.393 83.1774 131.086 77.1526 131.762C71.1278 132.438 67.5091 142.241 69.8079 144.556C71.5046 146.264 72.8199 146.623 75.0251 147.225C75.8075 147.438 76.7019 147.682 77.7651 148.028L72.0182 150.497C71.7119 150.393 71.419 150.296 71.138 150.202L71.1367 150.202C67.9005 149.124 66.2393 148.571 63.7137 145.264C62.4636 143.623 66.4925 131.731 73.9212 128.58C69.7195 127.47 66.7134 124.506 66.7134 121.024C66.7134 116.592 71.5823 113 77.5883 113C83.5944 113 88.4632 116.592 88.4632 121.024Z"/>
</mask>
<path fill-rule="evenodd" clip-rule="evenodd" d="M88.4632 121.024C88.4632 124.409 85.622 127.305 81.603 128.484C89.3791 131.073 96.0202 140.521 94.8289 145.264C94.0624 148.315 88.3101 150.378 82.4697 152.473C77.5314 154.244 72.5302 156.037 70.4268 158.47C65.8357 163.781 70.4268 170.248 77.1526 170.326C83.8785 170.403 91.204 160.708 88.3747 158.47C85.5455 156.233 78.7377 155.821 78.7377 155.821L84.6614 153.12C84.6614 153.12 93.1491 154.304 94.8289 158.47C96.2522 162 88.5407 171.438 81.097 174.379C85.3814 175.456 88.4632 178.45 88.4632 181.976C88.4632 186.408 83.5943 190 77.5883 190C71.5822 190 66.7134 186.408 66.7134 181.976C66.7134 178.668 69.4266 175.827 73.3007 174.6C66.5121 172.122 60.9799 163.307 63.7137 157.763C65.652 153.832 73.6559 151.01 80.2088 148.699L80.2089 148.699C84.6086 147.147 88.3542 145.827 89.1705 144.556C91.2023 141.393 83.1774 131.086 77.1526 131.762C71.1278 132.438 67.5091 142.241 69.8079 144.556C71.5046 146.264 72.8199 146.623 75.0251 147.225C75.8075 147.438 76.7019 147.682 77.7651 148.028L72.0182 150.497C71.7119 150.393 71.419 150.296 71.138 150.202L71.1367 150.202C67.9005 149.124 66.2393 148.571 63.7137 145.264C62.4636 143.623 66.4925 131.731 73.9212 128.58C69.7195 127.47 66.7134 124.506 66.7134 121.024C66.7134 116.592 71.5823 113 77.5883 113C83.5944 113 88.4632 116.592 88.4632 121.024Z" fill="url(#paint0_linear_1452_5565)"/>
<path d="M81.603 128.484L81.3216 127.524L78.2558 128.423L81.2871 129.432L81.603 128.484ZM94.8289 145.264L95.7988 145.507L94.8289 145.264ZM82.4697 152.473L82.8072 153.414L82.4697 152.473ZM70.4268 158.47L71.1832 159.124L70.4268 158.47ZM78.7377 155.821L78.3229 154.911L78.6772 156.819L78.7377 155.821ZM84.6614 153.12L84.7995 152.13L84.5113 152.09L84.2466 152.21L84.6614 153.12ZM94.8289 158.47L95.7564 158.096L94.8289 158.47ZM81.097 174.379L80.7295 173.449L77.8389 174.591L80.8532 175.349L81.097 174.379ZM73.3007 174.6L73.6028 175.553L76.4003 174.667L73.6436 173.66L73.3007 174.6ZM63.7137 157.763L64.6106 158.205H64.6106L63.7137 157.763ZM80.2088 148.699L79.9663 147.729L79.9206 147.74L79.8763 147.756L80.2088 148.699ZM80.2089 148.699L80.4514 149.669L80.497 149.658L80.5414 149.642L80.2089 148.699ZM89.1705 144.556L88.3291 144.016L89.1705 144.556ZM77.1526 131.762L77.2641 132.755L77.1526 131.762ZM69.8079 144.556L70.5174 143.851H70.5174L69.8079 144.556ZM75.0251 147.225L74.7619 148.19L75.0251 147.225ZM77.7651 148.028L78.1598 148.947L80.6004 147.898L78.0743 147.077L77.7651 148.028ZM72.0182 150.497L71.6977 151.444L72.0608 151.567L72.4129 151.416L72.0182 150.497ZM71.138 150.202L71.454 149.253L71.4524 149.253L71.138 150.202ZM71.1367 150.202L70.8207 151.15L70.8223 151.151L71.1367 150.202ZM63.7137 145.264L62.9183 145.87L62.919 145.871L63.7137 145.264ZM73.9212 128.58L74.3117 129.501L77.0016 128.36L74.1767 127.614L73.9212 128.58ZM81.8844 129.443C86.1409 128.195 89.4632 125.023 89.4632 121.024H87.4632C87.4632 123.796 85.1031 126.415 81.3216 127.524L81.8844 129.443ZM95.7988 145.507C96.1647 144.051 95.9095 142.352 95.2988 140.665C94.6814 138.959 93.6654 137.165 92.3759 135.462C89.8069 132.071 86.0485 128.91 81.9189 127.535L81.2871 129.432C84.9336 130.647 88.3838 133.504 90.7816 136.67C91.9754 138.246 92.8823 139.865 93.4181 141.345C93.9606 142.844 94.0888 144.105 93.8591 145.02L95.7988 145.507ZM82.8072 153.414C85.7086 152.374 88.6743 151.312 91.0077 150.117C92.1773 149.519 93.2329 148.865 94.0595 148.131C94.8844 147.399 95.5409 146.534 95.7988 145.507L93.8591 145.02C93.7338 145.519 93.3838 146.057 92.7319 146.635C92.0819 147.212 91.1907 147.777 90.0963 148.337C87.9018 149.461 85.0711 150.478 82.1321 151.532L82.8072 153.414ZM71.1832 159.124C72.0858 158.08 73.6925 157.097 75.8009 156.133C77.8855 155.18 80.328 154.303 82.8072 153.414L82.1321 151.532C79.6731 152.413 77.1458 153.319 74.9694 154.314C72.8168 155.298 70.8711 156.427 69.6703 157.816L71.1832 159.124ZM77.1641 169.326C74.1098 169.291 71.6141 167.806 70.3966 165.835C69.2127 163.918 69.1719 161.451 71.1832 159.124L69.6703 157.816C67.0905 160.8 67.0498 164.222 68.695 166.886C70.3068 169.495 73.4696 171.283 77.1411 171.325L77.1641 169.326ZM87.7544 159.255C87.94 159.401 88.173 159.841 87.8089 160.971C87.4686 162.027 86.693 163.331 85.5889 164.614C83.3491 167.216 80.0931 169.359 77.1641 169.326L77.1411 171.325C80.938 171.369 84.7077 168.703 87.1048 165.918C88.3191 164.507 89.2648 162.973 89.7125 161.584C90.1363 160.269 90.2241 158.658 88.995 157.686L87.7544 159.255ZM78.7377 155.821C78.6772 156.819 78.6771 156.819 78.677 156.819C78.677 156.819 78.6769 156.819 78.6769 156.819C78.6769 156.819 78.6771 156.819 78.6773 156.819C78.6777 156.819 78.6785 156.819 78.6798 156.819C78.6822 156.819 78.6863 156.819 78.692 156.82C78.7033 156.82 78.7209 156.822 78.7444 156.823C78.7915 156.827 78.8624 156.832 78.9544 156.839C79.1384 156.854 79.4067 156.878 79.7384 156.914C80.4027 156.986 81.3158 157.104 82.3122 157.289C84.3664 157.672 86.5518 158.303 87.7544 159.255L88.995 157.686C87.3685 156.4 84.7353 155.706 82.6783 155.323C81.619 155.126 80.6533 155.001 79.9528 154.926C79.602 154.888 79.3163 154.862 79.117 154.846C79.0173 154.838 78.9392 154.832 78.8852 154.828C78.8581 154.826 78.8372 154.825 78.8225 154.824C78.8152 154.823 78.8095 154.823 78.8054 154.823C78.8034 154.823 78.8017 154.823 78.8005 154.823C78.7999 154.822 78.7994 154.822 78.799 154.822C78.7988 154.822 78.7986 154.822 78.7985 154.822C78.7983 154.822 78.7981 154.822 78.7377 155.821ZM84.2466 152.21L78.3229 154.911L79.1524 156.73L85.0762 154.03L84.2466 152.21ZM95.7564 158.096C95.2341 156.801 94.2137 155.806 93.0912 155.048C91.9627 154.286 90.6574 153.713 89.4458 153.289C88.229 152.863 87.0727 152.574 86.2233 152.392C85.7974 152.301 85.4459 152.236 85.199 152.194C85.0754 152.172 84.9779 152.157 84.9101 152.146C84.8762 152.141 84.8497 152.137 84.8311 152.134C84.8218 152.133 84.8145 152.132 84.8092 152.131C84.8066 152.131 84.8044 152.13 84.8028 152.13C84.802 152.13 84.8013 152.13 84.8008 152.13C84.8005 152.13 84.8002 152.13 84.8 152.13C84.7998 152.13 84.7995 152.13 84.6614 153.12C84.5232 154.111 84.5231 154.111 84.5229 154.111C84.5229 154.111 84.5228 154.111 84.5227 154.111C84.5227 154.11 84.5228 154.111 84.523 154.111C84.5235 154.111 84.5244 154.111 84.5258 154.111C84.5287 154.111 84.5336 154.112 84.5404 154.113C84.5541 154.115 84.5754 154.118 84.6041 154.123C84.6615 154.132 84.7479 154.145 84.8598 154.165C85.0835 154.203 85.4082 154.263 85.8044 154.348C86.5988 154.518 87.6695 154.786 88.7847 155.177C89.905 155.569 91.0366 156.074 91.9719 156.705C92.9134 157.341 93.5838 158.056 93.9015 158.844L95.7564 158.096ZM81.4645 175.309C85.3831 173.76 89.2994 170.544 92.0515 167.291C93.4317 165.66 94.5545 163.978 95.2432 162.44C95.9062 160.96 96.2727 159.377 95.7564 158.096L93.9015 158.844C94.0968 159.329 94.0331 160.249 93.4179 161.623C92.8283 162.939 91.8249 164.462 90.5247 165.999C87.9159 169.083 84.2546 172.056 80.7295 173.449L81.4645 175.309ZM80.8532 175.349C84.8975 176.365 87.4632 179.09 87.4632 181.976H89.4632C89.4632 177.81 85.8653 174.546 81.3408 173.409L80.8532 175.349ZM87.4632 181.976C87.4632 183.799 86.4637 185.532 84.6842 186.845C82.9051 188.158 80.3996 189 77.5883 189V191C80.783 191 83.7149 190.046 85.8717 188.454C88.0282 186.863 89.4632 184.584 89.4632 181.976H87.4632ZM77.5883 189C74.7769 189 72.2714 188.158 70.4923 186.845C68.7129 185.532 67.7134 183.799 67.7134 181.976H65.7134C65.7134 184.584 67.1483 186.863 69.3048 188.454C71.4617 190.046 74.3936 191 77.5883 191V189ZM67.7134 181.976C67.7134 179.267 69.9646 176.706 73.6028 175.553L72.9986 173.646C68.8886 174.949 65.7134 178.069 65.7134 181.976H67.7134ZM62.8168 157.32C61.2359 160.527 62.1048 164.496 64.0748 167.839C66.061 171.209 69.3094 174.207 72.9578 175.539L73.6436 173.66C70.5034 172.514 67.5914 169.866 65.7978 166.823C63.988 163.753 63.4577 160.543 64.6106 158.205L62.8168 157.32ZM79.8763 147.756C76.6124 148.907 72.917 150.208 69.7943 151.723C68.2306 152.482 66.78 153.308 65.583 154.216C64.3928 155.119 63.3966 156.145 62.8168 157.32L64.6106 158.205C65 157.415 65.7311 156.614 66.7916 155.81C67.8452 155.011 69.1686 154.25 70.6673 153.523C73.6693 152.066 77.2523 150.802 80.5414 149.642L79.8763 147.756ZM79.9663 147.729L79.9663 147.729L80.4513 149.669L80.4514 149.669L79.9663 147.729ZM88.3291 144.016C88.2503 144.138 88.0226 144.363 87.5231 144.668C87.0465 144.959 86.4132 145.27 85.6385 145.604C84.0877 146.27 82.0872 146.976 79.8763 147.756L80.5414 149.642C82.7303 148.87 84.8025 148.14 86.4285 147.441C87.2422 147.091 87.9733 146.737 88.5661 146.375C89.136 146.026 89.6825 145.609 90.0119 145.096L88.3291 144.016ZM77.2641 132.755C78.4735 132.62 79.8833 133.031 81.3515 133.893C82.8073 134.748 84.2305 135.995 85.4275 137.374C86.6266 138.757 87.5593 140.226 88.0687 141.499C88.3236 142.135 88.4585 142.688 88.4865 143.133C88.5147 143.58 88.4325 143.855 88.3291 144.016L90.0119 145.096C90.4164 144.467 90.5279 143.727 90.4826 143.007C90.4371 142.286 90.2314 141.52 89.9255 140.756C89.3135 139.227 88.2444 137.569 86.9381 136.064C85.6297 134.556 84.0441 133.155 82.3642 132.168C80.6967 131.189 78.8442 130.566 77.0411 130.768L77.2641 132.755ZM70.5174 143.851C70.2643 143.597 70.0315 142.938 70.1346 141.763C70.2323 140.65 70.6164 139.305 71.2586 137.981C72.5711 135.275 74.7592 133.036 77.2641 132.755L77.0411 130.768C73.5212 131.163 70.8875 134.164 69.4592 137.108C68.731 138.609 68.2649 140.19 68.1423 141.588C68.0251 142.924 68.202 144.358 69.0983 145.261L70.5174 143.851ZM75.2882 146.26C73.1059 145.665 72.0158 145.36 70.5174 143.851L69.0983 145.261C70.9935 147.169 72.5339 147.582 74.7619 148.19L75.2882 146.26ZM78.0743 147.077C76.9859 146.723 76.0709 146.474 75.2882 146.26L74.7619 148.19C75.544 148.403 76.4178 148.641 77.4559 148.979L78.0743 147.077ZM72.4129 151.416L78.1598 148.947L77.3704 147.109L71.6235 149.578L72.4129 151.416ZM70.822 151.151C71.1033 151.245 71.394 151.341 71.6977 151.444L72.3387 149.55C72.0298 149.445 71.7347 149.347 71.454 149.253L70.822 151.151ZM70.8223 151.151L70.8236 151.151L71.4524 149.253L71.4511 149.252L70.8223 151.151ZM62.919 145.871C64.2322 147.59 65.3676 148.654 66.6414 149.424C67.8901 150.179 69.2267 150.62 70.8207 151.15L71.4526 149.253C69.8105 148.706 68.6984 148.331 67.6761 147.713C66.6789 147.11 65.7209 146.244 64.5085 144.657L62.919 145.871ZM73.5307 127.66C69.4928 129.373 66.489 133.387 64.6678 137.042C63.748 138.889 63.0997 140.702 62.7616 142.186C62.5931 142.924 62.4948 143.611 62.4888 144.195C62.4834 144.719 62.5464 145.382 62.9183 145.87L64.5091 144.658C64.5685 144.735 64.484 144.667 64.4887 144.215C64.4927 143.822 64.562 143.286 64.7116 142.63C65.0094 141.324 65.5982 139.66 66.458 137.934C68.1959 134.446 70.921 130.939 74.3117 129.501L73.5307 127.66ZM65.7134 121.024C65.7134 125.138 69.2247 128.374 73.6657 129.547L74.1767 127.614C70.2143 126.567 67.7134 123.874 67.7134 121.024H65.7134ZM77.5883 112C74.3936 112 71.4617 112.954 69.3049 114.546C67.1484 116.137 65.7134 118.416 65.7134 121.024H67.7134C67.7134 119.201 68.7129 117.468 70.4923 116.155C72.2714 114.842 74.777 114 77.5883 114V112ZM89.4632 121.024C89.4632 118.416 88.0283 116.137 85.8718 114.546C83.7149 112.954 80.783 112 77.5883 112V114C80.3997 114 82.9052 114.842 84.6843 116.155C86.4637 117.468 87.4632 119.201 87.4632 121.024H89.4632Z" fill="black" mask="url(#path-1-inside-1_1452_5565)"/>
</g>
<path d="M143.76 166.96C138.907 166.96 134.48 166 130.48 164.08C126.533 162.107 123.387 159.147 121.04 155.2C118.693 151.253 117.52 146.32 117.52 140.4C117.52 136.027 118.213 132.16 119.6 128.8C120.987 125.387 122.88 122.507 125.28 120.16C127.68 117.813 130.427 116.053 133.52 114.88C136.667 113.653 139.973 113.04 143.44 113.04C147.28 113.04 150.613 113.733 153.44 115.12C156.267 116.453 158.587 118.053 160.4 119.92L153.2 128.72C151.92 127.6 150.56 126.693 149.12 126C147.733 125.253 146 124.88 143.92 124.88C140.4 124.88 137.467 126.213 135.12 128.88C132.773 131.493 131.6 135.173 131.6 139.92C131.6 144.773 132.693 148.533 134.88 151.2C137.12 153.813 140.56 155.12 145.2 155.12C145.947 155.12 146.667 155.04 147.36 154.88C148.107 154.72 148.72 154.48 149.2 154.16V146.96H141.52V135.76H161.36V160.56C159.547 162.32 157.067 163.84 153.92 165.12C150.827 166.347 147.44 166.96 143.76 166.96ZM180.759 166.96C178.252 166.96 176.092 166.4 174.279 165.28C172.519 164.107 171.159 162.587 170.199 160.72C169.239 158.853 168.759 156.827 168.759 154.64C168.759 150.48 170.465 147.227 173.879 144.88C177.292 142.48 182.839 140.88 190.519 140.08C190.199 137.307 188.332 135.92 184.919 135.92C183.479 135.92 181.959 136.213 180.359 136.8C178.759 137.333 176.919 138.16 174.839 139.28L170.039 130.32C172.865 128.613 175.719 127.307 178.599 126.4C181.532 125.493 184.545 125.04 187.639 125.04C192.865 125.04 196.945 126.533 199.879 129.52C202.812 132.453 204.279 137.2 204.279 143.76V166H193.079L192.119 162.16H191.799C190.199 163.6 188.492 164.773 186.679 165.68C184.919 166.533 182.945 166.96 180.759 166.96ZM185.559 156.4C186.679 156.4 187.612 156.16 188.359 155.68C189.105 155.147 189.825 154.48 190.519 153.68V148.24C187.265 148.72 184.999 149.44 183.719 150.4C182.492 151.36 181.879 152.4 181.879 153.52C181.879 155.44 183.105 156.4 185.559 156.4ZM228.167 166.96C222.994 166.96 219.234 165.467 216.887 162.48C214.594 159.44 213.447 155.493 213.447 150.64V136.72H208.167V126.48L214.247 126L215.847 115.6H227.207V126H236.327V136.72H227.207V150.4C227.207 152.587 227.687 154.107 228.647 154.96C229.607 155.813 230.727 156.24 232.007 156.24C232.647 156.24 233.26 156.187 233.847 156.08C234.487 155.92 235.047 155.76 235.527 155.6L237.607 165.52C236.594 165.84 235.314 166.16 233.767 166.48C232.22 166.8 230.354 166.96 228.167 166.96ZM243.718 166V110.32H257.478V123.28L256.838 130.16C258.225 128.933 259.878 127.787 261.798 126.72C263.771 125.6 266.118 125.04 268.838 125.04C273.265 125.04 276.438 126.533 278.358 129.52C280.331 132.453 281.318 136.4 281.318 141.36V166H267.558V143.12C267.558 140.56 267.238 138.853 266.598 138C265.958 137.147 264.945 136.72 263.558 136.72C262.278 136.72 261.211 136.987 260.358 137.52C259.505 138.053 258.545 138.8 257.478 139.76V166H243.718ZM308.841 166.96C304.947 166.96 301.427 166.133 298.281 164.48C295.187 162.827 292.734 160.453 290.921 157.36C289.107 154.213 288.201 150.427 288.201 146C288.201 141.68 289.107 137.973 290.921 134.88C292.787 131.733 295.187 129.307 298.121 127.6C301.054 125.893 304.147 125.04 307.401 125.04C311.347 125.04 314.601 125.92 317.161 127.68C319.774 129.387 321.694 131.707 322.921 134.64C324.201 137.573 324.841 140.827 324.841 144.4C324.841 145.573 324.761 146.72 324.601 147.84C324.494 148.907 324.387 149.68 324.281 150.16H301.481C302.121 152.56 303.267 154.24 304.921 155.2C306.574 156.107 308.521 156.56 310.761 156.56C313.321 156.56 316.041 155.76 318.921 154.16L323.401 162.32C321.267 163.813 318.867 164.96 316.201 165.76C313.534 166.56 311.081 166.96 308.841 166.96ZM301.321 141.2H313.161C313.161 139.653 312.761 138.32 311.961 137.2C311.214 136.027 309.801 135.44 307.721 135.44C306.227 135.44 304.894 135.893 303.721 136.8C302.547 137.707 301.747 139.173 301.321 141.2ZM332.39 166V126H343.59L344.55 132.88H344.87C346.363 130.16 348.123 128.187 350.15 126.96C352.23 125.68 354.257 125.04 356.23 125.04C357.457 125.04 358.443 125.12 359.19 125.28C359.99 125.387 360.657 125.573 361.19 125.84L358.95 137.68C358.257 137.52 357.563 137.387 356.87 137.28C356.177 137.12 355.377 137.04 354.47 137.04C353.03 137.04 351.51 137.547 349.91 138.56C348.363 139.52 347.11 141.253 346.15 143.76V166H332.39ZM378.148 166.96C375.054 166.96 372.601 166.347 370.788 165.12C369.028 163.84 367.748 162.08 366.948 159.84C366.201 157.547 365.828 154.907 365.828 151.92V110.32H379.588V152.4C379.588 153.733 379.828 154.667 380.308 155.2C380.841 155.68 381.348 155.92 381.828 155.92C382.094 155.92 382.308 155.92 382.468 155.92C382.681 155.867 382.948 155.813 383.268 155.76L384.868 165.84C384.174 166.16 383.268 166.427 382.148 166.64C381.028 166.853 379.694 166.96 378.148 166.96ZM395.576 181.04C394.242 181.04 393.122 180.96 392.216 180.8C391.309 180.64 390.402 180.453 389.496 180.24L391.896 169.84C392.269 169.893 392.696 169.973 393.176 170.08C393.656 170.24 394.082 170.32 394.456 170.32C396.322 170.32 397.736 169.947 398.696 169.2C399.656 168.453 400.322 167.493 400.696 166.32L401.176 164.56L385.976 126H399.736L404.536 141.36C405.122 143.173 405.629 145.013 406.056 146.88C406.482 148.747 406.936 150.693 407.416 152.72H407.736C408.162 150.8 408.562 148.907 408.936 147.04C409.362 145.173 409.816 143.28 410.296 141.36L414.296 126H427.416L413.976 165.36C412.589 168.933 411.096 171.867 409.496 174.16C407.949 176.507 406.056 178.24 403.816 179.36C401.629 180.48 398.882 181.04 395.576 181.04Z" fill="#0072BB"/>
<path d="M140.72 252.96C133.947 252.96 128.773 250.96 125.2 246.96C121.627 242.96 119.84 236.587 119.84 227.84V199.84H131.68V229.04C131.68 234.16 132.453 237.733 134 239.76C135.547 241.787 137.787 242.8 140.72 242.8C143.653 242.8 145.92 241.787 147.52 239.76C149.12 237.733 149.92 234.16 149.92 229.04V199.84H161.28V227.84C161.28 236.587 159.52 242.96 156 246.96C152.533 250.96 147.44 252.96 140.72 252.96ZM173.363 252V199.84H185.123V252H173.363ZM192.306 264.8L208.386 195.2H216.066L199.986 264.8H192.306ZM245.095 252.96C238.322 252.96 233.148 250.96 229.575 246.96C226.002 242.96 224.215 236.587 224.215 227.84V199.84H236.055V229.04C236.055 234.16 236.828 237.733 238.375 239.76C239.922 241.787 242.162 242.8 245.095 242.8C248.028 242.8 250.295 241.787 251.895 239.76C253.495 237.733 254.295 234.16 254.295 229.04V199.84H265.655V227.84C265.655 236.587 263.895 242.96 260.375 246.96C256.908 250.96 251.815 252.96 245.095 252.96ZM271.677 252L286.157 225.2L272.557 199.84H285.677L290.237 209.68C290.824 210.853 291.41 212.133 291.997 213.52C292.637 214.907 293.304 216.427 293.997 218.08H294.317C294.904 216.427 295.464 214.907 295.997 213.52C296.584 212.133 297.144 210.853 297.677 209.68L301.837 199.84H314.397L300.877 225.76L315.277 252H302.157L296.957 241.36C296.317 239.973 295.677 238.613 295.037 237.28C294.45 235.893 293.784 234.4 293.037 232.8H292.717C292.13 234.4 291.544 235.893 290.957 237.28C290.37 238.613 289.784 239.973 289.197 241.36L284.317 252H271.677ZM359.243 252.96C354.87 252.96 350.95 251.893 347.483 249.76C344.07 247.573 341.35 244.453 339.323 240.4C337.35 236.347 336.363 231.467 336.363 225.76C336.363 220.107 337.376 215.253 339.403 211.2C341.43 207.147 344.203 204.027 347.723 201.84C351.243 199.653 355.216 198.56 359.643 198.56C362.843 198.56 365.67 199.227 368.123 200.56C370.576 201.84 372.55 203.333 374.043 205.04L370.443 209.36C369.056 207.867 367.483 206.667 365.723 205.76C363.963 204.853 361.963 204.4 359.723 204.4C356.416 204.4 353.51 205.28 351.003 207.04C348.55 208.747 346.63 211.173 345.243 214.32C343.91 217.467 343.243 221.227 343.243 225.6C343.243 229.973 343.91 233.787 345.243 237.04C346.576 240.24 348.443 242.72 350.843 244.48C353.296 246.24 356.176 247.12 359.483 247.12C361.99 247.12 364.23 246.587 366.203 245.52C368.176 244.453 369.99 243.013 371.643 241.2L375.323 245.36C373.243 247.76 370.896 249.627 368.283 250.96C365.67 252.293 362.656 252.96 359.243 252.96ZM393.426 252.96C390.173 252.96 387.453 252 385.266 250.08C383.133 248.107 382.066 245.387 382.066 241.92C382.066 237.653 383.96 234.4 387.746 232.16C391.586 229.867 397.64 228.267 405.906 227.36C405.906 225.707 405.666 224.133 405.186 222.64C404.76 221.147 403.96 219.947 402.786 219.04C401.666 218.08 400.04 217.6 397.906 217.6C395.666 217.6 393.56 218.027 391.586 218.88C389.613 219.733 387.853 220.693 386.306 221.76L383.746 217.2C385.56 216.027 387.773 214.907 390.386 213.84C393.053 212.72 395.933 212.16 399.026 212.16C403.773 212.16 407.213 213.627 409.346 216.56C411.48 219.44 412.546 223.307 412.546 228.16V252H407.106L406.546 247.36H406.306C404.493 248.853 402.493 250.16 400.306 251.28C398.173 252.4 395.88 252.96 393.426 252.96ZM395.346 247.68C397.213 247.68 398.973 247.227 400.626 246.32C402.28 245.413 404.04 244.133 405.906 242.48V231.68C399.453 232.48 394.92 233.68 392.306 235.28C389.746 236.88 388.466 238.933 388.466 241.44C388.466 243.627 389.133 245.227 390.466 246.24C391.8 247.2 393.426 247.68 395.346 247.68ZM434.939 252.96C432.165 252.96 429.525 252.453 427.019 251.44C424.512 250.373 422.325 249.093 420.459 247.6L423.739 243.2C425.445 244.533 427.205 245.653 429.019 246.56C430.832 247.413 432.885 247.84 435.179 247.84C437.739 247.84 439.659 247.253 440.939 246.08C442.219 244.853 442.859 243.413 442.859 241.76C442.859 240.427 442.405 239.307 441.499 238.4C440.645 237.493 439.525 236.747 438.139 236.16C436.805 235.52 435.419 234.933 433.979 234.4C432.165 233.707 430.379 232.933 428.619 232.08C426.859 231.173 425.419 230.027 424.299 228.64C423.179 227.2 422.619 225.387 422.619 223.2C422.619 220.053 423.792 217.44 426.139 215.36C428.539 213.227 431.845 212.16 436.059 212.16C438.459 212.16 440.699 212.587 442.779 213.44C444.859 214.293 446.645 215.333 448.139 216.56L444.939 220.72C443.605 219.707 442.219 218.88 440.779 218.24C439.339 217.6 437.765 217.28 436.059 217.28C433.605 217.28 431.792 217.84 430.619 218.96C429.499 220.08 428.939 221.387 428.939 222.88C428.939 224.107 429.339 225.12 430.139 225.92C430.939 226.667 431.979 227.333 433.259 227.92C434.539 228.453 435.899 229.013 437.339 229.6C439.205 230.293 441.045 231.093 442.859 232C444.672 232.853 446.165 234.027 447.339 235.52C448.565 236.96 449.179 238.907 449.179 241.36C449.179 243.44 448.619 245.36 447.499 247.12C446.432 248.88 444.832 250.293 442.699 251.36C440.619 252.427 438.032 252.96 434.939 252.96ZM474.054 252.96C470.588 252.96 467.441 252.16 464.614 250.56C461.788 248.907 459.548 246.56 457.894 243.52C456.241 240.48 455.414 236.853 455.414 232.64C455.414 228.373 456.241 224.72 457.894 221.68C459.601 218.64 461.788 216.293 464.454 214.64C467.121 212.987 469.921 212.16 472.854 212.16C477.814 212.16 481.628 213.813 484.294 217.12C487.014 220.427 488.374 224.853 488.374 230.4C488.374 231.093 488.348 231.787 488.294 232.48C488.294 233.12 488.241 233.68 488.134 234.16H461.894C462.161 238.267 463.441 241.547 465.734 244C468.081 246.453 471.121 247.68 474.854 247.68C476.721 247.68 478.428 247.413 479.974 246.88C481.574 246.293 483.094 245.547 484.534 244.64L486.854 248.96C485.201 250.027 483.308 250.96 481.174 251.76C479.094 252.56 476.721 252.96 474.054 252.96ZM461.814 229.44H482.614C482.614 225.493 481.761 222.507 480.054 220.48C478.401 218.4 476.054 217.36 473.014 217.36C470.294 217.36 467.841 218.427 465.654 220.56C463.521 222.64 462.241 225.6 461.814 229.44ZM529.198 252.96C525.518 252.96 522.104 252.267 518.958 250.88C515.811 249.44 513.091 247.547 510.798 245.2L514.798 240.56C516.664 242.533 518.851 244.133 521.358 245.36C523.918 246.533 526.558 247.12 529.278 247.12C532.744 247.12 535.438 246.347 537.358 244.8C539.278 243.2 540.238 241.12 540.238 238.56C540.238 236.747 539.838 235.307 539.038 234.24C538.291 233.173 537.251 232.267 535.918 231.52C534.638 230.773 533.171 230.027 531.518 229.28L523.998 226C522.344 225.307 520.691 224.4 519.038 223.28C517.438 222.16 516.078 220.72 514.958 218.96C513.891 217.2 513.358 215.04 513.358 212.48C513.358 209.813 514.051 207.44 515.438 205.36C516.878 203.227 518.851 201.573 521.358 200.4C523.864 199.173 526.691 198.56 529.838 198.56C532.984 198.56 535.891 199.173 538.558 200.4C541.224 201.573 543.491 203.12 545.358 205.04L541.758 209.36C540.158 207.813 538.371 206.613 536.398 205.76C534.478 204.853 532.291 204.4 529.838 204.4C526.904 204.4 524.531 205.093 522.718 206.48C520.958 207.867 520.078 209.733 520.078 212.08C520.078 213.733 520.504 215.12 521.358 216.24C522.264 217.307 523.384 218.187 524.718 218.88C526.051 219.573 527.411 220.213 528.798 220.8L536.238 224C538.264 224.853 540.078 225.893 541.678 227.12C543.331 228.293 544.638 229.76 545.598 231.52C546.558 233.227 547.038 235.387 547.038 238C547.038 240.773 546.318 243.307 544.878 245.6C543.438 247.84 541.384 249.627 538.718 250.96C536.051 252.293 532.878 252.96 529.198 252.96ZM567.019 252.96C562.859 252.96 559.952 251.76 558.299 249.36C556.699 246.96 555.899 243.84 555.899 240V218.48H550.139V213.52L556.219 213.12L557.019 202.24H562.539V213.12H573.019V218.48H562.539V240.08C562.539 242.48 562.965 244.347 563.819 245.68C564.725 246.96 566.299 247.6 568.539 247.6C569.232 247.6 569.979 247.493 570.779 247.28C571.579 247.013 572.299 246.773 572.939 246.56L574.219 251.52C573.152 251.893 571.979 252.213 570.699 252.48C569.472 252.8 568.245 252.96 567.019 252.96ZM593.17 252.96C589.063 252.96 586.05 251.68 584.13 249.12C582.21 246.507 581.25 242.72 581.25 237.76V213.12H587.89V236.88C587.89 240.507 588.45 243.147 589.57 244.8C590.743 246.453 592.61 247.28 595.17 247.28C597.197 247.28 598.983 246.773 600.53 245.76C602.13 244.693 603.837 243.013 605.65 240.72V213.12H612.21V252H606.77L606.21 245.92H605.97C604.157 248.053 602.237 249.76 600.21 251.04C598.183 252.32 595.837 252.96 593.17 252.96ZM638.606 252.96C633.752 252.96 629.859 251.2 626.926 247.68C623.992 244.107 622.526 239.093 622.526 232.64C622.526 228.427 623.299 224.8 624.846 221.76C626.446 218.667 628.526 216.293 631.086 214.64C633.699 212.987 636.472 212.16 639.406 212.16C641.646 212.16 643.592 212.56 645.246 213.36C646.899 214.16 648.579 215.253 650.286 216.64L649.966 210V195.04H656.606V252H651.166L650.606 247.44H650.366C648.872 248.933 647.112 250.24 645.086 251.36C643.059 252.427 640.899 252.96 638.606 252.96ZM640.046 247.44C643.459 247.44 646.766 245.653 649.966 242.08V221.76C648.312 220.267 646.712 219.227 645.166 218.64C643.672 218 642.126 217.68 640.526 217.68C638.446 217.68 636.552 218.32 634.846 219.6C633.192 220.827 631.859 222.56 630.846 224.8C629.832 226.987 629.326 229.573 629.326 232.56C629.326 237.2 630.259 240.853 632.126 243.52C633.992 246.133 636.632 247.44 640.046 247.44ZM670.341 268.72C669.487 268.72 668.661 268.64 667.861 268.48C667.114 268.32 666.421 268.133 665.781 267.92L667.061 262.72C667.487 262.827 667.967 262.933 668.501 263.04C669.034 263.2 669.541 263.28 670.021 263.28C672.207 263.28 674.021 262.48 675.461 260.88C676.901 259.333 678.021 257.36 678.821 254.96L679.701 252.08L664.101 213.12H670.901L678.821 234.64C679.407 236.293 680.021 238.08 680.661 240C681.354 241.92 681.994 243.787 682.581 245.6H682.901C683.487 243.84 684.047 242 684.581 240.08C685.114 238.16 685.647 236.347 686.181 234.64L693.141 213.12H699.541L684.901 255.2C683.994 257.76 682.901 260.053 681.621 262.08C680.394 264.107 678.847 265.707 676.981 266.88C675.167 268.107 672.954 268.72 670.341 268.72Z" fill="#0072BB"/>
<path d="M125.788 312.168C124.295 312.168 122.913 311.925 121.644 311.44C120.393 310.936 119.301 310.236 118.368 309.34C117.453 308.444 116.735 307.389 116.212 306.176C115.708 304.963 115.456 303.637 115.456 302.2C115.456 300.763 115.708 299.437 116.212 298.224C116.735 297.011 117.463 295.956 118.396 295.06C119.329 294.164 120.421 293.473 121.672 292.988C122.941 292.484 124.323 292.232 125.816 292.232C127.309 292.232 128.672 292.465 129.904 292.932C131.155 293.399 132.219 294.108 133.096 295.06L131.808 296.376C130.987 295.555 130.081 294.967 129.092 294.612C128.103 294.257 127.039 294.08 125.9 294.08C124.687 294.08 123.567 294.285 122.54 294.696C121.532 295.088 120.645 295.657 119.88 296.404C119.133 297.132 118.545 297.991 118.116 298.98C117.705 299.951 117.5 301.024 117.5 302.2C117.5 303.357 117.705 304.431 118.116 305.42C118.545 306.409 119.133 307.277 119.88 308.024C120.645 308.752 121.532 309.321 122.54 309.732C123.567 310.124 124.677 310.32 125.872 310.32C126.992 310.32 128.047 310.152 129.036 309.816C130.044 309.48 130.968 308.911 131.808 308.108L132.984 309.676C132.051 310.497 130.959 311.123 129.708 311.552C128.457 311.963 127.151 312.168 125.788 312.168ZM130.996 309.424V302.2H132.984V309.676L130.996 309.424ZM147.64 312V308.752L147.556 308.22V302.788C147.556 301.537 147.202 300.576 146.492 299.904C145.802 299.232 144.766 298.896 143.384 298.896C142.432 298.896 141.527 299.055 140.668 299.372C139.81 299.689 139.082 300.109 138.484 300.632L137.588 299.148C138.335 298.513 139.231 298.028 140.276 297.692C141.322 297.337 142.423 297.16 143.58 297.16C145.484 297.16 146.95 297.636 147.976 298.588C149.022 299.521 149.544 300.949 149.544 302.872V312H147.64ZM142.572 312.14C141.471 312.14 140.51 311.963 139.688 311.608C138.886 311.235 138.27 310.731 137.84 310.096C137.411 309.443 137.196 308.696 137.196 307.856C137.196 307.091 137.374 306.4 137.728 305.784C138.102 305.149 138.699 304.645 139.52 304.272C140.36 303.88 141.48 303.684 142.88 303.684H147.948V305.168H142.936C141.518 305.168 140.528 305.42 139.968 305.924C139.427 306.428 139.156 307.053 139.156 307.8C139.156 308.64 139.483 309.312 140.136 309.816C140.79 310.32 141.704 310.572 142.88 310.572C144 310.572 144.962 310.32 145.764 309.816C146.586 309.293 147.183 308.547 147.556 307.576L148.004 308.948C147.631 309.919 146.978 310.693 146.044 311.272C145.13 311.851 143.972 312.14 142.572 312.14ZM159.592 312.14C158.211 312.14 157.147 311.767 156.4 311.02C155.653 310.273 155.28 309.219 155.28 307.856V294.052H157.268V307.744C157.268 308.603 157.483 309.265 157.912 309.732C158.36 310.199 158.995 310.432 159.816 310.432C160.693 310.432 161.421 310.18 162 309.676L162.7 311.104C162.308 311.459 161.832 311.72 161.272 311.888C160.731 312.056 160.171 312.14 159.592 312.14ZM152.648 298.952V297.3H161.748V298.952H152.648ZM173.823 297.16C175.018 297.16 176.063 297.393 176.959 297.86C177.874 298.308 178.583 298.999 179.087 299.932C179.61 300.865 179.871 302.041 179.871 303.46V312H177.883V303.656C177.883 302.107 177.491 300.94 176.707 300.156C175.942 299.353 174.859 298.952 173.459 298.952C172.414 298.952 171.499 299.167 170.715 299.596C169.95 300.007 169.352 300.613 168.923 301.416C168.512 302.2 168.307 303.152 168.307 304.272V312H166.319V291.224H168.307V301.332L167.915 300.576C168.382 299.512 169.128 298.681 170.155 298.084C171.182 297.468 172.404 297.16 173.823 297.16ZM191.485 312.14C189.954 312.14 188.61 311.823 187.453 311.188C186.295 310.535 185.39 309.648 184.737 308.528C184.083 307.389 183.757 306.092 183.757 304.636C183.757 303.18 184.065 301.892 184.681 300.772C185.315 299.652 186.174 298.775 187.257 298.14C188.358 297.487 189.59 297.16 190.953 297.16C192.334 297.16 193.557 297.477 194.621 298.112C195.703 298.728 196.553 299.605 197.169 300.744C197.785 301.864 198.093 303.161 198.093 304.636C198.093 304.729 198.083 304.832 198.065 304.944C198.065 305.037 198.065 305.14 198.065 305.252H185.269V303.768H197.001L196.217 304.356C196.217 303.292 195.983 302.349 195.517 301.528C195.069 300.688 194.453 300.035 193.669 299.568C192.885 299.101 191.979 298.868 190.953 298.868C189.945 298.868 189.039 299.101 188.237 299.568C187.434 300.035 186.809 300.688 186.361 301.528C185.913 302.368 185.689 303.329 185.689 304.412V304.72C185.689 305.84 185.931 306.829 186.417 307.688C186.921 308.528 187.611 309.191 188.489 309.676C189.385 310.143 190.402 310.376 191.541 310.376C192.437 310.376 193.267 310.217 194.033 309.9C194.817 309.583 195.489 309.097 196.049 308.444L197.169 309.732C196.515 310.516 195.694 311.113 194.705 311.524C193.734 311.935 192.661 312.14 191.485 312.14ZM202.139 312V297.3H204.043V301.304L203.847 300.604C204.258 299.484 204.949 298.635 205.919 298.056C206.89 297.459 208.094 297.16 209.531 297.16V299.092C209.457 299.092 209.382 299.092 209.307 299.092C209.233 299.073 209.158 299.064 209.083 299.064C207.534 299.064 206.321 299.54 205.443 300.492C204.566 301.425 204.127 302.76 204.127 304.496V312H202.139ZM213.159 312V291.224H215.147V312H213.159ZM220.79 317.572C220.1 317.572 219.437 317.46 218.802 317.236C218.186 317.012 217.654 316.676 217.206 316.228L218.13 314.744C218.504 315.099 218.905 315.369 219.334 315.556C219.782 315.761 220.277 315.864 220.818 315.864C221.472 315.864 222.032 315.677 222.498 315.304C222.984 314.949 223.441 314.315 223.87 313.4L224.822 311.244L225.046 310.936L231.094 297.3H233.054L225.69 313.764C225.28 314.716 224.822 315.472 224.318 316.032C223.833 316.592 223.301 316.984 222.722 317.208C222.144 317.451 221.5 317.572 220.79 317.572ZM224.71 312.42L217.934 297.3H220.006L225.998 310.796L224.71 312.42ZM243.182 312V297.3H245.17V312H243.182ZM244.19 294.052C243.779 294.052 243.434 293.912 243.154 293.632C242.874 293.352 242.734 293.016 242.734 292.624C242.734 292.232 242.874 291.905 243.154 291.644C243.434 291.364 243.779 291.224 244.19 291.224C244.601 291.224 244.946 291.355 245.226 291.616C245.506 291.877 245.646 292.204 245.646 292.596C245.646 293.007 245.506 293.352 245.226 293.632C244.965 293.912 244.619 294.052 244.19 294.052ZM254.65 312.14C253.436 312.14 252.288 311.972 251.206 311.636C250.123 311.281 249.274 310.843 248.658 310.32L249.554 308.752C250.151 309.2 250.916 309.592 251.85 309.928C252.783 310.245 253.763 310.404 254.79 310.404C256.19 310.404 257.198 310.189 257.814 309.76C258.43 309.312 258.738 308.724 258.738 307.996C258.738 307.455 258.56 307.035 258.206 306.736C257.87 306.419 257.422 306.185 256.862 306.036C256.302 305.868 255.676 305.728 254.986 305.616C254.295 305.504 253.604 305.373 252.914 305.224C252.242 305.075 251.626 304.86 251.066 304.58C250.506 304.281 250.048 303.88 249.694 303.376C249.358 302.872 249.19 302.2 249.19 301.36C249.19 300.557 249.414 299.839 249.862 299.204C250.31 298.569 250.963 298.075 251.822 297.72C252.699 297.347 253.763 297.16 255.014 297.16C255.966 297.16 256.918 297.291 257.87 297.552C258.822 297.795 259.606 298.121 260.222 298.532L259.354 300.128C258.7 299.68 258 299.363 257.254 299.176C256.507 298.971 255.76 298.868 255.014 298.868C253.688 298.868 252.708 299.101 252.074 299.568C251.458 300.016 251.15 300.595 251.15 301.304C251.15 301.864 251.318 302.303 251.654 302.62C252.008 302.937 252.466 303.189 253.026 303.376C253.604 303.544 254.23 303.684 254.902 303.796C255.592 303.908 256.274 304.048 256.946 304.216C257.636 304.365 258.262 304.58 258.822 304.86C259.4 305.121 259.858 305.504 260.194 306.008C260.548 306.493 260.726 307.137 260.726 307.94C260.726 308.799 260.483 309.545 259.998 310.18C259.531 310.796 258.84 311.281 257.926 311.636C257.03 311.972 255.938 312.14 254.65 312.14ZM280.914 312V308.752L280.83 308.22V302.788C280.83 301.537 280.475 300.576 279.766 299.904C279.075 299.232 278.039 298.896 276.658 298.896C275.706 298.896 274.8 299.055 273.942 299.372C273.083 299.689 272.355 300.109 271.758 300.632L270.862 299.148C271.608 298.513 272.504 298.028 273.55 297.692C274.595 297.337 275.696 297.16 276.854 297.16C278.758 297.16 280.223 297.636 281.25 298.588C282.295 299.521 282.818 300.949 282.818 302.872V312H280.914ZM275.846 312.14C274.744 312.14 273.783 311.963 272.962 311.608C272.159 311.235 271.543 310.731 271.114 310.096C270.684 309.443 270.47 308.696 270.47 307.856C270.47 307.091 270.647 306.4 271.002 305.784C271.375 305.149 271.972 304.645 272.794 304.272C273.634 303.88 274.754 303.684 276.154 303.684H281.222V305.168H276.21C274.791 305.168 273.802 305.42 273.242 305.924C272.7 306.428 272.43 307.053 272.43 307.8C272.43 308.64 272.756 309.312 273.41 309.816C274.063 310.32 274.978 310.572 276.154 310.572C277.274 310.572 278.235 310.32 279.038 309.816C279.859 309.293 280.456 308.547 280.83 307.576L281.278 308.948C280.904 309.919 280.251 310.693 279.318 311.272C278.403 311.851 277.246 312.14 275.846 312.14ZM301.397 312.14C299.997 312.14 298.737 311.823 297.617 311.188C296.516 310.553 295.648 309.676 295.013 308.556C294.379 307.417 294.061 306.111 294.061 304.636C294.061 303.143 294.379 301.836 295.013 300.716C295.648 299.596 296.516 298.728 297.617 298.112C298.737 297.477 299.997 297.16 301.397 297.16C302.685 297.16 303.833 297.449 304.841 298.028C305.868 298.607 306.68 299.456 307.277 300.576C307.893 301.677 308.201 303.031 308.201 304.636C308.201 306.223 307.903 307.576 307.305 308.696C306.708 309.816 305.896 310.675 304.869 311.272C303.861 311.851 302.704 312.14 301.397 312.14ZM301.537 310.376C302.583 310.376 303.516 310.143 304.337 309.676C305.177 309.191 305.831 308.519 306.297 307.66C306.783 306.783 307.025 305.775 307.025 304.636C307.025 303.479 306.783 302.471 306.297 301.612C305.831 300.753 305.177 300.091 304.337 299.624C303.516 299.139 302.583 298.896 301.537 298.896C300.511 298.896 299.587 299.139 298.765 299.624C297.944 300.091 297.291 300.753 296.805 301.612C296.32 302.471 296.077 303.479 296.077 304.636C296.077 305.775 296.32 306.783 296.805 307.66C297.291 308.519 297.944 309.191 298.765 309.676C299.587 310.143 300.511 310.376 301.537 310.376ZM307.081 312V307.576L307.277 304.608L306.997 301.64V291.224H308.985V312H307.081ZM320.766 312.14C319.235 312.14 317.891 311.823 316.734 311.188C315.577 310.535 314.671 309.648 314.018 308.528C313.365 307.389 313.038 306.092 313.038 304.636C313.038 303.18 313.346 301.892 313.962 300.772C314.597 299.652 315.455 298.775 316.538 298.14C317.639 297.487 318.871 297.16 320.234 297.16C321.615 297.16 322.838 297.477 323.902 298.112C324.985 298.728 325.834 299.605 326.45 300.744C327.066 301.864 327.374 303.161 327.374 304.636C327.374 304.729 327.365 304.832 327.346 304.944C327.346 305.037 327.346 305.14 327.346 305.252H314.55V303.768H326.282L325.498 304.356C325.498 303.292 325.265 302.349 324.798 301.528C324.35 300.688 323.734 300.035 322.95 299.568C322.166 299.101 321.261 298.868 320.234 298.868C319.226 298.868 318.321 299.101 317.518 299.568C316.715 300.035 316.09 300.688 315.642 301.528C315.194 302.368 314.97 303.329 314.97 304.412V304.72C314.97 305.84 315.213 306.829 315.698 307.688C316.202 308.528 316.893 309.191 317.77 309.676C318.666 310.143 319.683 310.376 320.822 310.376C321.718 310.376 322.549 310.217 323.314 309.9C324.098 309.583 324.77 309.097 325.33 308.444L326.45 309.732C325.797 310.516 324.975 311.113 323.986 311.524C323.015 311.935 321.942 312.14 320.766 312.14ZM337.272 312.14C335.872 312.14 334.612 311.823 333.492 311.188C332.391 310.553 331.523 309.676 330.888 308.556C330.254 307.417 329.936 306.111 329.936 304.636C329.936 303.143 330.254 301.836 330.888 300.716C331.523 299.596 332.391 298.728 333.492 298.112C334.612 297.477 335.872 297.16 337.272 297.16C338.56 297.16 339.708 297.449 340.716 298.028C341.743 298.607 342.555 299.456 343.152 300.576C343.768 301.677 344.076 303.031 344.076 304.636C344.076 306.223 343.778 307.576 343.18 308.696C342.583 309.816 341.771 310.675 340.744 311.272C339.736 311.851 338.579 312.14 337.272 312.14ZM337.412 310.376C338.458 310.376 339.391 310.143 340.212 309.676C341.052 309.191 341.706 308.519 342.172 307.66C342.658 306.783 342.9 305.775 342.9 304.636C342.9 303.479 342.658 302.471 342.172 301.612C341.706 300.753 341.052 300.091 340.212 299.624C339.391 299.139 338.458 298.896 337.412 298.896C336.386 298.896 335.462 299.139 334.64 299.624C333.819 300.091 333.166 300.753 332.68 301.612C332.195 302.471 331.952 303.479 331.952 304.636C331.952 305.775 332.195 306.783 332.68 307.66C333.166 308.519 333.819 309.191 334.64 309.676C335.462 310.143 336.386 310.376 337.412 310.376ZM342.956 312V307.576L343.152 304.608L342.872 301.64V291.224H344.86V312H342.956ZM350.397 312V297.3H352.385V312H350.397ZM351.405 294.052C350.994 294.052 350.649 293.912 350.369 293.632C350.089 293.352 349.949 293.016 349.949 292.624C349.949 292.232 350.089 291.905 350.369 291.644C350.649 291.364 350.994 291.224 351.405 291.224C351.816 291.224 352.161 291.355 352.441 291.616C352.721 291.877 352.861 292.204 352.861 292.596C352.861 293.007 352.721 293.352 352.441 293.632C352.18 293.912 351.834 294.052 351.405 294.052ZM364.021 312.14C362.565 312.14 361.258 311.823 360.101 311.188C358.962 310.535 358.066 309.648 357.413 308.528C356.759 307.389 356.433 306.092 356.433 304.636C356.433 303.161 356.759 301.864 357.413 300.744C358.066 299.624 358.962 298.747 360.101 298.112C361.258 297.477 362.565 297.16 364.021 297.16C365.271 297.16 366.401 297.403 367.409 297.888C368.417 298.373 369.21 299.101 369.789 300.072L368.305 301.08C367.801 300.333 367.175 299.783 366.429 299.428C365.682 299.073 364.87 298.896 363.993 298.896C362.947 298.896 362.005 299.139 361.165 299.624C360.325 300.091 359.662 300.753 359.177 301.612C358.691 302.471 358.449 303.479 358.449 304.636C358.449 305.793 358.691 306.801 359.177 307.66C359.662 308.519 360.325 309.191 361.165 309.676C362.005 310.143 362.947 310.376 363.993 310.376C364.87 310.376 365.682 310.199 366.429 309.844C367.175 309.489 367.801 308.948 368.305 308.22L369.789 309.228C369.21 310.18 368.417 310.908 367.409 311.412C366.401 311.897 365.271 312.14 364.021 312.14ZM382.906 312V308.752L382.822 308.22V302.788C382.822 301.537 382.467 300.576 381.758 299.904C381.067 299.232 380.031 298.896 378.65 298.896C377.698 298.896 376.793 299.055 375.934 299.372C375.075 299.689 374.347 300.109 373.75 300.632L372.854 299.148C373.601 298.513 374.497 298.028 375.542 297.692C376.587 297.337 377.689 297.16 378.846 297.16C380.75 297.16 382.215 297.636 383.242 298.588C384.287 299.521 384.81 300.949 384.81 302.872V312H382.906ZM377.838 312.14C376.737 312.14 375.775 311.963 374.954 311.608C374.151 311.235 373.535 310.731 373.106 310.096C372.677 309.443 372.462 308.696 372.462 307.856C372.462 307.091 372.639 306.4 372.994 305.784C373.367 305.149 373.965 304.645 374.786 304.272C375.626 303.88 376.746 303.684 378.146 303.684H383.214V305.168H378.202C376.783 305.168 375.794 305.42 375.234 305.924C374.693 306.428 374.422 307.053 374.422 307.8C374.422 308.64 374.749 309.312 375.402 309.816C376.055 310.32 376.97 310.572 378.146 310.572C379.266 310.572 380.227 310.32 381.03 309.816C381.851 309.293 382.449 308.547 382.822 307.576L383.27 308.948C382.897 309.919 382.243 310.693 381.31 311.272C380.395 311.851 379.238 312.14 377.838 312.14ZM394.858 312.14C393.476 312.14 392.412 311.767 391.666 311.02C390.919 310.273 390.546 309.219 390.546 307.856V294.052H392.534V307.744C392.534 308.603 392.748 309.265 393.178 309.732C393.626 310.199 394.26 310.432 395.082 310.432C395.959 310.432 396.687 310.18 397.266 309.676L397.966 311.104C397.574 311.459 397.098 311.72 396.538 311.888C395.996 312.056 395.436 312.14 394.858 312.14ZM387.914 298.952V297.3H397.014V298.952H387.914ZM407.309 312.14C405.778 312.14 404.434 311.823 403.277 311.188C402.12 310.535 401.214 309.648 400.561 308.528C399.908 307.389 399.581 306.092 399.581 304.636C399.581 303.18 399.889 301.892 400.505 300.772C401.14 299.652 401.998 298.775 403.081 298.14C404.182 297.487 405.414 297.16 406.777 297.16C408.158 297.16 409.381 297.477 410.445 298.112C411.528 298.728 412.377 299.605 412.993 300.744C413.609 301.864 413.917 303.161 413.917 304.636C413.917 304.729 413.908 304.832 413.889 304.944C413.889 305.037 413.889 305.14 413.889 305.252H401.093V303.768H412.825L412.041 304.356C412.041 303.292 411.808 302.349 411.341 301.528C410.893 300.688 410.277 300.035 409.493 299.568C408.709 299.101 407.804 298.868 406.777 298.868C405.769 298.868 404.864 299.101 404.061 299.568C403.258 300.035 402.633 300.688 402.185 301.528C401.737 302.368 401.513 303.329 401.513 304.412V304.72C401.513 305.84 401.756 306.829 402.241 307.688C402.745 308.528 403.436 309.191 404.313 309.676C405.209 310.143 406.226 310.376 407.365 310.376C408.261 310.376 409.092 310.217 409.857 309.9C410.641 309.583 411.313 309.097 411.873 308.444L412.993 309.732C412.34 310.516 411.518 311.113 410.529 311.524C409.558 311.935 408.485 312.14 407.309 312.14ZM423.815 312.14C422.415 312.14 421.155 311.823 420.035 311.188C418.934 310.553 418.066 309.676 417.431 308.556C416.797 307.417 416.479 306.111 416.479 304.636C416.479 303.143 416.797 301.836 417.431 300.716C418.066 299.596 418.934 298.728 420.035 298.112C421.155 297.477 422.415 297.16 423.815 297.16C425.103 297.16 426.251 297.449 427.259 298.028C428.286 298.607 429.098 299.456 429.695 300.576C430.311 301.677 430.619 303.031 430.619 304.636C430.619 306.223 430.321 307.576 429.723 308.696C429.126 309.816 428.314 310.675 427.287 311.272C426.279 311.851 425.122 312.14 423.815 312.14ZM423.955 310.376C425.001 310.376 425.934 310.143 426.755 309.676C427.595 309.191 428.249 308.519 428.715 307.66C429.201 306.783 429.443 305.775 429.443 304.636C429.443 303.479 429.201 302.471 428.715 301.612C428.249 300.753 427.595 300.091 426.755 299.624C425.934 299.139 425.001 298.896 423.955 298.896C422.929 298.896 422.005 299.139 421.183 299.624C420.362 300.091 419.709 300.753 419.223 301.612C418.738 302.471 418.495 303.479 418.495 304.636C418.495 305.775 418.738 306.783 419.223 307.66C419.709 308.519 420.362 309.191 421.183 309.676C422.005 310.143 422.929 310.376 423.955 310.376ZM429.499 312V307.576L429.695 304.608L429.415 301.64V291.224H431.403V312H429.499ZM450.372 312.14C448.916 312.14 447.609 311.823 446.452 311.188C445.313 310.535 444.417 309.648 443.764 308.528C443.111 307.389 442.784 306.092 442.784 304.636C442.784 303.161 443.111 301.864 443.764 300.744C444.417 299.624 445.313 298.747 446.452 298.112C447.609 297.477 448.916 297.16 450.372 297.16C451.623 297.16 452.752 297.403 453.76 297.888C454.768 298.373 455.561 299.101 456.14 300.072L454.656 301.08C454.152 300.333 453.527 299.783 452.78 299.428C452.033 299.073 451.221 298.896 450.344 298.896C449.299 298.896 448.356 299.139 447.516 299.624C446.676 300.091 446.013 300.753 445.528 301.612C445.043 302.471 444.8 303.479 444.8 304.636C444.8 305.793 445.043 306.801 445.528 307.66C446.013 308.519 446.676 309.191 447.516 309.676C448.356 310.143 449.299 310.376 450.344 310.376C451.221 310.376 452.033 310.199 452.78 309.844C453.527 309.489 454.152 308.948 454.656 308.22L456.14 309.228C455.561 310.18 454.768 310.908 453.76 311.412C452.752 311.897 451.623 312.14 450.372 312.14ZM465.791 312.14C464.373 312.14 463.094 311.823 461.955 311.188C460.835 310.535 459.949 309.648 459.295 308.528C458.642 307.389 458.315 306.092 458.315 304.636C458.315 303.161 458.642 301.864 459.295 300.744C459.949 299.624 460.835 298.747 461.955 298.112C463.075 297.477 464.354 297.16 465.791 297.16C467.247 297.16 468.535 297.477 469.655 298.112C470.794 298.747 471.681 299.624 472.315 300.744C472.969 301.864 473.295 303.161 473.295 304.636C473.295 306.092 472.969 307.389 472.315 308.528C471.681 309.648 470.794 310.535 469.655 311.188C468.517 311.823 467.229 312.14 465.791 312.14ZM465.791 310.376C466.855 310.376 467.798 310.143 468.619 309.676C469.441 309.191 470.085 308.519 470.551 307.66C471.037 306.783 471.279 305.775 471.279 304.636C471.279 303.479 471.037 302.471 470.551 301.612C470.085 300.753 469.441 300.091 468.619 299.624C467.798 299.139 466.865 298.896 465.819 298.896C464.774 298.896 463.841 299.139 463.019 299.624C462.198 300.091 461.545 300.753 461.059 301.612C460.574 302.471 460.331 303.479 460.331 304.636C460.331 305.775 460.574 306.783 461.059 307.66C461.545 308.519 462.198 309.191 463.019 309.676C463.841 310.143 464.765 310.376 465.791 310.376ZM495.722 297.16C496.917 297.16 497.953 297.393 498.83 297.86C499.726 298.308 500.417 298.999 500.902 299.932C501.406 300.865 501.658 302.041 501.658 303.46V312H499.67V303.656C499.67 302.107 499.297 300.94 498.55 300.156C497.822 299.353 496.786 298.952 495.442 298.952C494.434 298.952 493.557 299.167 492.81 299.596C492.082 300.007 491.513 300.613 491.102 301.416C490.71 302.2 490.514 303.152 490.514 304.272V312H488.526V303.656C488.526 302.107 488.153 300.94 487.406 300.156C486.659 299.353 485.614 298.952 484.27 298.952C483.281 298.952 482.413 299.167 481.666 299.596C480.919 300.007 480.341 300.613 479.93 301.416C479.538 302.2 479.342 303.152 479.342 304.272V312H477.354V297.3H479.258V301.276L478.95 300.576C479.398 299.512 480.117 298.681 481.106 298.084C482.114 297.468 483.299 297.16 484.662 297.16C486.099 297.16 487.322 297.524 488.33 298.252C489.338 298.961 489.991 300.035 490.29 301.472L489.506 301.164C489.935 299.969 490.691 299.008 491.774 298.28C492.875 297.533 494.191 297.16 495.722 297.16ZM525.417 297.16C526.612 297.16 527.648 297.393 528.525 297.86C529.421 298.308 530.112 298.999 530.597 299.932C531.101 300.865 531.353 302.041 531.353 303.46V312H529.365V303.656C529.365 302.107 528.992 300.94 528.245 300.156C527.517 299.353 526.481 298.952 525.137 298.952C524.129 298.952 523.252 299.167 522.505 299.596C521.777 300.007 521.208 300.613 520.797 301.416C520.405 302.2 520.209 303.152 520.209 304.272V312H518.221V303.656C518.221 302.107 517.848 300.94 517.101 300.156C516.355 299.353 515.309 298.952 513.965 298.952C512.976 298.952 512.108 299.167 511.361 299.596C510.615 300.007 510.036 300.613 509.625 301.416C509.233 302.2 509.037 303.152 509.037 304.272V312H507.049V297.3H508.953V301.276L508.645 300.576C509.093 299.512 509.812 298.681 510.801 298.084C511.809 297.468 512.995 297.16 514.357 297.16C515.795 297.16 517.017 297.524 518.025 298.252C519.033 298.961 519.687 300.035 519.985 301.472L519.201 301.164C519.631 299.969 520.387 299.008 521.469 298.28C522.571 297.533 523.887 297.16 525.417 297.16ZM542.821 312.14C541.57 312.14 540.478 311.907 539.545 311.44C538.611 310.973 537.883 310.273 537.361 309.34C536.857 308.407 536.605 307.24 536.605 305.84V297.3H538.593V305.616C538.593 307.184 538.975 308.369 539.741 309.172C540.525 309.956 541.617 310.348 543.017 310.348C544.043 310.348 544.93 310.143 545.677 309.732C546.442 309.303 547.021 308.687 547.413 307.884C547.823 307.081 548.029 306.12 548.029 305V297.3H550.017V312H548.113V307.968L548.421 308.696C547.954 309.779 547.226 310.628 546.237 311.244C545.266 311.841 544.127 312.14 542.821 312.14ZM563.061 297.16C564.256 297.16 565.301 297.393 566.197 297.86C567.112 298.308 567.821 298.999 568.325 299.932C568.848 300.865 569.109 302.041 569.109 303.46V312H567.121V303.656C567.121 302.107 566.729 300.94 565.945 300.156C565.18 299.353 564.097 298.952 562.697 298.952C561.652 298.952 560.737 299.167 559.953 299.596C559.188 300.007 558.59 300.613 558.161 301.416C557.75 302.2 557.545 303.152 557.545 304.272V312H555.557V297.3H557.461V301.332L557.153 300.576C557.62 299.512 558.366 298.681 559.393 298.084C560.42 297.468 561.642 297.16 563.061 297.16ZM574.479 312V297.3H576.467V312H574.479ZM575.487 294.052C575.076 294.052 574.731 293.912 574.451 293.632C574.171 293.352 574.031 293.016 574.031 292.624C574.031 292.232 574.171 291.905 574.451 291.644C574.731 291.364 575.076 291.224 575.487 291.224C575.898 291.224 576.243 291.355 576.523 291.616C576.803 291.877 576.943 292.204 576.943 292.596C576.943 293.007 576.803 293.352 576.523 293.632C576.262 293.912 575.916 294.052 575.487 294.052ZM586.647 312.14C585.265 312.14 584.201 311.767 583.455 311.02C582.708 310.273 582.335 309.219 582.335 307.856V294.052H584.323V307.744C584.323 308.603 584.537 309.265 584.967 309.732C585.415 310.199 586.049 310.432 586.871 310.432C587.748 310.432 588.476 310.18 589.055 309.676L589.755 311.104C589.363 311.459 588.887 311.72 588.327 311.888C587.785 312.056 587.225 312.14 586.647 312.14ZM579.703 298.952V297.3H588.803V298.952H579.703ZM593.212 317.572C592.521 317.572 591.859 317.46 591.224 317.236C590.608 317.012 590.076 316.676 589.628 316.228L590.552 314.744C590.925 315.099 591.327 315.369 591.756 315.556C592.204 315.761 592.699 315.864 593.24 315.864C593.893 315.864 594.453 315.677 594.92 315.304C595.405 314.949 595.863 314.315 596.292 313.4L597.244 311.244L597.468 310.936L603.516 297.3H605.476L598.112 313.764C597.701 314.716 597.244 315.472 596.74 316.032C596.255 316.592 595.723 316.984 595.144 317.208C594.565 317.451 593.921 317.572 593.212 317.572ZM597.132 312.42L590.356 297.3H592.428L598.42 310.796L597.132 312.42ZM624.816 312V308.752L624.732 308.22V302.788C624.732 301.537 624.377 300.576 623.668 299.904C622.977 299.232 621.941 298.896 620.56 298.896C619.608 298.896 618.703 299.055 617.844 299.372C616.985 299.689 616.257 300.109 615.66 300.632L614.764 299.148C615.511 298.513 616.407 298.028 617.452 297.692C618.497 297.337 619.599 297.16 620.756 297.16C622.66 297.16 624.125 297.636 625.152 298.588C626.197 299.521 626.72 300.949 626.72 302.872V312H624.816ZM619.748 312.14C618.647 312.14 617.685 311.963 616.864 311.608C616.061 311.235 615.445 310.731 615.016 310.096C614.587 309.443 614.372 308.696 614.372 307.856C614.372 307.091 614.549 306.4 614.904 305.784C615.277 305.149 615.875 304.645 616.696 304.272C617.536 303.88 618.656 303.684 620.056 303.684H625.124V305.168H620.112C618.693 305.168 617.704 305.42 617.144 305.924C616.603 306.428 616.332 307.053 616.332 307.8C616.332 308.64 616.659 309.312 617.312 309.816C617.965 310.32 618.88 310.572 620.056 310.572C621.176 310.572 622.137 310.32 622.94 309.816C623.761 309.293 624.359 308.547 624.732 307.576L625.18 308.948C624.807 309.919 624.153 310.693 623.22 311.272C622.305 311.851 621.148 312.14 619.748 312.14ZM639.708 312.14C638.438 312.14 637.29 311.851 636.264 311.272C635.237 310.675 634.416 309.825 633.8 308.724C633.202 307.604 632.904 306.241 632.904 304.636C632.904 303.031 633.202 301.677 633.8 300.576C634.397 299.456 635.209 298.607 636.236 298.028C637.262 297.449 638.42 297.16 639.708 297.16C641.108 297.16 642.358 297.477 643.46 298.112C644.58 298.728 645.457 299.605 646.092 300.744C646.726 301.864 647.044 303.161 647.044 304.636C647.044 306.129 646.726 307.436 646.092 308.556C645.457 309.676 644.58 310.553 643.46 311.188C642.358 311.823 641.108 312.14 639.708 312.14ZM632.12 317.432V297.3H634.024V301.724L633.828 304.664L634.108 307.632V317.432H632.12ZM639.568 310.376C640.613 310.376 641.546 310.143 642.368 309.676C643.189 309.191 643.842 308.519 644.328 307.66C644.813 306.783 645.056 305.775 645.056 304.636C645.056 303.497 644.813 302.499 644.328 301.64C643.842 300.781 643.189 300.109 642.368 299.624C641.546 299.139 640.613 298.896 639.568 298.896C638.522 298.896 637.58 299.139 636.74 299.624C635.918 300.109 635.265 300.781 634.78 301.64C634.313 302.499 634.08 303.497 634.08 304.636C634.08 305.775 634.313 306.783 634.78 307.66C635.265 308.519 635.918 309.191 636.74 309.676C637.58 310.143 638.522 310.376 639.568 310.376ZM658.684 312.14C657.415 312.14 656.267 311.851 655.24 311.272C654.214 310.675 653.392 309.825 652.776 308.724C652.179 307.604 651.88 306.241 651.88 304.636C651.88 303.031 652.179 301.677 652.776 300.576C653.374 299.456 654.186 298.607 655.212 298.028C656.239 297.449 657.396 297.16 658.684 297.16C660.084 297.16 661.335 297.477 662.436 298.112C663.556 298.728 664.434 299.605 665.068 300.744C665.703 301.864 666.02 303.161 666.02 304.636C666.02 306.129 665.703 307.436 665.068 308.556C664.434 309.676 663.556 310.553 662.436 311.188C661.335 311.823 660.084 312.14 658.684 312.14ZM651.096 317.432V297.3H653V301.724L652.804 304.664L653.084 307.632V317.432H651.096ZM658.544 310.376C659.59 310.376 660.523 310.143 661.344 309.676C662.166 309.191 662.819 308.519 663.304 307.66C663.79 306.783 664.032 305.775 664.032 304.636C664.032 303.497 663.79 302.499 663.304 301.64C662.819 300.781 662.166 300.109 661.344 299.624C660.523 299.139 659.59 298.896 658.544 298.896C657.499 298.896 656.556 299.139 655.716 299.624C654.895 300.109 654.242 300.781 653.756 301.64C653.29 302.499 653.056 303.497 653.056 304.636C653.056 305.775 653.29 306.783 653.756 307.66C654.242 308.519 654.895 309.191 655.716 309.676C656.556 310.143 657.499 310.376 658.544 310.376ZM121.42 346.14C120.039 346.14 118.975 345.767 118.228 345.02C117.481 344.273 117.108 343.219 117.108 341.856V328.052H119.096V341.744C119.096 342.603 119.311 343.265 119.74 343.732C120.188 344.199 120.823 344.432 121.644 344.432C122.521 344.432 123.249 344.18 123.828 343.676L124.528 345.104C124.136 345.459 123.66 345.72 123.1 345.888C122.559 346.056 121.999 346.14 121.42 346.14ZM114.476 332.952V331.3H123.576V332.952H114.476ZM133.619 346.14C132.201 346.14 130.922 345.823 129.783 345.188C128.663 344.535 127.777 343.648 127.123 342.528C126.47 341.389 126.143 340.092 126.143 338.636C126.143 337.161 126.47 335.864 127.123 334.744C127.777 333.624 128.663 332.747 129.783 332.112C130.903 331.477 132.182 331.16 133.619 331.16C135.075 331.16 136.363 331.477 137.483 332.112C138.622 332.747 139.509 333.624 140.143 334.744C140.797 335.864 141.123 337.161 141.123 338.636C141.123 340.092 140.797 341.389 140.143 342.528C139.509 343.648 138.622 344.535 137.483 345.188C136.345 345.823 135.057 346.14 133.619 346.14ZM133.619 344.376C134.683 344.376 135.626 344.143 136.447 343.676C137.269 343.191 137.913 342.519 138.379 341.66C138.865 340.783 139.107 339.775 139.107 338.636C139.107 337.479 138.865 336.471 138.379 335.612C137.913 334.753 137.269 334.091 136.447 333.624C135.626 333.139 134.693 332.896 133.647 332.896C132.602 332.896 131.669 333.139 130.847 333.624C130.026 334.091 129.373 334.753 128.887 335.612C128.402 336.471 128.159 337.479 128.159 338.636C128.159 339.775 128.402 340.783 128.887 341.66C129.373 342.519 130.026 343.191 130.847 343.676C131.669 344.143 132.593 344.376 133.619 344.376ZM160.014 331.16C161.209 331.16 162.254 331.393 163.15 331.86C164.065 332.308 164.774 332.999 165.278 333.932C165.801 334.865 166.062 336.041 166.062 337.46V346H164.074V337.656C164.074 336.107 163.682 334.94 162.898 334.156C162.133 333.353 161.05 332.952 159.65 332.952C158.605 332.952 157.69 333.167 156.906 333.596C156.141 334.007 155.544 334.613 155.114 335.416C154.704 336.2 154.498 337.152 154.498 338.272V346H152.51V325.224H154.498V335.332L154.106 334.576C154.573 333.512 155.32 332.681 156.346 332.084C157.373 331.468 158.596 331.16 160.014 331.16ZM177.676 346.14C176.145 346.14 174.801 345.823 173.644 345.188C172.487 344.535 171.581 343.648 170.928 342.528C170.275 341.389 169.948 340.092 169.948 338.636C169.948 337.18 170.256 335.892 170.872 334.772C171.507 333.652 172.365 332.775 173.448 332.14C174.549 331.487 175.781 331.16 177.144 331.16C178.525 331.16 179.748 331.477 180.812 332.112C181.895 332.728 182.744 333.605 183.36 334.744C183.976 335.864 184.284 337.161 184.284 338.636C184.284 338.729 184.275 338.832 184.256 338.944C184.256 339.037 184.256 339.14 184.256 339.252H171.46V337.768H183.192L182.408 338.356C182.408 337.292 182.175 336.349 181.708 335.528C181.26 334.688 180.644 334.035 179.86 333.568C179.076 333.101 178.171 332.868 177.144 332.868C176.136 332.868 175.231 333.101 174.428 333.568C173.625 334.035 173 334.688 172.552 335.528C172.104 336.368 171.88 337.329 171.88 338.412V338.72C171.88 339.84 172.123 340.829 172.608 341.688C173.112 342.528 173.803 343.191 174.68 343.676C175.576 344.143 176.593 344.376 177.732 344.376C178.628 344.376 179.459 344.217 180.224 343.9C181.008 343.583 181.68 343.097 182.24 342.444L183.36 343.732C182.707 344.516 181.885 345.113 180.896 345.524C179.925 345.935 178.852 346.14 177.676 346.14ZM188.331 346V325.224H190.319V346H188.331ZM203.438 346.14C202.169 346.14 201.021 345.851 199.994 345.272C198.967 344.675 198.146 343.825 197.53 342.724C196.933 341.604 196.634 340.241 196.634 338.636C196.634 337.031 196.933 335.677 197.53 334.576C198.127 333.456 198.939 332.607 199.966 332.028C200.993 331.449 202.15 331.16 203.438 331.16C204.838 331.16 206.089 331.477 207.19 332.112C208.31 332.728 209.187 333.605 209.822 334.744C210.457 335.864 210.774 337.161 210.774 338.636C210.774 340.129 210.457 341.436 209.822 342.556C209.187 343.676 208.31 344.553 207.19 345.188C206.089 345.823 204.838 346.14 203.438 346.14ZM195.85 351.432V331.3H197.754V335.724L197.558 338.664L197.838 341.632V351.432H195.85ZM203.298 344.376C204.343 344.376 205.277 344.143 206.098 343.676C206.919 343.191 207.573 342.519 208.058 341.66C208.543 340.783 208.786 339.775 208.786 338.636C208.786 337.497 208.543 336.499 208.058 335.64C207.573 334.781 206.919 334.109 206.098 333.624C205.277 333.139 204.343 332.896 203.298 332.896C202.253 332.896 201.31 333.139 200.47 333.624C199.649 334.109 198.995 334.781 198.51 335.64C198.043 336.499 197.81 337.497 197.81 338.636C197.81 339.775 198.043 340.783 198.51 341.66C198.995 342.519 199.649 343.191 200.47 343.676C201.31 344.143 202.253 344.376 203.298 344.376ZM229.743 346.14C228.473 346.14 227.325 345.851 226.299 345.272C225.272 344.675 224.451 343.825 223.835 342.724C223.237 341.604 222.939 340.241 222.939 338.636C222.939 337.031 223.237 335.677 223.835 334.576C224.432 333.456 225.244 332.607 226.271 332.028C227.297 331.449 228.455 331.16 229.743 331.16C231.143 331.16 232.393 331.477 233.495 332.112C234.615 332.728 235.492 333.605 236.127 334.744C236.761 335.864 237.079 337.161 237.079 338.636C237.079 340.129 236.761 341.436 236.127 342.556C235.492 343.676 234.615 344.553 233.495 345.188C232.393 345.823 231.143 346.14 229.743 346.14ZM222.155 351.432V331.3H224.059V335.724L223.863 338.664L224.143 341.632V351.432H222.155ZM229.603 344.376C230.648 344.376 231.581 344.143 232.403 343.676C233.224 343.191 233.877 342.519 234.363 341.66C234.848 340.783 235.091 339.775 235.091 338.636C235.091 337.497 234.848 336.499 234.363 335.64C233.877 334.781 233.224 334.109 232.403 333.624C231.581 333.139 230.648 332.896 229.603 332.896C228.557 332.896 227.615 333.139 226.775 333.624C225.953 334.109 225.3 334.781 224.815 335.64C224.348 336.499 224.115 337.497 224.115 338.636C224.115 339.775 224.348 340.783 224.815 341.66C225.3 342.519 225.953 343.191 226.775 343.676C227.615 344.143 228.557 344.376 229.603 344.376ZM247.375 346.14C245.845 346.14 244.501 345.823 243.343 345.188C242.186 344.535 241.281 343.648 240.627 342.528C239.974 341.389 239.647 340.092 239.647 338.636C239.647 337.18 239.955 335.892 240.571 334.772C241.206 333.652 242.065 332.775 243.147 332.14C244.249 331.487 245.481 331.16 246.843 331.16C248.225 331.16 249.447 331.477 250.511 332.112C251.594 332.728 252.443 333.605 253.059 334.744C253.675 335.864 253.983 337.161 253.983 338.636C253.983 338.729 253.974 338.832 253.955 338.944C253.955 339.037 253.955 339.14 253.955 339.252H241.159V337.768H252.891L252.107 338.356C252.107 337.292 251.874 336.349 251.407 335.528C250.959 334.688 250.343 334.035 249.559 333.568C248.775 333.101 247.87 332.868 246.843 332.868C245.835 332.868 244.93 333.101 244.127 333.568C243.325 334.035 242.699 334.688 242.251 335.528C241.803 336.368 241.579 337.329 241.579 338.412V338.72C241.579 339.84 241.822 340.829 242.307 341.688C242.811 342.528 243.502 343.191 244.379 343.676C245.275 344.143 246.293 344.376 247.431 344.376C248.327 344.376 249.158 344.217 249.923 343.9C250.707 343.583 251.379 343.097 251.939 342.444L253.059 343.732C252.406 344.516 251.585 345.113 250.595 345.524C249.625 345.935 248.551 346.14 247.375 346.14ZM264.022 346.14C262.603 346.14 261.324 345.823 260.186 345.188C259.066 344.535 258.179 343.648 257.526 342.528C256.872 341.389 256.546 340.092 256.546 338.636C256.546 337.161 256.872 335.864 257.526 334.744C258.179 333.624 259.066 332.747 260.186 332.112C261.306 331.477 262.584 331.16 264.022 331.16C265.478 331.16 266.766 331.477 267.886 332.112C269.024 332.747 269.911 333.624 270.546 334.744C271.199 335.864 271.526 337.161 271.526 338.636C271.526 340.092 271.199 341.389 270.546 342.528C269.911 343.648 269.024 344.535 267.886 345.188C266.747 345.823 265.459 346.14 264.022 346.14ZM264.022 344.376C265.086 344.376 266.028 344.143 266.85 343.676C267.671 343.191 268.315 342.519 268.782 341.66C269.267 340.783 269.51 339.775 269.51 338.636C269.51 337.479 269.267 336.471 268.782 335.612C268.315 334.753 267.671 334.091 266.85 333.624C266.028 333.139 265.095 332.896 264.05 332.896C263.004 332.896 262.071 333.139 261.25 333.624C260.428 334.091 259.775 334.753 259.29 335.612C258.804 336.471 258.562 337.479 258.562 338.636C258.562 339.775 258.804 340.783 259.29 341.66C259.775 342.519 260.428 343.191 261.25 343.676C262.071 344.143 262.995 344.376 264.022 344.376ZM283.173 346.14C281.903 346.14 280.755 345.851 279.729 345.272C278.702 344.675 277.881 343.825 277.265 342.724C276.667 341.604 276.369 340.241 276.369 338.636C276.369 337.031 276.667 335.677 277.265 334.576C277.862 333.456 278.674 332.607 279.701 332.028C280.727 331.449 281.885 331.16 283.173 331.16C284.573 331.16 285.823 331.477 286.925 332.112C288.045 332.728 288.922 333.605 289.557 334.744C290.191 335.864 290.509 337.161 290.509 338.636C290.509 340.129 290.191 341.436 289.557 342.556C288.922 343.676 288.045 344.553 286.925 345.188C285.823 345.823 284.573 346.14 283.173 346.14ZM275.585 351.432V331.3H277.489V335.724L277.293 338.664L277.573 341.632V351.432H275.585ZM283.033 344.376C284.078 344.376 285.011 344.143 285.833 343.676C286.654 343.191 287.307 342.519 287.793 341.66C288.278 340.783 288.521 339.775 288.521 338.636C288.521 337.497 288.278 336.499 287.793 335.64C287.307 334.781 286.654 334.109 285.833 333.624C285.011 333.139 284.078 332.896 283.033 332.896C281.987 332.896 281.045 333.139 280.204 333.624C279.383 334.109 278.73 334.781 278.245 335.64C277.778 336.499 277.545 337.497 277.545 338.636C277.545 339.775 277.778 340.783 278.245 341.66C278.73 342.519 279.383 343.191 280.204 343.676C281.045 344.143 281.987 344.376 283.033 344.376ZM294.561 346V325.224H296.549V346H294.561ZM308.325 346.14C306.794 346.14 305.45 345.823 304.293 345.188C303.135 344.535 302.23 343.648 301.577 342.528C300.923 341.389 300.597 340.092 300.597 338.636C300.597 337.18 300.905 335.892 301.521 334.772C302.155 333.652 303.014 332.775 304.097 332.14C305.198 331.487 306.43 331.16 307.793 331.16C309.174 331.16 310.397 331.477 311.461 332.112C312.543 332.728 313.393 333.605 314.009 334.744C314.625 335.864 314.933 337.161 314.933 338.636C314.933 338.729 314.923 338.832 314.905 338.944C314.905 339.037 314.905 339.14 314.905 339.252H302.109V337.768H313.841L313.057 338.356C313.057 337.292 312.823 336.349 312.357 335.528C311.909 334.688 311.293 334.035 310.509 333.568C309.725 333.101 308.819 332.868 307.793 332.868C306.785 332.868 305.879 333.101 305.077 333.568C304.274 334.035 303.649 334.688 303.201 335.528C302.753 336.368 302.529 337.329 302.529 338.412V338.72C302.529 339.84 302.771 340.829 303.257 341.688C303.761 342.528 304.451 343.191 305.329 343.676C306.225 344.143 307.242 344.376 308.381 344.376C309.277 344.376 310.107 344.217 310.873 343.9C311.657 343.583 312.329 343.097 312.889 342.444L314.009 343.732C313.355 344.516 312.534 345.113 311.545 345.524C310.574 345.935 309.501 346.14 308.325 346.14ZM330.955 346.14C329.574 346.14 328.51 345.767 327.763 345.02C327.016 344.273 326.643 343.219 326.643 341.856V328.052H328.631V341.744C328.631 342.603 328.846 343.265 329.275 343.732C329.723 344.199 330.358 344.432 331.179 344.432C332.056 344.432 332.784 344.18 333.363 343.676L334.063 345.104C333.671 345.459 333.195 345.72 332.635 345.888C332.094 346.056 331.534 346.14 330.955 346.14ZM324.011 332.952V331.3H333.111V332.952H324.011ZM343.155 346.14C341.736 346.14 340.457 345.823 339.319 345.188C338.199 344.535 337.312 343.648 336.659 342.528C336.005 341.389 335.679 340.092 335.679 338.636C335.679 337.161 336.005 335.864 336.659 334.744C337.312 333.624 338.199 332.747 339.319 332.112C340.439 331.477 341.717 331.16 343.155 331.16C344.611 331.16 345.899 331.477 347.019 332.112C348.157 332.747 349.044 333.624 349.679 334.744C350.332 335.864 350.659 337.161 350.659 338.636C350.659 340.092 350.332 341.389 349.679 342.528C349.044 343.648 348.157 344.535 347.019 345.188C345.88 345.823 344.592 346.14 343.155 346.14ZM343.155 344.376C344.219 344.376 345.161 344.143 345.983 343.676C346.804 343.191 347.448 342.519 347.915 341.66C348.4 340.783 348.643 339.775 348.643 338.636C348.643 337.479 348.4 336.471 347.915 335.612C347.448 334.753 346.804 334.091 345.983 333.624C345.161 333.139 344.228 332.896 343.183 332.896C342.137 332.896 341.204 333.139 340.383 333.624C339.561 334.091 338.908 334.753 338.423 335.612C337.937 336.471 337.695 337.479 337.695 338.636C337.695 339.775 337.937 340.783 338.423 341.66C338.908 342.519 339.561 343.191 340.383 343.676C341.204 344.143 342.128 344.376 343.155 344.376ZM368.149 346.14C366.693 346.14 365.387 345.823 364.229 345.188C363.091 344.535 362.195 343.648 361.541 342.528C360.888 341.389 360.561 340.092 360.561 338.636C360.561 337.161 360.888 335.864 361.541 334.744C362.195 333.624 363.091 332.747 364.229 332.112C365.387 331.477 366.693 331.16 368.149 331.16C369.4 331.16 370.529 331.403 371.537 331.888C372.545 332.373 373.339 333.101 373.917 334.072L372.433 335.08C371.929 334.333 371.304 333.783 370.557 333.428C369.811 333.073 368.999 332.896 368.121 332.896C367.076 332.896 366.133 333.139 365.293 333.624C364.453 334.091 363.791 334.753 363.305 335.612C362.82 336.471 362.577 337.479 362.577 338.636C362.577 339.793 362.82 340.801 363.305 341.66C363.791 342.519 364.453 343.191 365.293 343.676C366.133 344.143 367.076 344.376 368.121 344.376C368.999 344.376 369.811 344.199 370.557 343.844C371.304 343.489 371.929 342.948 372.433 342.22L373.917 343.228C373.339 344.18 372.545 344.908 371.537 345.412C370.529 345.897 369.4 346.14 368.149 346.14ZM383.569 346.14C382.15 346.14 380.871 345.823 379.733 345.188C378.613 344.535 377.726 343.648 377.073 342.528C376.419 341.389 376.093 340.092 376.093 338.636C376.093 337.161 376.419 335.864 377.073 334.744C377.726 333.624 378.613 332.747 379.733 332.112C380.853 331.477 382.131 331.16 383.569 331.16C385.025 331.16 386.313 331.477 387.433 332.112C388.571 332.747 389.458 333.624 390.093 334.744C390.746 335.864 391.073 337.161 391.073 338.636C391.073 340.092 390.746 341.389 390.093 342.528C389.458 343.648 388.571 344.535 387.433 345.188C386.294 345.823 385.006 346.14 383.569 346.14ZM383.569 344.376C384.633 344.376 385.575 344.143 386.397 343.676C387.218 343.191 387.862 342.519 388.329 341.66C388.814 340.783 389.057 339.775 389.057 338.636C389.057 337.479 388.814 336.471 388.329 335.612C387.862 334.753 387.218 334.091 386.397 333.624C385.575 333.139 384.642 332.896 383.597 332.896C382.551 332.896 381.618 333.139 380.797 333.624C379.975 334.091 379.322 334.753 378.837 335.612C378.351 336.471 378.109 337.479 378.109 338.636C378.109 339.775 378.351 340.783 378.837 341.66C379.322 342.519 379.975 343.191 380.797 343.676C381.618 344.143 382.542 344.376 383.569 344.376ZM402.635 331.16C403.83 331.16 404.875 331.393 405.771 331.86C406.686 332.308 407.395 332.999 407.899 333.932C408.422 334.865 408.683 336.041 408.683 337.46V346H406.695V337.656C406.695 336.107 406.303 334.94 405.519 334.156C404.754 333.353 403.671 332.952 402.271 332.952C401.226 332.952 400.311 333.167 399.527 333.596C398.762 334.007 398.165 334.613 397.735 335.416C397.325 336.2 397.119 337.152 397.119 338.272V346H395.131V331.3H397.035V335.332L396.727 334.576C397.194 333.512 397.941 332.681 398.967 332.084C399.994 331.468 401.217 331.16 402.635 331.16ZM421.557 331.16C422.752 331.16 423.797 331.393 424.693 331.86C425.608 332.308 426.317 332.999 426.821 333.932C427.344 334.865 427.605 336.041 427.605 337.46V346H425.617V337.656C425.617 336.107 425.225 334.94 424.441 334.156C423.676 333.353 422.593 332.952 421.193 332.952C420.148 332.952 419.233 333.167 418.449 333.596C417.684 334.007 417.087 334.613 416.657 335.416C416.247 336.2 416.041 337.152 416.041 338.272V346H414.053V331.3H415.957V335.332L415.649 334.576C416.116 333.512 416.863 332.681 417.889 332.084C418.916 331.468 420.139 331.16 421.557 331.16ZM439.219 346.14C437.688 346.14 436.344 345.823 435.187 345.188C434.03 344.535 433.124 343.648 432.471 342.528C431.818 341.389 431.491 340.092 431.491 338.636C431.491 337.18 431.799 335.892 432.415 334.772C433.05 333.652 433.908 332.775 434.991 332.14C436.092 331.487 437.324 331.16 438.687 331.16C440.068 331.16 441.291 331.477 442.355 332.112C443.438 332.728 444.287 333.605 444.903 334.744C445.519 335.864 445.827 337.161 445.827 338.636C445.827 338.729 445.818 338.832 445.799 338.944C445.799 339.037 445.799 339.14 445.799 339.252H433.003V337.768H444.735L443.951 338.356C443.951 337.292 443.718 336.349 443.251 335.528C442.803 334.688 442.187 334.035 441.403 333.568C440.619 333.101 439.714 332.868 438.687 332.868C437.679 332.868 436.774 333.101 435.971 333.568C435.168 334.035 434.543 334.688 434.095 335.528C433.647 336.368 433.423 337.329 433.423 338.412V338.72C433.423 339.84 433.666 340.829 434.151 341.688C434.655 342.528 435.346 343.191 436.223 343.676C437.119 344.143 438.136 344.376 439.275 344.376C440.171 344.376 441.002 344.217 441.767 343.9C442.551 343.583 443.223 343.097 443.783 342.444L444.903 343.732C444.25 344.516 443.428 345.113 442.439 345.524C441.468 345.935 440.395 346.14 439.219 346.14ZM455.978 346.14C454.522 346.14 453.215 345.823 452.058 345.188C450.919 344.535 450.023 343.648 449.37 342.528C448.716 341.389 448.39 340.092 448.39 338.636C448.39 337.161 448.716 335.864 449.37 334.744C450.023 333.624 450.919 332.747 452.058 332.112C453.215 331.477 454.522 331.16 455.978 331.16C457.228 331.16 458.358 331.403 459.366 331.888C460.374 332.373 461.167 333.101 461.746 334.072L460.262 335.08C459.758 334.333 459.132 333.783 458.386 333.428C457.639 333.073 456.827 332.896 455.95 332.896C454.904 332.896 453.962 333.139 453.122 333.624C452.282 334.091 451.619 334.753 451.134 335.612C450.648 336.471 450.406 337.479 450.406 338.636C450.406 339.793 450.648 340.801 451.134 341.66C451.619 342.519 452.282 343.191 453.122 343.676C453.962 344.143 454.904 344.376 455.95 344.376C456.827 344.376 457.639 344.199 458.386 343.844C459.132 343.489 459.758 342.948 460.262 342.22L461.746 343.228C461.167 344.18 460.374 344.908 459.366 345.412C458.358 345.897 457.228 346.14 455.978 346.14ZM470.463 346.14C469.082 346.14 468.018 345.767 467.271 345.02C466.524 344.273 466.151 343.219 466.151 341.856V328.052H468.139V341.744C468.139 342.603 468.354 343.265 468.783 343.732C469.231 344.199 469.866 344.432 470.687 344.432C471.564 344.432 472.292 344.18 472.871 343.676L473.571 345.104C473.179 345.459 472.703 345.72 472.143 345.888C471.602 346.056 471.042 346.14 470.463 346.14ZM463.519 332.952V331.3H472.619V332.952H463.519ZM493.73 346V342.752L493.646 342.22V336.788C493.646 335.537 493.291 334.576 492.582 333.904C491.891 333.232 490.855 332.896 489.474 332.896C488.522 332.896 487.617 333.055 486.758 333.372C485.899 333.689 485.171 334.109 484.574 334.632L483.678 333.148C484.425 332.513 485.321 332.028 486.366 331.692C487.411 331.337 488.513 331.16 489.67 331.16C491.574 331.16 493.039 331.636 494.066 332.588C495.111 333.521 495.634 334.949 495.634 336.872V346H493.73ZM488.662 346.14C487.561 346.14 486.599 345.963 485.778 345.608C484.975 345.235 484.359 344.731 483.93 344.096C483.501 343.443 483.286 342.696 483.286 341.856C483.286 341.091 483.463 340.4 483.818 339.784C484.191 339.149 484.789 338.645 485.61 338.272C486.45 337.88 487.57 337.684 488.97 337.684H494.038V339.168H489.026C487.607 339.168 486.618 339.42 486.058 339.924C485.517 340.428 485.246 341.053 485.246 341.8C485.246 342.64 485.573 343.312 486.226 343.816C486.879 344.32 487.794 344.572 488.97 344.572C490.09 344.572 491.051 344.32 491.854 343.816C492.675 343.293 493.273 342.547 493.646 341.576L494.094 342.948C493.721 343.919 493.067 344.693 492.134 345.272C491.219 345.851 490.062 346.14 488.662 346.14ZM508.538 331.16C509.732 331.16 510.778 331.393 511.674 331.86C512.588 332.308 513.298 332.999 513.802 333.932C514.324 334.865 514.586 336.041 514.586 337.46V346H512.598V337.656C512.598 336.107 512.206 334.94 511.422 334.156C510.656 333.353 509.574 332.952 508.174 332.952C507.128 332.952 506.214 333.167 505.43 333.596C504.664 334.007 504.067 334.613 503.638 335.416C503.227 336.2 503.022 337.152 503.022 338.272V346H501.034V331.3H502.938V335.332L502.63 334.576C503.096 333.512 503.843 332.681 504.87 332.084C505.896 331.468 507.119 331.16 508.538 331.16ZM525.808 346.14C524.408 346.14 523.148 345.823 522.028 345.188C520.926 344.553 520.058 343.676 519.424 342.556C518.789 341.417 518.472 340.111 518.472 338.636C518.472 337.143 518.789 335.836 519.424 334.716C520.058 333.596 520.926 332.728 522.028 332.112C523.148 331.477 524.408 331.16 525.808 331.16C527.096 331.16 528.244 331.449 529.252 332.028C530.278 332.607 531.09 333.456 531.688 334.576C532.304 335.677 532.612 337.031 532.612 338.636C532.612 340.223 532.313 341.576 531.716 342.696C531.118 343.816 530.306 344.675 529.28 345.272C528.272 345.851 527.114 346.14 525.808 346.14ZM525.948 344.376C526.993 344.376 527.926 344.143 528.748 343.676C529.588 343.191 530.241 342.519 530.708 341.66C531.193 340.783 531.436 339.775 531.436 338.636C531.436 337.479 531.193 336.471 530.708 335.612C530.241 334.753 529.588 334.091 528.748 333.624C527.926 333.139 526.993 332.896 525.948 332.896C524.921 332.896 523.997 333.139 523.176 333.624C522.354 334.091 521.701 334.753 521.216 335.612C520.73 336.471 520.488 337.479 520.488 338.636C520.488 339.775 520.73 340.783 521.216 341.66C521.701 342.519 522.354 343.191 523.176 343.676C523.997 344.143 524.921 344.376 525.948 344.376ZM531.492 346V341.576L531.688 338.608L531.408 335.64V325.224H533.396V346H531.492ZM553.764 331.16C554.959 331.16 556.004 331.393 556.9 331.86C557.815 332.308 558.524 332.999 559.028 333.932C559.551 334.865 559.812 336.041 559.812 337.46V346H557.824V337.656C557.824 336.107 557.432 334.94 556.648 334.156C555.883 333.353 554.8 332.952 553.4 332.952C552.355 332.952 551.44 333.167 550.656 333.596C549.891 334.007 549.294 334.613 548.864 335.416C548.454 336.2 548.248 337.152 548.248 338.272V346H546.26V331.3H548.164V335.332L547.856 334.576C548.323 333.512 549.07 332.681 550.096 332.084C551.123 331.468 552.346 331.16 553.764 331.16ZM571.426 346.14C569.895 346.14 568.551 345.823 567.394 345.188C566.237 344.535 565.331 343.648 564.678 342.528C564.025 341.389 563.698 340.092 563.698 338.636C563.698 337.18 564.006 335.892 564.622 334.772C565.257 333.652 566.115 332.775 567.198 332.14C568.299 331.487 569.531 331.16 570.894 331.16C572.275 331.16 573.498 331.477 574.562 332.112C575.645 332.728 576.494 333.605 577.11 334.744C577.726 335.864 578.034 337.161 578.034 338.636C578.034 338.729 578.025 338.832 578.006 338.944C578.006 339.037 578.006 339.14 578.006 339.252H565.21V337.768H576.942L576.158 338.356C576.158 337.292 575.925 336.349 575.458 335.528C575.01 334.688 574.394 334.035 573.61 333.568C572.826 333.101 571.921 332.868 570.894 332.868C569.886 332.868 568.981 333.101 568.178 333.568C567.375 334.035 566.75 334.688 566.302 335.528C565.854 336.368 565.63 337.329 565.63 338.412V338.72C565.63 339.84 565.873 340.829 566.358 341.688C566.862 342.528 567.553 343.191 568.43 343.676C569.326 344.143 570.343 344.376 571.482 344.376C572.378 344.376 573.209 344.217 573.974 343.9C574.758 343.583 575.43 343.097 575.99 342.444L577.11 343.732C576.457 344.516 575.635 345.113 574.646 345.524C573.675 345.935 572.602 346.14 571.426 346.14ZM586.729 346.14C585.347 346.14 584.283 345.767 583.537 345.02C582.79 344.273 582.417 343.219 582.417 341.856V328.052H584.405V341.744C584.405 342.603 584.619 343.265 585.049 343.732C585.497 344.199 586.131 344.432 586.953 344.432C587.83 344.432 588.558 344.18 589.137 343.676L589.837 345.104C589.445 345.459 588.969 345.72 588.409 345.888C587.867 346.056 587.307 346.14 586.729 346.14ZM579.785 332.952V331.3H588.885V332.952H579.785ZM596.178 346L590.634 331.3H592.538L597.578 344.936H596.71L601.89 331.3H603.598L608.722 344.936H607.854L612.978 331.3H614.798L609.226 346H607.35L602.422 333.176H603.01L598.054 346H596.178ZM623.373 346.14C621.955 346.14 620.676 345.823 619.537 345.188C618.417 344.535 617.531 343.648 616.877 342.528C616.224 341.389 615.897 340.092 615.897 338.636C615.897 337.161 616.224 335.864 616.877 334.744C617.531 333.624 618.417 332.747 619.537 332.112C620.657 331.477 621.936 331.16 623.373 331.16C624.829 331.16 626.117 331.477 627.237 332.112C628.376 332.747 629.263 333.624 629.897 334.744C630.551 335.864 630.877 337.161 630.877 338.636C630.877 340.092 630.551 341.389 629.897 342.528C629.263 343.648 628.376 344.535 627.237 345.188C626.099 345.823 624.811 346.14 623.373 346.14ZM623.373 344.376C624.437 344.376 625.38 344.143 626.201 343.676C627.023 343.191 627.667 342.519 628.133 341.66C628.619 340.783 628.861 339.775 628.861 338.636C628.861 337.479 628.619 336.471 628.133 335.612C627.667 334.753 627.023 334.091 626.201 333.624C625.38 333.139 624.447 332.896 623.401 332.896C622.356 332.896 621.423 333.139 620.601 333.624C619.78 334.091 619.127 334.753 618.641 335.612C618.156 336.471 617.913 337.479 617.913 338.636C617.913 339.775 618.156 340.783 618.641 341.66C619.127 342.519 619.78 343.191 620.601 343.676C621.423 344.143 622.347 344.376 623.373 344.376ZM634.936 346V331.3H636.84V335.304L636.644 334.604C637.055 333.484 637.745 332.635 638.716 332.056C639.687 331.459 640.891 331.16 642.328 331.16V333.092C642.253 333.092 642.179 333.092 642.104 333.092C642.029 333.073 641.955 333.064 641.88 333.064C640.331 333.064 639.117 333.54 638.24 334.492C637.363 335.425 636.924 336.76 636.924 338.496V346H634.936ZM647.524 342.192L647.58 339.644L656.736 331.3H659.172L652.704 337.488L651.584 338.44L647.524 342.192ZM645.956 346V325.224H647.944V346H645.956ZM657.352 346L651.22 338.356L652.508 336.816L659.788 346H657.352ZM673.096 346L667.552 331.3H669.456L674.496 344.936H673.628L678.808 331.3H680.516L685.64 344.936H684.772L689.896 331.3H691.716L686.144 346H684.268L679.34 333.176H679.928L674.972 346H673.096ZM694.71 346V331.3H696.698V346H694.71ZM695.718 328.052C695.307 328.052 694.962 327.912 694.682 327.632C694.402 327.352 694.262 327.016 694.262 326.624C694.262 326.232 694.402 325.905 694.682 325.644C694.962 325.364 695.307 325.224 695.718 325.224C696.128 325.224 696.474 325.355 696.754 325.616C697.034 325.877 697.174 326.204 697.174 326.596C697.174 327.007 697.034 327.352 696.754 327.632C696.492 327.912 696.147 328.052 695.718 328.052ZM706.877 346.14C705.496 346.14 704.432 345.767 703.685 345.02C702.938 344.273 702.565 343.219 702.565 341.856V328.052H704.553V341.744C704.553 342.603 704.768 343.265 705.197 343.732C705.645 344.199 706.28 344.432 707.101 344.432C707.978 344.432 708.706 344.18 709.285 343.676L709.985 345.104C709.593 345.459 709.117 345.72 708.557 345.888C708.016 346.056 707.456 346.14 706.877 346.14ZM699.933 332.952V331.3H709.033V332.952H699.933ZM721.108 331.16C722.303 331.16 723.348 331.393 724.244 331.86C725.159 332.308 725.868 332.999 726.372 333.932C726.895 334.865 727.156 336.041 727.156 337.46V346H725.168V337.656C725.168 336.107 724.776 334.94 723.992 334.156C723.227 333.353 722.144 332.952 720.744 332.952C719.699 332.952 718.784 333.167 718 333.596C717.235 334.007 716.637 334.613 716.208 335.416C715.797 336.2 715.592 337.152 715.592 338.272V346H713.604V325.224H715.592V335.332L715.2 334.576C715.667 333.512 716.413 332.681 717.44 332.084C718.467 331.468 719.689 331.16 721.108 331.16ZM122.764 380.14C121.345 380.14 120.067 379.823 118.928 379.188C117.808 378.535 116.921 377.648 116.268 376.528C115.615 375.389 115.288 374.092 115.288 372.636C115.288 371.161 115.615 369.864 116.268 368.744C116.921 367.624 117.808 366.747 118.928 366.112C120.048 365.477 121.327 365.16 122.764 365.16C124.22 365.16 125.508 365.477 126.628 366.112C127.767 366.747 128.653 367.624 129.288 368.744C129.941 369.864 130.268 371.161 130.268 372.636C130.268 374.092 129.941 375.389 129.288 376.528C128.653 377.648 127.767 378.535 126.628 379.188C125.489 379.823 124.201 380.14 122.764 380.14ZM122.764 378.376C123.828 378.376 124.771 378.143 125.592 377.676C126.413 377.191 127.057 376.519 127.524 375.66C128.009 374.783 128.252 373.775 128.252 372.636C128.252 371.479 128.009 370.471 127.524 369.612C127.057 368.753 126.413 368.091 125.592 367.624C124.771 367.139 123.837 366.896 122.792 366.896C121.747 366.896 120.813 367.139 119.992 367.624C119.171 368.091 118.517 368.753 118.032 369.612C117.547 370.471 117.304 371.479 117.304 372.636C117.304 373.775 117.547 374.783 118.032 375.66C118.517 376.519 119.171 377.191 119.992 377.676C120.813 378.143 121.737 378.376 122.764 378.376ZM138.975 380.14C137.593 380.14 136.529 379.767 135.783 379.02C135.036 378.273 134.663 377.219 134.663 375.856V362.052H136.651V375.744C136.651 376.603 136.865 377.265 137.295 377.732C137.743 378.199 138.377 378.432 139.199 378.432C140.076 378.432 140.804 378.18 141.383 377.676L142.083 379.104C141.691 379.459 141.215 379.72 140.655 379.888C140.113 380.056 139.553 380.14 138.975 380.14ZM132.031 366.952V365.3H141.131V366.952H132.031ZM153.206 365.16C154.4 365.16 155.446 365.393 156.342 365.86C157.256 366.308 157.966 366.999 158.47 367.932C158.992 368.865 159.254 370.041 159.254 371.46V380H157.266V371.656C157.266 370.107 156.874 368.94 156.09 368.156C155.324 367.353 154.242 366.952 152.842 366.952C151.796 366.952 150.882 367.167 150.098 367.596C149.332 368.007 148.735 368.613 148.306 369.416C147.895 370.2 147.69 371.152 147.69 372.272V380H145.702V359.224H147.69V369.332L147.298 368.576C147.764 367.512 148.511 366.681 149.538 366.084C150.564 365.468 151.787 365.16 153.206 365.16ZM170.868 380.14C169.337 380.14 167.993 379.823 166.836 379.188C165.678 378.535 164.773 377.648 164.12 376.528C163.466 375.389 163.14 374.092 163.14 372.636C163.14 371.18 163.448 369.892 164.064 368.772C164.698 367.652 165.557 366.775 166.64 366.14C167.741 365.487 168.973 365.16 170.336 365.16C171.717 365.16 172.94 365.477 174.004 366.112C175.086 366.728 175.936 367.605 176.552 368.744C177.168 369.864 177.476 371.161 177.476 372.636C177.476 372.729 177.466 372.832 177.448 372.944C177.448 373.037 177.448 373.14 177.448 373.252H164.652V371.768H176.384L175.6 372.356C175.6 371.292 175.366 370.349 174.9 369.528C174.452 368.688 173.836 368.035 173.052 367.568C172.268 367.101 171.362 366.868 170.336 366.868C169.328 366.868 168.422 367.101 167.62 367.568C166.817 368.035 166.192 368.688 165.744 369.528C165.296 370.368 165.072 371.329 165.072 372.412V372.72C165.072 373.84 165.314 374.829 165.8 375.688C166.304 376.528 166.994 377.191 167.872 377.676C168.768 378.143 169.785 378.376 170.924 378.376C171.82 378.376 172.65 378.217 173.416 377.9C174.2 377.583 174.872 377.097 175.432 376.444L176.552 377.732C175.898 378.516 175.077 379.113 174.088 379.524C173.117 379.935 172.044 380.14 170.868 380.14ZM181.522 380V365.3H183.426V369.304L183.23 368.604C183.641 367.484 184.331 366.635 185.302 366.056C186.273 365.459 187.477 365.16 188.914 365.16V367.092C188.839 367.092 188.765 367.092 188.69 367.092C188.615 367.073 188.541 367.064 188.466 367.064C186.917 367.064 185.703 367.54 184.826 368.492C183.949 369.425 183.51 370.76 183.51 372.496V380H181.522ZM196.654 380.14C195.44 380.14 194.292 379.972 193.21 379.636C192.127 379.281 191.278 378.843 190.662 378.32L191.558 376.752C192.155 377.2 192.92 377.592 193.854 377.928C194.787 378.245 195.767 378.404 196.794 378.404C198.194 378.404 199.202 378.189 199.818 377.76C200.434 377.312 200.742 376.724 200.742 375.996C200.742 375.455 200.564 375.035 200.21 374.736C199.874 374.419 199.426 374.185 198.866 374.036C198.306 373.868 197.68 373.728 196.99 373.616C196.299 373.504 195.608 373.373 194.918 373.224C194.246 373.075 193.63 372.86 193.07 372.58C192.51 372.281 192.052 371.88 191.698 371.376C191.362 370.872 191.194 370.2 191.194 369.36C191.194 368.557 191.418 367.839 191.866 367.204C192.314 366.569 192.967 366.075 193.826 365.72C194.703 365.347 195.767 365.16 197.018 365.16C197.97 365.16 198.922 365.291 199.874 365.552C200.826 365.795 201.61 366.121 202.226 366.532L201.358 368.128C200.704 367.68 200.004 367.363 199.258 367.176C198.511 366.971 197.764 366.868 197.018 366.868C195.692 366.868 194.712 367.101 194.078 367.568C193.462 368.016 193.154 368.595 193.154 369.304C193.154 369.864 193.322 370.303 193.658 370.62C194.012 370.937 194.47 371.189 195.03 371.376C195.608 371.544 196.234 371.684 196.906 371.796C197.596 371.908 198.278 372.048 198.95 372.216C199.64 372.365 200.266 372.58 200.826 372.86C201.404 373.121 201.862 373.504 202.198 374.008C202.552 374.493 202.73 375.137 202.73 375.94C202.73 376.799 202.487 377.545 202.002 378.18C201.535 378.796 200.844 379.281 199.93 379.636C199.034 379.972 197.942 380.14 196.654 380.14Z" fill="#282729"/>
<path d="M1206 262.5C1206 345.067 1133.11 412 1043.19 412C1005.92 412 926.17 407.428 898.73 388.09C859.955 360.763 880.371 310.851 880.371 262.5C880.371 179.933 953.266 113 1043.19 113C1087.34 113 1083.91 178.996 1113.24 205.202C1143.64 232.362 1206 220.478 1206 262.5Z" fill="#0072BB"/>
<path d="M1042.96 402.665L1020.71 396.989L976.576 285.139L994.673 279.311C1026.66 272.789 1041.68 327.32 1042.96 402.665Z" fill="#5F00BA"/>
<path d="M1154.04 231.932C1154.04 209.438 1155.68 205.235 1145.96 188.59L1045.76 229.189C1047.29 245.802 1045.06 255.799 1036.07 274.726L1124.41 278.566C1147.58 260.461 1151.89 252.232 1154.04 231.932Z" fill="#0D044F"/>
<path d="M1137.76 222.15C1133.83 221.523 1123.97 222.15 1123.97 222.15V242.237C1123.97 242.237 1134.49 243.493 1137.76 242.237C1141.03 240.982 1143.9 239.018 1144.95 234.837C1145.21 228.531 1141.69 222.778 1137.76 222.15Z" fill="#6153CC"/>
<rect width="32.7213" height="49.4567" transform="matrix(-1 0 0 1 1104.84 244.697)" fill="#FFD23F"/>
<path d="M1090.71 258.013L1071.81 256.744L1082.64 265.304L1090.71 258.013Z" fill="#261D6F"/>
<ellipse cx="45.995" cy="46.2864" rx="45.995" ry="46.2864" transform="matrix(-1 0 0 1 1134.47 167.342)" fill="#FFD23F"/>
<path d="M1137.76 222.15C1133.83 221.523 1123.97 222.15 1123.97 222.15V242.237C1123.97 242.237 1134.49 243.493 1137.76 242.237C1141.03 240.982 1143.9 239.018 1144.95 234.837C1145.21 228.531 1141.69 222.778 1137.76 222.15Z" fill="#FFD23F"/>
<path d="M929.013 296.078L934.158 270.3L1064.77 286.481L1063.75 300.773C1058.49 324.729 998.066 321.275 929.013 296.078Z" fill="#FFD23F"/>
<path d="M1116.66 284.855L1107.48 303.094L1189.47 395.599C1189.47 395.599 1213.28 377.736 1212.62 365.926C1211.97 354.115 1125.3 284.905 1116.66 284.855Z" fill="#FFD23F"/>
<path d="M1191.85 361.733L1208.82 376.084C1208.82 376.084 1189.08 402.497 1169.17 417.615L1123.06 414.018C1152.15 381.993 1156.21 382.541 1191.85 361.733Z" fill="#FFD23F"/>
<path d="M1114.82 285.901H1062.6C1037.46 309.904 1042.27 336.29 1052.56 345.469C1062.86 354.647 1051.47 379.909 1045.19 402.666C1082.05 413.191 1091.3 421.864 1120.84 412.396C1102.06 363.085 1113.84 330.64 1114.82 285.901Z" fill="#6153CC"/>
<path d="M1069.34 312.225C1061.93 309.689 1061.13 295.854 1072.32 285.211L1104.65 285.76C1104.65 285.76 1076.74 314.761 1069.34 312.225Z" fill="#FFD23F"/>
<path d="M1073.85 209.507C1073.85 216.048 1079.28 221.371 1086.01 221.371C1092.73 221.371 1098.16 216.048 1098.16 209.507C1098.16 202.965 1092.73 197.643 1086.01 197.643C1079.28 197.643 1073.85 202.965 1073.85 209.507Z" stroke="black"/>
<path d="M1041.13 205.069C1041.13 211.61 1046.56 216.933 1053.28 216.933C1060.01 216.933 1065.44 211.61 1065.44 205.069C1065.44 198.527 1060.01 193.204 1053.28 193.204C1046.56 193.204 1041.13 198.527 1041.13 205.069Z" stroke="black"/>
<line y1="-0.5" x2="8.73694" y2="-0.5" transform="matrix(-0.989408 -0.145162 -0.137773 0.990464 1073.97 207.922)" stroke="black"/>
<path d="M1069.49 236.452C1079.21 236.772 1082.32 228.125 1082.32 228.125L1058.37 225.839C1058.37 225.839 1059.76 236.132 1069.49 236.452Z" fill="white"/>
<path d="M1068.48 213.786C1064.58 215.569 1064.05 217.095 1066.25 220.795" stroke="black"/>
<ellipse cx="2.69352" cy="4.93769" rx="2.69352" ry="4.93769" transform="matrix(-1 0 0 1 1088.32 203.404)" fill="#282729"/>
<ellipse cx="2.69352" cy="4.93769" rx="2.69352" ry="4.93769" transform="matrix(-1 0 0 1 1057.08 200.112)" fill="#282729"/>
<path d="M1081.32 178.166C1074.89 187.244 1060.98 187.758 1047.38 194.077C1050.2 176.578 1051.81 166.804 1067.85 166.645C1097.08 150.581 1141.98 173.672 1147.04 190.785C1152.1 207.897 1140.78 218.896 1112.02 239.065C1115.71 223.744 1118.58 220.949 1117.95 213.608C1098.41 200.223 1095.95 195.472 1081.32 178.166Z" fill="#0D044F"/>
<path d="M925.918 216.177C929.845 215.549 939.703 216.177 939.703 216.177V236.264C939.703 236.264 929.188 237.519 925.918 236.264C922.647 235.008 919.773 233.045 918.725 228.863C918.47 222.558 921.99 216.805 925.918 216.177Z" fill="#5F00BA"/>
<ellipse cx="920.256" cy="258.697" rx="55.2557" ry="56.1144" fill="#0D044F"/>
<rect x="958.842" y="238.724" width="32.7213" height="49.4567" fill="#5F00BA"/>
<path d="M972.97 252.039L991.872 250.771L981.036 259.331L972.97 252.039Z" fill="#261D6F"/>
<ellipse cx="975.202" cy="207.655" rx="45.995" ry="46.2864" fill="#5F00BA"/>
<path d="M1003.32 185.74C1013.82 183.521 1017.17 169.564 1009.06 159.273C1000.94 148.982 957.945 153.72 935.369 176.759C929.545 184.265 921.519 208.249 933.689 208.72C945.858 209.191 942.819 187.325 946.246 184.265C949.673 181.205 948.375 197.787 959.854 198.281C971.333 198.775 976.775 178.765 979.631 176.343C982.487 173.92 992.827 187.959 1003.32 185.74Z" fill="#0D044F"/>
<path d="M925.918 216.177C929.845 215.549 939.703 216.177 939.703 216.177V236.264C939.703 236.264 929.188 237.519 925.918 236.264C922.647 235.008 919.773 233.045 918.725 228.863C918.47 222.558 921.99 216.805 925.918 216.177Z" fill="#5F00BA"/>
<path d="M945.182 279.154L955.138 298.326L922.07 355.635C923.981 353.89 890.971 342.482 889.437 332.12C887.902 321.758 935.809 279.207 945.182 279.154Z" fill="#5F00BA"/>
<path d="M1000.21 279.938H944.025C945.084 355.658 957.108 281.099 936.904 364.555C961.666 378.787 976.771 384.729 1005.14 392.935C1005.14 392.935 1007.41 375.224 1018.49 359.69C1029.56 344.155 1027.26 320.562 1000.21 279.938Z" fill="#FF9505"/>
<path d="M994.341 306.252C1001.75 303.715 1002.76 290.581 991.563 279.938H958.842C958.842 279.938 986.933 308.788 994.341 306.252Z" fill="#5F00BA"/>
<path d="M989.828 203.534C989.828 210.075 984.397 215.398 977.672 215.398C970.947 215.398 965.516 210.075 965.516 203.534C965.516 196.992 970.947 191.67 977.672 191.67C984.397 191.67 989.828 196.992 989.828 203.534Z" stroke="black"/>
<path d="M1022.55 199.095C1022.55 205.637 1017.12 210.959 1010.39 210.959C1003.67 210.959 998.237 205.637 998.237 199.095C998.237 192.554 1003.67 187.231 1010.39 187.231C1017.12 187.231 1022.55 192.554 1022.55 199.095Z" stroke="black"/>
<line y1="-0.5" x2="8.73694" y2="-0.5" transform="matrix(0.989408 -0.145162 0.137773 0.990464 989.711 201.948)" stroke="black"/>
<path d="M994.19 230.479C984.464 230.798 981.355 222.152 981.355 222.152L1005.31 219.866C1005.31 219.866 1003.92 230.159 994.19 230.479Z" fill="white"/>
<path d="M995.197 207.813C999.098 209.596 999.626 211.122 997.425 214.822" stroke="black"/>
<ellipse cx="978.051" cy="202.368" rx="2.69352" ry="4.93769" fill="#282729"/>
<ellipse cx="1009.3" cy="199.076" rx="2.69352" ry="4.93769" fill="#282729"/>
<path d="M976.77 370.246L966.283 376.371C966.283 376.371 908.199 296.865 918.786 289.438C929.372 282.011 942.306 277.087 942.306 277.087C962.426 316.41 971.481 337.474 976.77 370.246Z" fill="#FFD23F"/>
<path d="M958.668 407.789C953.604 403.971 946.459 389.104 952.931 380.353C959.403 371.601 969.186 360.635 974.25 364.453C979.314 368.27 977.734 377.028 971.262 385.78C964.79 394.532 963.732 411.606 958.668 407.789Z" fill="#FFD23F"/>
<defs>
<filter id="filter0_d_1452_5565" x="60" y="113" width="38" height="84" filterUnits="userSpaceOnUse" color-interpolation-filters="sRGB">
<feFlood flood-opacity="0" result="BackgroundImageFix"/>
<feColorMatrix in="SourceAlpha" type="matrix" values="0 0 0 0 0 0 0 0 0 0 0 0 0 0 0 0 0 0 127 0" result="hardAlpha"/>
<feOffset dy="4"/>
<feGaussianBlur stdDeviation="1.5"/>
<feComposite in2="hardAlpha" operator="out"/>
<feColorMatrix type="matrix" values="0 0 0 0 0 0 0 0 0 0 0 0 0 0 0 0 0 0 0.25 0"/>
<feBlend mode="normal" in2="BackgroundImageFix" result="effect1_dropShadow_1452_5565"/>
<feBlend mode="normal" in="SourceGraphic" in2="effect1_dropShadow_1452_5565" result="shape"/>
</filter>
<linearGradient id="paint0_linear_1452_5565" x1="79" y1="113" x2="79" y2="190" gradientUnits="userSpaceOnUse">
<stop stop-color="#0072BB"/>
<stop offset="1" stop-color="#5F00BA"/>
</linearGradient>
</defs>
</svg>
