<svg width="1326" height="526" viewBox="0 0 1326 526" fill="none" xmlns="http://www.w3.org/2000/svg">
<rect width="1326" height="526" fill="#FCFCFC"/>
<path d="M152.72 127.72C152.027 126.6 151.04 125.747 149.76 125.16C148.48 124.52 146.933 124.2 145.12 124.2C141.707 124.2 139.067 125.32 137.2 127.56C135.333 129.747 134.4 132.76 134.4 136.6C134.4 141.027 135.44 144.333 137.52 146.52C139.6 148.707 142.8 149.8 147.12 149.8C151.227 149.8 154.533 148.147 157.04 144.84H142.88V132.28H171.76V150.04C169.307 154.253 165.92 157.88 161.6 160.92C157.28 163.907 151.813 165.4 145.2 165.4C139.333 165.4 134.213 164.2 129.84 161.8C125.52 159.347 122.187 155.933 119.84 151.56C117.547 147.187 116.4 142.2 116.4 136.6C116.4 131 117.547 126.013 119.84 121.64C122.187 117.267 125.52 113.88 129.84 111.48C134.16 109.027 139.227 107.8 145.04 107.8C152.453 107.8 158.48 109.587 163.12 113.16C167.813 116.733 170.587 121.587 171.44 127.72H152.72ZM175.756 142.44C175.756 137.693 176.556 133.587 178.156 130.12C179.81 126.6 182.05 123.933 184.876 122.12C187.703 120.253 190.876 119.32 194.396 119.32C197.33 119.32 199.863 119.933 201.996 121.16C204.13 122.333 205.756 123.96 206.876 126.04V119.88H224.556V165H206.876V158.84C205.756 160.92 204.13 162.573 201.996 163.8C199.863 164.973 197.33 165.56 194.396 165.56C190.876 165.56 187.703 164.653 184.876 162.84C182.05 160.973 179.81 158.307 178.156 154.84C176.556 151.32 175.756 147.187 175.756 142.44ZM206.876 142.44C206.876 140.04 206.263 138.173 205.036 136.84C203.81 135.507 202.236 134.84 200.316 134.84C198.396 134.84 196.823 135.507 195.596 136.84C194.37 138.173 193.756 140.04 193.756 142.44C193.756 144.84 194.37 146.707 195.596 148.04C196.823 149.373 198.396 150.04 200.316 150.04C202.236 150.04 203.81 149.373 205.036 148.04C206.263 146.707 206.876 144.84 206.876 142.44ZM260.611 149.88V165H253.891C241.518 165 235.331 158.84 235.331 146.52V134.68H229.731V119.88H235.331V109H253.091V119.88H260.451V134.68H253.091V146.84C253.091 147.907 253.331 148.68 253.811 149.16C254.345 149.64 255.198 149.88 256.371 149.88H260.611ZM298.975 119.56C304.148 119.56 308.175 121.293 311.055 124.76C313.988 128.227 315.455 132.92 315.455 138.84V165H297.775V141.08C297.775 138.947 297.188 137.267 296.015 136.04C294.895 134.76 293.375 134.12 291.455 134.12C289.482 134.12 287.935 134.76 286.815 136.04C285.695 137.267 285.135 138.947 285.135 141.08V165H267.375V105.8H285.135V126.76C286.522 124.627 288.362 122.893 290.655 121.56C293.002 120.227 295.775 119.56 298.975 119.56ZM366.836 142.04C366.836 143.267 366.756 144.44 366.596 145.56H338.036C338.303 149.453 339.93 151.4 342.916 151.4C344.836 151.4 346.223 150.52 347.076 148.76H365.876C365.236 151.96 363.876 154.84 361.796 157.4C359.77 159.907 357.183 161.907 354.036 163.4C350.943 164.84 347.53 165.56 343.796 165.56C339.316 165.56 335.316 164.627 331.796 162.76C328.33 160.893 325.61 158.227 323.636 154.76C321.716 151.24 320.756 147.133 320.756 142.44C320.756 137.747 321.716 133.667 323.636 130.2C325.61 126.68 328.33 123.987 331.796 122.12C335.316 120.253 339.316 119.32 343.796 119.32C348.276 119.32 352.25 120.253 355.716 122.12C359.236 123.933 361.956 126.547 363.876 129.96C365.85 133.373 366.836 137.4 366.836 142.04ZM348.836 137.8C348.836 136.307 348.356 135.187 347.396 134.44C346.436 133.64 345.236 133.24 343.796 133.24C340.65 133.24 338.81 134.76 338.276 137.8H348.836ZM390.213 128.2C392.026 125.587 394.24 123.507 396.853 121.96C399.466 120.36 402.186 119.56 405.013 119.56V138.52H399.973C396.613 138.52 394.133 139.107 392.533 140.28C390.986 141.453 390.213 143.533 390.213 146.52V165H372.453V119.88H390.213V128.2ZM427.557 105.8V165H409.797V105.8H427.557ZM486.538 119.88L457.658 186.6H438.218L449.578 162.76L430.778 119.88H450.538L459.018 142.76L466.938 119.88H486.538Z" fill="#0072BB"/>
<path d="M132.4 204.84V238.44C132.4 241.8 133.227 244.387 134.88 246.2C136.533 248.013 138.96 248.92 142.16 248.92C145.36 248.92 147.813 248.013 149.52 246.2C151.227 244.387 152.08 241.8 152.08 238.44V204.84H165.76V238.36C165.76 243.373 164.693 247.613 162.56 251.08C160.427 254.547 157.547 257.16 153.92 258.92C150.347 260.68 146.347 261.56 141.92 261.56C137.493 261.56 133.52 260.707 130 259C126.533 257.24 123.787 254.627 121.76 251.16C119.733 247.64 118.72 243.373 118.72 238.36V204.84H132.4ZM189.046 204.84V261H175.366V204.84H189.046ZM229.44 185L208 275.96H194.8L216.24 185H229.44ZM248.65 204.84V238.44C248.65 241.8 249.477 244.387 251.13 246.2C252.783 248.013 255.21 248.92 258.41 248.92C261.61 248.92 264.063 248.013 265.77 246.2C267.477 244.387 268.33 241.8 268.33 238.44V204.84H282.01V238.36C282.01 243.373 280.943 247.613 278.81 251.08C276.677 254.547 273.797 257.16 270.17 258.92C266.597 260.68 262.597 261.56 258.17 261.56C253.743 261.56 249.77 260.707 246.25 259C242.783 257.24 240.037 254.627 238.01 251.16C235.983 247.64 234.97 243.373 234.97 238.36V204.84H248.65ZM326.016 261L314.576 243.8L304.496 261H288.976L306.976 232.44L288.576 204.84H304.496L315.776 221.8L325.696 204.84H341.216L323.376 233.16L341.936 261H326.016ZM364.237 233.08C364.237 227.64 365.464 222.76 367.917 218.44C370.37 214.067 373.704 210.653 377.917 208.2C382.184 205.747 386.904 204.52 392.077 204.52C398.157 204.52 403.464 205.987 407.997 208.92C412.53 211.853 415.837 216.013 417.917 221.4H409.197C407.65 218.04 405.41 215.453 402.477 213.64C399.597 211.827 396.13 210.92 392.077 210.92C388.184 210.92 384.69 211.827 381.597 213.64C378.504 215.453 376.077 218.04 374.317 221.4C372.557 224.707 371.677 228.6 371.677 233.08C371.677 237.507 372.557 241.4 374.317 244.76C376.077 248.067 378.504 250.627 381.597 252.44C384.69 254.253 388.184 255.16 392.077 255.16C396.13 255.16 399.597 254.28 402.477 252.52C405.41 250.707 407.65 248.12 409.197 244.76H417.917C415.837 250.093 412.53 254.227 407.997 257.16C403.464 260.04 398.157 261.48 392.077 261.48C386.904 261.48 382.184 260.28 377.917 257.88C373.704 255.427 370.37 252.04 367.917 247.72C365.464 243.4 364.237 238.52 364.237 233.08ZM426.034 238.92C426.034 234.44 426.94 230.52 428.754 227.16C430.567 223.747 433.047 221.107 436.194 219.24C439.394 217.373 442.94 216.44 446.834 216.44C450.674 216.44 454.007 217.267 456.834 218.92C459.66 220.573 461.767 222.653 463.154 225.16V217.16H470.514V261H463.154V252.84C461.714 255.4 459.554 257.533 456.674 259.24C453.847 260.893 450.54 261.72 446.754 261.72C442.86 261.72 439.34 260.76 436.194 258.84C433.047 256.92 430.567 254.227 428.754 250.76C426.94 247.293 426.034 243.347 426.034 238.92ZM463.154 239C463.154 235.693 462.487 232.813 461.154 230.36C459.82 227.907 458.007 226.04 455.714 224.76C453.474 223.427 450.994 222.76 448.274 222.76C445.554 222.76 443.074 223.4 440.834 224.68C438.594 225.96 436.807 227.827 435.474 230.28C434.14 232.733 433.474 235.613 433.474 238.92C433.474 242.28 434.14 245.213 435.474 247.72C436.807 250.173 438.594 252.067 440.834 253.4C443.074 254.68 445.554 255.32 448.274 255.32C450.994 255.32 453.474 254.68 455.714 253.4C458.007 252.067 459.82 250.173 461.154 247.72C462.487 245.213 463.154 242.307 463.154 239ZM498.336 261.72C494.976 261.72 491.963 261.16 489.296 260.04C486.63 258.867 484.523 257.267 482.976 255.24C481.43 253.16 480.576 250.787 480.416 248.12H487.936C488.15 250.307 489.163 252.093 490.976 253.48C492.843 254.867 495.27 255.56 498.256 255.56C501.03 255.56 503.216 254.947 504.816 253.72C506.416 252.493 507.216 250.947 507.216 249.08C507.216 247.16 506.363 245.747 504.656 244.84C502.95 243.88 500.31 242.947 496.736 242.04C493.483 241.187 490.816 240.333 488.736 239.48C486.71 238.573 484.95 237.267 483.456 235.56C482.016 233.8 481.296 231.507 481.296 228.68C481.296 226.44 481.963 224.387 483.296 222.52C484.63 220.653 486.523 219.187 488.976 218.12C491.43 217 494.23 216.44 497.376 216.44C502.23 216.44 506.15 217.667 509.136 220.12C512.123 222.573 513.723 225.933 513.936 230.2H506.656C506.496 227.907 505.563 226.067 503.856 224.68C502.203 223.293 499.963 222.6 497.136 222.6C494.523 222.6 492.443 223.16 490.896 224.28C489.35 225.4 488.576 226.867 488.576 228.68C488.576 230.12 489.03 231.32 489.936 232.28C490.896 233.187 492.07 233.933 493.456 234.52C494.896 235.053 496.87 235.667 499.376 236.36C502.523 237.213 505.083 238.067 507.056 238.92C509.03 239.72 510.71 240.947 512.096 242.6C513.536 244.253 514.283 246.413 514.336 249.08C514.336 251.48 513.67 253.64 512.336 255.56C511.003 257.48 509.11 259 506.656 260.12C504.256 261.187 501.483 261.72 498.336 261.72ZM564.613 237.4C564.613 238.787 564.533 240.253 564.373 241.8H529.333C529.6 246.12 531.066 249.507 533.733 251.96C536.453 254.36 539.733 255.56 543.573 255.56C546.72 255.56 549.333 254.84 551.413 253.4C553.546 251.907 555.04 249.933 555.893 247.48H563.733C562.56 251.693 560.213 255.133 556.693 257.8C553.173 260.413 548.8 261.72 543.573 261.72C539.413 261.72 535.68 260.787 532.373 258.92C529.12 257.053 526.56 254.413 524.693 251C522.826 247.533 521.893 243.533 521.893 239C521.893 234.467 522.8 230.493 524.613 227.08C526.426 223.667 528.96 221.053 532.213 219.24C535.52 217.373 539.306 216.44 543.573 216.44C547.733 216.44 551.413 217.347 554.613 219.16C557.813 220.973 560.266 223.48 561.973 226.68C563.733 229.827 564.613 233.4 564.613 237.4ZM557.093 235.88C557.093 233.107 556.48 230.733 555.253 228.76C554.026 226.733 552.346 225.213 550.213 224.2C548.133 223.133 545.813 222.6 543.253 222.6C539.573 222.6 536.426 223.773 533.813 226.12C531.253 228.467 529.786 231.72 529.413 235.88H557.093ZM613.231 261.56C609.551 261.56 606.244 260.92 603.311 259.64C600.431 258.307 598.164 256.493 596.511 254.2C594.857 251.853 594.004 249.16 593.951 246.12H601.711C601.977 248.733 603.044 250.947 604.911 252.76C606.831 254.52 609.604 255.4 613.231 255.4C616.697 255.4 619.417 254.547 621.391 252.84C623.417 251.08 624.431 248.84 624.431 246.12C624.431 243.987 623.844 242.253 622.671 240.92C621.497 239.587 620.031 238.573 618.271 237.88C616.511 237.187 614.137 236.44 611.151 235.64C607.471 234.68 604.511 233.72 602.271 232.76C600.084 231.8 598.191 230.307 596.591 228.28C595.044 226.2 594.271 223.427 594.271 219.96C594.271 216.92 595.044 214.227 596.591 211.88C598.137 209.533 600.297 207.72 603.071 206.44C605.897 205.16 609.124 204.52 612.751 204.52C617.977 204.52 622.244 205.827 625.551 208.44C628.911 211.053 630.804 214.52 631.231 218.84H623.231C622.964 216.707 621.844 214.84 619.871 213.24C617.897 211.587 615.284 210.76 612.031 210.76C608.991 210.76 606.511 211.56 604.591 213.16C602.671 214.707 601.711 216.893 601.711 219.72C601.711 221.747 602.271 223.4 603.391 224.68C604.564 225.96 605.977 226.947 607.631 227.64C609.337 228.28 611.711 229.027 614.751 229.88C618.431 230.893 621.391 231.907 623.631 232.92C625.871 233.88 627.791 235.4 629.391 237.48C630.991 239.507 631.791 242.28 631.791 245.8C631.791 248.52 631.071 251.08 629.631 253.48C628.191 255.88 626.057 257.827 623.231 259.32C620.404 260.813 617.071 261.56 613.231 261.56ZM651.384 223.16V249C651.384 251.133 651.837 252.653 652.744 253.56C653.65 254.413 655.224 254.84 657.464 254.84H662.824V261H656.264C652.21 261 649.17 260.067 647.144 258.2C645.117 256.333 644.104 253.267 644.104 249V223.16H638.424V217.16H644.104V206.12H651.384V217.16H662.824V223.16H651.384ZM710.524 217.16V261H703.244V254.52C701.858 256.76 699.911 258.52 697.404 259.8C694.951 261.027 692.231 261.64 689.244 261.64C685.831 261.64 682.764 260.947 680.044 259.56C677.324 258.12 675.164 255.987 673.564 253.16C672.018 250.333 671.244 246.893 671.244 242.84V217.16H678.444V241.88C678.444 246.2 679.538 249.533 681.724 251.88C683.911 254.173 686.898 255.32 690.684 255.32C694.578 255.32 697.644 254.12 699.884 251.72C702.124 249.32 703.244 245.827 703.244 241.24V217.16H710.524ZM720.096 238.92C720.096 234.44 721.003 230.52 722.816 227.16C724.63 223.747 727.11 221.107 730.256 219.24C733.456 217.373 737.03 216.44 740.976 216.44C744.39 216.44 747.563 217.24 750.496 218.84C753.43 220.387 755.67 222.44 757.216 225V201.8H764.576V261H757.216V252.76C755.776 255.373 753.643 257.533 750.816 259.24C747.99 260.893 744.683 261.72 740.896 261.72C737.003 261.72 733.456 260.76 730.256 258.84C727.11 256.92 724.63 254.227 722.816 250.76C721.003 247.293 720.096 243.347 720.096 238.92ZM757.216 239C757.216 235.693 756.55 232.813 755.216 230.36C753.883 227.907 752.07 226.04 749.776 224.76C747.536 223.427 745.056 222.76 742.336 222.76C739.616 222.76 737.136 223.4 734.896 224.68C732.656 225.96 730.87 227.827 729.536 230.28C728.203 232.733 727.536 235.613 727.536 238.92C727.536 242.28 728.203 245.213 729.536 247.72C730.87 250.173 732.656 252.067 734.896 253.4C737.136 254.68 739.616 255.32 742.336 255.32C745.056 255.32 747.536 254.68 749.776 253.4C752.07 252.067 753.883 250.173 755.216 247.72C756.55 245.213 757.216 242.307 757.216 239ZM814.639 217.16L788.239 281.64H780.719L789.359 260.52L771.679 217.16H779.759L793.519 252.68L807.119 217.16H814.639Z" fill="#0072BB"/>
<path d="M130.94 302.14C130.399 301.001 129.615 300.124 128.588 299.508C127.561 298.873 126.367 298.556 125.004 298.556C123.641 298.556 122.409 298.873 121.308 299.508C120.225 300.124 119.367 301.02 118.732 302.196C118.116 303.353 117.808 304.697 117.808 306.228C117.808 307.759 118.116 309.103 118.732 310.26C119.367 311.417 120.225 312.313 121.308 312.948C122.409 313.564 123.641 313.872 125.004 313.872C126.908 313.872 128.476 313.303 129.708 312.164C130.94 311.025 131.659 309.485 131.864 307.544H124.08V305.472H134.58V307.432C134.431 309.037 133.927 310.512 133.068 311.856C132.209 313.181 131.08 314.236 129.68 315.02C128.28 315.785 126.721 316.168 125.004 316.168C123.193 316.168 121.541 315.748 120.048 314.908C118.555 314.049 117.369 312.864 116.492 311.352C115.633 309.84 115.204 308.132 115.204 306.228C115.204 304.324 115.633 302.616 116.492 301.104C117.369 299.573 118.555 298.388 120.048 297.548C121.541 296.689 123.193 296.26 125.004 296.26C127.076 296.26 128.905 296.773 130.492 297.8C132.097 298.827 133.264 300.273 133.992 302.14H130.94ZM136.997 308.272C136.997 306.704 137.314 305.332 137.949 304.156C138.584 302.961 139.452 302.037 140.553 301.384C141.673 300.731 142.914 300.404 144.277 300.404C145.621 300.404 146.788 300.693 147.777 301.272C148.766 301.851 149.504 302.579 149.989 303.456V300.656H152.565V316H149.989V313.144C149.485 314.04 148.729 314.787 147.721 315.384C146.732 315.963 145.574 316.252 144.249 316.252C142.886 316.252 141.654 315.916 140.553 315.244C139.452 314.572 138.584 313.629 137.949 312.416C137.314 311.203 136.997 309.821 136.997 308.272ZM149.989 308.3C149.989 307.143 149.756 306.135 149.289 305.276C148.822 304.417 148.188 303.764 147.385 303.316C146.601 302.849 145.733 302.616 144.781 302.616C143.829 302.616 142.961 302.84 142.177 303.288C141.393 303.736 140.768 304.389 140.301 305.248C139.834 306.107 139.601 307.115 139.601 308.272C139.601 309.448 139.834 310.475 140.301 311.352C140.768 312.211 141.393 312.873 142.177 313.34C142.961 313.788 143.829 314.012 144.781 314.012C145.733 314.012 146.601 313.788 147.385 313.34C148.188 312.873 148.822 312.211 149.289 311.352C149.756 310.475 149.989 309.457 149.989 308.3ZM159.979 302.756V311.8C159.979 312.547 160.138 313.079 160.455 313.396C160.772 313.695 161.323 313.844 162.107 313.844H163.983V316H161.687C160.268 316 159.204 315.673 158.495 315.02C157.786 314.367 157.431 313.293 157.431 311.8V302.756H155.443V300.656H157.431V296.792H159.979V300.656H163.983V302.756H159.979ZM174.686 300.376C175.843 300.376 176.889 300.628 177.822 301.132C178.755 301.617 179.483 302.355 180.006 303.344C180.547 304.333 180.818 305.537 180.818 306.956V316H178.298V307.32C178.298 305.789 177.915 304.623 177.15 303.82C176.385 302.999 175.339 302.588 174.014 302.588C172.67 302.588 171.597 303.008 170.794 303.848C170.01 304.688 169.618 305.911 169.618 307.516V316H167.07V295.28H169.618V302.84C170.122 302.056 170.813 301.449 171.69 301.02C172.586 300.591 173.585 300.376 174.686 300.376ZM198.98 307.74C198.98 308.225 198.952 308.739 198.896 309.28H186.632C186.726 310.792 187.239 311.977 188.172 312.836C189.124 313.676 190.272 314.096 191.616 314.096C192.718 314.096 193.632 313.844 194.36 313.34C195.107 312.817 195.63 312.127 195.928 311.268H198.672C198.262 312.743 197.44 313.947 196.208 314.88C194.976 315.795 193.446 316.252 191.616 316.252C190.16 316.252 188.854 315.925 187.696 315.272C186.558 314.619 185.662 313.695 185.008 312.5C184.355 311.287 184.028 309.887 184.028 308.3C184.028 306.713 184.346 305.323 184.98 304.128C185.615 302.933 186.502 302.019 187.64 301.384C188.798 300.731 190.123 300.404 191.616 300.404C193.072 300.404 194.36 300.721 195.48 301.356C196.6 301.991 197.459 302.868 198.056 303.988C198.672 305.089 198.98 306.34 198.98 307.74ZM196.348 307.208C196.348 306.237 196.134 305.407 195.704 304.716C195.275 304.007 194.687 303.475 193.94 303.12C193.212 302.747 192.4 302.56 191.504 302.56C190.216 302.56 189.115 302.971 188.2 303.792C187.304 304.613 186.791 305.752 186.66 307.208H196.348ZM204.892 303.148C205.34 302.271 205.974 301.589 206.796 301.104C207.636 300.619 208.653 300.376 209.848 300.376V303.008H209.176C206.32 303.008 204.892 304.557 204.892 307.656V316H202.344V300.656H204.892V303.148ZM215.337 295.28V316H212.789V295.28H215.337ZM232.895 300.656L223.655 323.224H221.023L224.047 315.832L217.859 300.656H220.687L225.503 313.088L230.263 300.656H232.895ZM236.269 316.168C235.783 316.168 235.373 316 235.037 315.664C234.701 315.328 234.533 314.917 234.533 314.432C234.533 313.947 234.701 313.536 235.037 313.2C235.373 312.864 235.783 312.696 236.269 312.696C236.735 312.696 237.127 312.864 237.445 313.2C237.781 313.536 237.949 313.947 237.949 314.432C237.949 314.917 237.781 315.328 237.445 315.664C237.127 316 236.735 316.168 236.269 316.168ZM236.269 304.184C235.783 304.184 235.373 304.016 235.037 303.68C234.701 303.344 234.533 302.933 234.533 302.448C234.533 301.963 234.701 301.552 235.037 301.216C235.373 300.88 235.783 300.712 236.269 300.712C236.735 300.712 237.127 300.88 237.445 301.216C237.781 301.552 237.949 301.963 237.949 302.448C237.949 302.933 237.781 303.344 237.445 303.68C237.127 304.016 236.735 304.184 236.269 304.184ZM254.959 296.484C257.087 296.484 258.925 296.885 260.475 297.688C262.043 298.472 263.237 299.601 264.059 301.076C264.899 302.551 265.319 304.287 265.319 306.284C265.319 308.281 264.899 310.017 264.059 311.492C263.237 312.948 262.043 314.068 260.475 314.852C258.925 315.617 257.087 316 254.959 316H248.883V296.484H254.959ZM254.959 313.9C257.479 313.9 259.401 313.237 260.727 311.912C262.052 310.568 262.715 308.692 262.715 306.284C262.715 303.857 262.043 301.963 260.699 300.6C259.373 299.237 257.46 298.556 254.959 298.556H251.431V313.9H254.959ZM282.679 307.74C282.679 308.225 282.651 308.739 282.595 309.28H270.331C270.425 310.792 270.938 311.977 271.871 312.836C272.823 313.676 273.971 314.096 275.315 314.096C276.417 314.096 277.331 313.844 278.059 313.34C278.806 312.817 279.329 312.127 279.627 311.268H282.371C281.961 312.743 281.139 313.947 279.907 314.88C278.675 315.795 277.145 316.252 275.315 316.252C273.859 316.252 272.553 315.925 271.395 315.272C270.257 314.619 269.361 313.695 268.707 312.5C268.054 311.287 267.727 309.887 267.727 308.3C267.727 306.713 268.045 305.323 268.679 304.128C269.314 302.933 270.201 302.019 271.339 301.384C272.497 300.731 273.822 300.404 275.315 300.404C276.771 300.404 278.059 300.721 279.179 301.356C280.299 301.991 281.158 302.868 281.755 303.988C282.371 305.089 282.679 306.34 282.679 307.74ZM280.047 307.208C280.047 306.237 279.833 305.407 279.403 304.716C278.974 304.007 278.386 303.475 277.639 303.12C276.911 302.747 276.099 302.56 275.203 302.56C273.915 302.56 272.814 302.971 271.899 303.792C271.003 304.613 270.49 305.752 270.359 307.208H280.047ZM291.475 316.252C290.299 316.252 289.244 316.056 288.311 315.664C287.377 315.253 286.64 314.693 286.099 313.984C285.557 313.256 285.259 312.425 285.203 311.492H287.835C287.909 312.257 288.264 312.883 288.899 313.368C289.552 313.853 290.401 314.096 291.447 314.096C292.417 314.096 293.183 313.881 293.743 313.452C294.303 313.023 294.583 312.481 294.583 311.828C294.583 311.156 294.284 310.661 293.687 310.344C293.089 310.008 292.165 309.681 290.915 309.364C289.776 309.065 288.843 308.767 288.115 308.468C287.405 308.151 286.789 307.693 286.267 307.096C285.763 306.48 285.511 305.677 285.511 304.688C285.511 303.904 285.744 303.185 286.211 302.532C286.677 301.879 287.34 301.365 288.199 300.992C289.057 300.6 290.037 300.404 291.139 300.404C292.837 300.404 294.209 300.833 295.255 301.692C296.3 302.551 296.86 303.727 296.935 305.22H294.387C294.331 304.417 294.004 303.773 293.407 303.288C292.828 302.803 292.044 302.56 291.055 302.56C290.14 302.56 289.412 302.756 288.871 303.148C288.329 303.54 288.059 304.053 288.059 304.688C288.059 305.192 288.217 305.612 288.535 305.948C288.871 306.265 289.281 306.527 289.767 306.732C290.271 306.919 290.961 307.133 291.839 307.376C292.94 307.675 293.836 307.973 294.527 308.272C295.217 308.552 295.805 308.981 296.291 309.56C296.795 310.139 297.056 310.895 297.075 311.828C297.075 312.668 296.841 313.424 296.375 314.096C295.908 314.768 295.245 315.3 294.387 315.692C293.547 316.065 292.576 316.252 291.475 316.252ZM301.988 298.164C301.502 298.164 301.092 297.996 300.756 297.66C300.42 297.324 300.252 296.913 300.252 296.428C300.252 295.943 300.42 295.532 300.756 295.196C301.092 294.86 301.502 294.692 301.988 294.692C302.454 294.692 302.846 294.86 303.164 295.196C303.5 295.532 303.668 295.943 303.668 296.428C303.668 296.913 303.5 297.324 303.164 297.66C302.846 297.996 302.454 298.164 301.988 298.164ZM303.22 300.656V316H300.672V300.656H303.22ZM313.89 300.404C315.216 300.404 316.373 300.693 317.362 301.272C318.37 301.851 319.117 302.579 319.602 303.456V300.656H322.178V316.336C322.178 317.736 321.88 318.977 321.282 320.06C320.685 321.161 319.826 322.02 318.706 322.636C317.605 323.252 316.317 323.56 314.842 323.56C312.826 323.56 311.146 323.084 309.802 322.132C308.458 321.18 307.665 319.883 307.422 318.24H309.942C310.222 319.173 310.801 319.92 311.678 320.48C312.556 321.059 313.61 321.348 314.842 321.348C316.242 321.348 317.381 320.909 318.258 320.032C319.154 319.155 319.602 317.923 319.602 316.336V313.116C319.098 314.012 318.352 314.759 317.362 315.356C316.373 315.953 315.216 316.252 313.89 316.252C312.528 316.252 311.286 315.916 310.166 315.244C309.065 314.572 308.197 313.629 307.562 312.416C306.928 311.203 306.61 309.821 306.61 308.272C306.61 306.704 306.928 305.332 307.562 304.156C308.197 302.961 309.065 302.037 310.166 301.384C311.286 300.731 312.528 300.404 313.89 300.404ZM319.602 308.3C319.602 307.143 319.369 306.135 318.902 305.276C318.436 304.417 317.801 303.764 316.998 303.316C316.214 302.849 315.346 302.616 314.394 302.616C313.442 302.616 312.574 302.84 311.79 303.288C311.006 303.736 310.381 304.389 309.914 305.248C309.448 306.107 309.214 307.115 309.214 308.272C309.214 309.448 309.448 310.475 309.914 311.352C310.381 312.211 311.006 312.873 311.79 313.34C312.574 313.788 313.442 314.012 314.394 314.012C315.346 314.012 316.214 313.788 316.998 313.34C317.801 312.873 318.436 312.211 318.902 311.352C319.369 310.475 319.602 309.457 319.602 308.3ZM333.96 300.376C335.827 300.376 337.339 300.945 338.496 302.084C339.653 303.204 340.232 304.828 340.232 306.956V316H337.712V307.32C337.712 305.789 337.329 304.623 336.564 303.82C335.799 302.999 334.753 302.588 333.428 302.588C332.084 302.588 331.011 303.008 330.208 303.848C329.424 304.688 329.032 305.911 329.032 307.516V316H326.484V300.656H329.032V302.84C329.536 302.056 330.217 301.449 331.076 301.02C331.953 300.591 332.915 300.376 333.96 300.376ZM345.71 298.164C345.225 298.164 344.814 297.996 344.478 297.66C344.142 297.324 343.974 296.913 343.974 296.428C343.974 295.943 344.142 295.532 344.478 295.196C344.814 294.86 345.225 294.692 345.71 294.692C346.177 294.692 346.569 294.86 346.886 295.196C347.222 295.532 347.39 295.943 347.39 296.428C347.39 296.913 347.222 297.324 346.886 297.66C346.569 297.996 346.177 298.164 345.71 298.164ZM346.942 300.656V316H344.394V300.656H346.942ZM358.761 300.376C360.628 300.376 362.14 300.945 363.297 302.084C364.454 303.204 365.033 304.828 365.033 306.956V316H362.513V307.32C362.513 305.789 362.13 304.623 361.365 303.82C360.6 302.999 359.554 302.588 358.229 302.588C356.885 302.588 355.812 303.008 355.009 303.848C354.225 304.688 353.833 305.911 353.833 307.516V316H351.285V300.656H353.833V302.84C354.337 302.056 355.018 301.449 355.877 301.02C356.754 300.591 357.716 300.376 358.761 300.376ZM375.523 300.404C376.848 300.404 378.006 300.693 378.995 301.272C380.003 301.851 380.75 302.579 381.235 303.456V300.656H383.811V316.336C383.811 317.736 383.512 318.977 382.915 320.06C382.318 321.161 381.459 322.02 380.339 322.636C379.238 323.252 377.95 323.56 376.475 323.56C374.459 323.56 372.779 323.084 371.435 322.132C370.091 321.18 369.298 319.883 369.055 318.24H371.575C371.855 319.173 372.434 319.92 373.311 320.48C374.188 321.059 375.243 321.348 376.475 321.348C377.875 321.348 379.014 320.909 379.891 320.032C380.787 319.155 381.235 317.923 381.235 316.336V313.116C380.731 314.012 379.984 314.759 378.995 315.356C378.006 315.953 376.848 316.252 375.523 316.252C374.16 316.252 372.919 315.916 371.799 315.244C370.698 314.572 369.83 313.629 369.195 312.416C368.56 311.203 368.243 309.821 368.243 308.272C368.243 306.704 368.56 305.332 369.195 304.156C369.83 302.961 370.698 302.037 371.799 301.384C372.919 300.731 374.16 300.404 375.523 300.404ZM381.235 308.3C381.235 307.143 381.002 306.135 380.535 305.276C380.068 304.417 379.434 303.764 378.631 303.316C377.847 302.849 376.979 302.616 376.027 302.616C375.075 302.616 374.207 302.84 373.423 303.288C372.639 303.736 372.014 304.389 371.547 305.248C371.08 306.107 370.847 307.115 370.847 308.272C370.847 309.448 371.08 310.475 371.547 311.352C372.014 312.211 372.639 312.873 373.423 313.34C374.207 313.788 375.075 314.012 376.027 314.012C376.979 314.012 377.847 313.788 378.631 313.34C379.434 312.873 380.068 312.211 380.535 311.352C381.002 310.475 381.235 309.457 381.235 308.3ZM394.63 308.272C394.63 306.704 394.947 305.332 395.582 304.156C396.216 302.961 397.084 302.037 398.186 301.384C399.306 300.731 400.547 300.404 401.91 300.404C403.254 300.404 404.42 300.693 405.41 301.272C406.399 301.851 407.136 302.579 407.622 303.456V300.656H410.198V316H407.622V313.144C407.118 314.04 406.362 314.787 405.354 315.384C404.364 315.963 403.207 316.252 401.882 316.252C400.519 316.252 399.287 315.916 398.186 315.244C397.084 314.572 396.216 313.629 395.582 312.416C394.947 311.203 394.63 309.821 394.63 308.272ZM407.622 308.3C407.622 307.143 407.388 306.135 406.922 305.276C406.455 304.417 405.82 303.764 405.018 303.316C404.234 302.849 403.366 302.616 402.414 302.616C401.462 302.616 400.594 302.84 399.81 303.288C399.026 303.736 398.4 304.389 397.934 305.248C397.467 306.107 397.234 307.115 397.234 308.272C397.234 309.448 397.467 310.475 397.934 311.352C398.4 312.211 399.026 312.873 399.81 313.34C400.594 313.788 401.462 314.012 402.414 314.012C403.366 314.012 404.234 313.788 405.018 313.34C405.82 312.873 406.455 312.211 406.922 311.352C407.388 310.475 407.622 309.457 407.622 308.3ZM421.017 308.3C421.017 306.713 421.334 305.332 421.969 304.156C422.603 302.961 423.481 302.037 424.601 301.384C425.739 300.731 427.037 300.404 428.493 300.404C430.378 300.404 431.927 300.861 433.141 301.776C434.373 302.691 435.185 303.96 435.577 305.584H432.833C432.571 304.651 432.058 303.913 431.293 303.372C430.546 302.831 429.613 302.56 428.493 302.56C427.037 302.56 425.861 303.064 424.965 304.072C424.069 305.061 423.621 306.471 423.621 308.3C423.621 310.148 424.069 311.576 424.965 312.584C425.861 313.592 427.037 314.096 428.493 314.096C429.613 314.096 430.546 313.835 431.293 313.312C432.039 312.789 432.553 312.043 432.833 311.072H435.577C435.166 312.64 434.345 313.9 433.113 314.852C431.881 315.785 430.341 316.252 428.493 316.252C427.037 316.252 425.739 315.925 424.601 315.272C423.481 314.619 422.603 313.695 421.969 312.5C421.334 311.305 421.017 309.905 421.017 308.3ZM445.668 316.252C444.231 316.252 442.924 315.925 441.748 315.272C440.591 314.619 439.676 313.695 439.004 312.5C438.351 311.287 438.024 309.887 438.024 308.3C438.024 306.732 438.36 305.351 439.032 304.156C439.723 302.943 440.656 302.019 441.832 301.384C443.008 300.731 444.324 300.404 445.78 300.404C447.236 300.404 448.552 300.731 449.728 301.384C450.904 302.019 451.828 302.933 452.5 304.128C453.191 305.323 453.536 306.713 453.536 308.3C453.536 309.887 453.182 311.287 452.472 312.5C451.782 313.695 450.839 314.619 449.644 315.272C448.45 315.925 447.124 316.252 445.668 316.252ZM445.668 314.012C446.583 314.012 447.442 313.797 448.244 313.368C449.047 312.939 449.691 312.295 450.176 311.436C450.68 310.577 450.932 309.532 450.932 308.3C450.932 307.068 450.69 306.023 450.204 305.164C449.719 304.305 449.084 303.671 448.3 303.26C447.516 302.831 446.667 302.616 445.752 302.616C444.819 302.616 443.96 302.831 443.176 303.26C442.411 303.671 441.795 304.305 441.328 305.164C440.862 306.023 440.628 307.068 440.628 308.3C440.628 309.551 440.852 310.605 441.3 311.464C441.767 312.323 442.383 312.967 443.148 313.396C443.914 313.807 444.754 314.012 445.668 314.012ZM475.338 300.376C476.533 300.376 477.597 300.628 478.53 301.132C479.464 301.617 480.201 302.355 480.742 303.344C481.284 304.333 481.554 305.537 481.554 306.956V316H479.034V307.32C479.034 305.789 478.652 304.623 477.886 303.82C477.14 302.999 476.122 302.588 474.834 302.588C473.509 302.588 472.454 303.017 471.67 303.876C470.886 304.716 470.494 305.939 470.494 307.544V316H467.974V307.32C467.974 305.789 467.592 304.623 466.826 303.82C466.08 302.999 465.062 302.588 463.774 302.588C462.449 302.588 461.394 303.017 460.61 303.876C459.826 304.716 459.434 305.939 459.434 307.544V316H456.886V300.656H459.434V302.868C459.938 302.065 460.61 301.449 461.45 301.02C462.309 300.591 463.252 300.376 464.278 300.376C465.566 300.376 466.705 300.665 467.694 301.244C468.684 301.823 469.421 302.672 469.906 303.792C470.336 302.709 471.045 301.869 472.034 301.272C473.024 300.675 474.125 300.376 475.338 300.376ZM504.186 300.376C505.381 300.376 506.445 300.628 507.378 301.132C508.311 301.617 509.049 302.355 509.59 303.344C510.131 304.333 510.402 305.537 510.402 306.956V316H507.882V307.32C507.882 305.789 507.499 304.623 506.734 303.82C505.987 302.999 504.97 302.588 503.682 302.588C502.357 302.588 501.302 303.017 500.518 303.876C499.734 304.716 499.342 305.939 499.342 307.544V316H496.822V307.32C496.822 305.789 496.439 304.623 495.674 303.82C494.927 302.999 493.91 302.588 492.622 302.588C491.297 302.588 490.242 303.017 489.458 303.876C488.674 304.716 488.282 305.939 488.282 307.544V316H485.734V300.656H488.282V302.868C488.786 302.065 489.458 301.449 490.298 301.02C491.157 300.591 492.099 300.376 493.126 300.376C494.414 300.376 495.553 300.665 496.542 301.244C497.531 301.823 498.269 302.672 498.754 303.792C499.183 302.709 499.893 301.869 500.882 301.272C501.871 300.675 502.973 300.376 504.186 300.376ZM528.19 300.656V316H525.642V313.732C525.156 314.516 524.475 315.132 523.598 315.58C522.739 316.009 521.787 316.224 520.742 316.224C519.547 316.224 518.474 315.981 517.522 315.496C516.57 314.992 515.814 314.245 515.254 313.256C514.712 312.267 514.442 311.063 514.442 309.644V300.656H516.962V309.308C516.962 310.82 517.344 311.987 518.11 312.808C518.875 313.611 519.92 314.012 521.246 314.012C522.608 314.012 523.682 313.592 524.466 312.752C525.25 311.912 525.642 310.689 525.642 309.084V300.656H528.19ZM539.968 300.376C541.835 300.376 543.347 300.945 544.504 302.084C545.661 303.204 546.24 304.828 546.24 306.956V316H543.72V307.32C543.72 305.789 543.337 304.623 542.572 303.82C541.807 302.999 540.761 302.588 539.436 302.588C538.092 302.588 537.019 303.008 536.216 303.848C535.432 304.688 535.04 305.911 535.04 307.516V316H532.492V300.656H535.04V302.84C535.544 302.056 536.225 301.449 537.084 301.02C537.961 300.591 538.923 300.376 539.968 300.376ZM551.718 298.164C551.233 298.164 550.822 297.996 550.486 297.66C550.15 297.324 549.982 296.913 549.982 296.428C549.982 295.943 550.15 295.532 550.486 295.196C550.822 294.86 551.233 294.692 551.718 294.692C552.185 294.692 552.577 294.86 552.894 295.196C553.23 295.532 553.398 295.943 553.398 296.428C553.398 296.913 553.23 297.324 552.894 297.66C552.577 297.996 552.185 298.164 551.718 298.164ZM552.95 300.656V316H550.402V300.656H552.95ZM560.401 302.756V311.8C560.401 312.547 560.559 313.079 560.877 313.396C561.194 313.695 561.745 313.844 562.529 313.844H564.405V316H562.109C560.69 316 559.626 315.673 558.917 315.02C558.207 314.367 557.853 313.293 557.853 311.8V302.756H555.865V300.656H557.853V296.792H560.401V300.656H564.405V302.756H560.401ZM580.708 300.656L571.468 323.224H568.836L571.86 315.832L565.672 300.656H568.5L573.316 313.088L578.076 300.656H580.708ZM589.782 308.272C589.782 306.704 590.099 305.332 590.734 304.156C591.369 302.961 592.237 302.037 593.338 301.384C594.458 300.731 595.699 300.404 597.062 300.404C598.406 300.404 599.573 300.693 600.562 301.272C601.551 301.851 602.289 302.579 602.774 303.456V300.656H605.35V316H602.774V313.144C602.27 314.04 601.514 314.787 600.506 315.384C599.517 315.963 598.359 316.252 597.034 316.252C595.671 316.252 594.439 315.916 593.338 315.244C592.237 314.572 591.369 313.629 590.734 312.416C590.099 311.203 589.782 309.821 589.782 308.272ZM602.774 308.3C602.774 307.143 602.541 306.135 602.074 305.276C601.607 304.417 600.973 303.764 600.17 303.316C599.386 302.849 598.518 302.616 597.566 302.616C596.614 302.616 595.746 302.84 594.962 303.288C594.178 303.736 593.553 304.389 593.086 305.248C592.619 306.107 592.386 307.115 592.386 308.272C592.386 309.448 592.619 310.475 593.086 311.352C593.553 312.211 594.178 312.873 594.962 313.34C595.746 313.788 596.614 314.012 597.566 314.012C598.518 314.012 599.386 313.788 600.17 313.34C600.973 312.873 601.607 312.211 602.074 311.352C602.541 310.475 602.774 309.457 602.774 308.3ZM612.204 303.484C612.708 302.607 613.455 301.879 614.444 301.3C615.452 300.703 616.619 300.404 617.944 300.404C619.307 300.404 620.539 300.731 621.64 301.384C622.76 302.037 623.637 302.961 624.272 304.156C624.907 305.332 625.224 306.704 625.224 308.272C625.224 309.821 624.907 311.203 624.272 312.416C623.637 313.629 622.76 314.572 621.64 315.244C620.539 315.916 619.307 316.252 617.944 316.252C616.637 316.252 615.48 315.963 614.472 315.384C613.483 314.787 612.727 314.049 612.204 313.172V323.28H609.656V300.656H612.204V303.484ZM622.62 308.272C622.62 307.115 622.387 306.107 621.92 305.248C621.453 304.389 620.819 303.736 620.016 303.288C619.232 302.84 618.364 302.616 617.412 302.616C616.479 302.616 615.611 302.849 614.808 303.316C614.024 303.764 613.389 304.427 612.904 305.304C612.437 306.163 612.204 307.161 612.204 308.3C612.204 309.457 612.437 310.475 612.904 311.352C613.389 312.211 614.024 312.873 614.808 313.34C615.611 313.788 616.479 314.012 617.412 314.012C618.364 314.012 619.232 313.788 620.016 313.34C620.819 312.873 621.453 312.211 621.92 311.352C622.387 310.475 622.62 309.448 622.62 308.272ZM631.126 303.484C631.63 302.607 632.377 301.879 633.366 301.3C634.374 300.703 635.541 300.404 636.866 300.404C638.229 300.404 639.461 300.731 640.562 301.384C641.682 302.037 642.559 302.961 643.194 304.156C643.829 305.332 644.146 306.704 644.146 308.272C644.146 309.821 643.829 311.203 643.194 312.416C642.559 313.629 641.682 314.572 640.562 315.244C639.461 315.916 638.229 316.252 636.866 316.252C635.559 316.252 634.402 315.963 633.394 315.384C632.405 314.787 631.649 314.049 631.126 313.172V323.28H628.578V300.656H631.126V303.484ZM641.542 308.272C641.542 307.115 641.309 306.107 640.842 305.248C640.375 304.389 639.741 303.736 638.938 303.288C638.154 302.84 637.286 302.616 636.334 302.616C635.401 302.616 634.533 302.849 633.73 303.316C632.946 303.764 632.311 304.427 631.826 305.304C631.359 306.163 631.126 307.161 631.126 308.3C631.126 309.457 631.359 310.475 631.826 311.352C632.311 312.211 632.946 312.873 633.73 313.34C634.533 313.788 635.401 314.012 636.334 314.012C637.286 314.012 638.154 313.788 638.938 313.34C639.741 312.873 640.375 312.211 640.842 311.352C641.309 310.475 641.542 309.448 641.542 308.272ZM658.073 302.756V311.8C658.073 312.547 658.231 313.079 658.549 313.396C658.866 313.695 659.417 313.844 660.201 313.844H662.077V316H659.781C658.362 316 657.298 315.673 656.589 315.02C655.879 314.367 655.525 313.293 655.525 311.8V302.756H653.537V300.656H655.525V296.792H658.073V300.656H662.077V302.756H658.073ZM671.856 316.252C670.418 316.252 669.112 315.925 667.936 315.272C666.778 314.619 665.864 313.695 665.192 312.5C664.538 311.287 664.212 309.887 664.212 308.3C664.212 306.732 664.548 305.351 665.22 304.156C665.91 302.943 666.844 302.019 668.02 301.384C669.196 300.731 670.512 300.404 671.968 300.404C673.424 300.404 674.74 300.731 675.916 301.384C677.092 302.019 678.016 302.933 678.688 304.128C679.378 305.323 679.724 306.713 679.724 308.3C679.724 309.887 679.369 311.287 678.66 312.5C677.969 313.695 677.026 314.619 675.832 315.272C674.637 315.925 673.312 316.252 671.856 316.252ZM671.856 314.012C672.77 314.012 673.629 313.797 674.432 313.368C675.234 312.939 675.878 312.295 676.364 311.436C676.868 310.577 677.12 309.532 677.12 308.3C677.12 307.068 676.877 306.023 676.392 305.164C675.906 304.305 675.272 303.671 674.488 303.26C673.704 302.831 672.854 302.616 671.94 302.616C671.006 302.616 670.148 302.831 669.364 303.26C668.598 303.671 667.982 304.305 667.516 305.164C667.049 306.023 666.816 307.068 666.816 308.3C666.816 309.551 667.04 310.605 667.488 311.464C667.954 312.323 668.57 312.967 669.336 313.396C670.101 313.807 670.941 314.012 671.856 314.012ZM696.783 302.756H693.563V316H691.015V302.756H689.027V300.656H691.015V299.564C691.015 297.847 691.453 296.596 692.331 295.812C693.227 295.009 694.655 294.608 696.615 294.608V296.736C695.495 296.736 694.701 296.96 694.235 297.408C693.787 297.837 693.563 298.556 693.563 299.564V300.656H696.783V302.756ZM706.446 316.252C705.008 316.252 703.702 315.925 702.526 315.272C701.368 314.619 700.454 313.695 699.782 312.5C699.128 311.287 698.802 309.887 698.802 308.3C698.802 306.732 699.138 305.351 699.81 304.156C700.5 302.943 701.434 302.019 702.61 301.384C703.786 300.731 705.102 300.404 706.558 300.404C708.014 300.404 709.33 300.731 710.506 301.384C711.682 302.019 712.606 302.933 713.278 304.128C713.968 305.323 714.314 306.713 714.314 308.3C714.314 309.887 713.959 311.287 713.25 312.5C712.559 313.695 711.616 314.619 710.422 315.272C709.227 315.925 707.902 316.252 706.446 316.252ZM706.446 314.012C707.36 314.012 708.219 313.797 709.022 313.368C709.824 312.939 710.468 312.295 710.954 311.436C711.458 310.577 711.71 309.532 711.71 308.3C711.71 307.068 711.467 306.023 710.982 305.164C710.496 304.305 709.862 303.671 709.078 303.26C708.294 302.831 707.444 302.616 706.53 302.616C705.596 302.616 704.738 302.831 703.954 303.26C703.188 303.671 702.572 304.305 702.106 305.164C701.639 306.023 701.406 307.068 701.406 308.3C701.406 309.551 701.63 310.605 702.078 311.464C702.544 312.323 703.16 312.967 703.926 313.396C704.691 313.807 705.531 314.012 706.446 314.012ZM723.096 316.252C721.92 316.252 720.865 316.056 719.932 315.664C718.998 315.253 718.261 314.693 717.72 313.984C717.178 313.256 716.88 312.425 716.824 311.492H719.456C719.53 312.257 719.885 312.883 720.52 313.368C721.173 313.853 722.022 314.096 723.068 314.096C724.038 314.096 724.804 313.881 725.364 313.452C725.924 313.023 726.204 312.481 726.204 311.828C726.204 311.156 725.905 310.661 725.308 310.344C724.71 310.008 723.786 309.681 722.536 309.364C721.397 309.065 720.464 308.767 719.736 308.468C719.026 308.151 718.41 307.693 717.888 307.096C717.384 306.48 717.132 305.677 717.132 304.688C717.132 303.904 717.365 303.185 717.832 302.532C718.298 301.879 718.961 301.365 719.82 300.992C720.678 300.6 721.658 300.404 722.76 300.404C724.458 300.404 725.83 300.833 726.876 301.692C727.921 302.551 728.481 303.727 728.556 305.22H726.008C725.952 304.417 725.625 303.773 725.028 303.288C724.449 302.803 723.665 302.56 722.676 302.56C721.761 302.56 721.033 302.756 720.492 303.148C719.95 303.54 719.68 304.053 719.68 304.688C719.68 305.192 719.838 305.612 720.156 305.948C720.492 306.265 720.902 306.527 721.388 306.732C721.892 306.919 722.582 307.133 723.46 307.376C724.561 307.675 725.457 307.973 726.148 308.272C726.838 308.552 727.426 308.981 727.912 309.56C728.416 310.139 728.677 310.895 728.696 311.828C728.696 312.668 728.462 313.424 727.996 314.096C727.529 314.768 726.866 315.3 726.008 315.692C725.168 316.065 724.197 316.252 723.096 316.252ZM735.401 302.756V311.8C735.401 312.547 735.559 313.079 735.877 313.396C736.194 313.695 736.745 313.844 737.529 313.844H739.405V316H737.109C735.69 316 734.626 315.673 733.917 315.02C733.207 314.367 732.853 313.293 732.853 311.8V302.756H730.865V300.656H732.853V296.792H735.401V300.656H739.405V302.756H735.401ZM756.492 307.74C756.492 308.225 756.464 308.739 756.408 309.28H744.144C744.237 310.792 744.751 311.977 745.684 312.836C746.636 313.676 747.784 314.096 749.128 314.096C750.229 314.096 751.144 313.844 751.872 313.34C752.619 312.817 753.141 312.127 753.44 311.268H756.184C755.773 312.743 754.952 313.947 753.72 314.88C752.488 315.795 750.957 316.252 749.128 316.252C747.672 316.252 746.365 315.925 745.208 315.272C744.069 314.619 743.173 313.695 742.52 312.5C741.867 311.287 741.54 309.887 741.54 308.3C741.54 306.713 741.857 305.323 742.492 304.128C743.127 302.933 744.013 302.019 745.152 301.384C746.309 300.731 747.635 300.404 749.128 300.404C750.584 300.404 751.872 300.721 752.992 301.356C754.112 301.991 754.971 302.868 755.568 303.988C756.184 305.089 756.492 306.34 756.492 307.74ZM753.86 307.208C753.86 306.237 753.645 305.407 753.216 304.716C752.787 304.007 752.199 303.475 751.452 303.12C750.724 302.747 749.912 302.56 749.016 302.56C747.728 302.56 746.627 302.971 745.712 303.792C744.816 304.613 744.303 305.752 744.172 307.208H753.86ZM762.403 303.148C762.851 302.271 763.486 301.589 764.307 301.104C765.147 300.619 766.165 300.376 767.359 300.376V303.008H766.687C763.831 303.008 762.403 304.557 762.403 307.656V316H759.855V300.656H762.403V303.148ZM115.204 350.3C115.204 348.713 115.521 347.332 116.156 346.156C116.791 344.961 117.668 344.037 118.788 343.384C119.927 342.731 121.224 342.404 122.68 342.404C124.565 342.404 126.115 342.861 127.328 343.776C128.56 344.691 129.372 345.96 129.764 347.584H127.02C126.759 346.651 126.245 345.913 125.48 345.372C124.733 344.831 123.8 344.56 122.68 344.56C121.224 344.56 120.048 345.064 119.152 346.072C118.256 347.061 117.808 348.471 117.808 350.3C117.808 352.148 118.256 353.576 119.152 354.584C120.048 355.592 121.224 356.096 122.68 356.096C123.8 356.096 124.733 355.835 125.48 355.312C126.227 354.789 126.74 354.043 127.02 353.072H129.764C129.353 354.64 128.532 355.9 127.3 356.852C126.068 357.785 124.528 358.252 122.68 358.252C121.224 358.252 119.927 357.925 118.788 357.272C117.668 356.619 116.791 355.695 116.156 354.5C115.521 353.305 115.204 351.905 115.204 350.3ZM139.856 358.252C138.418 358.252 137.112 357.925 135.936 357.272C134.778 356.619 133.864 355.695 133.192 354.5C132.538 353.287 132.212 351.887 132.212 350.3C132.212 348.732 132.548 347.351 133.22 346.156C133.91 344.943 134.844 344.019 136.02 343.384C137.196 342.731 138.512 342.404 139.968 342.404C141.424 342.404 142.74 342.731 143.916 343.384C145.092 344.019 146.016 344.933 146.688 346.128C147.378 347.323 147.724 348.713 147.724 350.3C147.724 351.887 147.369 353.287 146.66 354.5C145.969 355.695 145.026 356.619 143.832 357.272C142.637 357.925 141.312 358.252 139.856 358.252ZM139.856 356.012C140.77 356.012 141.629 355.797 142.432 355.368C143.234 354.939 143.878 354.295 144.364 353.436C144.868 352.577 145.12 351.532 145.12 350.3C145.12 349.068 144.877 348.023 144.392 347.164C143.906 346.305 143.272 345.671 142.488 345.26C141.704 344.831 140.854 344.616 139.94 344.616C139.006 344.616 138.148 344.831 137.364 345.26C136.598 345.671 135.982 346.305 135.516 347.164C135.049 348.023 134.816 349.068 134.816 350.3C134.816 351.551 135.04 352.605 135.488 353.464C135.954 354.323 136.57 354.967 137.336 355.396C138.101 355.807 138.941 356.012 139.856 356.012ZM158.55 342.376C160.417 342.376 161.929 342.945 163.086 344.084C164.243 345.204 164.822 346.828 164.822 348.956V358H162.302V349.32C162.302 347.789 161.919 346.623 161.154 345.82C160.389 344.999 159.343 344.588 158.018 344.588C156.674 344.588 155.601 345.008 154.798 345.848C154.014 346.688 153.622 347.911 153.622 349.516V358H151.074V342.656H153.622V344.84C154.126 344.056 154.807 343.449 155.666 343.02C156.543 342.591 157.505 342.376 158.55 342.376ZM176.46 342.376C178.327 342.376 179.839 342.945 180.996 344.084C182.153 345.204 182.732 346.828 182.732 348.956V358H180.212V349.32C180.212 347.789 179.829 346.623 179.064 345.82C178.299 344.999 177.253 344.588 175.928 344.588C174.584 344.588 173.511 345.008 172.708 345.848C171.924 346.688 171.532 347.911 171.532 349.516V358H168.984V342.656H171.532V344.84C172.036 344.056 172.717 343.449 173.576 343.02C174.453 342.591 175.415 342.376 176.46 342.376ZM200.894 349.74C200.894 350.225 200.866 350.739 200.81 351.28H188.546C188.64 352.792 189.153 353.977 190.086 354.836C191.038 355.676 192.186 356.096 193.53 356.096C194.632 356.096 195.546 355.844 196.274 355.34C197.021 354.817 197.544 354.127 197.842 353.268H200.586C200.176 354.743 199.354 355.947 198.122 356.88C196.89 357.795 195.36 358.252 193.53 358.252C192.074 358.252 190.768 357.925 189.61 357.272C188.472 356.619 187.576 355.695 186.922 354.5C186.269 353.287 185.942 351.887 185.942 350.3C185.942 348.713 186.26 347.323 186.894 346.128C187.529 344.933 188.416 344.019 189.554 343.384C190.712 342.731 192.037 342.404 193.53 342.404C194.986 342.404 196.274 342.721 197.394 343.356C198.514 343.991 199.373 344.868 199.97 345.988C200.586 347.089 200.894 348.34 200.894 349.74ZM198.262 349.208C198.262 348.237 198.048 347.407 197.618 346.716C197.189 346.007 196.601 345.475 195.854 345.12C195.126 344.747 194.314 344.56 193.418 344.56C192.13 344.56 191.029 344.971 190.114 345.792C189.218 346.613 188.705 347.752 188.574 349.208H198.262ZM203.306 350.3C203.306 348.713 203.623 347.332 204.258 346.156C204.892 344.961 205.77 344.037 206.89 343.384C208.028 342.731 209.326 342.404 210.782 342.404C212.667 342.404 214.216 342.861 215.43 343.776C216.662 344.691 217.474 345.96 217.866 347.584H215.122C214.86 346.651 214.347 345.913 213.582 345.372C212.835 344.831 211.902 344.56 210.782 344.56C209.326 344.56 208.15 345.064 207.254 346.072C206.358 347.061 205.91 348.471 205.91 350.3C205.91 352.148 206.358 353.576 207.254 354.584C208.15 355.592 209.326 356.096 210.782 356.096C211.902 356.096 212.835 355.835 213.582 355.312C214.328 354.789 214.842 354.043 215.122 353.072H217.866C217.455 354.64 216.634 355.9 215.402 356.852C214.17 357.785 212.63 358.252 210.782 358.252C209.326 358.252 208.028 357.925 206.89 357.272C205.77 356.619 204.892 355.695 204.258 354.5C203.623 353.305 203.306 351.905 203.306 350.3ZM224.373 344.756V353.8C224.373 354.547 224.532 355.079 224.849 355.396C225.167 355.695 225.717 355.844 226.501 355.844H228.377V358H226.081C224.663 358 223.599 357.673 222.889 357.02C222.18 356.367 221.825 355.293 221.825 353.8V344.756H219.837V342.656H221.825V338.792H224.373V342.656H228.377V344.756H224.373ZM232.781 340.164C232.295 340.164 231.885 339.996 231.549 339.66C231.213 339.324 231.045 338.913 231.045 338.428C231.045 337.943 231.213 337.532 231.549 337.196C231.885 336.86 232.295 336.692 232.781 336.692C233.247 336.692 233.639 336.86 233.957 337.196C234.293 337.532 234.461 337.943 234.461 338.428C234.461 338.913 234.293 339.324 233.957 339.66C233.639 339.996 233.247 340.164 232.781 340.164ZM234.013 342.656V358H231.465V342.656H234.013ZM245.047 358.252C243.61 358.252 242.303 357.925 241.127 357.272C239.97 356.619 239.055 355.695 238.383 354.5C237.73 353.287 237.403 351.887 237.403 350.3C237.403 348.732 237.739 347.351 238.411 346.156C239.102 344.943 240.035 344.019 241.211 343.384C242.387 342.731 243.703 342.404 245.159 342.404C246.615 342.404 247.931 342.731 249.107 343.384C250.283 344.019 251.207 344.933 251.879 346.128C252.57 347.323 252.915 348.713 252.915 350.3C252.915 351.887 252.561 353.287 251.851 354.5C251.161 355.695 250.218 356.619 249.023 357.272C247.829 357.925 246.503 358.252 245.047 358.252ZM245.047 356.012C245.962 356.012 246.821 355.797 247.623 355.368C248.426 354.939 249.07 354.295 249.555 353.436C250.059 352.577 250.311 351.532 250.311 350.3C250.311 349.068 250.069 348.023 249.583 347.164C249.098 346.305 248.463 345.671 247.679 345.26C246.895 344.831 246.046 344.616 245.131 344.616C244.198 344.616 243.339 344.831 242.555 345.26C241.79 345.671 241.174 346.305 240.707 347.164C240.241 348.023 240.007 349.068 240.007 350.3C240.007 351.551 240.231 352.605 240.679 353.464C241.146 354.323 241.762 354.967 242.527 355.396C243.293 355.807 244.133 356.012 245.047 356.012ZM263.741 342.376C265.608 342.376 267.12 342.945 268.277 344.084C269.435 345.204 270.013 346.828 270.013 348.956V358H267.493V349.32C267.493 347.789 267.111 346.623 266.345 345.82C265.58 344.999 264.535 344.588 263.209 344.588C261.865 344.588 260.792 345.008 259.989 345.848C259.205 346.688 258.813 347.911 258.813 349.516V358H256.265V342.656H258.813V344.84C259.317 344.056 259.999 343.449 260.857 343.02C261.735 342.591 262.696 342.376 263.741 342.376ZM279.608 358.252C278.432 358.252 277.377 358.056 276.444 357.664C275.51 357.253 274.773 356.693 274.232 355.984C273.69 355.256 273.392 354.425 273.336 353.492H275.968C276.042 354.257 276.397 354.883 277.032 355.368C277.685 355.853 278.534 356.096 279.58 356.096C280.55 356.096 281.316 355.881 281.876 355.452C282.436 355.023 282.716 354.481 282.716 353.828C282.716 353.156 282.417 352.661 281.82 352.344C281.222 352.008 280.298 351.681 279.048 351.364C277.909 351.065 276.976 350.767 276.248 350.468C275.538 350.151 274.922 349.693 274.4 349.096C273.896 348.48 273.644 347.677 273.644 346.688C273.644 345.904 273.877 345.185 274.344 344.532C274.81 343.879 275.473 343.365 276.332 342.992C277.19 342.6 278.17 342.404 279.272 342.404C280.97 342.404 282.342 342.833 283.388 343.692C284.433 344.551 284.993 345.727 285.068 347.22H282.52C282.464 346.417 282.137 345.773 281.54 345.288C280.961 344.803 280.177 344.56 279.188 344.56C278.273 344.56 277.545 344.756 277.004 345.148C276.462 345.54 276.192 346.053 276.192 346.688C276.192 347.192 276.35 347.612 276.668 347.948C277.004 348.265 277.414 348.527 277.9 348.732C278.404 348.919 279.094 349.133 279.972 349.376C281.073 349.675 281.969 349.973 282.66 350.272C283.35 350.552 283.938 350.981 284.424 351.56C284.928 352.139 285.189 352.895 285.208 353.828C285.208 354.668 284.974 355.424 284.508 356.096C284.041 356.768 283.378 357.3 282.52 357.692C281.68 358.065 280.709 358.252 279.608 358.252ZM295.317 350.272C295.317 348.704 295.635 347.332 296.269 346.156C296.904 344.961 297.772 344.037 298.873 343.384C299.993 342.731 301.235 342.404 302.597 342.404C303.941 342.404 305.108 342.693 306.097 343.272C307.087 343.851 307.824 344.579 308.309 345.456V342.656H310.885V358H308.309V355.144C307.805 356.04 307.049 356.787 306.041 357.384C305.052 357.963 303.895 358.252 302.569 358.252C301.207 358.252 299.975 357.916 298.873 357.244C297.772 356.572 296.904 355.629 296.269 354.416C295.635 353.203 295.317 351.821 295.317 350.272ZM308.309 350.3C308.309 349.143 308.076 348.135 307.609 347.276C307.143 346.417 306.508 345.764 305.705 345.316C304.921 344.849 304.053 344.616 303.101 344.616C302.149 344.616 301.281 344.84 300.497 345.288C299.713 345.736 299.088 346.389 298.621 347.248C298.155 348.107 297.921 349.115 297.921 350.272C297.921 351.448 298.155 352.475 298.621 353.352C299.088 354.211 299.713 354.873 300.497 355.34C301.281 355.788 302.149 356.012 303.101 356.012C304.053 356.012 304.921 355.788 305.705 355.34C306.508 354.873 307.143 354.211 307.609 353.352C308.076 352.475 308.309 351.457 308.309 350.3ZM322.667 342.376C324.534 342.376 326.046 342.945 327.203 344.084C328.36 345.204 328.939 346.828 328.939 348.956V358H326.419V349.32C326.419 347.789 326.036 346.623 325.271 345.82C324.506 344.999 323.46 344.588 322.135 344.588C320.791 344.588 319.718 345.008 318.915 345.848C318.131 346.688 317.739 347.911 317.739 349.516V358H315.191V342.656H317.739V344.84C318.243 344.056 318.924 343.449 319.783 343.02C320.66 342.591 321.622 342.376 322.667 342.376ZM332.149 350.272C332.149 348.704 332.467 347.332 333.101 346.156C333.736 344.961 334.604 344.037 335.705 343.384C336.825 342.731 338.076 342.404 339.457 342.404C340.652 342.404 341.763 342.684 342.789 343.244C343.816 343.785 344.6 344.504 345.141 345.4V337.28H347.717V358H345.141V355.116C344.637 356.031 343.891 356.787 342.901 357.384C341.912 357.963 340.755 358.252 339.429 358.252C338.067 358.252 336.825 357.916 335.705 357.244C334.604 356.572 333.736 355.629 333.101 354.416C332.467 353.203 332.149 351.821 332.149 350.272ZM345.141 350.3C345.141 349.143 344.908 348.135 344.441 347.276C343.975 346.417 343.34 345.764 342.537 345.316C341.753 344.849 340.885 344.616 339.933 344.616C338.981 344.616 338.113 344.84 337.329 345.288C336.545 345.736 335.92 346.389 335.453 347.248C334.987 348.107 334.753 349.115 334.753 350.272C334.753 351.448 334.987 352.475 335.453 353.352C335.92 354.211 336.545 354.873 337.329 355.34C338.113 355.788 338.981 356.012 339.933 356.012C340.885 356.012 341.753 355.788 342.537 355.34C343.34 354.873 343.975 354.211 344.441 353.352C344.908 352.475 345.141 351.457 345.141 350.3ZM362.036 345.484C362.54 344.607 363.287 343.879 364.276 343.3C365.284 342.703 366.451 342.404 367.776 342.404C369.139 342.404 370.371 342.731 371.472 343.384C372.592 344.037 373.469 344.961 374.104 346.156C374.739 347.332 375.056 348.704 375.056 350.272C375.056 351.821 374.739 353.203 374.104 354.416C373.469 355.629 372.592 356.572 371.472 357.244C370.371 357.916 369.139 358.252 367.776 358.252C366.469 358.252 365.312 357.963 364.304 357.384C363.315 356.787 362.559 356.049 362.036 355.172V365.28H359.488V342.656H362.036V345.484ZM372.452 350.272C372.452 349.115 372.219 348.107 371.752 347.248C371.285 346.389 370.651 345.736 369.848 345.288C369.064 344.84 368.196 344.616 367.244 344.616C366.311 344.616 365.443 344.849 364.64 345.316C363.856 345.764 363.221 346.427 362.736 347.304C362.269 348.163 362.036 349.161 362.036 350.3C362.036 351.457 362.269 352.475 362.736 353.352C363.221 354.211 363.856 354.873 364.64 355.34C365.443 355.788 366.311 356.012 367.244 356.012C368.196 356.012 369.064 355.788 369.848 355.34C370.651 354.873 371.285 354.211 371.752 353.352C372.219 352.475 372.452 351.448 372.452 350.272ZM380.958 345.148C381.406 344.271 382.041 343.589 382.862 343.104C383.702 342.619 384.719 342.376 385.914 342.376V345.008H385.242C382.386 345.008 380.958 346.557 380.958 349.656V358H378.41V342.656H380.958V345.148ZM395.547 358.252C394.11 358.252 392.803 357.925 391.627 357.272C390.47 356.619 389.555 355.695 388.883 354.5C388.23 353.287 387.903 351.887 387.903 350.3C387.903 348.732 388.239 347.351 388.911 346.156C389.602 344.943 390.535 344.019 391.711 343.384C392.887 342.731 394.203 342.404 395.659 342.404C397.115 342.404 398.431 342.731 399.607 343.384C400.783 344.019 401.707 344.933 402.379 346.128C403.07 347.323 403.415 348.713 403.415 350.3C403.415 351.887 403.061 353.287 402.351 354.5C401.661 355.695 400.718 356.619 399.523 357.272C398.329 357.925 397.003 358.252 395.547 358.252ZM395.547 356.012C396.462 356.012 397.321 355.797 398.123 355.368C398.926 354.939 399.57 354.295 400.055 353.436C400.559 352.577 400.811 351.532 400.811 350.3C400.811 349.068 400.569 348.023 400.083 347.164C399.598 346.305 398.963 345.671 398.179 345.26C397.395 344.831 396.546 344.616 395.631 344.616C394.698 344.616 393.839 344.831 393.055 345.26C392.29 345.671 391.674 346.305 391.207 347.164C390.741 348.023 390.507 349.068 390.507 350.3C390.507 351.551 390.731 352.605 391.179 353.464C391.646 354.323 392.262 354.967 393.027 355.396C393.793 355.807 394.633 356.012 395.547 356.012ZM412.477 355.648L417.237 342.656H419.953L413.933 358H410.965L404.945 342.656H407.689L412.477 355.648ZM423.777 340.164C423.291 340.164 422.881 339.996 422.545 339.66C422.209 339.324 422.041 338.913 422.041 338.428C422.041 337.943 422.209 337.532 422.545 337.196C422.881 336.86 423.291 336.692 423.777 336.692C424.243 336.692 424.635 336.86 424.953 337.196C425.289 337.532 425.457 337.943 425.457 338.428C425.457 338.913 425.289 339.324 424.953 339.66C424.635 339.996 424.243 340.164 423.777 340.164ZM425.009 342.656V358H422.461V342.656H425.009ZM428.399 350.272C428.399 348.704 428.717 347.332 429.351 346.156C429.986 344.961 430.854 344.037 431.955 343.384C433.075 342.731 434.326 342.404 435.707 342.404C436.902 342.404 438.013 342.684 439.039 343.244C440.066 343.785 440.85 344.504 441.391 345.4V337.28H443.967V358H441.391V355.116C440.887 356.031 440.141 356.787 439.151 357.384C438.162 357.963 437.005 358.252 435.679 358.252C434.317 358.252 433.075 357.916 431.955 357.244C430.854 356.572 429.986 355.629 429.351 354.416C428.717 353.203 428.399 351.821 428.399 350.272ZM441.391 350.3C441.391 349.143 441.158 348.135 440.691 347.276C440.225 346.417 439.59 345.764 438.787 345.316C438.003 344.849 437.135 344.616 436.183 344.616C435.231 344.616 434.363 344.84 433.579 345.288C432.795 345.736 432.17 346.389 431.703 347.248C431.237 348.107 431.003 349.115 431.003 350.272C431.003 351.448 431.237 352.475 431.703 353.352C432.17 354.211 432.795 354.873 433.579 355.34C434.363 355.788 435.231 356.012 436.183 356.012C437.135 356.012 438.003 355.788 438.787 355.34C439.59 354.873 440.225 354.211 440.691 353.352C441.158 352.475 441.391 351.457 441.391 350.3ZM462.273 349.74C462.273 350.225 462.245 350.739 462.189 351.28H449.925C450.019 352.792 450.532 353.977 451.465 354.836C452.417 355.676 453.565 356.096 454.909 356.096C456.011 356.096 456.925 355.844 457.653 355.34C458.4 354.817 458.923 354.127 459.221 353.268H461.965C461.555 354.743 460.733 355.947 459.501 356.88C458.269 357.795 456.739 358.252 454.909 358.252C453.453 358.252 452.147 357.925 450.989 357.272C449.851 356.619 448.955 355.695 448.301 354.5C447.648 353.287 447.321 351.887 447.321 350.3C447.321 348.713 447.639 347.323 448.273 346.128C448.908 344.933 449.795 344.019 450.933 343.384C452.091 342.731 453.416 342.404 454.909 342.404C456.365 342.404 457.653 342.721 458.773 343.356C459.893 343.991 460.752 344.868 461.349 345.988C461.965 347.089 462.273 348.34 462.273 349.74ZM459.641 349.208C459.641 348.237 459.427 347.407 458.997 346.716C458.568 346.007 457.98 345.475 457.233 345.12C456.505 344.747 455.693 344.56 454.797 344.56C453.509 344.56 452.408 344.971 451.493 345.792C450.597 346.613 450.084 347.752 449.953 349.208H459.641ZM478.533 358.252C477.357 358.252 476.303 358.056 475.369 357.664C474.436 357.253 473.699 356.693 473.157 355.984C472.616 355.256 472.317 354.425 472.261 353.492H474.893C474.968 354.257 475.323 354.883 475.957 355.368C476.611 355.853 477.46 356.096 478.505 356.096C479.476 356.096 480.241 355.881 480.801 355.452C481.361 355.023 481.641 354.481 481.641 353.828C481.641 353.156 481.343 352.661 480.745 352.344C480.148 352.008 479.224 351.681 477.973 351.364C476.835 351.065 475.901 350.767 475.173 350.468C474.464 350.151 473.848 349.693 473.325 349.096C472.821 348.48 472.569 347.677 472.569 346.688C472.569 345.904 472.803 345.185 473.269 344.532C473.736 343.879 474.399 343.365 475.257 342.992C476.116 342.6 477.096 342.404 478.197 342.404C479.896 342.404 481.268 342.833 482.313 343.692C483.359 344.551 483.919 345.727 483.993 347.22H481.445C481.389 346.417 481.063 345.773 480.465 345.288C479.887 344.803 479.103 344.56 478.113 344.56C477.199 344.56 476.471 344.756 475.929 345.148C475.388 345.54 475.117 346.053 475.117 346.688C475.117 347.192 475.276 347.612 475.593 347.948C475.929 348.265 476.34 348.527 476.825 348.732C477.329 348.919 478.02 349.133 478.897 349.376C479.999 349.675 480.895 349.973 481.585 350.272C482.276 350.552 482.864 350.981 483.349 351.56C483.853 352.139 484.115 352.895 484.133 353.828C484.133 354.668 483.9 355.424 483.433 356.096C482.967 356.768 482.304 357.3 481.445 357.692C480.605 358.065 479.635 358.252 478.533 358.252ZM501.338 342.656V358H498.79V355.732C498.305 356.516 497.624 357.132 496.746 357.58C495.888 358.009 494.936 358.224 493.89 358.224C492.696 358.224 491.622 357.981 490.67 357.496C489.718 356.992 488.962 356.245 488.402 355.256C487.861 354.267 487.59 353.063 487.59 351.644V342.656H490.11V351.308C490.11 352.82 490.493 353.987 491.258 354.808C492.024 355.611 493.069 356.012 494.394 356.012C495.757 356.012 496.83 355.592 497.614 354.752C498.398 353.912 498.79 352.689 498.79 351.084V342.656H501.338ZM508.188 345.484C508.692 344.607 509.439 343.879 510.428 343.3C511.436 342.703 512.603 342.404 513.928 342.404C515.291 342.404 516.523 342.731 517.624 343.384C518.744 344.037 519.622 344.961 520.256 346.156C520.891 347.332 521.208 348.704 521.208 350.272C521.208 351.821 520.891 353.203 520.256 354.416C519.622 355.629 518.744 356.572 517.624 357.244C516.523 357.916 515.291 358.252 513.928 358.252C512.622 358.252 511.464 357.963 510.456 357.384C509.467 356.787 508.711 356.049 508.188 355.172V365.28H505.64V342.656H508.188V345.484ZM518.604 350.272C518.604 349.115 518.371 348.107 517.904 347.248C517.438 346.389 516.803 345.736 516 345.288C515.216 344.84 514.348 344.616 513.396 344.616C512.463 344.616 511.595 344.849 510.792 345.316C510.008 345.764 509.374 346.427 508.888 347.304C508.422 348.163 508.188 349.161 508.188 350.3C508.188 351.457 508.422 352.475 508.888 353.352C509.374 354.211 510.008 354.873 510.792 355.34C511.595 355.788 512.463 356.012 513.396 356.012C514.348 356.012 515.216 355.788 516 355.34C516.803 354.873 517.438 354.211 517.904 353.352C518.371 352.475 518.604 351.448 518.604 350.272ZM527.11 345.484C527.614 344.607 528.361 343.879 529.35 343.3C530.358 342.703 531.525 342.404 532.85 342.404C534.213 342.404 535.445 342.731 536.546 343.384C537.666 344.037 538.544 344.961 539.178 346.156C539.813 347.332 540.13 348.704 540.13 350.272C540.13 351.821 539.813 353.203 539.178 354.416C538.544 355.629 537.666 356.572 536.546 357.244C535.445 357.916 534.213 358.252 532.85 358.252C531.544 358.252 530.386 357.963 529.378 357.384C528.389 356.787 527.633 356.049 527.11 355.172V365.28H524.562V342.656H527.11V345.484ZM537.526 350.272C537.526 349.115 537.293 348.107 536.826 347.248C536.36 346.389 535.725 345.736 534.922 345.288C534.138 344.84 533.27 344.616 532.318 344.616C531.385 344.616 530.517 344.849 529.714 345.316C528.93 345.764 528.296 346.427 527.81 347.304C527.344 348.163 527.11 349.161 527.11 350.3C527.11 351.457 527.344 352.475 527.81 353.352C528.296 354.211 528.93 354.873 529.714 355.34C530.517 355.788 531.385 356.012 532.318 356.012C533.27 356.012 534.138 355.788 534.922 355.34C535.725 354.873 536.36 354.211 536.826 353.352C537.293 352.475 537.526 351.448 537.526 350.272ZM550.176 358.252C548.739 358.252 547.432 357.925 546.256 357.272C545.099 356.619 544.184 355.695 543.512 354.5C542.859 353.287 542.532 351.887 542.532 350.3C542.532 348.732 542.868 347.351 543.54 346.156C544.231 344.943 545.164 344.019 546.34 343.384C547.516 342.731 548.832 342.404 550.288 342.404C551.744 342.404 553.06 342.731 554.236 343.384C555.412 344.019 556.336 344.933 557.008 346.128C557.699 347.323 558.044 348.713 558.044 350.3C558.044 351.887 557.689 353.287 556.98 354.5C556.289 355.695 555.347 356.619 554.152 357.272C552.957 357.925 551.632 358.252 550.176 358.252ZM550.176 356.012C551.091 356.012 551.949 355.797 552.752 355.368C553.555 354.939 554.199 354.295 554.684 353.436C555.188 352.577 555.44 351.532 555.44 350.3C555.44 349.068 555.197 348.023 554.712 347.164C554.227 346.305 553.592 345.671 552.808 345.26C552.024 344.831 551.175 344.616 550.26 344.616C549.327 344.616 548.468 344.831 547.684 345.26C546.919 345.671 546.303 346.305 545.836 347.164C545.369 348.023 545.136 349.068 545.136 350.3C545.136 351.551 545.36 352.605 545.808 353.464C546.275 354.323 546.891 354.967 547.656 355.396C548.421 355.807 549.261 356.012 550.176 356.012ZM563.942 345.148C564.39 344.271 565.025 343.589 565.846 343.104C566.686 342.619 567.704 342.376 568.898 342.376V345.008H568.226C565.37 345.008 563.942 346.557 563.942 349.656V358H561.394V342.656H563.942V345.148ZM574.948 344.756V353.8C574.948 354.547 575.106 355.079 575.424 355.396C575.741 355.695 576.292 355.844 577.076 355.844H578.952V358H576.656C575.237 358 574.173 357.673 573.464 357.02C572.754 356.367 572.4 355.293 572.4 353.8V344.756H570.412V342.656H572.4V338.792H574.948V342.656H578.952V344.756H574.948ZM595.748 344.756H592.528V358H589.98V344.756H587.992V342.656H589.98V341.564C589.98 339.847 590.418 338.596 591.296 337.812C592.192 337.009 593.62 336.608 595.58 336.608V338.736C594.46 338.736 593.666 338.96 593.2 339.408C592.752 339.837 592.528 340.556 592.528 341.564V342.656H595.748V344.756ZM605.411 358.252C603.973 358.252 602.667 357.925 601.491 357.272C600.333 356.619 599.419 355.695 598.747 354.5C598.093 353.287 597.767 351.887 597.767 350.3C597.767 348.732 598.103 347.351 598.775 346.156C599.465 344.943 600.399 344.019 601.575 343.384C602.751 342.731 604.067 342.404 605.523 342.404C606.979 342.404 608.295 342.731 609.471 343.384C610.647 344.019 611.571 344.933 612.243 346.128C612.933 347.323 613.279 348.713 613.279 350.3C613.279 351.887 612.924 353.287 612.215 354.5C611.524 355.695 610.581 356.619 609.387 357.272C608.192 357.925 606.867 358.252 605.411 358.252ZM605.411 356.012C606.325 356.012 607.184 355.797 607.987 355.368C608.789 354.939 609.433 354.295 609.919 353.436C610.423 352.577 610.675 351.532 610.675 350.3C610.675 349.068 610.432 348.023 609.947 347.164C609.461 346.305 608.827 345.671 608.043 345.26C607.259 344.831 606.409 344.616 605.495 344.616C604.561 344.616 603.703 344.831 602.919 345.26C602.153 345.671 601.537 346.305 601.071 347.164C600.604 348.023 600.371 349.068 600.371 350.3C600.371 351.551 600.595 352.605 601.043 353.464C601.509 354.323 602.125 354.967 602.891 355.396C603.656 355.807 604.496 356.012 605.411 356.012ZM619.177 345.148C619.625 344.271 620.259 343.589 621.081 343.104C621.921 342.619 622.938 342.376 624.133 342.376V345.008H623.461C620.605 345.008 619.177 346.557 619.177 349.656V358H616.629V342.656H619.177V345.148ZM648.539 349.74C648.539 350.225 648.511 350.739 648.455 351.28H636.191C636.284 352.792 636.797 353.977 637.731 354.836C638.683 355.676 639.831 356.096 641.175 356.096C642.276 356.096 643.191 355.844 643.919 355.34C644.665 354.817 645.188 354.127 645.487 353.268H648.231C647.82 354.743 646.999 355.947 645.767 356.88C644.535 357.795 643.004 358.252 641.175 358.252C639.719 358.252 638.412 357.925 637.255 357.272C636.116 356.619 635.22 355.695 634.567 354.5C633.913 353.287 633.587 351.887 633.587 350.3C633.587 348.713 633.904 347.323 634.539 346.128C635.173 344.933 636.06 344.019 637.199 343.384C638.356 342.731 639.681 342.404 641.175 342.404C642.631 342.404 643.919 342.721 645.039 343.356C646.159 343.991 647.017 344.868 647.615 345.988C648.231 347.089 648.539 348.34 648.539 349.74ZM645.907 349.208C645.907 348.237 645.692 347.407 645.263 346.716C644.833 346.007 644.245 345.475 643.499 345.12C642.771 344.747 641.959 344.56 641.063 344.56C639.775 344.56 638.673 344.971 637.759 345.792C636.863 346.613 636.349 347.752 636.219 349.208H645.907ZM670.354 342.376C671.549 342.376 672.613 342.628 673.546 343.132C674.479 343.617 675.217 344.355 675.758 345.344C676.299 346.333 676.57 347.537 676.57 348.956V358H674.05V349.32C674.05 347.789 673.667 346.623 672.902 345.82C672.155 344.999 671.138 344.588 669.85 344.588C668.525 344.588 667.47 345.017 666.686 345.876C665.902 346.716 665.51 347.939 665.51 349.544V358H662.99V349.32C662.99 347.789 662.607 346.623 661.842 345.82C661.095 344.999 660.078 344.588 658.79 344.588C657.465 344.588 656.41 345.017 655.626 345.876C654.842 346.716 654.45 347.939 654.45 349.544V358H651.902V342.656H654.45V344.868C654.954 344.065 655.626 343.449 656.466 343.02C657.325 342.591 658.267 342.376 659.294 342.376C660.582 342.376 661.721 342.665 662.71 343.244C663.699 343.823 664.437 344.672 664.922 345.792C665.351 344.709 666.061 343.869 667.05 343.272C668.039 342.675 669.141 342.376 670.354 342.376ZM687.442 358.252C686.004 358.252 684.698 357.925 683.522 357.272C682.364 356.619 681.45 355.695 680.778 354.5C680.124 353.287 679.798 351.887 679.798 350.3C679.798 348.732 680.134 347.351 680.806 346.156C681.496 344.943 682.43 344.019 683.606 343.384C684.782 342.731 686.098 342.404 687.554 342.404C689.01 342.404 690.326 342.731 691.502 343.384C692.678 344.019 693.602 344.933 694.274 346.128C694.964 347.323 695.31 348.713 695.31 350.3C695.31 351.887 694.955 353.287 694.246 354.5C693.555 355.695 692.612 356.619 691.418 357.272C690.223 357.925 688.898 358.252 687.442 358.252ZM687.442 356.012C688.356 356.012 689.215 355.797 690.018 355.368C690.82 354.939 691.464 354.295 691.95 353.436C692.454 352.577 692.706 351.532 692.706 350.3C692.706 349.068 692.463 348.023 691.978 347.164C691.492 346.305 690.858 345.671 690.074 345.26C689.29 344.831 688.44 344.616 687.526 344.616C686.592 344.616 685.734 344.831 684.95 345.26C684.184 345.671 683.568 346.305 683.102 347.164C682.635 348.023 682.402 349.068 682.402 350.3C682.402 351.551 682.626 352.605 683.074 353.464C683.54 354.323 684.156 354.967 684.922 355.396C685.687 355.807 686.527 356.012 687.442 356.012ZM701.768 344.756V353.8C701.768 354.547 701.927 355.079 702.244 355.396C702.561 355.695 703.112 355.844 703.896 355.844H705.772V358H703.476C702.057 358 700.993 357.673 700.284 357.02C699.575 356.367 699.22 355.293 699.22 353.8V344.756H697.232V342.656H699.22V338.792H701.768V342.656H705.772V344.756H701.768ZM710.175 340.164C709.69 340.164 709.279 339.996 708.943 339.66C708.607 339.324 708.439 338.913 708.439 338.428C708.439 337.943 708.607 337.532 708.943 337.196C709.279 336.86 709.69 336.692 710.175 336.692C710.642 336.692 711.034 336.86 711.351 337.196C711.687 337.532 711.855 337.943 711.855 338.428C711.855 338.913 711.687 339.324 711.351 339.66C711.034 339.996 710.642 340.164 710.175 340.164ZM711.407 342.656V358H708.859V342.656H711.407ZM722.442 358.252C721.004 358.252 719.698 357.925 718.522 357.272C717.364 356.619 716.45 355.695 715.778 354.5C715.124 353.287 714.798 351.887 714.798 350.3C714.798 348.732 715.134 347.351 715.806 346.156C716.496 344.943 717.43 344.019 718.606 343.384C719.782 342.731 721.098 342.404 722.554 342.404C724.01 342.404 725.326 342.731 726.502 343.384C727.678 344.019 728.602 344.933 729.274 346.128C729.964 347.323 730.31 348.713 730.31 350.3C730.31 351.887 729.955 353.287 729.246 354.5C728.555 355.695 727.612 356.619 726.418 357.272C725.223 357.925 723.898 358.252 722.442 358.252ZM722.442 356.012C723.356 356.012 724.215 355.797 725.018 355.368C725.82 354.939 726.464 354.295 726.95 353.436C727.454 352.577 727.706 351.532 727.706 350.3C727.706 349.068 727.463 348.023 726.978 347.164C726.492 346.305 725.858 345.671 725.074 345.26C724.29 344.831 723.44 344.616 722.526 344.616C721.592 344.616 720.734 344.831 719.95 345.26C719.184 345.671 718.568 346.305 718.102 347.164C717.635 348.023 717.402 349.068 717.402 350.3C717.402 351.551 717.626 352.605 718.074 353.464C718.54 354.323 719.156 354.967 719.922 355.396C720.687 355.807 721.527 356.012 722.442 356.012ZM741.136 342.376C743.003 342.376 744.515 342.945 745.672 344.084C746.829 345.204 747.408 346.828 747.408 348.956V358H744.888V349.32C744.888 347.789 744.505 346.623 743.74 345.82C742.975 344.999 741.929 344.588 740.604 344.588C739.26 344.588 738.187 345.008 737.384 345.848C736.6 346.688 736.208 347.911 736.208 349.516V358H733.66V342.656H736.208V344.84C736.712 344.056 737.393 343.449 738.252 343.02C739.129 342.591 740.091 342.376 741.136 342.376ZM750.618 350.272C750.618 348.704 750.935 347.332 751.57 346.156C752.205 344.961 753.073 344.037 754.174 343.384C755.294 342.731 756.535 342.404 757.898 342.404C759.242 342.404 760.409 342.693 761.398 343.272C762.387 343.851 763.125 344.579 763.61 345.456V342.656H766.186V358H763.61V355.144C763.106 356.04 762.35 356.787 761.342 357.384C760.353 357.963 759.195 358.252 757.87 358.252C756.507 358.252 755.275 357.916 754.174 357.244C753.073 356.572 752.205 355.629 751.57 354.416C750.935 353.203 750.618 351.821 750.618 350.272ZM763.61 350.3C763.61 349.143 763.377 348.135 762.91 347.276C762.443 346.417 761.809 345.764 761.006 345.316C760.222 344.849 759.354 344.616 758.402 344.616C757.45 344.616 756.582 344.84 755.798 345.288C755.014 345.736 754.389 346.389 753.922 347.248C753.455 348.107 753.222 349.115 753.222 350.272C753.222 351.448 753.455 352.475 753.922 353.352C754.389 354.211 755.014 354.873 755.798 355.34C756.582 355.788 757.45 356.012 758.402 356.012C759.354 356.012 760.222 355.788 761.006 355.34C761.809 354.873 762.443 354.211 762.91 353.352C763.377 352.475 763.61 351.457 763.61 350.3ZM773.04 337.28V358H770.492V337.28H773.04ZM136.596 384.656L131.808 400H129.176L125.48 387.82L121.784 400H119.152L114.336 384.656H116.94L120.468 397.536L124.276 384.656H126.88L130.604 397.564L134.076 384.656H136.596ZM153.125 391.74C153.125 392.225 153.097 392.739 153.041 393.28H140.777C140.87 394.792 141.383 395.977 142.317 396.836C143.269 397.676 144.417 398.096 145.761 398.096C146.862 398.096 147.777 397.844 148.505 397.34C149.251 396.817 149.774 396.127 150.073 395.268H152.817C152.406 396.743 151.585 397.947 150.353 398.88C149.121 399.795 147.59 400.252 145.761 400.252C144.305 400.252 142.998 399.925 141.841 399.272C140.702 398.619 139.806 397.695 139.153 396.5C138.499 395.287 138.173 393.887 138.173 392.3C138.173 390.713 138.49 389.323 139.125 388.128C139.759 386.933 140.646 386.019 141.785 385.384C142.942 384.731 144.267 384.404 145.761 384.404C147.217 384.404 148.505 384.721 149.625 385.356C150.745 385.991 151.603 386.868 152.201 387.988C152.817 389.089 153.125 390.34 153.125 391.74ZM150.493 391.208C150.493 390.237 150.278 389.407 149.849 388.716C149.419 388.007 148.831 387.475 148.085 387.12C147.357 386.747 146.545 386.56 145.649 386.56C144.361 386.56 143.259 386.971 142.345 387.792C141.449 388.613 140.935 389.752 140.805 391.208H150.493ZM159.036 379.28V400H156.488V379.28H159.036ZM165.927 379.28V400H163.379V379.28H165.927ZM180.909 388.66V390.816H169.737V388.66H180.909ZM188.239 387.512C188.762 386.597 189.527 385.851 190.535 385.272C191.543 384.693 192.691 384.404 193.979 384.404C195.36 384.404 196.602 384.731 197.703 385.384C198.804 386.037 199.672 386.961 200.307 388.156C200.942 389.332 201.259 390.704 201.259 392.272C201.259 393.821 200.942 395.203 200.307 396.416C199.672 397.629 198.795 398.572 197.675 399.244C196.574 399.916 195.342 400.252 193.979 400.252C192.654 400.252 191.487 399.963 190.479 399.384C189.49 398.805 188.743 398.068 188.239 397.172V400H185.691V379.28H188.239V387.512ZM198.655 392.272C198.655 391.115 198.422 390.107 197.955 389.248C197.488 388.389 196.854 387.736 196.051 387.288C195.267 386.84 194.399 386.616 193.447 386.616C192.514 386.616 191.646 386.849 190.843 387.316C190.059 387.764 189.424 388.427 188.939 389.304C188.472 390.163 188.239 391.161 188.239 392.3C188.239 393.457 188.472 394.475 188.939 395.352C189.424 396.211 190.059 396.873 190.843 397.34C191.646 397.788 192.514 398.012 193.447 398.012C194.399 398.012 195.267 397.788 196.051 397.34C196.854 396.873 197.488 396.211 197.955 395.352C198.422 394.475 198.655 393.448 198.655 392.272ZM218.613 391.74C218.613 392.225 218.585 392.739 218.529 393.28H206.265C206.358 394.792 206.872 395.977 207.805 396.836C208.757 397.676 209.905 398.096 211.249 398.096C212.35 398.096 213.265 397.844 213.993 397.34C214.74 396.817 215.262 396.127 215.561 395.268H218.305C217.894 396.743 217.073 397.947 215.841 398.88C214.609 399.795 213.078 400.252 211.249 400.252C209.793 400.252 208.486 399.925 207.329 399.272C206.19 398.619 205.294 397.695 204.641 396.5C203.988 395.287 203.661 393.887 203.661 392.3C203.661 390.713 203.978 389.323 204.613 388.128C205.248 386.933 206.134 386.019 207.273 385.384C208.43 384.731 209.756 384.404 211.249 384.404C212.705 384.404 213.993 384.721 215.113 385.356C216.233 385.991 217.092 386.868 217.689 387.988C218.305 389.089 218.613 390.34 218.613 391.74ZM215.981 391.208C215.981 390.237 215.766 389.407 215.337 388.716C214.908 388.007 214.32 387.475 213.573 387.12C212.845 386.747 212.033 386.56 211.137 386.56C209.849 386.56 208.748 386.971 207.833 387.792C206.937 388.613 206.424 389.752 206.293 391.208H215.981ZM223.292 382.164C222.807 382.164 222.396 381.996 222.06 381.66C221.724 381.324 221.556 380.913 221.556 380.428C221.556 379.943 221.724 379.532 222.06 379.196C222.396 378.86 222.807 378.692 223.292 378.692C223.759 378.692 224.151 378.86 224.468 379.196C224.804 379.532 224.972 379.943 224.972 380.428C224.972 380.913 224.804 381.324 224.468 381.66C224.151 381.996 223.759 382.164 223.292 382.164ZM224.524 384.656V400H221.976V384.656H224.524ZM236.343 384.376C238.21 384.376 239.722 384.945 240.879 386.084C242.036 387.204 242.615 388.828 242.615 390.956V400H240.095V391.32C240.095 389.789 239.712 388.623 238.947 387.82C238.182 386.999 237.136 386.588 235.811 386.588C234.467 386.588 233.394 387.008 232.591 387.848C231.807 388.688 231.415 389.911 231.415 391.516V400H228.867V384.656H231.415V386.84C231.919 386.056 232.6 385.449 233.459 385.02C234.336 384.591 235.298 384.376 236.343 384.376ZM253.105 384.404C254.43 384.404 255.588 384.693 256.577 385.272C257.585 385.851 258.332 386.579 258.817 387.456V384.656H261.393V400.336C261.393 401.736 261.094 402.977 260.497 404.06C259.9 405.161 259.041 406.02 257.921 406.636C256.82 407.252 255.532 407.56 254.057 407.56C252.041 407.56 250.361 407.084 249.017 406.132C247.673 405.18 246.88 403.883 246.637 402.24H249.157C249.437 403.173 250.016 403.92 250.893 404.48C251.77 405.059 252.825 405.348 254.057 405.348C255.457 405.348 256.596 404.909 257.473 404.032C258.369 403.155 258.817 401.923 258.817 400.336V397.116C258.313 398.012 257.566 398.759 256.577 399.356C255.588 399.953 254.43 400.252 253.105 400.252C251.742 400.252 250.501 399.916 249.381 399.244C248.28 398.572 247.412 397.629 246.777 396.416C246.142 395.203 245.825 393.821 245.825 392.272C245.825 390.704 246.142 389.332 246.777 388.156C247.412 386.961 248.28 386.037 249.381 385.384C250.501 384.731 251.742 384.404 253.105 384.404ZM258.817 392.3C258.817 391.143 258.584 390.135 258.117 389.276C257.65 388.417 257.016 387.764 256.213 387.316C255.429 386.849 254.561 386.616 253.609 386.616C252.657 386.616 251.789 386.84 251.005 387.288C250.221 387.736 249.596 388.389 249.129 389.248C248.662 390.107 248.429 391.115 248.429 392.272C248.429 393.448 248.662 394.475 249.129 395.352C249.596 396.211 250.221 396.873 251.005 397.34C251.789 397.788 252.657 398.012 253.609 398.012C254.561 398.012 255.429 397.788 256.213 397.34C257.016 396.873 257.65 396.211 258.117 395.352C258.584 394.475 258.817 393.457 258.817 392.3Z" fill="#282729"/>
<path d="M1206 262.5C1206 345.067 1133.11 412 1043.19 412C1005.92 412 926.17 407.428 898.73 388.09C859.955 360.763 880.371 310.851 880.371 262.5C880.371 179.933 953.266 113 1043.19 113C1087.34 113 1083.91 178.996 1113.24 205.202C1143.64 232.362 1206 220.478 1206 262.5Z" fill="#0072BB"/>
<path d="M1042.96 402.665L1020.71 396.989L976.576 285.139L994.673 279.311C1026.66 272.789 1041.68 327.32 1042.96 402.665Z" fill="#5F00BA"/>
<path d="M1154.04 231.932C1154.04 209.438 1155.68 205.235 1145.96 188.59L1045.76 229.189C1047.29 245.802 1045.06 255.799 1036.07 274.726L1124.41 278.566C1147.58 260.461 1151.89 252.232 1154.04 231.932Z" fill="#0D044F"/>
<path d="M1137.76 222.15C1133.83 221.523 1123.97 222.15 1123.97 222.15V242.237C1123.97 242.237 1134.49 243.493 1137.76 242.237C1141.03 240.982 1143.9 239.018 1144.95 234.837C1145.21 228.531 1141.69 222.778 1137.76 222.15Z" fill="#6153CC"/>
<rect width="32.7213" height="49.4567" transform="matrix(-1 0 0 1 1104.84 244.697)" fill="#FFD23F"/>
<path d="M1090.71 258.013L1071.81 256.744L1082.64 265.304L1090.71 258.013Z" fill="#261D6F"/>
<ellipse cx="45.995" cy="46.2864" rx="45.995" ry="46.2864" transform="matrix(-1 0 0 1 1134.47 167.342)" fill="#FFD23F"/>
<path d="M1137.76 222.15C1133.83 221.523 1123.97 222.15 1123.97 222.15V242.237C1123.97 242.237 1134.49 243.493 1137.76 242.237C1141.03 240.982 1143.9 239.018 1144.95 234.837C1145.21 228.531 1141.69 222.778 1137.76 222.15Z" fill="#FFD23F"/>
<path d="M929.013 296.078L934.158 270.3L1064.77 286.481L1063.75 300.773C1058.49 324.729 998.066 321.275 929.013 296.078Z" fill="#FFD23F"/>
<path d="M1116.66 284.855L1107.48 303.094L1189.47 395.599C1189.47 395.599 1213.28 377.736 1212.62 365.926C1211.97 354.115 1125.3 284.905 1116.66 284.855Z" fill="#FFD23F"/>
<path d="M1191.85 361.733L1208.82 376.084C1208.82 376.084 1189.08 402.497 1169.17 417.615L1123.06 414.018C1152.15 381.993 1156.21 382.541 1191.85 361.733Z" fill="#FFD23F"/>
<path d="M1114.82 285.901H1062.6C1037.46 309.904 1042.27 336.29 1052.56 345.469C1062.86 354.647 1051.47 379.909 1045.19 402.666C1082.05 413.191 1091.3 421.864 1120.84 412.396C1102.06 363.085 1113.84 330.64 1114.82 285.901Z" fill="#6153CC"/>
<path d="M1069.34 312.225C1061.93 309.689 1061.13 295.854 1072.32 285.211L1104.65 285.76C1104.65 285.76 1076.74 314.761 1069.34 312.225Z" fill="#FFD23F"/>
<path d="M1086.01 197.643C1079.28 197.643 1073.85 202.965 1073.85 209.507C1073.85 216.048 1079.28 221.371 1086.01 221.371C1092.73 221.371 1098.16 216.048 1098.16 209.507C1098.16 202.966 1092.73 197.643 1086.01 197.643Z" stroke="black"/>
<path d="M1053.28 193.204C1046.56 193.204 1041.13 198.527 1041.13 205.069C1041.13 211.61 1046.56 216.933 1053.28 216.933C1060.01 216.933 1065.44 211.61 1065.44 205.069C1065.44 198.527 1060.01 193.204 1053.28 193.204Z" stroke="black"/>
<line y1="-0.5" x2="8.73694" y2="-0.5" transform="matrix(-0.989408 -0.145162 -0.137773 0.990464 1073.97 207.922)" stroke="black"/>
<path d="M1069.49 236.452C1079.21 236.772 1082.32 228.125 1082.32 228.125L1058.37 225.839C1058.37 225.839 1059.76 236.132 1069.49 236.452Z" fill="white"/>
<path d="M1068.48 213.786C1064.58 215.569 1064.05 217.095 1066.25 220.795" stroke="black"/>
<ellipse cx="2.69352" cy="4.93769" rx="2.69352" ry="4.93769" transform="matrix(-1 0 0 1 1088.32 203.404)" fill="#282729"/>
<ellipse cx="2.69352" cy="4.93769" rx="2.69352" ry="4.93769" transform="matrix(-1 0 0 1 1057.08 200.112)" fill="#282729"/>
<path d="M1081.32 178.166C1074.89 187.244 1060.98 187.758 1047.38 194.077C1050.2 176.578 1051.81 166.804 1067.85 166.645C1097.08 150.581 1141.98 173.672 1147.04 190.785C1152.1 207.897 1140.78 218.896 1112.02 239.065C1115.71 223.744 1118.58 220.949 1117.95 213.608C1098.41 200.223 1095.95 195.472 1081.32 178.166Z" fill="#0D044F"/>
<path d="M925.918 216.177C929.845 215.549 939.703 216.177 939.703 216.177V236.264C939.703 236.264 929.188 237.519 925.918 236.264C922.647 235.008 919.773 233.045 918.725 228.863C918.47 222.558 921.99 216.805 925.918 216.177Z" fill="#5F00BA"/>
<ellipse cx="920.256" cy="258.697" rx="55.2557" ry="56.1144" fill="#0D044F"/>
<rect x="959" y="241" width="32.7213" height="49.4567" fill="#5F00BA"/>
<path d="M973.276 256.471L991.463 251.17L982.721 261.858L973.276 256.471Z" fill="#261D6F"/>
<ellipse cx="975.202" cy="207.655" rx="45.995" ry="46.2864" fill="#5F00BA"/>
<path d="M1003.32 185.74C1013.82 183.521 1017.17 169.564 1009.06 159.273C1000.94 148.982 957.945 153.72 935.369 176.759C929.545 184.265 921.519 208.249 933.689 208.72C945.858 209.191 942.819 187.325 946.246 184.265C949.673 181.205 948.375 197.787 959.854 198.281C971.333 198.775 976.775 178.765 979.631 176.343C982.487 173.92 992.827 187.959 1003.32 185.74Z" fill="#0D044F"/>
<path d="M925.918 216.177C929.845 215.549 939.703 216.177 939.703 216.177V236.264C939.703 236.264 929.188 237.519 925.918 236.264C922.647 235.008 919.773 233.045 918.725 228.863C918.47 222.558 921.99 216.805 925.918 216.177Z" fill="#5F00BA"/>
<path d="M944 280.5L955.138 298.326L922.071 355.636C923.981 353.89 890.971 342.482 889.437 332.12C887.902 321.759 934.626 280.553 944 280.5Z" fill="#5F00BA"/>
<path d="M1000.44 280H944.136C945.197 355.722 957.247 281.161 937 364.619C961.814 378.852 976.952 384.794 1005.38 393C1005.38 393 1007.66 375.289 1018.76 359.754C1029.86 344.219 1027.55 320.626 1000.44 280Z" fill="#FF9505"/>
<path d="M994.412 305.845C1001.8 303.354 1002.81 290.453 991.64 280H959C959 280 987.021 308.336 994.412 305.845Z" fill="#5F00BA"/>
<path d="M977.672 191.67C984.397 191.67 989.828 196.992 989.828 203.534C989.828 210.075 984.397 215.398 977.672 215.398C970.947 215.398 965.516 210.075 965.516 203.534C965.516 196.992 970.947 191.67 977.672 191.67Z" stroke="black"/>
<path d="M1010.39 187.231C1017.12 187.231 1022.55 192.554 1022.55 199.095C1022.55 205.637 1017.12 210.959 1010.39 210.959C1003.67 210.959 998.237 205.637 998.237 199.095C998.237 192.554 1003.67 187.231 1010.39 187.231Z" stroke="black"/>
<line y1="-0.5" x2="8.73694" y2="-0.5" transform="matrix(0.989408 -0.145162 0.137773 0.990464 989.711 201.948)" stroke="black"/>
<path d="M994.19 230.479C984.464 230.798 981.355 222.152 981.355 222.152L1005.31 219.866C1005.31 219.866 1003.92 230.159 994.19 230.479Z" fill="white"/>
<path d="M995.197 207.813C999.098 209.596 999.626 211.122 997.425 214.822" stroke="black"/>
<ellipse cx="978.051" cy="202.368" rx="2.69352" ry="4.93769" fill="#282729"/>
<ellipse cx="1009.3" cy="199.076" rx="2.69352" ry="4.93769" fill="#282729"/>
<path d="M976.77 370.246L966.283 376.371C966.283 376.371 908.199 296.865 918.786 289.438C929.372 282.011 942.306 277.087 942.306 277.087C962.426 316.41 971.481 337.474 976.77 370.246Z" fill="#FFD23F"/>
<path d="M958.668 407.789C953.604 403.971 946.459 389.104 952.931 380.353C959.403 371.601 969.186 360.635 974.25 364.453C979.314 368.27 977.734 377.028 971.262 385.78C964.79 394.532 963.732 411.606 958.668 407.789Z" fill="#FFD23F"/>
</svg>
