<svg width="1440" height="600" viewBox="0 0 1440 600" fill="none" xmlns="http://www.w3.org/2000/svg">
<rect width="1440" height="600" transform="matrix(1 0 0 -1 0 600)" fill="url(#paint0_linear_860_281)"/>
<g clip-path="url(#clip0_860_281)">
<path d="M519.75 214H392.25C361.184 214 336 239.184 336 270.25V397.75C336 428.816 361.184 454 392.25 454H519.75C550.816 454 576 428.816 576 397.75V270.25C576 239.184 550.816 214 519.75 214Z" fill="#242938"/>
<path d="M456 351.768C465.66 351.768 473.49 343.937 473.49 334.278C473.49 324.619 465.66 316.788 456 316.788C446.34 316.788 438.51 324.619 438.51 334.278C438.51 343.937 446.341 351.768 456 351.768Z" fill="#00D8FF"/>
<path d="M456.002 298.716C479.484 298.716 501.299 302.085 517.747 307.748C537.565 314.571 549.75 324.912 549.75 334.277C549.75 344.035 536.837 355.022 515.555 362.073C499.465 367.403 478.293 370.186 456.002 370.186C433.147 370.186 411.505 367.574 395.234 362.014C374.648 354.978 362.25 343.85 362.25 334.277C362.25 324.988 373.884 314.726 393.424 307.914C409.933 302.158 432.286 298.716 455.998 298.716H456.002Z" stroke="#00D8FF" stroke-width="8.35406"/>
<path d="M425.046 316.598C436.778 296.256 450.594 279.042 463.717 267.623C479.527 253.863 494.574 248.475 502.686 253.152C511.139 258.027 514.206 274.703 509.682 296.661C506.265 313.262 498.096 332.992 486.959 352.303C475.541 372.101 462.468 389.544 449.524 400.858C433.145 415.175 417.309 420.357 409.017 415.575C400.971 410.938 397.894 395.731 401.754 375.401C405.016 358.223 413.201 337.14 425.043 316.598H425.046Z" stroke="#00D8FF" stroke-width="8.35406"/>
<path d="M425.074 352.355C413.31 332.036 405.3 311.465 401.957 294.393C397.932 273.823 400.777 258.097 408.882 253.406C417.328 248.516 433.306 254.187 450.07 269.073C462.745 280.327 475.76 297.255 486.929 316.547C498.379 336.326 506.961 356.366 510.3 373.229C514.524 394.571 511.105 410.876 502.82 415.672C494.782 420.326 480.072 415.399 464.387 401.901C451.134 390.497 436.955 372.877 425.074 352.355Z" stroke="#00D8FF" stroke-width="8.35406"/>
</g>
<rect x="659" y="229.086" width="132.331" height="189.528" rx="4" transform="rotate(-4.80577 659 229.086)" fill="white"/>
<path d="M801.273 217.773L788.309 218.581L789.32 245.538C789.372 247.029 787.653 247.899 786.481 246.974L777.8 240.131L767.515 247.934C767.251 248.135 766.934 248.257 766.603 248.285C766.271 248.313 765.939 248.245 765.644 248.091C765.35 247.937 765.105 247.702 764.939 247.414C764.773 247.126 764.692 246.796 764.707 246.464L765.863 219.984L637.261 228.026C634.202 228.216 631.338 229.595 629.282 231.868C627.226 234.141 626.139 237.128 626.255 240.191L633.492 433.012C633.603 435.958 634.817 438.755 636.894 440.847C638.971 442.939 641.759 444.173 644.705 444.305L801.477 451.344C803.062 451.414 804.645 451.163 806.13 450.605C807.615 450.048 808.972 449.196 810.119 448.1C811.266 447.004 812.179 445.687 812.803 444.229C813.427 442.77 813.749 441.2 813.749 439.614V229.496C813.75 227.891 813.421 226.304 812.784 224.831C812.148 223.359 811.216 222.032 810.046 220.934C808.877 219.836 807.496 218.989 805.987 218.445C804.478 217.901 802.874 217.673 801.273 217.773ZM723.535 257.499C754.113 257.499 770.812 273.854 770.812 304.972C766.679 308.184 735.899 310.372 735.899 305.802C736.548 288.365 728.742 287.602 724.405 287.602C720.284 287.602 713.345 288.843 713.345 298.184C713.345 321.224 772.763 319.981 772.763 366.479C772.763 392.636 751.51 407.082 724.405 407.082C696.43 407.082 671.986 395.765 674.746 356.527C675.83 351.92 711.393 353.015 711.393 356.527C710.962 372.717 714.646 377.48 723.968 377.48C731.125 377.48 734.38 373.537 734.38 366.894C734.38 343.229 675.83 342.401 675.83 299.017C675.83 274.107 692.962 257.499 723.535 257.499Z" fill="#FF4785"/>
<g clip-path="url(#clip1_860_281)">
<path d="M1047.75 214H920.25C889.184 214 864 239.184 864 270.25V397.75C864 428.816 889.184 454 920.25 454H1047.75C1078.82 454 1104 428.816 1104 397.75V270.25C1104 239.184 1078.82 214 1047.75 214Z" fill="#242938"/>
<path fill-rule="evenodd" clip-rule="evenodd" d="M941.812 317.125C947.438 294.625 961.5 283.375 984 283.375C1017.75 283.375 1021.97 308.688 1038.84 312.906C1050.09 315.72 1059.94 311.501 1068.38 300.25C1062.75 322.75 1048.69 334 1026.19 334C992.438 334 988.219 308.688 971.344 304.469C960.094 301.656 950.25 305.875 941.812 317.125ZM899.625 367.75C905.25 345.25 919.312 334 941.812 334C975.562 334 979.781 359.312 996.656 363.531C1007.91 366.345 1017.75 362.126 1026.19 350.875C1020.56 373.375 1006.5 384.625 984 384.625C950.25 384.625 946.031 359.312 929.156 355.094C917.906 352.28 908.062 356.499 899.625 367.75Z" fill="url(#paint1_linear_860_281)"/>
</g>
<path d="M430.563 95.024C425.486 95.024 421.006 94.128 417.123 92.336C413.241 90.544 410.211 87.92 408.035 84.464C405.859 80.9653 404.771 76.7413 404.771 71.792C404.771 66.672 405.902 62.32 408.163 58.736C410.425 55.1093 413.497 52.4 417.379 50.608C421.262 48.7733 425.614 47.856 430.435 47.856C435.214 47.856 440.163 48.7307 445.283 50.48L444.643 57.072C443.747 56.3893 442.489 55.3227 440.867 53.872C438.99 52.2507 437.497 51.0773 436.387 50.352C435.321 49.6267 434.254 49.264 433.187 49.264C427.385 49.264 422.905 51.2267 419.747 55.152C416.59 59.0773 415.011 64.624 415.011 71.792C415.011 75.632 415.801 79.2373 417.379 82.608C419.001 85.9787 421.219 88.6667 424.035 90.672C426.851 92.6773 429.987 93.68 433.443 93.68C434.51 93.68 435.662 93.232 436.899 92.336C438.179 91.44 439.651 90.2027 441.315 88.624C442.723 87.3013 443.747 86.4053 444.387 85.936L445.283 92.784C440.035 94.2773 435.129 95.024 430.563 95.024ZM467.602 95.088C463.592 95.088 460.093 94.3413 457.106 92.848C454.12 91.312 451.816 89.0933 450.194 86.192C448.573 83.2907 447.762 79.8133 447.762 75.76C447.762 71.6213 448.573 68.08 450.194 65.136C451.816 62.1493 454.12 59.888 457.106 58.352C460.093 56.7733 463.592 55.984 467.602 55.984C471.57 55.984 475.026 56.7733 477.97 58.352C480.957 59.888 483.261 62.1493 484.882 65.136C486.504 68.08 487.314 71.6213 487.314 75.76C487.314 79.8133 486.504 83.2907 484.882 86.192C483.261 89.0933 480.957 91.312 477.97 92.848C475.026 94.3413 471.57 95.088 467.602 95.088ZM467.602 93.936C469.65 93.936 471.442 93.0613 472.978 91.312C474.514 89.52 475.688 87.2373 476.498 84.464C477.309 81.648 477.714 78.7467 477.714 75.76C477.714 72.944 477.309 70.0853 476.498 67.184C475.688 64.2827 474.514 61.872 472.978 59.952C471.442 58.032 469.65 57.072 467.602 57.072C465.469 57.072 463.634 58.032 462.098 59.952C460.562 61.8293 459.389 64.2187 458.578 67.12C457.81 70.0213 457.426 72.9013 457.426 75.76C457.426 78.7893 457.81 81.6907 458.578 84.464C459.389 87.2373 460.562 89.52 462.098 91.312C463.634 93.0613 465.469 93.936 467.602 93.936ZM506.052 95.024C503.45 95.024 500.996 94.32 498.692 92.912C496.431 91.504 494.575 89.3707 493.124 86.512C491.716 83.6533 491.012 80.1973 491.012 76.144C491.012 71.8773 491.866 68.2507 493.572 65.264C495.322 62.2347 497.711 59.9733 500.74 58.48C503.812 56.944 507.311 56.176 511.236 56.176C513.498 56.176 515.844 56.496 518.276 57.136V49.072H528.516V94H518.276V86.192C517.167 89.0933 515.503 91.2907 513.284 92.784C511.108 94.2773 508.698 95.024 506.052 95.024ZM509.444 92.784C511.236 92.784 512.922 91.952 514.5 90.288C516.079 88.5813 517.338 86.192 518.276 83.12V58.416C516.954 57.9893 515.61 57.776 514.244 57.776C510.02 57.776 506.671 59.3333 504.196 62.448C501.722 65.5627 500.484 70.1707 500.484 76.272C500.484 79.728 500.89 82.7147 501.7 85.232C502.511 87.7067 503.599 89.584 504.964 90.864C506.33 92.144 507.823 92.784 509.444 92.784ZM555.522 94.96C551.682 94.96 548.098 94.1493 544.77 92.528C541.442 90.864 538.776 88.496 536.77 85.424C534.765 82.352 533.762 78.768 533.762 74.672C533.762 70.704 534.744 67.312 536.706 64.496C538.669 61.6373 541.208 59.504 544.322 58.096C547.48 56.6453 550.786 55.92 554.242 55.92C557.314 55.92 560.173 56.496 562.818 57.648C565.464 58.7573 567.576 60.4427 569.154 62.704C570.776 64.9653 571.586 67.696 571.586 70.896C571.586 72.4747 571.373 74.0533 570.946 75.632H544.002C544.088 79.472 544.578 82.7573 545.474 85.488C546.413 88.176 547.65 90.224 549.186 91.632C550.765 93.04 552.557 93.744 554.562 93.744C556.738 93.744 559.085 92.8693 561.602 91.12C564.12 89.328 566.658 86.704 569.218 83.248L571.33 89.648C569.026 91.3973 566.509 92.72 563.778 93.616C561.048 94.512 558.296 94.96 555.522 94.96ZM561.73 74.544C561.986 73.136 562.114 71.7707 562.114 70.448C562.114 67.5893 561.752 65.1573 561.026 63.152C560.301 61.1467 559.341 59.6533 558.146 58.672C556.952 57.6907 555.65 57.2 554.242 57.2C552.578 57.2 550.957 57.8827 549.378 59.248C547.842 60.5707 546.562 62.5547 545.538 65.2C544.557 67.8027 544.045 70.9173 544.002 74.544H561.73ZM589.366 94C591.884 87.856 593.42 82.1813 593.974 76.976L596.918 49.072H607.158L619.766 85.488L631.286 49.072H637.75L644.086 94H633.846L629.11 59.952L618.358 94H612.47L597.686 51.248L595.062 77.04C594.636 81.1787 594.422 84.464 594.422 86.896C594.422 89.0293 594.593 91.3973 594.934 94H589.366ZM670.647 94.96C666.807 94.96 663.223 94.1493 659.895 92.528C656.567 90.864 653.901 88.496 651.895 85.424C649.89 82.352 648.887 78.768 648.887 74.672C648.887 70.704 649.869 67.312 651.831 64.496C653.794 61.6373 656.333 59.504 659.447 58.096C662.605 56.6453 665.911 55.92 669.367 55.92C672.439 55.92 675.298 56.496 677.943 57.648C680.589 58.7573 682.701 60.4427 684.279 62.704C685.901 64.9653 686.711 67.696 686.711 70.896C686.711 72.4747 686.498 74.0533 686.071 75.632H659.127C659.213 79.472 659.703 82.7573 660.599 85.488C661.538 88.176 662.775 90.224 664.311 91.632C665.89 93.04 667.682 93.744 669.687 93.744C671.863 93.744 674.21 92.8693 676.727 91.12C679.245 89.328 681.783 86.704 684.343 83.248L686.455 89.648C684.151 91.3973 681.634 92.72 678.903 93.616C676.173 94.512 673.421 94.96 670.647 94.96ZM676.855 74.544C677.111 73.136 677.239 71.7707 677.239 70.448C677.239 67.5893 676.877 65.1573 676.151 63.152C675.426 61.1467 674.466 59.6533 673.271 58.672C672.077 57.6907 670.775 57.2 669.367 57.2C667.703 57.2 666.082 57.8827 664.503 59.248C662.967 60.5707 661.687 62.5547 660.663 65.2C659.682 67.8027 659.17 70.9173 659.127 74.544H676.855ZM712.085 94.96C708.245 94.96 704.661 94.1493 701.333 92.528C698.005 90.864 695.338 88.496 693.333 85.424C691.327 82.352 690.325 78.768 690.325 74.672C690.325 70.704 691.306 67.312 693.269 64.496C695.231 61.6373 697.77 59.504 700.885 58.096C704.042 56.6453 707.349 55.92 710.805 55.92C713.877 55.92 716.735 56.496 719.381 57.648C722.026 58.7573 724.138 60.4427 725.717 62.704C727.338 64.9653 728.149 67.696 728.149 70.896C728.149 72.4747 727.935 74.0533 727.509 75.632H700.565C700.65 79.472 701.141 82.7573 702.037 85.488C702.975 88.176 704.213 90.224 705.749 91.632C707.327 93.04 709.119 93.744 711.125 93.744C713.301 93.744 715.647 92.8693 718.165 91.12C720.682 89.328 723.221 86.704 725.781 83.248L727.893 89.648C725.589 91.3973 723.071 92.72 720.341 93.616C717.61 94.512 714.858 94.96 712.085 94.96ZM718.293 74.544C718.549 73.136 718.677 71.7707 718.677 70.448C718.677 67.5893 718.314 65.1573 717.589 63.152C716.863 61.1467 715.903 59.6533 714.709 58.672C713.514 57.6907 712.213 57.2 710.805 57.2C709.141 57.2 707.519 57.8827 705.941 59.248C704.405 60.5707 703.125 62.5547 702.101 65.2C701.119 67.8027 700.607 70.9173 700.565 74.544H718.293ZM749.295 95.216C746.693 95.216 744.197 94.64 741.807 93.488C739.418 92.336 737.498 90.7147 736.047 88.624C734.597 86.4907 733.871 84.0587 733.871 81.328V58.096H730.031V57.008H735.727C737.903 55.6853 739.653 53.6373 740.975 50.864C742.298 48.048 742.959 45.3173 742.959 42.672H744.111V57.008H753.391V58.096H744.111V87.728C744.111 89.8187 744.474 91.4187 745.199 92.528C745.925 93.5947 746.885 94.128 748.079 94.128C749.786 94.128 751.599 93.168 753.519 91.248C755.482 89.2853 757.274 86.6613 758.895 83.376L761.135 89.52C759.685 91.3973 757.914 92.8267 755.823 93.808C753.733 94.7467 751.557 95.216 749.295 95.216ZM777.582 95.088C772.761 95.088 767.556 94.256 761.966 92.592L763.566 86.192C766.894 88.8373 770.03 90.6933 772.974 91.76C775.918 92.784 778.542 93.296 780.846 93.296C782.766 93.296 784.302 92.9547 785.454 92.272C786.606 91.5893 787.225 90.7147 787.31 89.648C787.31 87.728 786.265 85.9147 784.174 84.208C782.126 82.5013 779.033 80.432 774.894 78C771.95 76.2507 769.561 74.7573 767.726 73.52C765.934 72.24 764.42 70.8533 763.182 69.36C761.945 67.8667 761.326 66.3307 761.326 64.752C761.326 61.8933 763.204 59.7387 766.958 58.288C770.713 56.7947 775.3 56.048 780.718 56.048C785.284 56.048 789.572 56.5173 793.582 57.456L792.558 63.856C790.254 62.1493 787.417 60.6773 784.046 59.44C780.676 58.2027 777.774 57.584 775.342 57.584C773.508 57.584 772.036 57.904 770.926 58.544C769.86 59.184 769.326 60.1227 769.326 61.36C769.326 62.384 770.073 63.4507 771.566 64.56C773.102 65.6693 775.534 67.184 778.862 69.104C782.276 71.0667 785.006 72.752 787.054 74.16C789.145 75.568 790.937 77.168 792.43 78.96C793.966 80.752 794.734 82.6507 794.734 84.656C794.692 88.24 793.006 90.8853 789.678 92.592C786.393 94.256 782.361 95.088 777.582 95.088ZM814.356 94V49.072H832.404C839.316 49.072 844.65 50.8853 848.404 54.512C852.202 58.1387 854.1 63.536 854.1 70.704C854.1 75.952 853.034 80.3253 850.9 83.824C848.81 87.3227 846.079 89.904 842.708 91.568C839.338 93.1893 835.754 94 831.956 94H814.356ZM828.116 92.784C831.402 92.784 834.196 92.144 836.5 90.864C838.804 89.584 840.596 87.3227 841.876 84.08C843.199 80.8373 843.86 76.3787 843.86 70.704C843.86 57.0507 839.146 50.2667 829.716 50.352H824.596V92.784H828.116ZM881.085 94.96C877.245 94.96 873.661 94.1493 870.333 92.528C867.005 90.864 864.338 88.496 862.333 85.424C860.327 82.352 859.325 78.768 859.325 74.672C859.325 70.704 860.306 67.312 862.269 64.496C864.231 61.6373 866.77 59.504 869.885 58.096C873.042 56.6453 876.349 55.92 879.805 55.92C882.877 55.92 885.735 56.496 888.381 57.648C891.026 58.7573 893.138 60.4427 894.717 62.704C896.338 64.9653 897.149 67.696 897.149 70.896C897.149 72.4747 896.935 74.0533 896.509 75.632H869.565C869.65 79.472 870.141 82.7573 871.037 85.488C871.975 88.176 873.213 90.224 874.749 91.632C876.327 93.04 878.119 93.744 880.125 93.744C882.301 93.744 884.647 92.8693 887.165 91.12C889.682 89.328 892.221 86.704 894.781 83.248L896.893 89.648C894.589 91.3973 892.071 92.72 889.341 93.616C886.61 94.512 883.858 94.96 881.085 94.96ZM887.293 74.544C887.549 73.136 887.677 71.7707 887.677 70.448C887.677 67.5893 887.314 65.1573 886.589 63.152C885.863 61.1467 884.903 59.6533 883.709 58.672C882.514 57.6907 881.213 57.2 879.805 57.2C878.141 57.2 876.519 57.8827 874.941 59.248C873.405 60.5707 872.125 62.5547 871.101 65.2C870.119 67.8027 869.607 70.9173 869.565 74.544H887.293ZM916.145 95.088C911.323 95.088 906.118 94.256 900.529 92.592L902.129 86.192C905.457 88.8373 908.593 90.6933 911.537 91.76C914.481 92.784 917.105 93.296 919.409 93.296C921.329 93.296 922.865 92.9547 924.017 92.272C925.169 91.5893 925.787 90.7147 925.873 89.648C925.873 87.728 924.827 85.9147 922.737 84.208C920.689 82.5013 917.595 80.432 913.457 78C910.513 76.2507 908.123 74.7573 906.289 73.52C904.497 72.24 902.982 70.8533 901.745 69.36C900.507 67.8667 899.889 66.3307 899.889 64.752C899.889 61.8933 901.766 59.7387 905.521 58.288C909.275 56.7947 913.862 56.048 919.281 56.048C923.846 56.048 928.134 56.5173 932.145 57.456L931.121 63.856C928.817 62.1493 925.979 60.6773 922.609 59.44C919.238 58.2027 916.337 57.584 913.905 57.584C912.07 57.584 910.598 57.904 909.489 58.544C908.422 59.184 907.889 60.1227 907.889 61.36C907.889 62.384 908.635 63.4507 910.129 64.56C911.665 65.6693 914.097 67.184 917.425 69.104C920.838 71.0667 923.569 72.752 925.617 74.16C927.707 75.568 929.499 77.168 930.993 78.96C932.529 80.752 933.297 82.6507 933.297 84.656C933.254 88.24 931.569 90.8853 928.241 92.592C924.955 94.256 920.923 95.088 916.145 95.088ZM943.601 54.32C942.151 54.32 940.913 53.808 939.889 52.784C938.865 51.76 938.353 50.5227 938.353 49.072C938.353 47.5787 938.865 46.3413 939.889 45.36C940.913 44.336 942.151 43.824 943.601 43.824C945.095 43.824 946.332 44.336 947.313 45.36C948.337 46.3413 948.849 47.5787 948.849 49.072C948.849 50.5227 948.337 51.76 947.313 52.784C946.332 53.808 945.095 54.32 943.601 54.32ZM948.721 94H938.481V57.008H948.721V94ZM964.449 109.68C961.291 109.68 957.921 109.296 954.337 108.528L956.257 102.128C961.846 106.181 966.454 108.208 970.081 108.208C973.281 108.208 975.691 106.907 977.313 104.304C978.977 101.701 979.809 98.224 979.809 93.872V87.92H979.681C978.614 90.1387 977.035 91.8667 974.945 93.104C972.897 94.3413 970.657 94.96 968.225 94.96C965.75 94.96 963.425 94.2987 961.249 92.976C959.073 91.6533 957.302 89.5627 955.937 86.704C954.614 83.8453 953.953 80.24 953.953 75.888C953.953 71.9627 954.699 68.5067 956.193 65.52C957.729 62.4907 959.777 60.1653 962.337 58.544C964.939 56.9227 967.777 56.112 970.849 56.112C973.835 56.112 976.822 56.9653 979.809 58.672V57.008H990.049V87.152C990.049 91.6747 988.961 95.6427 986.785 99.056C984.651 102.469 981.643 105.093 977.761 106.928C973.921 108.763 969.483 109.68 964.449 109.68ZM971.937 91.952C973.601 91.952 975.137 91.312 976.545 90.032C977.995 88.752 979.083 86.9387 979.809 84.592V60.08C977.718 58.7147 975.691 58.032 973.729 58.032C971.595 58.032 969.761 58.864 968.225 60.528C966.689 62.192 965.515 64.368 964.705 67.056C963.937 69.744 963.553 72.6027 963.553 75.632C963.553 78.6613 963.894 81.4133 964.577 83.888C965.302 86.3627 966.283 88.3253 967.521 89.776C968.801 91.2267 970.273 91.952 971.937 91.952ZM1024.5 55.92C1026.12 55.92 1027.66 56.2827 1029.11 57.008C1030.6 57.6907 1031.82 58.8 1032.76 60.336C1033.69 61.8293 1034.16 63.7067 1034.16 65.968V94H1023.92V66.544C1023.92 64.0693 1023.52 62.2347 1022.71 61.04C1021.94 59.8027 1020.87 59.184 1019.51 59.184C1017.72 59.184 1015.67 60.144 1013.36 62.064C1011.06 63.9413 1008.99 66.3733 1007.16 69.36V94H996.916V57.072H1007.16V67.504C1009.72 63.6213 1012.51 60.72 1015.54 58.8C1018.57 56.88 1021.56 55.92 1024.5 55.92ZM460.403 159V131.976H470.147C471.075 131.976 472.019 132.024 472.979 132.12C473.971 132.216 474.899 132.408 475.763 132.696C476.659 132.952 477.459 133.352 478.163 133.896C478.867 134.408 479.411 135.096 479.795 135.96C480.211 136.792 480.419 137.848 480.419 139.128C480.419 140.152 480.211 141.112 479.795 142.008C479.411 142.904 478.691 143.624 477.635 144.168C476.611 144.68 475.123 144.968 473.171 145.032V145.224C475.443 145.224 477.187 145.544 478.403 146.184C479.619 146.792 480.451 147.592 480.899 148.584C481.379 149.576 481.619 150.68 481.619 151.896C481.619 153.176 481.395 154.248 480.947 155.112C480.499 155.976 479.891 156.664 479.123 157.176C478.387 157.688 477.539 158.072 476.579 158.328C475.651 158.584 474.659 158.76 473.603 158.856C472.579 158.952 471.603 159 470.675 159H460.403ZM463.475 156.408H470.435C471.907 156.408 473.235 156.312 474.419 156.12C475.635 155.896 476.595 155.448 477.299 154.776C478.035 154.072 478.403 153 478.403 151.56C478.403 150.056 478.019 148.936 477.251 148.2C476.483 147.464 475.459 146.968 474.179 146.712C472.899 146.456 471.475 146.328 469.907 146.328H463.475V156.408ZM463.475 143.832H469.811C471.315 143.832 472.627 143.736 473.747 143.544C474.867 143.352 475.731 142.952 476.339 142.344C476.979 141.704 477.299 140.728 477.299 139.416C477.299 137.912 476.947 136.824 476.243 136.152C475.571 135.48 474.659 135.064 473.507 134.904C472.387 134.712 471.171 134.616 469.859 134.616H463.475V143.832ZM492.377 159.48C491.129 159.48 490.057 159.288 489.161 158.904C488.297 158.52 487.577 158.008 487.001 157.368C486.457 156.696 486.041 155.944 485.753 155.112C485.465 154.248 485.257 153.352 485.129 152.424C485.033 151.464 484.985 150.504 484.985 149.544V139.464H488.057V149.592C488.057 150.872 488.185 152.056 488.441 153.144C488.729 154.232 489.257 155.096 490.025 155.736C490.793 156.376 491.929 156.696 493.433 156.696C494.873 156.696 495.993 156.36 496.793 155.688C497.625 155.016 498.233 154.168 498.617 153.144C499.001 152.088 499.225 150.984 499.289 149.832V139.464H502.457V159H499.817L499.289 154.632H499.193C499.065 155.048 498.841 155.528 498.521 156.072C498.233 156.616 497.817 157.144 497.273 157.656C496.729 158.168 496.041 158.6 495.209 158.952C494.409 159.304 493.465 159.48 492.377 159.48ZM507.176 159V139.464H510.296V159H507.176ZM508.76 136.536C507.96 136.536 507.416 136.328 507.128 135.912C506.84 135.496 506.696 135.016 506.696 134.472C506.696 133.96 506.84 133.512 507.128 133.128C507.416 132.712 507.96 132.504 508.76 132.504C509.56 132.504 510.088 132.712 510.344 133.128C510.6 133.512 510.728 133.96 510.728 134.472C510.728 135.016 510.6 135.496 510.344 135.912C510.088 136.328 509.56 136.536 508.76 136.536ZM515.285 159V131.976H518.309V159H515.285ZM531.509 159.48C529.653 159.48 528.085 159.048 526.805 158.184C525.557 157.288 524.613 156.088 523.973 154.584C523.333 153.08 523.013 151.384 523.013 149.496C523.013 147.544 523.333 145.816 523.973 144.312C524.645 142.776 525.605 141.592 526.853 140.76C528.133 139.896 529.701 139.464 531.557 139.464C532.869 139.464 533.973 139.688 534.869 140.136C535.765 140.552 536.469 141.064 536.981 141.672C537.525 142.28 537.925 142.84 538.181 143.352C538.437 143.864 538.597 144.2 538.661 144.36H538.757V131.976H541.925V159H539.285L538.805 154.68H538.709C538.645 154.84 538.469 155.176 538.181 155.688C537.893 156.2 537.461 156.744 536.885 157.32C536.341 157.896 535.621 158.408 534.725 158.856C533.861 159.272 532.789 159.48 531.509 159.48ZM532.277 156.744C533.557 156.744 534.677 156.456 535.637 155.88C536.597 155.304 537.349 154.472 537.893 153.384C538.437 152.264 538.709 150.968 538.709 149.496C538.709 148.024 538.453 146.744 537.941 145.656C537.429 144.568 536.709 143.736 535.781 143.16C534.853 142.584 533.765 142.296 532.517 142.296C531.013 142.296 529.781 142.648 528.821 143.352C527.861 144.024 527.157 144.904 526.709 145.992C526.261 147.08 526.037 148.248 526.037 149.496C526.037 150.712 526.229 151.88 526.613 153C527.029 154.088 527.701 154.984 528.629 155.688C529.557 156.392 530.773 156.744 532.277 156.744ZM546.691 159V139.464H549.811V159H546.691ZM548.275 136.536C547.475 136.536 546.931 136.328 546.643 135.912C546.355 135.496 546.211 135.016 546.211 134.472C546.211 133.96 546.355 133.512 546.643 133.128C546.931 132.712 547.475 132.504 548.275 132.504C549.075 132.504 549.603 132.712 549.859 133.128C550.115 133.512 550.243 133.96 550.243 134.472C550.243 135.016 550.115 135.496 549.859 135.912C549.603 136.328 549.075 136.536 548.275 136.536ZM554.129 159V139.464H556.769L557.297 144.312H557.393C557.457 144.152 557.601 143.816 557.825 143.304C558.081 142.76 558.465 142.2 558.977 141.624C559.489 141.048 560.177 140.552 561.041 140.136C561.937 139.688 563.057 139.464 564.401 139.464C565.745 139.464 566.865 139.672 567.761 140.088C568.657 140.472 569.361 141.016 569.873 141.72C570.417 142.392 570.817 143.16 571.073 144.024C571.329 144.888 571.489 145.784 571.553 146.712C571.649 147.608 571.697 148.488 571.697 149.352V159H568.721V149.352C568.721 147.944 568.561 146.712 568.241 145.656C567.953 144.568 567.425 143.736 566.657 143.16C565.889 142.552 564.801 142.248 563.393 142.248C561.953 142.248 560.785 142.6 559.889 143.304C558.993 143.976 558.337 144.888 557.921 146.04C557.505 147.16 557.297 148.392 557.297 149.736V159H554.129ZM580.351 167.064V164.136H590.095V154.68H589.999C589.935 154.84 589.759 155.176 589.471 155.688C589.215 156.2 588.799 156.744 588.223 157.32C587.679 157.896 586.959 158.408 586.063 158.856C585.199 159.272 584.143 159.48 582.895 159.48C581.007 159.48 579.423 159.048 578.143 158.184C576.895 157.288 575.951 156.088 575.311 154.584C574.671 153.08 574.351 151.384 574.351 149.496C574.351 147.544 574.671 145.816 575.311 144.312C575.951 142.776 576.911 141.592 578.191 140.76C579.471 139.896 581.055 139.464 582.943 139.464C584.223 139.464 585.311 139.688 586.207 140.136C587.103 140.552 587.807 141.064 588.319 141.672C588.863 142.28 589.263 142.84 589.519 143.352C589.775 143.864 589.935 144.2 589.999 144.36H590.095V139.464H593.263V162.36C593.263 163.384 593.135 164.248 592.879 164.952C592.655 165.656 592.239 166.184 591.631 166.536C591.055 166.888 590.271 167.064 589.279 167.064H580.351ZM583.567 156.744C584.847 156.744 585.967 156.456 586.927 155.88C587.919 155.304 588.671 154.472 589.183 153.384C589.727 152.264 589.999 150.968 589.999 149.496C589.999 148.024 589.743 146.744 589.231 145.656C588.751 144.568 588.047 143.736 587.119 143.16C586.191 142.584 585.103 142.296 583.855 142.296C582.351 142.296 581.119 142.648 580.159 143.352C579.199 144.024 578.495 144.904 578.047 145.992C577.599 147.08 577.375 148.248 577.375 149.496C577.375 150.712 577.567 151.88 577.951 153C578.367 154.088 579.023 154.984 579.919 155.688C580.847 156.392 582.063 156.744 583.567 156.744ZM609.218 159V139.464H612.002L612.338 145.08L612.29 149.304V159H609.218ZM612.29 149.88L612.146 145.608C612.21 144.872 612.402 144.136 612.722 143.4C613.042 142.664 613.49 142.008 614.066 141.432C614.674 140.824 615.442 140.344 616.37 139.992C617.298 139.64 618.386 139.464 619.634 139.464H620.546V142.872H619.586C618.05 142.872 616.802 143.048 615.842 143.4C614.882 143.72 614.146 144.2 613.634 144.84C613.122 145.448 612.77 146.184 612.578 147.048C612.386 147.912 612.29 148.856 612.29 149.88ZM631.774 159.48C629.63 159.48 627.854 159 626.446 158.04C625.07 157.048 624.046 155.784 623.374 154.248C622.734 152.68 622.414 151.064 622.414 149.4C622.414 147.576 622.766 145.912 623.47 144.408C624.206 142.872 625.262 141.656 626.638 140.76C628.046 139.864 629.726 139.416 631.678 139.416C633.374 139.416 634.862 139.784 636.142 140.52C637.454 141.224 638.494 142.248 639.262 143.592C640.062 144.936 640.51 146.52 640.606 148.344C640.638 148.472 640.654 148.664 640.654 148.92C640.654 149.144 640.654 149.352 640.654 149.544H625.39C625.39 151.816 625.934 153.608 627.022 154.92C628.142 156.2 629.71 156.84 631.726 156.84C633.23 156.84 634.51 156.456 635.566 155.688C636.654 154.92 637.326 153.88 637.582 152.568H640.606C640.382 153.88 639.886 155.064 639.118 156.12C638.35 157.176 637.342 158.008 636.094 158.616C634.846 159.192 633.406 159.48 631.774 159.48ZM625.486 147.864H637.486C637.486 147.352 637.374 146.776 637.15 146.136C636.958 145.464 636.638 144.824 636.19 144.216C635.742 143.576 635.15 143.048 634.414 142.632C633.678 142.216 632.75 142.008 631.63 142.008C630.638 142.008 629.774 142.184 629.038 142.536C628.302 142.856 627.678 143.304 627.166 143.88C626.686 144.424 626.302 145.048 626.014 145.752C625.758 146.456 625.582 147.16 625.486 147.864ZM651.799 159.48C650.551 159.48 649.479 159.288 648.583 158.904C647.719 158.52 646.999 158.008 646.423 157.368C645.879 156.696 645.463 155.944 645.175 155.112C644.887 154.248 644.679 153.352 644.551 152.424C644.455 151.464 644.407 150.504 644.407 149.544V139.464H647.479V149.592C647.479 150.872 647.607 152.056 647.863 153.144C648.151 154.232 648.679 155.096 649.447 155.736C650.215 156.376 651.351 156.696 652.855 156.696C654.295 156.696 655.415 156.36 656.215 155.688C657.047 155.016 657.655 154.168 658.039 153.144C658.423 152.088 658.647 150.984 658.711 149.832V139.464H661.879V159H659.239L658.711 154.632H658.615C658.487 155.048 658.263 155.528 657.943 156.072C657.655 156.616 657.239 157.144 656.695 157.656C656.151 158.168 655.463 158.6 654.631 158.952C653.831 159.304 652.887 159.48 651.799 159.48ZM673.894 159.48C672.806 159.48 671.814 159.32 670.918 159C670.022 158.712 669.238 158.312 668.566 157.8C667.926 157.288 667.366 156.744 666.886 156.168C666.438 155.56 666.102 154.952 665.878 154.344C665.654 153.736 665.542 153.192 665.542 152.712H668.518C668.518 152.744 668.55 152.984 668.614 153.432C668.678 153.88 668.87 154.392 669.19 154.968C669.51 155.544 670.038 156.056 670.774 156.504C671.51 156.92 672.55 157.128 673.894 157.128C674.854 157.128 675.718 157.016 676.486 156.792C677.254 156.568 677.846 156.216 678.262 155.736C678.71 155.256 678.918 154.664 678.886 153.96C678.886 153.032 678.566 152.328 677.926 151.848C677.318 151.336 676.518 150.952 675.526 150.696C674.534 150.408 673.494 150.136 672.406 149.88C671.318 149.624 670.278 149.304 669.286 148.92C668.294 148.504 667.494 147.928 666.886 147.192C666.278 146.456 665.99 145.432 666.022 144.12C666.054 142.52 666.774 141.256 668.182 140.328C669.622 139.368 671.462 138.888 673.702 138.888C674.63 138.888 675.574 139 676.534 139.224C677.526 139.448 678.422 139.816 679.222 140.328C680.054 140.808 680.71 141.496 681.19 142.392C681.67 143.256 681.878 144.344 681.814 145.656H678.934C678.966 144.76 678.806 144.04 678.454 143.496C678.134 142.92 677.686 142.488 677.11 142.2C676.566 141.88 675.974 141.672 675.334 141.576C674.726 141.448 674.15 141.384 673.606 141.384C672.23 141.384 671.094 141.64 670.198 142.152C669.334 142.664 668.902 143.384 668.902 144.312C668.902 145.176 669.206 145.848 669.814 146.328C670.454 146.808 671.254 147.192 672.214 147.48C673.206 147.736 674.246 147.992 675.334 148.248C676.454 148.472 677.51 148.792 678.502 149.208C679.494 149.624 680.294 150.216 680.902 150.984C681.542 151.752 681.862 152.808 681.862 154.152C681.862 155.4 681.51 156.424 680.806 157.224C680.134 157.992 679.19 158.568 677.974 158.952C676.79 159.304 675.43 159.48 673.894 159.48ZM692.102 159.432C690.31 159.432 688.838 159 687.686 158.136C686.534 157.24 685.67 156.04 685.094 154.536C684.55 153.032 684.278 151.32 684.278 149.4C684.278 147.416 684.566 145.672 685.142 144.168C685.718 142.664 686.582 141.48 687.734 140.616C688.918 139.72 690.374 139.272 692.102 139.272C693.126 139.272 694.006 139.416 694.742 139.704C695.51 139.96 696.166 140.312 696.71 140.76C697.254 141.208 697.702 141.688 698.054 142.2C698.438 142.68 698.726 143.144 698.918 143.592H698.966V139.464H702.134V159H699.494L699.014 155.208H698.918C698.694 155.688 698.406 156.184 698.054 156.696C697.702 157.176 697.238 157.624 696.662 158.04C696.118 158.456 695.462 158.792 694.694 159.048C693.958 159.304 693.094 159.432 692.102 159.432ZM693.302 156.696C694.646 156.696 695.718 156.408 696.518 155.832C697.35 155.224 697.958 154.376 698.342 153.288C698.726 152.2 698.918 150.92 698.918 149.448C698.918 147.88 698.71 146.552 698.294 145.464C697.91 144.376 697.302 143.56 696.47 143.016C695.638 142.44 694.582 142.152 693.302 142.152C691.894 142.152 690.742 142.472 689.846 143.112C688.982 143.752 688.358 144.616 687.974 145.704C687.59 146.792 687.398 148.024 687.398 149.4C687.398 150.808 687.59 152.072 687.974 153.192C688.39 154.28 689.03 155.144 689.894 155.784C690.79 156.392 691.926 156.696 693.302 156.696ZM716.57 159.48C715.29 159.48 714.202 159.272 713.306 158.856C712.442 158.408 711.722 157.896 711.146 157.32C710.602 156.744 710.186 156.2 709.898 155.688C709.61 155.176 709.434 154.84 709.37 154.68H709.274L708.794 159H706.106V131.976H709.322V144.36H709.418C709.482 144.2 709.642 143.864 709.898 143.352C710.154 142.84 710.538 142.28 711.05 141.672C711.594 141.064 712.314 140.552 713.21 140.136C714.106 139.688 715.21 139.464 716.522 139.464C718.41 139.464 719.978 139.896 721.226 140.76C722.506 141.624 723.466 142.824 724.106 144.36C724.746 145.864 725.066 147.576 725.066 149.496C725.066 151.416 724.746 153.128 724.106 154.632C723.466 156.136 722.522 157.32 721.274 158.184C720.026 159.048 718.458 159.48 716.57 159.48ZM715.802 156.744C717.338 156.744 718.554 156.392 719.45 155.688C720.378 154.984 721.034 154.088 721.418 153C721.834 151.88 722.042 150.712 722.042 149.496C722.042 148.248 721.818 147.08 721.37 145.992C720.922 144.904 720.218 144.024 719.258 143.352C718.298 142.648 717.066 142.296 715.562 142.296C714.314 142.296 713.226 142.584 712.298 143.16C711.37 143.736 710.65 144.568 710.138 145.656C709.626 146.744 709.37 148.024 709.37 149.496C709.37 150.968 709.642 152.264 710.186 153.384C710.73 154.472 711.482 155.304 712.442 155.88C713.434 156.456 714.554 156.744 715.802 156.744ZM729.223 159V131.976H732.247V159H729.223ZM745.446 159.48C743.302 159.48 741.526 159 740.118 158.04C738.742 157.048 737.718 155.784 737.046 154.248C736.406 152.68 736.086 151.064 736.086 149.4C736.086 147.576 736.438 145.912 737.142 144.408C737.878 142.872 738.934 141.656 740.31 140.76C741.718 139.864 743.398 139.416 745.35 139.416C747.046 139.416 748.534 139.784 749.814 140.52C751.126 141.224 752.166 142.248 752.934 143.592C753.734 144.936 754.182 146.52 754.278 148.344C754.31 148.472 754.326 148.664 754.326 148.92C754.326 149.144 754.326 149.352 754.326 149.544H739.062C739.062 151.816 739.606 153.608 740.694 154.92C741.814 156.2 743.382 156.84 745.398 156.84C746.902 156.84 748.182 156.456 749.238 155.688C750.326 154.92 750.998 153.88 751.254 152.568H754.278C754.054 153.88 753.558 155.064 752.79 156.12C752.022 157.176 751.014 158.008 749.766 158.616C748.518 159.192 747.078 159.48 745.446 159.48ZM739.158 147.864H751.158C751.158 147.352 751.046 146.776 750.822 146.136C750.63 145.464 750.31 144.824 749.862 144.216C749.414 143.576 748.822 143.048 748.086 142.632C747.35 142.216 746.422 142.008 745.302 142.008C744.31 142.008 743.446 142.184 742.71 142.536C741.974 142.856 741.35 143.304 740.838 143.88C740.358 144.424 739.974 145.048 739.686 145.752C739.43 146.456 739.254 147.16 739.158 147.864ZM781.517 159.672C777.901 159.672 775.117 158.616 773.165 156.504C771.245 154.36 770.285 151.352 770.285 147.48V131.976H773.453V147.48C773.453 149.08 773.661 150.472 774.077 151.656C774.493 152.808 775.053 153.768 775.757 154.536C776.493 155.304 777.341 155.864 778.301 156.216C779.293 156.568 780.365 156.744 781.517 156.744C783.181 156.744 784.605 156.44 785.789 155.832C787.005 155.192 787.949 154.184 788.621 152.808C789.293 151.432 789.629 149.656 789.629 147.48V131.976H792.797V147.48C792.797 151.416 791.837 154.44 789.917 156.552C788.029 158.632 785.229 159.672 781.517 159.672ZM801.972 158.136V132.84H805.044V158.136H801.972ZM798.276 159V156.312H808.74V159H798.276ZM798.276 134.664V131.976H808.74V134.664H798.276ZM833.993 159.48C831.849 159.48 830.073 159 828.665 158.04C827.289 157.048 826.265 155.784 825.593 154.248C824.953 152.68 824.633 151.064 824.633 149.4C824.633 147.576 824.985 145.912 825.689 144.408C826.425 142.872 827.481 141.656 828.857 140.76C830.265 139.864 831.945 139.416 833.897 139.416C835.593 139.416 837.081 139.784 838.361 140.52C839.673 141.224 840.713 142.248 841.481 143.592C842.281 144.936 842.729 146.52 842.825 148.344C842.857 148.472 842.873 148.664 842.873 148.92C842.873 149.144 842.873 149.352 842.873 149.544H827.609C827.609 151.816 828.153 153.608 829.241 154.92C830.361 156.2 831.929 156.84 833.945 156.84C835.449 156.84 836.729 156.456 837.785 155.688C838.873 154.92 839.545 153.88 839.801 152.568H842.825C842.601 153.88 842.105 155.064 841.337 156.12C840.569 157.176 839.561 158.008 838.313 158.616C837.065 159.192 835.625 159.48 833.993 159.48ZM827.705 147.864H839.705C839.705 147.352 839.593 146.776 839.369 146.136C839.177 145.464 838.857 144.824 838.409 144.216C837.961 143.576 837.369 143.048 836.633 142.632C835.897 142.216 834.969 142.008 833.849 142.008C832.857 142.008 831.993 142.184 831.257 142.536C830.521 142.856 829.897 143.304 829.385 143.88C828.905 144.424 828.521 145.048 828.233 145.752C827.977 146.456 827.801 147.16 827.705 147.864ZM847.441 159V131.976H850.465V159H847.441ZM863.665 159.48C861.521 159.48 859.745 159 858.337 158.04C856.961 157.048 855.937 155.784 855.265 154.248C854.625 152.68 854.305 151.064 854.305 149.4C854.305 147.576 854.657 145.912 855.361 144.408C856.097 142.872 857.153 141.656 858.529 140.76C859.937 139.864 861.617 139.416 863.569 139.416C865.265 139.416 866.753 139.784 868.033 140.52C869.345 141.224 870.385 142.248 871.153 143.592C871.953 144.936 872.401 146.52 872.497 148.344C872.529 148.472 872.545 148.664 872.545 148.92C872.545 149.144 872.545 149.352 872.545 149.544H857.281C857.281 151.816 857.825 153.608 858.913 154.92C860.033 156.2 861.601 156.84 863.617 156.84C865.121 156.84 866.401 156.456 867.457 155.688C868.545 154.92 869.217 153.88 869.473 152.568H872.497C872.273 153.88 871.777 155.064 871.009 156.12C870.241 157.176 869.233 158.008 867.985 158.616C866.737 159.192 865.297 159.48 863.665 159.48ZM857.377 147.864H869.377C869.377 147.352 869.265 146.776 869.041 146.136C868.849 145.464 868.529 144.824 868.081 144.216C867.633 143.576 867.041 143.048 866.305 142.632C865.569 142.216 864.641 142.008 863.521 142.008C862.529 142.008 861.665 142.184 860.929 142.536C860.193 142.856 859.569 143.304 859.057 143.88C858.577 144.424 858.193 145.048 857.905 145.752C857.649 146.456 857.473 147.16 857.377 147.864ZM876.441 159V139.464H879.321L879.465 144.312H879.561C879.625 144.088 879.769 143.72 879.993 143.208C880.249 142.664 880.601 142.104 881.049 141.528C881.529 140.952 882.153 140.472 882.921 140.088C883.689 139.672 884.665 139.464 885.849 139.464C887.065 139.464 888.057 139.704 888.825 140.184C889.593 140.632 890.185 141.224 890.601 141.96C891.017 142.696 891.337 143.48 891.561 144.312H891.657C891.721 144.056 891.881 143.672 892.137 143.16C892.393 142.648 892.777 142.104 893.289 141.528C893.801 140.952 894.457 140.472 895.257 140.088C896.089 139.672 897.097 139.464 898.281 139.464C899.529 139.464 900.553 139.72 901.353 140.232C902.185 140.712 902.841 141.368 903.321 142.2C903.801 143 904.137 143.848 904.329 144.744C904.553 145.64 904.697 146.504 904.761 147.336C904.825 148.168 904.857 148.84 904.857 149.352V159H901.833V149.352C901.833 148.808 901.801 148.152 901.737 147.384C901.705 146.584 901.545 145.8 901.257 145.032C901.001 144.232 900.569 143.576 899.961 143.064C899.353 142.52 898.489 142.248 897.369 142.248C896.153 142.248 895.145 142.6 894.345 143.304C893.577 144.008 893.017 144.936 892.665 146.088C892.313 147.208 892.137 148.424 892.137 149.736V159H889.161V149.352C889.161 148.808 889.129 148.152 889.065 147.384C889.001 146.584 888.841 145.8 888.585 145.032C888.329 144.232 887.897 143.576 887.289 143.064C886.681 142.52 885.817 142.248 884.697 142.248C883.449 142.248 882.441 142.6 881.673 143.304C880.905 144.008 880.345 144.936 879.993 146.088C879.641 147.208 879.465 148.424 879.465 149.736V159H876.441ZM917.524 159.48C915.38 159.48 913.604 159 912.196 158.04C910.82 157.048 909.796 155.784 909.124 154.248C908.484 152.68 908.164 151.064 908.164 149.4C908.164 147.576 908.516 145.912 909.22 144.408C909.956 142.872 911.012 141.656 912.388 140.76C913.796 139.864 915.476 139.416 917.428 139.416C919.124 139.416 920.612 139.784 921.892 140.52C923.204 141.224 924.244 142.248 925.012 143.592C925.812 144.936 926.26 146.52 926.356 148.344C926.388 148.472 926.404 148.664 926.404 148.92C926.404 149.144 926.404 149.352 926.404 149.544H911.14C911.14 151.816 911.684 153.608 912.772 154.92C913.892 156.2 915.46 156.84 917.476 156.84C918.98 156.84 920.26 156.456 921.316 155.688C922.404 154.92 923.076 153.88 923.332 152.568H926.356C926.132 153.88 925.636 155.064 924.868 156.12C924.1 157.176 923.092 158.008 921.844 158.616C920.596 159.192 919.156 159.48 917.524 159.48ZM911.236 147.864H923.236C923.236 147.352 923.124 146.776 922.9 146.136C922.708 145.464 922.388 144.824 921.94 144.216C921.492 143.576 920.9 143.048 920.164 142.632C919.428 142.216 918.5 142.008 917.38 142.008C916.388 142.008 915.524 142.184 914.788 142.536C914.052 142.856 913.428 143.304 912.916 143.88C912.436 144.424 912.052 145.048 911.764 145.752C911.508 146.456 911.332 147.16 911.236 147.864ZM930.301 159V139.464H932.941L933.469 144.312H933.565C933.629 144.152 933.773 143.816 933.997 143.304C934.253 142.76 934.637 142.2 935.149 141.624C935.661 141.048 936.349 140.552 937.213 140.136C938.109 139.688 939.229 139.464 940.573 139.464C941.917 139.464 943.037 139.672 943.933 140.088C944.829 140.472 945.533 141.016 946.045 141.72C946.589 142.392 946.989 143.16 947.245 144.024C947.501 144.888 947.661 145.784 947.725 146.712C947.821 147.608 947.869 148.488 947.869 149.352V159H944.893V149.352C944.893 147.944 944.733 146.712 944.413 145.656C944.125 144.568 943.597 143.736 942.829 143.16C942.061 142.552 940.973 142.248 939.565 142.248C938.125 142.248 936.957 142.6 936.061 143.304C935.165 143.976 934.509 144.888 934.093 146.04C933.677 147.16 933.469 148.392 933.469 149.736V159H930.301ZM956.618 159C955.466 159 954.65 158.68 954.17 158.04C953.69 157.4 953.45 156.52 953.45 155.4V141.336H956.426V156.504H960.986V159H956.618ZM950.378 141.768V139.464C951.146 139.464 951.754 139.432 952.202 139.368C952.682 139.272 953.034 139.08 953.258 138.792C953.482 138.472 953.626 137.96 953.69 137.256C953.754 136.552 953.786 135.608 953.786 134.424H956.426V139.464H960.938V141.768H950.378ZM972.956 159.48C971.868 159.48 970.876 159.32 969.98 159C969.084 158.712 968.3 158.312 967.628 157.8C966.988 157.288 966.428 156.744 965.948 156.168C965.5 155.56 965.164 154.952 964.94 154.344C964.716 153.736 964.604 153.192 964.604 152.712H967.58C967.58 152.744 967.612 152.984 967.676 153.432C967.74 153.88 967.932 154.392 968.252 154.968C968.572 155.544 969.1 156.056 969.836 156.504C970.572 156.92 971.612 157.128 972.956 157.128C973.916 157.128 974.78 157.016 975.548 156.792C976.316 156.568 976.908 156.216 977.324 155.736C977.772 155.256 977.98 154.664 977.948 153.96C977.948 153.032 977.628 152.328 976.988 151.848C976.38 151.336 975.58 150.952 974.588 150.696C973.596 150.408 972.556 150.136 971.468 149.88C970.38 149.624 969.34 149.304 968.348 148.92C967.356 148.504 966.556 147.928 965.948 147.192C965.34 146.456 965.052 145.432 965.084 144.12C965.116 142.52 965.836 141.256 967.244 140.328C968.684 139.368 970.524 138.888 972.764 138.888C973.692 138.888 974.636 139 975.596 139.224C976.588 139.448 977.484 139.816 978.284 140.328C979.116 140.808 979.772 141.496 980.252 142.392C980.732 143.256 980.94 144.344 980.876 145.656H977.996C978.028 144.76 977.868 144.04 977.516 143.496C977.196 142.92 976.748 142.488 976.172 142.2C975.628 141.88 975.036 141.672 974.396 141.576C973.788 141.448 973.212 141.384 972.668 141.384C971.292 141.384 970.156 141.64 969.26 142.152C968.396 142.664 967.964 143.384 967.964 144.312C967.964 145.176 968.268 145.848 968.876 146.328C969.516 146.808 970.316 147.192 971.276 147.48C972.268 147.736 973.308 147.992 974.396 148.248C975.516 148.472 976.572 148.792 977.564 149.208C978.556 149.624 979.356 150.216 979.964 150.984C980.604 151.752 980.924 152.808 980.924 154.152C980.924 155.4 980.572 156.424 979.868 157.224C979.196 157.992 978.252 158.568 977.036 158.952C975.852 159.304 974.492 159.48 972.956 159.48Z" fill="white"/>
<defs>
<linearGradient id="paint0_linear_860_281" x1="720" y1="600" x2="720" y2="0" gradientUnits="userSpaceOnUse">
<stop stop-color="#0084D1"/>
<stop offset="1" stop-color="white"/>
</linearGradient>
<linearGradient id="paint1_linear_860_281" x1="945.094" y1="283.375" x2="1017.28" y2="387.906" gradientUnits="userSpaceOnUse">
<stop stop-color="#32B1C1"/>
<stop offset="1" stop-color="#14C6B7"/>
</linearGradient>
<clipPath id="clip0_860_281">
<rect width="240" height="240" fill="white" transform="translate(336 214)"/>
</clipPath>
<clipPath id="clip1_860_281">
<rect width="240" height="240" fill="white" transform="translate(864 214)"/>
</clipPath>
</defs>
</svg>
