<svg width="343" height="416" viewBox="0 0 343 416" fill="none" xmlns="http://www.w3.org/2000/svg">
<path d="M127.978 393.742C127.937 382.144 130.558 377.19 141.237 371.867H201.767C200.215 379.181 198.175 384.389 179.285 408.133C163.769 415.226 155.241 418.006 141.237 414.465C134.794 410.238 131.421 407.137 127.978 393.742Z" fill="#230505"/>
<path d="M289.391 393.742C289.433 382.144 286.811 377.19 276.132 371.867H215.602C217.154 379.181 219.194 384.389 238.085 408.133C253.6 415.226 262.129 418.006 276.132 414.465C282.576 410.238 285.949 407.137 289.391 393.742Z" fill="#230505"/>
<path d="M337.239 248.823C342.681 234.741 340.612 227.2 329.168 214.284C320.954 206.6 306.525 188.001 304.38 189.387C302.234 190.774 304.951 195.409 294.003 200.325L280.744 201.62C277.51 217.313 270.471 223.875 255.379 237.166L291.697 305.812C308.432 318.443 317.548 320.135 333.203 310.993C340.111 300.428 341.673 294.114 337.239 281.635L329.168 260.336L337.239 248.823Z" fill="#CFD8F8"/>
<path d="M195.366 262.385L137.249 378.82L262.965 377.402L195.366 262.385Z" fill="#B7F0FD"/>
<path d="M140.318 227.956L202.335 255.865L144.943 383.025L77.1614 383.025C93.3644 318.437 106.487 284.148 140.318 227.956Z" fill="#053B47"/>
<path d="M187.845 257.948L247.051 224.502C297.814 275.571 310.583 311.595 330.811 377.048L256.622 379.346L187.845 257.948Z" fill="#053B47"/>
<ellipse cx="196.579" cy="186.509" rx="87.048" ry="69.0775" fill="#FAD6A0"/>
<path d="M275.556 203.779V170.404C275.556 170.404 303.849 169.328 304.373 186.553C304.897 203.779 275.556 203.779 275.556 203.779Z" fill="#FAD6A0"/>
<path d="M121.06 203.779V170.404C121.06 170.404 92.7672 169.328 92.2433 186.553C91.7193 203.779 121.06 203.779 121.06 203.779Z" fill="#FAD6A0"/>
<ellipse cx="173.519" cy="183.055" rx="5.18829" ry="4.60516" fill="#221901"/>
<ellipse cx="221.943" cy="183.055" rx="5.18829" ry="4.60516" fill="#221901"/>
<rect width="20.9624" height="10.3644" rx="5.1822" transform="matrix(0.903007 -0.429625 0.430636 0.902526 154.496 163.279)" fill="#CFD8F8"/>
<rect width="20.9607" height="10.3653" rx="5.18264" transform="matrix(0.86982 0.493369 -0.494447 0.869208 217.268 154.273)" fill="#CFD8F8"/>
<rect x="189.084" y="187.66" width="14.9884" height="8.05904" rx="4.02952" fill="#FD9D9D"/>
<path d="M214.449 204.93C201.109 211.421 193.297 211.559 178.708 204.93C176.843 206.728 176.578 207.736 178.708 209.535C192.667 214.671 200.49 214.751 214.449 209.535C216.494 207.924 217.061 206.968 214.449 204.93Z" fill="#221901"/>
<ellipse cx="140.084" cy="199.173" rx="19.0237" ry="16.1181" fill="#FD9D9D"/>
<ellipse cx="256.532" cy="199.173" rx="19.0237" ry="16.1181" fill="#FD9D9D"/>
<path d="M183.326 150.445C175.204 146.006 170.764 144.765 167.755 121.461C182.882 113.856 193.841 113.498 217.689 116.416C241.08 123.401 251.344 129.883 267.048 143.787C277.401 161.204 266.102 169.108 245.18 150.445C231.435 154.144 226.019 153.624 217.689 138.609C213.528 153.173 191.448 154.883 183.326 150.445Z" fill="#CFD8F8"/>
<path d="M97.4246 176.148L111.836 171.542C118.107 155.266 125.379 147.955 136.625 138.731C152.456 127.728 157.537 123.615 176.978 119.159C194.692 115.436 205.733 114.388 221.367 118.007C241.434 124.65 249.734 131.21 265.179 142.184C273.721 155.67 277.965 160.997 281.897 171.542L299.768 176.148C304.05 161.349 303.43 152.483 288.815 134.125C270.288 114.717 257.555 105.005 221.367 94.4059C190.809 94.2761 174 94.6851 151.037 105.919C128.4 111.752 117.754 121.058 97.4246 141.033C87.8362 155.125 89.2834 162.757 97.4246 176.148Z" fill="#B7F0FD"/>
<path d="M199.169 0L139.507 112.146H199.169H260.567L199.169 0Z" fill="#B7F0FD"/>
<path d="M225.402 47.7786C205.366 51.5747 194.132 51.7649 174.096 47.7786L164.296 65.6236C191.986 72.0739 207.514 72.0033 235.203 65.6236L225.402 47.7786Z" fill="#CFD8F8"/>
<ellipse cx="95.6952" cy="295.306" rx="28.8238" ry="25.9041" fill="#FAD6A0"/>
<path d="M42.6008 118.836C42.0378 116.285 43.6494 113.762 46.2005 113.201C48.7517 112.639 51.2762 114.252 51.8393 116.803L114.796 402.011C115.359 404.562 113.748 407.085 111.197 407.646C108.645 408.208 106.121 406.595 105.558 404.044L42.6008 118.836Z" fill="#705205"/>
<ellipse cx="39.2004" cy="81.166" rx="39.2004" ry="36.2657" fill="#B7F0FD"/>
</svg>
