<svg width="113" height="228" viewBox="0 0 113 228" fill="none" xmlns="http://www.w3.org/2000/svg">
<path d="M39.6227 119.101C23.268 125.394 15.7345 133.398 2.11028 147.162C1.93873 150.784 3.49293 152.621 7.92113 155.702L41.3196 127.949L39.6227 119.101Z" fill="#FFE6C1"/>
<path d="M32.6045 162.298L8.75288 142.34C8.75288 142.34 3.19067 147.356 3.55381 150.366C3.91694 153.376 15.8373 163.839 26.7679 170.817L32.6045 162.298Z" fill="#FFE6C1"/>
<path d="M44.4482 185.435C62.5819 162.389 71.5197 144.525 72.7189 124.171C72.8136 122.563 72.86 120.941 72.8589 119.299C70.2893 119.297 67.8484 119.296 65.5069 119.294C47.3104 119.282 49.4287 118.778 39.9586 119.277C30.4884 119.776 5.74687 168.709 44.4482 185.435Z" fill="#C00909"/>
<path d="M73.3623 119.124L66.3463 125.537C64.1433 137.725 63.7898 147.159 71.5225 157.843C74.5959 171.732 80.1165 182.721 84.0266 200.392L96.668 198.81C87.4353 162.532 81.9052 128.299 73.3623 119.124Z" fill="#FFE6C1"/>
<path d="M31.4237 175.238C42.954 178.777 47.1339 178.504 51.7765 175.238C63.1798 191.579 64.3691 204.195 64.5249 228H15.3205C19.145 200.482 22.3722 188.092 31.4237 175.238Z" fill="#271300"/>
<path d="M63.3248 104.684H45.3232V121.12C48.178 126.95 52.0199 127.086 63.3248 121.12V104.684Z" fill="#FFE6C1"/>
<ellipse cx="53.1239" cy="62.0446" rx="39.6035" ry="47.5473" fill="#FFE6C1"/>
<path d="M51.0293 79.6727L36.4248 81.4786C38.5435 83.2252 39.8485 83.9759 42.5981 84.4885C44.3106 84.7636 44.6744 84.4885 47.0348 83.8865C49.3952 83.2845 49.7802 80.8442 51.0293 79.6727Z" fill="#BC4E4E"/>
<path d="M36.4249 78.8687C36.2512 79.6347 36.331 80.3213 36.4249 81.4758C41.4488 81.8003 44.3113 81.8799 46.6717 81.2779C48.4873 80.676 51.0293 79.6727 51.0293 79.6727C48.3058 76.6628 42.9613 76.4622 41.6903 76.4622C40.4193 76.4622 37.4255 76.4307 36.4249 78.8687Z" fill="#C00909"/>
<ellipse cx="35.3485" cy="56.9265" rx="4.10371" ry="5.42389" fill="#1D0101"/>
<path d="M39.7941 56.5875L37.0583 55.5705L23.7213 50.1466L29.5349 49.4686C32.3451 49.4394 34.0111 50.0037 37.0583 51.5026C38.7123 53.2759 39.1761 54.4383 39.7941 56.5875Z" fill="#1D0101" stroke="#1D0101"/>
<ellipse cx="4.10371" cy="5.42389" rx="4.10371" ry="5.42389" transform="matrix(-1 0 0 1 61.2018 51.5036)" fill="#1D0101"/>
<path d="M52.6524 56.5884L55.3882 55.5715L68.7253 50.1476L62.9117 49.4696C60.1014 49.4403 58.4354 50.0047 55.3882 51.5036C53.7342 53.2768 53.2704 54.4393 52.6524 56.5884Z" fill="#1D0101" stroke="#1D0101"/>
<path d="M45.5599 62.3487C42.4828 64.4576 41.9761 66.0339 43.3811 69.5723" stroke="black"/>
<path d="M49.5234 14.4973L17.4206 37.8108C17.5194 24.3348 18.6932 12.7335 59.1243 1C75.4883 6.11309 84.6048 10.0112 99.9279 33.5162C104.558 65.1418 104.282 82.1037 102.628 112.046H68.1251L73.8256 76.1554L77.4259 47.3203C64.0534 38.5812 57.4035 32.2854 49.5234 14.4973Z" fill="#1D0101" stroke="black"/>
<path d="M41.2229 58.6703C41.2229 64.4907 36.4791 69.2135 30.6219 69.2135C24.7647 69.2135 20.0209 64.4907 20.0209 58.6703C20.0209 55.6936 20.7407 53.2817 22.1428 51.6215C23.5336 49.9748 25.6515 49.0018 28.5989 49.0018C31.5634 49.0018 34.743 49.9885 37.1711 51.707C39.5974 53.4243 41.2229 55.8304 41.2229 58.6703Z" stroke="black"/>
<path d="M68.2252 58.6703C68.2252 64.4907 63.4815 69.2135 57.6242 69.2135C51.767 69.2135 47.0233 64.4907 47.0233 58.6703C47.0233 55.811 48.4705 53.5138 50.6832 51.9143C52.9044 50.3088 55.8818 49.4222 58.8556 49.4222C61.8221 49.4222 64.1519 50.3033 65.7387 51.8654C67.3245 53.4265 68.2252 55.7241 68.2252 58.6703Z" stroke="black"/>
<path d="M41.4228 58.3635C43.4048 57.6574 45.0756 57.5289 46.8233 58.3635" stroke="black"/>
<path d="M62.7521 132.239C62.7521 139.885 62.153 146.084 66.5651 146.084C70.9773 146.084 73.8277 137.879 73.8277 130.232C73.8277 122.585 76.4241 118.795 72.012 118.795C67.5998 118.795 62.7521 124.592 62.7521 132.239Z" fill="#FFE6C1"/>
<path d="M109.839 213.503C110.797 209.979 108.15 200.564 101.177 198.679C94.2036 196.794 84.618 195.004 83.6602 198.528C82.7024 202.052 87.1978 205.615 94.1709 207.501C101.144 209.386 108.882 217.027 109.839 213.503Z" fill="#FFE6C1"/>
<path d="M92.4183 62.3741H83.7242V75.8259H92.4183C95.1036 74.6024 96.2933 73.6702 96.9543 70.87C97.1155 66.6471 96.8487 64.4469 92.4183 62.3741Z" fill="#FFE6C1"/>
</svg>
