<svg width="117" height="270" viewBox="0 0 117 270" fill="none" xmlns="http://www.w3.org/2000/svg">
<ellipse cx="54.6382" cy="100.232" rx="31.4118" ry="37.5155" transform="rotate(0.290699 54.6382 100.232)" fill="#9B682C"/>
<path d="M70.098 148.96L113.701 182.659C113.904 187.029 111.856 189.234 106.033 192.922L62.4299 159.223L70.098 148.96Z" fill="#9B682C"/>
<path d="M73.642 200.714L105.025 176.799C105.025 176.799 112.284 182.886 111.789 186.515C111.295 190.143 95.6079 202.684 81.2394 211.028L73.642 200.714Z" fill="#9B682C"/>
<path d="M63.9205 237.492C40.5811 206.237 29.1165 182.048 27.6859 154.554C27.573 152.383 27.5226 150.192 27.5339 147.975C30.8607 147.992 34.0209 148.008 37.0525 148.023C60.6115 148.143 57.8719 147.447 70.1299 148.191C82.3878 148.935 114.127 215.196 63.9205 237.492Z" fill="#C16800"/>
<ellipse cx="41.1869" cy="96.8901" rx="3.64547" ry="4.48397" transform="rotate(0.290699 41.1869 96.8901)" fill="#1D0101"/>
<path d="M45.1376 96.6299L42.7116 95.7768L30.8867 91.2328L36.0539 90.6985C38.5504 90.687 40.028 91.1611 42.7286 92.4139C44.1905 93.8873 44.5976 94.8504 45.1376 96.6299Z" fill="#1D0101" stroke="#1D0101"/>
<ellipse cx="3.64547" cy="4.48397" rx="3.64547" ry="4.48397" transform="matrix(-0.999987 -0.00507362 -0.00507362 0.999987 64.1758 92.5235)" fill="#1D0101"/>
<path d="M56.5599 96.6886L58.9944 95.8602L70.8648 91.4364L65.7033 90.8497C63.207 90.8129 61.7247 91.2719 59.0115 92.4973C57.5348 93.9558 57.1179 94.9147 56.5599 96.6886Z" fill="#1D0101" stroke="#1D0101"/>
<path d="M21.0322 94.9789L30.3915 95.0264L30.3251 108.096L20.9659 108.049C18.0812 106.845 16.805 105.933 16.1073 103.209C15.9546 99.1049 16.2526 96.9686 21.0322 94.9789Z" fill="#9B682C"/>
<path d="M88.7716 95.3226L79.4124 95.2751L79.3461 108.345L88.7053 108.392C91.6021 107.218 92.8874 106.319 93.6128 103.602C93.8071 99.4999 93.5308 97.3607 88.7716 95.3226Z" fill="#9B682C"/>
<path d="M51.0671 98.1123C47.0214 100.636 46.3477 102.534 48.1673 106.811" stroke="black"/>
<path d="M60.5197 113.574L41.3677 115.655C44.1339 117.776 45.8396 118.69 49.4401 119.327C51.6829 119.67 52.1615 119.341 55.2587 118.63C58.3559 117.92 58.8755 114.979 60.5197 113.574Z" fill="#77400D"/>
<path d="M41.3838 112.507C41.1515 113.43 41.2519 114.259 41.3678 115.652C47.9504 116.077 51.7015 116.192 54.7988 115.481C57.1821 114.767 60.5198 113.574 60.5198 113.574C56.9687 109.926 49.9653 109.648 48.2995 109.64C46.6337 109.631 42.7102 109.573 41.3838 112.507Z" fill="#412206"/>
<path d="M50.4742 73.7151C51.4096 68.795 52.6937 66.4767 55.9259 62.8877L47.057 70.3207C45.2044 71.3293 44.1364 71.7053 41.9056 70.2945C41.659 74.1086 40.3932 75.5651 37.4522 77.7499C34.1818 78.1129 32.6532 77.8162 30.8387 75.7865C31.5832 78.5661 31.7665 80.226 30.7984 83.7467C30.0873 89.4335 27.6989 92.0309 23.5188 96.5768L23.3731 96.7352C19.7049 97.0873 17.7698 97.1325 16.2691 94.7694C13.5996 86.2849 13.5595 81.6329 16.3768 73.5421C26.1984 60.7086 42.0145 48.8261 59.1761 50.8429C76.3377 52.8598 80.7253 60.7407 93.4025 73.9329C94.3311 81.567 93.5706 86.2403 90.3512 95.1452C88.2334 97.1034 86.6845 97.4261 83.4728 97.0401C78.8593 91.9695 76.8415 88.8576 77.4197 81.3298C74.8821 83.4104 73.2962 83.8732 70.2925 83.9471C67.857 82.8405 66.5933 82.0933 66.6435 77.898C64.201 80.292 62.2306 80.9853 57.7954 81.2303C53.4932 79.3799 51.4666 78.0526 50.4742 73.7151Z" fill="#1D0101"/>
<path d="M17.8542 52.8139C19.8988 58.716 21.936 60.7478 27.5824 61.4931L58.6106 53.0207L87.8503 68.2096C94.3539 65.2478 96.891 62.0616 99.1287 53.2262C100.874 45.6502 100.69 41.3884 95.6524 33.7298C96.6398 25.0514 94.8245 20.3586 88.1343 12.2403C83.3701 4.983 79.8956 1.54893 67.219 0.545567C55.3045 -0.229305 49.4477 0.553457 42.6348 7.32471C27.7394 13.7538 22.7418 19.1194 22.7198 33.3598C16.7293 37.2686 16.8279 42.5777 17.8542 52.8139Z" fill="#1D0101"/>
<path d="M43.692 53.2212C37.7318 55.3693 33.284 56.6518 28.8988 60.8913C34.3455 59.9375 37.7146 58.7577 43.6638 58.7879L52.7064 58.8338C61.5112 58.8785 58.6457 60.8002 65.7761 62.5307C72.9065 64.2611 87.8787 68.2097 87.8787 68.2097C77.5 60.2408 73.6406 54.2811 58.2239 50.1484C52.2391 50.7601 49.6522 51.0731 43.692 53.2212Z" fill="#FA8334"/>
<path d="M47.8143 131.905L63.52 131.984L63.4316 149.411C60.9095 155.579 57.5569 155.707 47.7259 149.331L47.8143 131.905Z" fill="#9B682C"/>
<path d="M27.8772 116.797C27.8499 122.179 23.8551 126.442 19.0475 126.418C14.24 126.394 10.2886 122.09 10.3159 116.708C10.3432 111.326 14.3381 107.063 19.1456 107.087C23.9532 107.112 27.9045 111.415 27.8772 116.797Z" stroke="#E5E059"/>
<path d="M99.2718 116.191C99.2445 121.573 95.2497 125.836 90.4421 125.812C85.6346 125.788 81.6832 121.484 81.7105 116.102C81.7378 110.72 85.7327 106.457 90.5402 106.481C95.3477 106.506 99.2991 110.809 99.2718 116.191Z" stroke="#E5E059"/>
<path d="M42.4169 163.826C42.3701 173.05 43.1174 180.531 37.3347 180.501C31.552 180.472 27.8665 170.556 27.9133 161.332C27.9601 152.109 24.5803 147.519 30.363 147.549C36.1457 147.578 42.4637 154.603 42.4169 163.826Z" fill="#9B682C"/>
<path d="M27.5061 147.776L40.3196 155.057C43.1323 169.774 43.5379 181.155 33.3378 193.99C29.2247 210.723 23.5708 226.575 18.3379 247.864L0.130929 243.237L27.5061 147.776Z" fill="#9B682C"/>
<path d="M57.1507 224.388C71.2248 227.4 76.3266 227.169 81.9923 224.394C95.9143 238.289 97.3687 249.013 97.564 269.249L37.5074 269.234C42.1694 245.844 46.1057 235.312 57.1507 224.388Z" fill="#513204"/>
</svg>
