<svg width="291" height="163" viewBox="0 0 291 163" fill="none" xmlns="http://www.w3.org/2000/svg">
<path d="M154.58 120.033C156.981 122.486 159.826 130.916 155.974 134.926C152.123 138.936 146.431 143.811 144.029 141.358C141.628 138.905 142.948 134.455 146.8 130.445C150.651 126.435 152.178 117.58 154.58 120.033Z" fill="#5F00BA"/>
<path d="M113.02 148.299L100.076 151.267L80.7767 82.017L87.579 79.4521C99.7053 76.934 110.493 108.099 113.02 148.299Z" fill="#5F00BA"/>
<path d="M147.33 134.142L149.591 140.324C149.591 140.324 105.653 165.599 102.751 159.259C99.8499 152.92 98.3706 145.503 98.3706 145.503C119.455 137.68 130.62 134.425 147.33 134.142Z" fill="#5F00BA"/>
<ellipse cx="39.115" cy="51.1042" rx="18.1672" ry="16.2407" fill="#282729"/>
<path d="M39.5348 40.4509C42.0339 40.0555 48.3065 40.4509 48.3065 40.4509V53.1023C48.3065 53.1023 41.6157 53.8931 39.5348 53.1023C37.4539 52.3116 35.6252 51.0748 34.9583 48.4413C34.7957 44.4696 37.0358 40.8462 39.5348 40.4509Z" fill="#5F00BA"/>
<ellipse cx="29.2714" cy="29.1481" rx="29.2714" ry="29.1481" transform="matrix(0.98981 0.142397 -0.14017 0.990128 46.0076 2.05518)" fill="#5F00BA"/>
<path d="M81.1751 33.1304C80.1865 37.0129 76.1181 39.3452 72.0615 38.2956C68.005 37.2459 65.5539 33.2267 66.5425 29.3441C67.5311 25.4616 71.5994 23.1293 75.656 24.1789C79.7126 25.2286 82.1637 29.2478 81.1751 33.1304Z" stroke="black"/>
<path d="M102.031 35.6411C101.043 39.5237 96.9743 41.856 92.9177 40.8063C88.8612 39.7566 86.4101 35.7374 87.3987 31.8549C88.3873 27.9723 92.4556 25.64 96.5122 26.6897C100.569 27.7394 103.02 31.7586 102.031 35.6411Z" stroke="black"/>
<line y1="-0.5" x2="5.56081" y2="-0.5" transform="matrix(0.993513 0.108771 -0.109491 0.994525 81.5251 32.1899)" stroke="black"/>
<path d="M81.9872 50.2646C75.9393 48.9255 75.3502 43.1564 75.3502 43.1564L90.4772 45.5395C90.4772 45.5395 88.035 51.6036 81.9872 50.2646Z" fill="white"/>
<path d="M85.2712 34.7202C86.3839 37.2233 86.0006 38.1663 83.4174 38.9677" stroke="black"/>
<ellipse cx="76.135" cy="31.7535" rx="1.71389" ry="3.10992" fill="#282729"/>
<ellipse cx="95.7139" cy="33.1099" rx="1.71389" ry="3.10992" fill="#282729"/>
<rect x="60.4846" y="54.6519" width="20.8206" height="31.1495" fill="#5F00BA"/>
<path d="M66.3247 61.3216C71.6055 62.8028 74.8781 62.9333 80.9863 62.5448C76.4606 64.6626 75.6087 64.9764 71.8382 65.2581C68.0677 65.5398 65.7571 62.4396 66.3247 61.3216Z" fill="#261D6F"/>
<path d="M51.0563 80.6099H86.8048C106.626 96.7789 106.18 112.159 89 148.5L46.5 126.5C50.472 110.26 52.4888 104.227 53.3596 102.237C52.6048 102.203 51.3157 98.9646 51.0563 80.6099Z" fill="#FF9505"/>
<path d="M83.073 97.183C87.7871 95.5856 88.427 87.3129 81.3052 80.6099H60.4846C60.4846 80.6099 78.3589 98.7804 83.073 97.183Z" fill="#5F00BA"/>
<path d="M78.992 135.307L80.9341 141.983C80.9341 141.983 60.7696 148.098 46.5257 146.343C32.2818 144.588 18.2059 139.909 18.2059 139.909L20.8912 129.876C44.5438 130.422 55.2627 128.613 78.992 135.307Z" fill="#5F00BA"/>
<path d="M51.7931 80.1156C56.8266 80.0498 58.1987 82.6468 58.1276 92.1909L18.5484 139.909C18.5484 139.909 7.81184 137.016 8.26509 129.197C8.71835 121.378 45.8285 80.1493 51.7931 80.1156Z" fill="#5F00BA"/>
<path d="M39.4829 37.2915C68.508 33.1517 81.1081 29.2368 88.5001 7.57449C88.5001 7.57449 69.3045 -3.48303 56.6218 3.08235C43.9391 9.64773 39.0612 18.9131 39.4829 37.2915Z" fill="#282729" stroke="#282729"/>
<path d="M97.3872 22.0781C95.3737 13.2843 96.3589 12.4027 88.8177 7.56508C81.2766 2.72743 87.1039 13.0938 87.1039 13.0938C93.8591 16.3551 94.1727 17.6247 97.3872 22.0781Z" fill="#282729" stroke="#282729"/>
<path d="M146.811 112.676C149.865 109.583 150.777 112.47 152.31 116.178L146.24 141.041C140.816 143.724 139.516 143.459 140.51 139.62L146.811 112.676Z" fill="#282729"/>
<path d="M101.708 126.414C99.0561 123.383 89.4129 119.617 84.317 124.225C79.2211 128.832 72.9272 135.675 75.579 138.705C78.2308 141.736 83.5969 140.254 88.6928 135.647C93.7887 131.04 104.36 129.444 101.708 126.414Z" fill="#5F00BA"/>
<path d="M89.5033 136.798C85.8944 137.778 84.4345 138.379 79.9055 137.143L77.8489 142.672C83.0264 142.305 85.7598 141.584 91.9028 140.253L91.9169 140.219C93.7057 135.906 94.2327 134.635 89.5033 136.798Z" fill="#5F00BA"/>
<mask id="path-25-inside-1_297_2322" fill="white">
<path fill-rule="evenodd" clip-rule="evenodd" d="M291 1.69092H161.43V104.241L148.461 108.81L161.43 113.649V162.024H291V1.69092Z"/>
</mask>
<path fill-rule="evenodd" clip-rule="evenodd" d="M291 1.69092H161.43V104.241L148.461 108.81L161.43 113.649V162.024H291V1.69092Z" fill="#CFECFF"/>
<path d="M161.43 1.69092V0.690918H160.43V1.69092H161.43ZM291 1.69092H292V0.690918H291V1.69092ZM161.43 104.241L161.762 105.184L162.43 104.949V104.241H161.43ZM148.461 108.81L148.129 107.867L145.528 108.783L148.112 109.747L148.461 108.81ZM161.43 113.649H162.43V112.955L161.779 112.712L161.43 113.649ZM161.43 162.024H160.43V163.024H161.43V162.024ZM291 162.024V163.024H292V162.024H291ZM161.43 2.69092H291V0.690918H161.43V2.69092ZM162.43 104.241V1.69092H160.43V104.241H162.43ZM148.793 109.753L161.762 105.184L161.097 103.298L148.129 107.867L148.793 109.753ZM161.779 112.712L148.811 107.873L148.112 109.747L161.08 114.586L161.779 112.712ZM162.43 162.024V113.649H160.43V162.024H162.43ZM291 161.024H161.43V163.024H291V161.024ZM290 1.69092V162.024H292V1.69092H290Z" fill="#5F00BA" mask="url(#path-25-inside-1_297_2322)"/>
<rect x="172.456" y="34.8635" width="104.89" height="100.9" fill="#D0BDE2"/>
<ellipse cx="201.512" cy="57.7352" rx="16.7159" ry="12.5052" fill="white"/>
<path d="M216.738 70.3459L210.666 67.5637L215.898 63.1851L216.738 70.3459Z" fill="white"/>
<path d="M187.038 16.2041C187.038 20.1302 183.882 23.3061 179.997 23.3061C176.112 23.3061 172.956 20.1302 172.956 16.2041C172.956 12.2779 176.112 9.10205 179.997 9.10205C183.882 9.10205 187.038 12.2779 187.038 16.2041Z" fill="#E8E8E8" stroke="#5F00BA"/>
<rect x="194.394" y="11.3665" width="71.9834" height="4.83765" fill="#5F00BA"/>
<rect x="194.394" y="21.0417" width="58.2723" height="4.83765" fill="#5F00BA"/>
<path d="M238.07 97.0622C237.169 95.0215 236.546 95.0646 234.316 95.0852L212.509 110.539C212.509 110.539 212.207 118.804 214.975 118.946C217.744 119.087 237.852 99.041 238.07 97.0622Z" fill="#FFD23F"/>
<path d="M215.595 91.879L210.926 89.3479C210.926 89.3479 210.062 97.5875 210.408 103.389C210.754 109.191 213.304 116.471 213.304 116.471L218.272 115.167C218.859 105.619 218.022 101.682 215.595 91.879Z" fill="#FFD23F"/>
<path d="M266.749 77.7535C266.749 70.4854 267.323 69.1271 263.927 63.749L228.923 76.8672C229.455 82.235 228.678 85.4651 225.535 91.5808L256.399 92.8217C264.491 86.9717 265.997 84.3126 266.749 77.7535Z" fill="#0D044F"/>
<path d="M261.062 74.5926C259.69 74.3898 256.246 74.5926 256.246 74.5926V81.0831C256.246 81.0831 259.919 81.4887 261.062 81.0831C262.204 80.6774 263.208 80.0429 263.574 78.6918C263.664 76.6543 262.434 74.7954 261.062 74.5926Z" fill="#6153CC"/>
<rect width="11.4309" height="15.9803" transform="matrix(-1 0 0 1 249.559 81.8782)" fill="#FFD23F"/>
<path d="M244.624 86.1807L238.021 85.7709L241.806 88.5368L244.624 86.1807Z" fill="#261D6F"/>
<ellipse cx="16.068" cy="14.9559" rx="16.068" ry="14.9559" transform="matrix(-1 0 0 1 259.912 56.8831)" fill="#FFD23F"/>
<path d="M261.062 74.5926C259.69 74.3898 256.246 74.5926 256.246 74.5926V81.0831C256.246 81.0831 259.919 81.4887 261.062 81.0831C262.204 80.6774 263.208 80.0429 263.574 78.6918C263.664 76.6543 262.434 74.7954 261.062 74.5926Z" fill="#FFD23F"/>
<path d="M253.643 94.9887L253.643 102.245L267.691 120.553C267.691 120.553 272.343 117.873 272.981 113.543C273.62 109.213 256.958 92.384 253.643 94.9887Z" fill="#FFD23F"/>
<path d="M248.961 127.45L251.278 133.271C251.278 133.271 258.506 129.325 263.055 125.754C267.604 122.182 272.114 115.942 272.114 115.942L268.235 112.552C260.095 117.468 255.605 119.885 248.961 127.45Z" fill="#FFD23F"/>
<path d="M253.959 95.126H235.025C225.907 103.393 227.651 112.48 231.384 115.641C235.116 118.802 230.853 128.061 228.575 135.899H259.222C252.413 118.916 253.602 110.534 253.959 95.126Z" fill="#6153CC"/>
<path d="M237.158 103.697C234.57 102.878 234.292 98.4075 238.202 94.9688L249.494 95.146C249.494 95.146 239.746 104.517 237.158 103.697Z" fill="#FFD23F"/>
<path d="M239.06 70.5075C239.06 72.3913 240.767 74.0026 242.981 74.0026C245.196 74.0026 246.903 72.3913 246.903 70.5075C246.903 68.6237 245.196 67.0125 242.981 67.0125C240.767 67.0125 239.06 68.6237 239.06 70.5075Z" stroke="black"/>
<path d="M227.629 69.0735C227.629 70.9572 229.336 72.5685 231.55 72.5685C233.765 72.5685 235.472 70.9572 235.472 69.0735C235.472 67.1897 233.765 65.5784 231.55 65.5784C229.336 65.5784 227.629 67.1897 227.629 69.0735Z" stroke="black"/>
<line y1="-0.5" x2="3.04676" y2="-0.5" transform="matrix(-0.990918 -0.13447 -0.148716 0.98888 238.775 69.9951)" stroke="black"/>
<path d="M237.211 79.214C240.609 79.3172 241.695 76.5234 241.695 76.5234L233.326 75.7846C233.326 75.7846 233.813 79.1107 237.211 79.214Z" fill="white"/>
<path d="M236.859 71.8901C235.496 72.4663 235.312 72.9594 236.08 74.155" stroke="black"/>
<ellipse cx="0.940959" cy="1.59545" rx="0.940959" ry="1.59545" transform="matrix(-1 0 0 1 243.79 68.5354)" fill="#282729"/>
<ellipse cx="0.940959" cy="1.59545" rx="0.940959" ry="1.59545" transform="matrix(-1 0 0 1 232.875 67.4717)" fill="#282729"/>
<path d="M241.344 60.3808C239.098 63.3138 234.239 63.48 229.488 65.5216C230.474 59.8676 231.038 56.7092 236.639 56.658C246.85 51.4675 262.535 58.9287 264.303 64.458C266.072 69.9874 262.115 73.5412 252.071 80.058C253.359 75.1076 254.361 74.2046 254.141 71.8325C247.315 67.5077 246.455 65.9725 241.344 60.3808Z" fill="#0D044F"/>
<path d="M213.286 76.6481C215.838 77.562 220.783 82.2194 219.454 85.8938C218.125 89.5682 215.795 94.3181 213.243 93.4043C210.691 92.4904 210.077 89.2409 211.406 85.5666C212.735 81.8922 210.734 75.7342 213.286 76.6481Z" fill="#FFD23F"/>
</svg>
