<svg width="486" height="153" viewBox="0 0 486 153" fill="none" xmlns="http://www.w3.org/2000/svg">
<g clip-path="url(#clip0_873_449)">
<path d="M126.888 5.67969H51.1433C32.6877 5.67969 17.7266 20.6409 17.7266 39.0964V114.841C17.7266 133.297 32.6877 148.258 51.1433 148.258H126.888C145.343 148.258 160.305 133.297 160.305 114.841V39.0964C160.305 20.6409 145.343 5.67969 126.888 5.67969Z" fill="#242938"/>
<path d="M89.0154 87.5244C94.7542 87.5244 99.4058 82.8722 99.4058 77.134C99.4058 71.3958 94.7542 66.7437 89.0154 66.7437C83.2766 66.7437 78.625 71.3958 78.625 77.134C78.625 82.8722 83.2772 87.5244 89.0154 87.5244Z" fill="#00D8FF"/>
<path d="M89.0167 56.0071C102.967 56.0071 115.927 58.0087 125.698 61.3733C137.472 65.4261 144.71 71.5698 144.71 77.1331C144.71 82.9304 137.039 89.4572 124.396 93.646C114.837 96.8128 102.259 98.4658 89.0167 98.4658C75.4395 98.4658 62.5824 96.9142 52.9161 93.6109C40.6867 89.4311 33.321 82.8201 33.321 77.1331C33.321 71.6149 40.2327 65.5186 51.8406 61.4718C61.6484 58.0522 74.9277 56.0071 89.0145 56.0071H89.0167Z" stroke="#00D8FF" stroke-width="4.96294"/>
<path d="M70.627 66.6307C77.5966 54.5461 85.8043 44.3195 93.6005 37.5359C102.993 29.3616 111.932 26.1602 116.75 28.9389C121.772 31.835 123.594 41.7419 120.907 54.7867C118.877 64.6485 114.024 76.37 107.408 87.842C100.625 99.6036 92.8581 109.966 85.1683 116.687C75.4379 125.193 66.0305 128.271 61.1044 125.43C56.3241 122.676 54.4962 113.641 56.7897 101.564C58.7273 91.3591 63.59 78.834 70.6248 66.6307H70.627Z" stroke="#00D8FF" stroke-width="4.96294"/>
<path d="M70.6436 87.8731C63.6545 75.8019 58.896 63.5814 56.9099 53.4394C54.5189 41.2194 56.2093 31.8767 61.0241 29.0897C66.0416 26.1847 75.5336 29.5542 85.4929 38.3974C93.0228 45.083 100.755 55.1397 107.39 66.6006C114.192 78.351 119.291 90.2557 121.274 100.274C123.783 112.952 121.752 122.639 116.831 125.488C112.055 128.253 103.316 125.326 93.998 117.307C86.1251 110.532 77.7018 100.065 70.6436 87.8731Z" stroke="#00D8FF" stroke-width="4.96294"/>
</g>
<rect x="206.761" y="14.6421" width="78.6144" height="112.594" rx="2.3763" transform="rotate(-4.80577 206.761 14.6421)" fill="white"/>
<path d="M291.282 7.92116L283.581 8.40124L284.181 24.4157C284.212 25.3012 283.191 25.8181 282.495 25.2689L277.337 21.2032L271.228 25.8392C271.07 25.9587 270.882 26.0309 270.685 26.0474C270.489 26.0639 270.291 26.024 270.116 25.9324C269.941 25.8408 269.796 25.7013 269.697 25.5301C269.598 25.359 269.551 25.1633 269.559 24.9659L270.246 9.23443L193.847 14.0119C192.029 14.1252 190.328 14.9444 189.107 16.2946C187.885 17.6449 187.24 19.4192 187.308 21.2388L191.608 135.789C191.673 137.539 192.395 139.201 193.629 140.444C194.863 141.687 196.519 142.42 198.269 142.498L291.404 146.68C292.345 146.722 293.285 146.572 294.168 146.241C295.05 145.91 295.856 145.404 296.538 144.753C297.219 144.102 297.761 143.319 298.132 142.453C298.503 141.586 298.694 140.654 298.694 139.711V14.8852C298.694 13.9321 298.499 12.989 298.121 12.1143C297.743 11.2395 297.189 10.4516 296.494 9.79918C295.8 9.14666 294.979 8.64336 294.083 8.32036C293.186 7.99735 292.233 7.86149 291.282 7.92116ZM245.1 31.5212C263.266 31.5212 273.186 41.2377 273.186 59.7238C270.731 61.6319 252.445 62.9318 252.445 60.2173C252.831 49.8581 248.194 49.4047 245.617 49.4047C243.169 49.4047 239.046 50.1421 239.046 55.6915C239.046 69.379 274.345 68.6405 274.345 96.2639C274.345 111.803 261.719 120.385 245.617 120.385C228.998 120.385 214.476 113.662 216.116 90.3514C216.759 87.6145 237.887 88.265 237.887 90.3514C237.63 99.9698 239.819 102.799 245.358 102.799C249.609 102.799 251.543 100.457 251.543 96.5101C251.543 82.4516 216.759 81.9593 216.759 56.1861C216.759 41.388 226.937 31.5212 245.1 31.5212Z" fill="#FF4785"/>
<g clip-path="url(#clip1_873_449)">
<path d="M434.857 5.67969H359.112C340.656 5.67969 325.695 20.6409 325.695 39.0964V114.841C325.695 133.297 340.656 148.258 359.112 148.258H434.857C453.312 148.258 468.273 133.297 468.273 114.841V39.0964C468.273 20.6409 453.312 5.67969 434.857 5.67969Z" fill="#242938"/>
<path fill-rule="evenodd" clip-rule="evenodd" d="M371.922 66.9436C375.264 53.5769 383.618 46.8936 396.984 46.8936C417.035 46.8936 419.541 61.9311 429.566 64.4373C436.249 66.1089 442.097 63.6027 447.11 56.9186C443.768 70.2853 435.414 76.9686 422.047 76.9686C401.997 76.9686 399.491 61.9311 389.466 59.4248C382.782 57.754 376.934 60.2603 371.922 66.9436ZM346.859 97.0187C350.201 83.652 358.555 76.9686 371.922 76.9686C391.972 76.9686 394.478 92.0062 404.503 94.5124C411.187 96.184 417.035 93.6777 422.047 86.9937C418.705 100.36 410.351 107.044 396.984 107.044C376.934 107.044 374.428 92.0062 364.403 89.4999C357.72 87.8283 351.872 90.3346 346.859 97.0187Z" fill="url(#paint0_linear_873_449)"/>
</g>
<defs>
<linearGradient id="paint0_linear_873_449" x1="373.871" y1="46.8936" x2="416.756" y2="108.993" gradientUnits="userSpaceOnUse">
<stop stop-color="#32B1C1"/>
<stop offset="1" stop-color="#14C6B7"/>
</linearGradient>
<clipPath id="clip0_873_449">
<rect width="142.578" height="142.578" fill="white" transform="translate(17.7266 5.67969)"/>
</clipPath>
<clipPath id="clip1_873_449">
<rect width="142.578" height="142.578" fill="white" transform="translate(325.695 5.67969)"/>
</clipPath>
</defs>
</svg>
