<svg width="344" height="416" viewBox="0 0 344 416" fill="none" xmlns="http://www.w3.org/2000/svg">
<g id="Emerald">
<path id="left shoe" d="M128.979 393.742C128.937 382.144 131.559 377.19 142.238 371.867H202.768C201.216 379.181 199.176 384.389 180.285 408.133C164.77 415.226 156.241 418.006 142.238 414.465C135.794 410.238 132.421 407.137 128.979 393.742Z" fill="#230505"/>
<path id="right shoe" d="M290.391 393.742C290.433 382.144 287.811 377.19 277.132 371.867H216.602C218.154 379.181 220.194 384.389 239.085 408.133C254.6 415.226 263.129 418.006 277.132 414.465C283.576 410.238 286.949 407.137 290.391 393.742Z" fill="#230505"/>
<path id="pony tail" d="M338.239 248.823C343.681 234.741 341.612 227.2 330.168 214.284C321.954 206.6 307.525 188.001 305.38 189.387C303.234 190.774 305.951 195.409 295.003 200.325L281.744 201.62C278.51 217.313 271.471 223.875 256.379 237.166L292.697 305.812C309.432 318.443 318.548 320.135 334.203 310.993C341.111 300.428 342.673 294.114 338.239 281.635L330.168 260.336L338.239 248.823Z" fill="#E17E08"/>
<path id="pony tail_2" d="M67.2864 247.17C61.8445 233.087 63.9135 225.547 75.3571 212.631C83.5711 204.947 98.0001 186.347 100.146 187.734C102.291 189.121 99.5741 193.756 110.522 198.671L123.781 199.967C127.015 215.66 134.055 222.221 149.146 235.513L112.828 304.159C96.0931 316.789 86.9771 318.481 71.3218 309.339C64.4146 298.774 62.852 292.461 67.2864 279.981L75.3571 258.683L67.2864 247.17Z" fill="#E17E08"/>
<g id="robe">
<path id="Vector 1" d="M196.366 262.385L138.249 378.82L263.965 377.402L196.366 262.385Z" fill="#B7FDBE"/>
<path id="Rectangle 1" d="M141.318 227.956L203.334 255.865L145.943 383.025L78.1613 383.025C94.3643 318.437 107.487 284.148 141.318 227.956Z" fill="#064705"/>
<path id="Rectangle 2" d="M188.845 257.948L248.052 224.502C298.814 275.571 311.583 311.595 331.811 377.048L257.622 379.346L188.845 257.948Z" fill="#064705"/>
</g>
<g id="face">
<ellipse id="head " cx="197.579" cy="186.509" rx="87.048" ry="69.0775" fill="#FAD6A0"/>
<path id="Ellipse 2" d="M235.049 181.883C235.049 184.426 229.113 187.64 221.791 187.64C214.468 187.64 208.532 184.426 208.532 181.883C208.532 179.34 220.061 181.883 221.791 181.883C223.52 181.883 235.049 179.34 235.049 181.883Z" fill="#221901"/>
<path id="right ear" d="M276.555 203.779V170.404C276.555 170.404 304.848 169.328 305.372 186.553C305.896 203.779 276.555 203.779 276.555 203.779Z" fill="#FAD6A0"/>
<path id="left ear" d="M122.06 203.779V170.404C122.06 170.404 93.7669 169.328 93.243 186.553C92.719 203.779 122.06 203.779 122.06 203.779Z" fill="#FAD6A0"/>
<path id="Ellipse 1" d="M183.167 181.904C183.167 184.447 177.23 187.66 169.908 187.66C162.585 187.66 156.649 184.447 156.649 181.904C156.649 179.361 168.178 181.904 169.908 181.904C171.637 181.904 183.167 179.361 183.167 181.904Z" fill="#221901"/>
<rect id="left eyebrow" width="20.9624" height="10.3644" rx="5.1822" transform="matrix(0.903007 -0.429625 0.430636 0.902526 155.495 163.279)" fill="#E17E08"/>
<rect id="right eyebrow" width="20.9607" height="10.3653" rx="5.18264" transform="matrix(0.86982 0.493369 -0.494447 0.869208 218.268 154.273)" fill="#E17E08"/>
<rect id="nose" x="190.084" y="187.66" width="14.9884" height="8.05904" rx="4.02952" fill="#FD9D9D"/>
<path id="mouth" d="M215.449 204.93C202.109 211.421 194.297 211.559 179.708 204.93C177.843 206.728 177.578 207.736 179.708 209.535C193.667 214.671 201.49 214.751 215.449 209.535C217.494 207.924 218.061 206.968 215.449 204.93Z" fill="#221901"/>
<ellipse id="left cheek" cx="141.084" cy="199.173" rx="19.0237" ry="16.1181" fill="#FD9D9D"/>
<ellipse id="right cheek" cx="257.532" cy="199.173" rx="19.0237" ry="16.1181" fill="#FD9D9D"/>
<g id="glasses">
<path id="Ellipse 5" d="M241.467 182.48C241.467 192.029 233.204 199.825 222.943 199.825C212.682 199.825 204.42 192.029 204.42 182.48C204.42 172.93 212.682 165.135 222.943 165.135C233.204 165.135 241.467 172.93 241.467 182.48Z" stroke="black"/>
<path id="Ellipse 5_2" d="M188.431 181.328C188.431 190.878 180.168 198.673 169.907 198.673C159.646 198.673 151.384 190.878 151.384 181.328C151.384 171.779 159.646 163.983 169.907 163.983C180.168 163.983 188.431 171.779 188.431 181.328Z" stroke="black"/>
<path id="Rectangle 5" d="M188.931 180.753C194.592 178.83 197.893 179.019 203.92 180.753V181.904C198.066 180.334 194.785 180.311 188.931 181.904V180.753Z" fill="black"/>
</g>
</g>
<path id="bang" d="M184.326 150.445C176.204 146.006 171.764 144.765 168.755 121.461C183.883 113.856 194.841 113.498 218.69 116.416C242.08 123.401 252.344 129.883 268.048 143.787C278.401 161.204 267.103 169.108 246.18 150.445C232.435 154.144 227.019 153.624 218.69 138.609C214.528 153.173 192.449 154.883 184.326 150.445Z" fill="#E17E08"/>
<g id="hat">
<path id="Vector 4" d="M98.4244 176.148L112.836 171.542C119.107 155.266 126.378 147.955 137.625 138.731C153.456 127.728 158.537 123.615 177.978 119.159C195.691 115.436 206.733 114.388 222.367 118.007C242.434 124.65 250.734 131.21 266.179 142.184C274.721 155.67 278.965 160.997 282.897 171.542L300.768 176.148C305.05 161.349 304.43 152.483 289.815 134.125C271.288 114.717 258.555 105.005 222.367 94.4059C191.809 94.2761 175 94.6851 152.037 105.919C129.4 111.752 118.754 121.058 98.4244 141.033C88.836 155.126 90.2833 162.757 98.4244 176.148Z" fill="#B7FDBE"/>
<path id="Vector 5" d="M200.169 0L140.508 112.146H200.169H261.568L200.169 0Z" fill="#B7FDBE"/>
<path id="Vector 6" d="M226.402 47.7786C206.366 51.5747 195.132 51.7649 175.096 47.7786L165.296 65.6236C192.986 72.0739 208.513 72.0033 236.202 65.6236L226.402 47.7786Z" fill="#003E06"/>
</g>
<g id="staff-hand">
<path id="hand" d="M128.382 279.5C128.382 293.806 115.477 305.404 99.5581 305.404C83.6391 305.404 70.7343 293.806 70.7343 279.5C70.7343 265.194 83.6391 253.596 99.5581 253.596C115.477 253.596 128.382 265.194 128.382 279.5Z" fill="#FAD6A0"/>
<g id="staff">
<path id="Rectangle 4" d="M42.6007 100.936C42.0376 98.385 43.6493 95.862 46.2004 95.3005C48.7515 94.7389 51.2761 96.3516 51.8391 98.9024L114.796 384.111C115.359 386.661 113.748 389.184 111.196 389.746C108.645 390.307 106.121 388.695 105.558 386.144L42.6007 100.936Z" fill="#705205"/>
<ellipse id="Ellipse 4" cx="39.2004" cy="63.2657" rx="39.2004" ry="36.2657" fill="#025F2D"/>
</g>
</g>
</g>
</svg>
