<svg width="238" height="181" viewBox="0 0 238 181" fill="none" xmlns="http://www.w3.org/2000/svg">
<path d="M120 157L105 153.5L75.245 84.5306L87.4447 80.9364C109.01 76.9151 119.133 110.54 120 157Z" fill="#5F00BA"/>
<path d="M194.883 51.7218C194.883 37.8515 195.991 35.2594 189.436 24.9961L121.887 50.0303C122.914 60.274 121.414 66.4383 115.35 78.1092L174.909 80.4773C190.525 69.3134 193.431 64.2389 194.883 51.7218Z" fill="#0D044F"/>
<path d="M183.907 45.6901C181.259 45.303 174.613 45.6901 174.613 45.6901V58.0763C174.613 58.0763 181.702 58.8504 183.907 58.0763C186.111 57.3021 188.049 56.0913 188.755 53.5129C188.928 49.6246 186.554 46.0772 183.907 45.6901Z" fill="#6153CC"/>
<rect width="22.0589" height="30.4962" transform="matrix(-1 0 0 1 161.711 59.5928)" fill="#FFD23F"/>
<path d="M152.186 67.8032L139.444 67.0213L146.749 72.2995L152.186 67.8032Z" fill="#261D6F"/>
<ellipse cx="31.0074" cy="28.5414" rx="31.0074" ry="28.5414" transform="matrix(-1 0 0 1 181.688 11.894)" fill="#FFD23F"/>
<path d="M183.907 45.6901C181.259 45.303 174.613 45.6901 174.613 45.6901V58.0763C174.613 58.0763 181.702 58.8504 183.907 58.0763C186.111 57.3021 188.049 56.0913 188.755 53.5129C188.928 49.6246 186.554 46.0772 183.907 45.6901Z" fill="#FFD23F"/>
<path d="M43.1806 91.2755L46.649 75.3798L134.703 85.3575L134.011 94.1704C130.466 108.942 89.7324 106.812 43.1806 91.2755Z" fill="#FFD23F"/>
<path d="M169.682 84.3549L163.492 95.6019L218.764 152.643C218.764 152.643 234.819 141.628 234.376 134.345C233.933 127.063 175.509 84.3863 169.682 84.3549Z" fill="#FFD23F"/>
<path d="M220.37 131.76L231.815 140.609C231.815 140.609 218.505 156.897 205.082 166.218L174 164C193.606 144.253 196.348 144.591 220.37 131.76Z" fill="#FFD23F"/>
<path d="M168.444 85H133.241C116.288 99.8011 119.531 116.071 126.471 121.731C133.411 127.391 125.736 142.968 121.5 157C146.349 163.49 152.582 168.838 172.5 163C159.841 132.594 167.78 112.588 168.444 85Z" fill="#6153CC"/>
<path d="M137.778 101.232C132.784 99.6679 132.247 91.1372 139.793 84.5747L161.583 84.913C161.583 84.913 142.773 102.796 137.778 101.232Z" fill="#FFD23F"/>
<path d="M140.984 37.8936C140.984 41.7767 144.526 45.0177 149.016 45.0177C153.507 45.0177 157.049 41.7767 157.049 37.8936C157.049 34.0105 153.507 30.7695 149.016 30.7695C144.526 30.7695 140.984 34.0105 140.984 37.8936Z" stroke="black"/>
<path d="M118.925 35.1568C118.925 39.0399 122.467 42.2808 126.957 42.2808C131.448 42.2808 134.99 39.0399 134.99 35.1568C134.99 31.2737 131.448 28.0327 126.957 28.0327C122.467 28.0327 118.925 31.2737 118.925 35.1568Z" stroke="black"/>
<line y1="-0.5" x2="5.87984" y2="-0.5" transform="matrix(-0.991115 -0.133005 -0.150347 0.988633 140.9 36.916)" stroke="black"/>
<path d="M137.881 54.5086C144.438 54.7057 146.534 49.374 146.534 49.374L130.383 47.9642C130.383 47.9642 131.324 54.3116 137.881 54.5086Z" fill="white"/>
<path d="M137.202 40.5322C134.572 41.6317 134.216 42.5728 135.7 44.8544" stroke="black"/>
<ellipse cx="1.81583" cy="3.0447" rx="1.81583" ry="3.0447" transform="matrix(-1 0 0 1 150.577 34.1304)" fill="#282729"/>
<ellipse cx="1.81583" cy="3.0447" rx="1.81583" ry="3.0447" transform="matrix(-1 0 0 1 129.513 32.1006)" fill="#282729"/>
<path d="M145.856 18.5684C141.521 24.1657 132.144 24.4829 122.976 28.3789C124.88 17.589 125.967 11.5618 136.777 11.4639C156.482 1.55854 186.75 15.7973 190.162 26.3493C193.575 36.9013 185.94 43.6833 166.556 56.1196C169.042 46.6724 170.976 44.9493 170.551 40.4224C157.379 32.1692 155.718 29.2394 145.856 18.5684Z" fill="#0D044F"/>
<path d="M41.0937 42.0065C43.7414 41.6194 50.3871 42.0065 50.3871 42.0065V54.3927C50.3871 54.3927 43.2983 55.1668 41.0937 54.3927C38.889 53.6185 36.9515 52.4077 36.2449 49.8293C36.0726 45.941 38.446 42.3936 41.0937 42.0065Z" fill="#5F00BA"/>
<ellipse cx="37.2766" cy="68.2255" rx="37.2505" ry="34.6015" fill="#0D044F"/>
<rect x="63.2893" y="55.9097" width="22.0589" height="30.4962" fill="#5F00BA"/>
<path d="M72.814 64.1201L85.5563 63.3382L78.2515 68.6164L72.814 64.1201Z" fill="#261D6F"/>
<ellipse cx="74.3187" cy="36.7518" rx="31.0074" ry="28.5414" fill="#5F00BA"/>
<path d="M93.2757 23.2383C100.351 21.8699 102.612 13.2637 97.1416 6.91796C91.6717 0.572218 62.6845 3.49398 47.4652 17.7005C43.539 22.3288 38.1283 37.118 46.3324 37.4084C54.5364 37.6988 52.4874 24.2158 54.7976 22.3288C57.1078 20.4418 56.2333 30.6669 63.9718 30.9714C71.7103 31.2758 75.3788 18.9376 77.3041 17.4436C79.2294 15.9497 86.2002 24.6067 93.2757 23.2383Z" fill="#0D044F"/>
<path d="M41.0937 42.0065C43.7414 41.6194 50.3871 42.0065 50.3871 42.0065V54.3927C50.3871 54.3927 43.2983 55.1668 41.0937 54.3927C38.889 53.6185 36.9515 52.4077 36.2449 49.8293C36.0726 45.941 38.446 42.3936 41.0937 42.0065Z" fill="#5F00BA"/>
<path d="M54.081 80.8399L60.7922 92.6619L38.5 128C39.7881 126.924 17.5346 119.89 16.5 113.5C15.4654 107.111 47.7616 80.8729 54.081 80.8399Z" fill="#5F00BA"/>
<path d="M91.1753 81.3232H53.3005C54.0145 128.014 62.1204 82.0393 48.5 133.5C65.193 142.276 75.3765 145.94 94.5 151C94.5 151 96.0336 140.079 103.5 130.5C110.966 120.921 109.414 106.373 91.1753 81.3232Z" fill="#FF9505"/>
<path d="M87.2212 97.5488C92.2157 95.9849 92.8936 87.8857 85.3483 81.3232H63.2893C63.2893 81.3232 82.2267 99.1127 87.2212 97.5488Z" fill="#5F00BA"/>
<path d="M84.0159 34.2105C84.0159 38.0936 80.4741 41.3345 75.9836 41.3345C71.4932 41.3345 67.9514 38.0936 67.9514 34.2105C67.9514 30.3274 71.4932 27.0864 75.9836 27.0864C80.4741 27.0864 84.0159 30.3274 84.0159 34.2105Z" stroke="black"/>
<path d="M106.075 31.4737C106.075 35.3568 102.533 38.5977 98.0427 38.5977C93.5523 38.5977 90.0105 35.3568 90.0105 31.4737C90.0105 27.5906 93.5523 24.3496 98.0427 24.3496C102.533 24.3496 106.075 27.5906 106.075 31.4737Z" stroke="black"/>
<line y1="-0.5" x2="5.87984" y2="-0.5" transform="matrix(0.991115 -0.133005 0.150347 0.988633 84.0999 33.2329)" stroke="black"/>
<path d="M87.1192 50.8255C80.5623 51.0226 78.4663 45.6909 78.4663 45.6909L94.6168 44.2811C94.6168 44.2811 93.6761 50.6285 87.1192 50.8255Z" fill="white"/>
<path d="M87.7979 36.8491C90.4279 37.9486 90.7838 38.8897 89.3004 41.1713" stroke="black"/>
<ellipse cx="76.2392" cy="33.4915" rx="1.81583" ry="3.0447" fill="#282729"/>
<ellipse cx="97.3027" cy="31.4617" rx="1.81583" ry="3.0447" fill="#282729"/>
<path d="M75.3755 137.009L68.3057 140.786C68.3057 140.786 29.1487 91.7605 36.2857 87.1809C43.4226 82.6013 52.1415 79.5652 52.1415 79.5652C65.7053 103.812 71.8098 116.801 75.3755 137.009Z" fill="#FFD23F"/>
<path d="M63.1721 160.159C59.7583 157.805 54.9417 148.638 59.3048 143.241C63.6679 137.845 70.2628 131.083 73.6767 133.437C77.0906 135.791 76.0251 141.192 71.662 146.588C67.299 151.985 66.586 162.513 63.1721 160.159Z" fill="#FFD23F"/>
</svg>
