<svg width="184" height="140" viewBox="0 0 184 140" fill="none" xmlns="http://www.w3.org/2000/svg">
<path d="M132.023 103.752C134.074 105.869 136.504 113.146 133.214 116.608C129.925 120.069 125.063 124.278 123.012 122.16C120.961 120.043 122.089 116.201 125.378 112.74C128.668 109.278 129.972 101.634 132.023 103.752Z" fill="#5F00BA"/>
<path d="M96.528 128.152L85.4729 130.714L68.9895 70.9357L74.7992 68.7216C85.1561 66.548 94.3693 93.4505 96.528 128.152Z" fill="#5F00BA"/>
<path d="M125.832 115.931L127.762 121.268C127.762 121.268 90.2359 143.085 87.7578 137.612C85.2797 132.14 84.0162 125.738 84.0162 125.738C102.024 118.985 111.56 116.175 125.832 115.931Z" fill="#5F00BA"/>
<ellipse cx="33.4071" cy="44.2508" rx="15.5162" ry="14.0193" fill="#282729"/>
<path d="M33.7659 35.0548C35.9003 34.7135 41.2577 35.0548 41.2577 35.0548V45.9758C41.2577 45.9758 35.5432 46.6584 33.7659 45.9758C31.9887 45.2932 30.4268 44.2256 29.8572 41.9523C29.7183 38.5238 31.6316 35.396 33.7659 35.0548Z" fill="#5F00BA"/>
<ellipse cx="25.0055" cy="25.156" rx="25.0055" ry="25.156" transform="matrix(0.989594 0.14389 -0.138714 0.990333 39.2939 1.91113)" fill="#5F00BA"/>
<path d="M69.2592 28.7169C68.4237 32.0337 64.9865 34.0228 61.5627 33.1274C58.1389 32.232 56.0669 28.8021 56.9025 25.4853C57.7381 22.1685 61.1752 20.1794 64.5991 21.0748C68.0229 21.9702 70.0948 25.4001 69.2592 28.7169Z" stroke="black"/>
<path d="M87.0722 30.8844C86.2366 34.2012 82.7995 36.1903 79.3757 35.2949C75.9518 34.3995 73.8799 30.9696 74.7155 27.6528C75.551 24.336 78.9882 22.3469 82.412 23.2423C85.8359 24.1377 87.9078 27.5676 87.0722 30.8844Z" stroke="black"/>
<line y1="-0.5" x2="4.75349" y2="-0.5" transform="matrix(0.99265 0.10984 -0.108421 0.995342 69.6284 27.9236)" stroke="black"/>
<path d="M70.0233 43.5262C64.858 42.3703 64.3549 37.3903 64.3549 37.3903L77.2745 39.4475C77.2745 39.4475 75.1887 44.6821 70.0233 43.5262Z" fill="white"/>
<path d="M72.8281 30.1082C73.7784 32.2689 73.451 33.0829 71.2448 33.7747" stroke="black"/>
<ellipse cx="65.0253" cy="27.5473" rx="1.46379" ry="2.68455" fill="#282729"/>
<ellipse cx="81.7468" cy="28.718" rx="1.46379" ry="2.68455" fill="#282729"/>
<rect x="51.6584" y="47.3135" width="17.7824" height="26.8889" fill="#5F00BA"/>
<path d="M56.6466 53.0709C61.1567 54.3495 63.9518 54.4621 69.1687 54.1268C65.3034 55.9549 64.5758 56.2258 61.3555 56.469C58.1352 56.7121 56.1618 54.036 56.6466 53.0709Z" fill="#261D6F"/>
<path d="M74.138 69.7207L46.106 69.8639C46.6816 111.032 43.9798 87.2697 33 132.643L74.138 135C88.8106 103.629 91.0668 83.6781 74.138 69.7207Z" fill="#FF9505"/>
<path d="M70.9506 84.027C74.9768 82.6481 75.5234 75.5069 69.4408 69.7207H51.6584C51.6584 69.7207 66.9244 85.4059 70.9506 84.027Z" fill="#5F00BA"/>
<path d="M67.4652 116.937L69.1239 122.699C69.1239 122.699 51.9018 127.979 39.7365 126.464C27.5711 124.949 15.5492 120.91 15.5492 120.91L17.8426 112.249C38.0438 112.72 47.1986 111.158 67.4652 116.937Z" fill="#5F00BA"/>
<path d="M44.2353 69.2947C48.5343 69.2378 49.7062 71.4796 49.6455 79.7183L15.8418 120.91C15.8418 120.91 6.67193 118.413 7.05905 111.663C7.44616 104.914 39.1411 69.3237 44.2353 69.2947Z" fill="#5F00BA"/>
<path d="M33.7216 32.3276C58.5113 28.7541 69.2728 25.3746 75.5862 6.67524C75.5862 6.67524 59.1916 -2.86985 48.3596 2.79753C37.5276 8.46491 33.3615 16.4629 33.7216 32.3276Z" fill="#282729" stroke="#282729"/>
<path d="M83.1762 19.1954C81.4565 11.6044 82.2979 10.8434 75.8572 6.66747C69.4165 2.4915 74.3934 11.44 74.3934 11.44C80.163 14.2552 80.4308 15.3512 83.1762 19.1954Z" fill="#282729" stroke="#282729"/>
<path d="M125.388 97.4007C127.996 94.7313 128.775 97.2237 130.085 100.424L124.901 121.887C120.268 124.202 119.158 123.974 120.006 120.66L125.388 97.4007Z" fill="#282729"/>
<path d="M86.8666 109.26C84.6017 106.643 76.3657 103.393 72.0134 107.37C67.661 111.347 62.2856 117.254 64.5504 119.87C66.8153 122.486 71.3983 121.207 75.7506 117.23C80.1029 113.253 89.1314 111.876 86.8666 109.26Z" fill="#5F00BA"/>
<path d="M76.4431 118.223C73.3608 119.069 72.1139 119.589 68.2458 118.522L66.4893 123.294C70.9112 122.977 73.2458 122.355 78.4924 121.206L78.5044 121.177C80.0322 117.453 80.4823 116.356 76.4431 118.223Z" fill="#5F00BA"/>
<ellipse cx="35.5249" cy="24.6011" rx="35.5249" ry="24.6011" transform="matrix(-1 0 0 1 183.305 34)" fill="white"/>
<path d="M115.419 83.4098L128.324 77.9365L117.205 69.3225L115.419 83.4098Z" fill="white"/>
<path d="M139.32 51.7075C139.369 51.7075 139.402 51.7075 139.451 51.7075H139.533C142.627 51.619 144.935 49.4659 144.935 46.8115C144.935 44.0981 142.479 41.9009 139.484 41.9009C136.488 41.9009 134.033 44.1129 134.033 46.8115C134.049 49.4807 136.357 51.6337 139.304 51.7222C139.304 51.7074 139.304 51.7075 139.32 51.7075ZM139.484 44.0981C141.137 44.0981 142.479 45.3074 142.479 46.7968C142.479 48.2567 141.219 49.4365 139.598 49.4954C139.582 49.4807 139.451 49.4807 139.304 49.4954C137.716 49.4217 136.488 48.242 136.472 46.7968C136.472 45.3074 137.814 44.0981 139.484 44.0981Z" fill="#5F00BA"/>
<path d="M139.303 62.5757C139.942 62.5757 140.58 62.5315 141.219 62.4282C141.89 62.325 142.332 61.7499 142.217 61.1453C142.103 60.5407 141.464 60.1425 140.793 60.2457C138.78 60.5554 136.652 60.2162 135.227 59.3609C134.458 58.9038 134.049 58.3286 134.049 57.7535C134.049 57.1784 134.474 56.618 135.227 56.1609C136.652 55.3056 138.812 54.9664 140.842 55.2908C141.513 55.4088 142.152 54.9959 142.266 54.3913C142.381 53.7867 141.939 53.2116 141.268 53.1083C138.6 52.6807 135.833 53.1378 133.869 54.3175C132.428 55.1876 131.593 56.4263 131.593 57.7535C131.593 59.066 132.412 60.3195 133.869 61.2043C135.358 62.0891 137.29 62.5757 139.303 62.5757Z" fill="#5F00BA"/>
<path d="M159.013 51.7073C159.029 51.7073 159.045 51.7073 159.045 51.7073C161.992 51.6188 164.3 49.4658 164.316 46.8114C164.316 44.098 161.861 41.886 158.865 41.886C155.87 41.886 153.414 44.098 153.414 46.7966C153.414 49.4658 155.722 51.6188 158.669 51.7073L159.013 50.6013L158.898 51.7073C158.931 51.7073 158.98 51.7073 159.013 51.7073ZM158.849 49.4953C158.751 49.4953 158.669 49.4953 158.571 49.51C157.114 49.451 155.837 48.2713 155.837 46.8114C155.837 45.322 157.179 44.1127 158.833 44.1127C160.486 44.1127 161.828 45.322 161.828 46.8114C161.828 48.2566 160.584 49.4216 158.996 49.51C158.98 49.4953 158.914 49.4953 158.849 49.4953Z" fill="#5F00BA"/>
<path d="M159.029 62.5757C161.043 62.5757 162.974 62.0891 164.464 61.2043C165.904 60.3342 166.739 59.0807 166.739 57.7535C166.739 56.4411 165.904 55.1876 164.464 54.3175C162.499 53.1378 159.733 52.6807 157.065 53.1083C156.394 53.2116 155.952 53.7867 156.066 54.3913C156.181 54.9959 156.819 55.4088 157.49 55.2908C159.52 54.9664 161.665 55.3056 163.105 56.1609C163.875 56.618 164.284 57.1784 164.284 57.7535C164.284 58.3286 163.858 58.9038 163.105 59.3609C161.681 60.2162 159.553 60.5554 157.539 60.2457C156.868 60.1425 156.23 60.5554 156.115 61.1453C156.001 61.7499 156.443 62.325 157.114 62.4282C157.752 62.5315 158.391 62.5757 159.029 62.5757Z" fill="#5F00BA"/>
<path d="M149.142 62.7231C149.191 62.7231 149.224 62.7231 149.273 62.7231H149.355C152.449 62.6346 154.757 60.4816 154.757 57.8272C154.757 55.1138 152.301 52.9165 149.306 52.9165C146.31 52.9165 143.855 55.1285 143.855 57.8272C143.871 60.4963 146.179 62.6493 149.126 62.7378C149.126 62.7231 149.126 62.7231 149.142 62.7231ZM149.306 55.1138C150.959 55.1138 152.301 56.323 152.301 57.8124C152.301 59.2723 151.041 60.4521 149.42 60.5111C149.404 60.4963 149.273 60.4963 149.126 60.5111C147.538 60.4373 146.31 59.2576 146.294 57.8124C146.294 56.3378 147.636 55.1138 149.306 55.1138Z" fill="#5F00BA"/>
<path d="M149.142 73.6063C151.106 73.6063 153.071 73.1491 154.593 72.2201C156.034 71.35 156.868 70.1113 156.868 68.7841C156.868 67.4716 156.05 66.2034 154.593 65.3334C151.532 63.5048 146.735 63.5048 143.691 65.3334C142.25 66.2034 141.415 67.4421 141.415 68.7693C141.415 70.0818 142.234 71.35 143.691 72.2201C145.213 73.1344 147.177 73.6063 149.142 73.6063ZM153.234 67.1915C154.004 67.6486 154.413 68.2237 154.413 68.7988C154.413 69.374 153.987 69.9343 153.234 70.3915C151.024 71.7334 147.276 71.7334 145.066 70.3915C144.296 69.9343 143.887 69.3592 143.887 68.7841C143.887 68.209 144.313 67.6486 145.066 67.1915C147.259 65.8495 151.008 65.8643 153.234 67.1915Z" fill="#5F00BA"/>
</svg>
