<svg width="148" height="138" viewBox="0 0 148 138" fill="none" xmlns="http://www.w3.org/2000/svg">
<path d="M116.831 89.8946L110.678 97.5388L70.4439 64.8571L73.4277 60.6348C79.5913 54.2877 98.806 67.8276 116.831 89.8946Z" fill="#5F00BA"/>
<path d="M103.999 52.4772L107.225 54.4134C107.225 54.4134 122.187 97.8757 117.565 99.771C112.943 101.666 106.822 94.6979 106.822 94.6979C99.8436 83.8449 101.391 69.5807 103.999 52.4772Z" fill="#5F00BA"/>
<path d="M41.7468 30.0528C43.556 29.7758 48.0971 30.0528 48.0971 30.0528V38.9143C48.0971 38.9143 43.2533 39.4681 41.7468 38.9143C40.2403 38.3604 38.9163 37.4942 38.4335 35.6495C38.3158 32.8676 39.9375 30.3297 41.7468 30.0528Z" fill="#5F00BA"/>
<ellipse cx="39.1383" cy="48.8108" rx="25.4539" ry="24.7552" fill="#0D044F"/>
<rect x="56.9131" y="39.9995" width="15.0733" height="21.8181" fill="#5F00BA"/>
<path d="M63.4214 45.8735L72.1285 45.3141L67.1369 49.0903L63.4214 45.8735Z" fill="#261D6F"/>
<ellipse cx="64.4501" cy="26.2936" rx="21.1879" ry="20.4195" fill="#5F00BA"/>
<path d="M77.4036 16.6253C82.2384 15.6463 83.783 9.48912 80.0453 4.94914C76.3075 0.409158 56.5001 2.49949 46.1004 12.6634C43.4176 15.9746 39.7204 26.5554 45.3263 26.7631C50.9323 26.9709 49.5322 17.3246 51.1108 15.9746C52.6894 14.6246 52.0918 21.94 57.3797 22.1578C62.6676 22.3756 65.1743 13.5484 66.4899 12.4796C67.8055 11.4108 72.5688 17.6043 77.4036 16.6253Z" fill="#0D044F"/>
<path d="M41.7468 30.0528C43.556 29.7758 48.0971 30.0528 48.0971 30.0528V38.9143C48.0971 38.9143 43.2533 39.4681 41.7468 38.9143C40.2403 38.3604 38.9163 37.4942 38.4335 35.6495C38.3158 32.8676 39.9375 30.3297 41.7468 30.0528Z" fill="#5F00BA"/>
<path d="M50.6208 57.8357L55.2067 66.2936L14.2533 109.189C14.2533 109.189 2.35738 100.906 2.68552 95.4294C3.01366 89.9527 46.3027 57.8593 50.6208 57.8357Z" fill="#5F00BA"/>
<path d="M55.207 122.728L52 128.5C52 128.5 34.3369 126.408 24.3906 119.398C14.4444 112.388 4.58306 100.139 4.58306 100.139L13.0631 93.4847C30.862 103.134 40.6802 107.878 55.207 122.728Z" fill="#5F00BA"/>
<path d="M50.0879 58.1816H75.9684C88.4316 76.1034 86.0474 95.8039 80.9454 102.657C75.8435 109.51 76.8863 110.509 80 127.5C61.6639 131.765 56.4944 129.564 38 128C47.307 91.1831 50.5758 91.5858 50.0879 58.1816Z" fill="#FF9505"/>
<path d="M73.2662 69.79C76.679 68.6711 77.1423 62.8767 71.9864 58.1816H56.9131C56.9131 58.1816 69.8534 70.9089 73.2662 69.79Z" fill="#5F00BA"/>
<path d="M70.9178 24.475C70.9178 27.1805 68.5633 29.4296 65.5876 29.4296C62.6119 29.4296 60.2573 27.1805 60.2573 24.475C60.2573 21.7696 62.6119 19.5205 65.5876 19.5205C68.5633 19.5205 70.9178 21.7696 70.9178 24.475Z" stroke="black"/>
<path d="M85.991 22.5165C85.991 25.222 83.6365 27.4711 80.6608 27.4711C77.6851 27.4711 75.3306 25.222 75.3306 22.5165C75.3306 19.8111 77.6851 17.562 80.6608 17.562C83.6365 17.562 85.991 19.8111 85.991 22.5165Z" stroke="black"/>
<line y1="-0.5" x2="4.02188" y2="-0.5" transform="matrix(0.990273 -0.139139 0.14374 0.989615 71.1333 23.7754)" stroke="black"/>
<path d="M73.1965 36.3619C68.7161 36.5029 67.2839 32.6884 67.2839 32.6884L78.3198 31.6798C78.3198 31.6798 77.677 36.221 73.1965 36.3619Z" fill="white"/>
<path d="M73.6599 26.3628C75.4571 27.1494 75.7003 27.8227 74.6867 29.455" stroke="black"/>
<ellipse cx="65.7618" cy="23.9615" rx="1.24079" ry="2.17829" fill="#282729"/>
<ellipse cx="80.1551" cy="22.5093" rx="1.24079" ry="2.17829" fill="#282729"/>
<path d="M91.1612 31.0252L133.914 18.8149L131.986 48.4123L91.1612 31.0252Z" fill="#FFD23F"/>
<rect width="5.58265" height="35.3303" rx="2.79133" transform="matrix(0.9934 0.114589 -0.120461 0.992732 133.299 15.0049)" fill="#D3A717"/>
<rect width="5.58414" height="10.3165" rx="2.79207" transform="matrix(0.998151 0.0606759 -0.0629706 0.998023 88.5283 25.5625)" fill="#D3A717"/>
<rect width="17.8282" height="2.91106" rx="1.45553" transform="matrix(0.956875 -0.290613 0.304143 0.95259 110.182 27.4478)" fill="#F5DD8F"/>
<rect width="5.9061" height="16.0292" transform="matrix(0.934261 0.356479 -0.36916 0.929409 104.697 36.7881)" fill="#B99316"/>
<path d="M107.7 55.6669C108.274 53.3497 111.389 47.1876 112.912 44.5334L110.678 43.8073L108.445 43.3232C107.849 44.378 105.285 51.2753 104.474 53.2466L107.7 55.6669Z" fill="#5F00BA"/>
<path d="M106.708 39.9351L103.482 37.7568C100.929 40.1462 100.872 40.8351 100.752 44.7758L103.482 46.47C105.167 44.0755 105.948 42.6724 106.708 39.9351Z" fill="#5F00BA"/>
<path d="M106.46 42.1134C106.212 41.1453 109.19 42.1134 110.182 42.1134C111.175 42.1134 112.912 44.5337 112.912 44.5337C111.445 44.2338 110.626 44.0414 109.19 43.5656C109.19 43.5656 107.785 43.7317 107.204 43.3236C106.772 43.0195 106.708 43.0815 106.46 42.1134Z" fill="#5F00BA"/>
</svg>
