<svg width="172" height="238" viewBox="0 0 172 238" fill="none" xmlns="http://www.w3.org/2000/svg">
<path d="M51.7515 122.523L15.4407 179.842C16.4673 184.681 15.5426 184.136 22.5762 185.42C46.1757 152.248 60.6183 138.358 61.573 130.447L51.7515 122.523Z" fill="#FEC077"/>
<path d="M152.058 124.858C137.515 134.067 128.709 139.122 115.921 151.624C115.741 155.264 117.367 157.111 122 160.209L156.938 132.31L152.058 124.858Z" fill="#FEC077"/>
<path d="M89.5079 120.894C99.8208 120.992 108.354 129.962 124.446 148.793C124.626 152.433 123 154.28 118.368 157.377L83.4291 129.479L89.5079 120.894Z" fill="#FEC077"/>
<path d="M169.103 116.945C169.981 120.231 167.825 128.938 161.824 130.589C155.822 132.24 147.56 133.765 146.682 130.478C145.804 127.192 149.64 123.946 155.642 122.295C161.644 120.644 168.225 113.658 169.103 116.945Z" fill="#FEC077"/>
<path d="M85.4985 195.87C66.7434 169.922 57.4948 149.812 56.2417 126.907C56.1428 125.098 56.0937 123.272 56.0937 121.424C58.7491 121.424 61.2715 121.424 63.6912 121.424C82.4955 121.424 80.3061 120.856 90.0929 121.424C99.8796 121.993 125.481 177.077 85.4985 195.87Z" fill="#FCE8B3"/>
<path d="M64.0059 134.408C64.0059 142.095 64.6326 148.326 60.017 148.326C55.4013 148.326 52.4195 140.078 52.4195 132.391C52.4195 124.705 49.7034 120.894 54.319 120.894C58.9346 120.894 64.0059 126.722 64.0059 134.408Z" fill="#FEC077"/>
<path d="M66.1324 105.605H84.545V122.113C81.6251 127.969 77.6955 128.106 66.1324 122.113V105.605Z" fill="#FEC077"/>
<ellipse cx="77.8496" cy="64.5523" rx="36.8252" ry="43.8842" fill="#FEC077"/>
<path d="M75.0598 83.924L92.236 86.0614C89.7442 88.1286 88.2094 89.0171 84.9756 89.6238C82.9615 89.9494 82.5336 89.6238 79.7576 88.9113C76.9816 88.1988 76.5288 85.3105 75.0598 83.924Z" fill="#652327"/>
<path d="M92.236 82.9724C92.4402 83.8791 92.3464 84.6917 92.236 86.0581C86.3273 86.4422 82.9608 86.5364 80.1848 85.8239C78.0494 85.1115 75.0598 83.924 75.0598 83.924C78.2629 80.3616 84.5485 80.1242 86.0433 80.1242C87.5381 80.1242 91.0592 80.0869 92.236 82.9724Z" fill="#550707"/>
<path d="M81.7553 65.4495C87.006 67.8805 87.7166 69.9612 84.7551 75.0061" stroke="black"/>
<ellipse cx="71.2389" cy="62.7492" rx="3.96845" ry="5.4828" fill="#1D0101"/>
<path d="M75.538 62.4065L72.8924 61.3784L59.9949 55.8957L65.6169 55.2103C68.3345 55.1807 69.9456 55.7512 72.8924 57.2664C74.4919 59.0589 74.9404 60.234 75.538 62.4065Z" fill="#1D0101" stroke="#1D0101"/>
<ellipse cx="3.96845" cy="5.4828" rx="3.96845" ry="5.4828" transform="matrix(-1 0 0 1 96.2401 57.2673)" fill="#1D0101"/>
<path d="M87.9725 62.4074L90.6182 61.3794L103.516 55.8966L97.8936 55.2113C95.176 55.1817 93.5649 55.7522 90.6182 57.2673C89.0187 59.0598 88.5702 60.2349 87.9725 62.4074Z" fill="#1D0101" stroke="#1D0101"/>
<path d="M38.4401 62.0042H50.5096V77.8591H38.4401C34.7122 76.4171 33.0606 75.3183 32.143 72.0179C31.9193 67.0406 32.2896 64.4473 38.4401 62.0042Z" fill="#FEC077"/>
<path d="M32.3761 93.1479C30.1142 88.9084 29.125 86.3638 34.8869 77.2929H42.4194C51.2016 83.8492 53.787 90.185 57.7632 102.208C50.8025 105.67 47.4764 106.272 42.4194 105.322C36.5637 103.004 33.688 101.192 32.3761 93.1479Z" fill="#05021B"/>
<path d="M27.3545 48.1311C27.9539 55.9155 29.3392 59.1379 32.3761 64.2692L41.5824 62.2873L42.4194 54.3598L51.9046 48.1311C62.2875 41.0627 67.6467 36.663 69.4803 21.5174C89.2476 27.4306 94.433 31.3057 108.816 54.3598C108.332 66.9933 110.37 75.7654 101.563 83.5216L95.7043 102.208C103.129 109.994 109.064 112.515 120.812 115.798C126.962 114.678 130.835 112.837 139.225 105.322C138.689 91.9123 136.895 85.481 129.182 77.2929C133.729 69.0054 135.161 64.0924 133.645 54.3598C130.397 45.0021 126.769 40.0665 116.07 31.993C116.433 23.4987 114.809 19.079 105.19 12.4575C99.264 4.98632 94.3779 1.76677 79.2446 0C68.9003 2.85964 63.8211 4.75365 57.7632 9.3431L49.6727 21.5174L37.9557 31.993C31.3919 36.2659 29.3878 40.065 27.3545 48.1311Z" fill="#05021B"/>
<path d="M42.1403 78.7085C42.1403 80.7413 40.3917 82.3891 38.2346 82.3891C36.0776 82.3891 34.3289 80.7413 34.3289 78.7085C34.3289 76.6758 36.0776 75.0279 38.2346 75.0279C40.3917 75.0279 42.1403 76.6758 42.1403 78.7085Z" fill="#FFE600"/>
<path d="M76.1757 183.464C90.558 186.826 95.7719 186.567 101.563 183.464C115.787 198.985 117.27 210.967 117.465 233.577H56.0892C60.8598 207.441 64.8853 195.673 76.1757 183.464Z" fill="#1C5104"/>
<path d="M5.25431 196.35C3.66201 192.712 4.02171 182.495 9.80369 179.836C15.5857 177.177 23.7032 174.371 25.2955 178.01C26.8878 181.648 23.6557 185.847 17.8738 188.507C12.0918 191.166 6.8466 199.989 5.25431 196.35Z" fill="#FEC077"/>
</svg>
