<svg width="336" height="254" viewBox="0 0 336 254" fill="none" xmlns="http://www.w3.org/2000/svg">
<path d="M145.4 36.1847C148.309 16.8245 139.537 12.1857 125.196 3.66568C104.584 13.4744 96.4255 42.3859 70.2411 63.1073C44.0567 83.8287 65.2306 113.776 65.2306 113.776C76.5667 128.113 82.3299 144.551 103.052 160.513C103.052 160.513 89.8013 124.273 96.2639 115.591C102.727 106.91 110.799 98.3032 115.498 99.8613C120.197 101.419 123.418 102.584 129.722 104.701C136.025 106.819 140.713 103.794 141.844 100.466C142.976 97.1388 139.701 93.5082 142.491 91.845C142.491 91.845 142.47 91.8011 146.996 90.8936C151.522 89.9861 143.763 84.541 143.763 84.541C143.763 84.541 147.319 84.2385 149.421 82.121C151.522 80.0035 148.309 78.3837 145.4 76.5687C142.491 74.7537 142.491 69.6111 145.4 70.0649C148.309 70.5186 159.3 67.0399 153.482 63.7123C147.663 60.3848 145.4 57.9648 145.4 57.9648C145.4 57.9648 142.491 55.5448 145.4 36.1847Z" fill="#FBD8A4"/>
<path d="M142.487 50.1673V47.831C145.604 48.5044 147.644 48.4094 151.538 47.831C148.063 49.838 146.09 50.5055 142.487 50.1673Z" fill="#FBD8A4"/>
<path d="M90.2802 72.1824C114.848 63.5611 114.831 8.86729 129.216 5.84227C108.851 -5.80404 73.2419 -1.62344 56.1589 32.9163C43.1677 50.8526 5.08324 65.5865 0.395911 96.2904C-4.29141 126.994 33.3303 153.382 76.7031 172.764C71.3234 147.465 76.0396 127.751 67.7964 111.869C59.5531 95.9879 65.7122 80.8037 90.2802 72.1824Z" fill="#854001"/>
<path d="M163.919 107.067C169.49 88.2243 179.51 87.2382 196.291 84.7671C211.024 101.446 206.204 131.006 221.405 159.771C236.605 188.536 204.438 208.116 204.438 208.116C187.939 217.043 175.657 229.973 149.856 236.893C149.856 236.893 177.433 208.589 175.199 198.217C172.966 187.845 169.223 176.942 164.25 176.62C159.277 176.298 155.827 176.166 149.143 175.759C142.46 175.353 139.447 170.831 139.826 167.357C140.204 163.883 144.753 161.773 142.902 159.208C142.902 159.208 143.591 158.705 139.826 156.186C136.061 153.667 144.087 151.648 144.087 151.648C144.087 151.648 140.852 150.29 139.826 147.564C138.799 144.839 143.293 144.692 146.734 144.111C150.175 143.53 152.363 138.813 149.502 138.145C146.64 137.477 138.038 130.19 144.792 129.306C151.545 128.423 154.651 127.046 154.651 127.046C154.651 127.046 158.349 125.91 163.919 107.067Z" fill="#66451D"/>
<path d="M160.341 120.857L161.336 118.714C158.19 118.17 156.359 117.323 153.033 115.341C155.367 118.477 156.893 119.825 160.341 120.857Z" fill="#66451D"/>
<path d="M158.476 77.1929C158.068 86.2339 160.47 91.5439 166.987 93.1222L180.061 93.8845L192.389 87.5396C194.621 91.6514 193.062 93.8288 187.845 97.6026C187.903 101.679 189.618 102.592 194.039 103.109C194.59 106.109 194.522 107.608 189.891 108.092C190.385 112.071 191.56 113.396 196.733 112.648C198.849 116.044 199.565 117.891 195.892 120.588C195.895 125.608 197.894 126.429 203.382 125.974C204.87 130.296 205.409 132.545 201.784 133.835C198.165 136.686 198.203 138.031 199.66 140.262C203.109 143.774 205.11 145.047 209.017 143.843C211.689 146.816 211.428 148.321 209.764 150.893C210.118 154.783 211.524 156.224 218.011 156.358C218.049 161.106 216.496 162.646 211.103 163.525C214.326 165.638 215.768 166.841 217.112 169.049C211.88 171.067 211.89 173.092 212.52 176.891C218.239 179.931 218.527 182.191 216.002 186.803C215.51 190.978 217.18 191.948 221.841 192.49C225.061 197.432 228.189 197.007 234.269 195.045L237.609 201.855C243.824 204.675 247.138 204.646 252.61 200.462C251.996 203.567 252.84 205.002 257.941 206.642C265.695 206.681 267.977 204.549 270.204 198.829C275.955 208.199 276.598 202.82 282.708 201.088C293.781 204.277 292.949 201.649 296.664 196.373L300.803 192.281C307.557 194.208 304.799 192.732 309.289 186.45L308.153 175.728C313.434 175.556 316.34 175.394 318.135 171.093C321.083 165.357 321.59 162.387 316.78 158.314L322.621 153.174L326.92 144.698C326.449 138.165 330.071 136.21 322.408 135.845C329.34 133.918 329.082 130.468 327.957 126.129L327.93 126.007C326.861 121.062 325.844 116.36 317.049 116.736C321.675 110.582 324.523 104.818 313.836 97.8828L306.828 94.4197L306.128 87.8101C308.452 81.5996 308.035 78.4783 297.472 74.9675C293.151 69.1786 290.542 65.3923 279.171 68.1179C279.691 61.5797 279.429 59.3953 269.578 53.528C262.644 48.7273 257.644 43.4497 250.159 47.2518L240.799 44.9264C229.665 43.7393 222.381 40.2384 209.791 46.4389L201.351 48.588C191.562 50.3447 187.018 50.4245 183.454 56.1792C172.592 60.263 168.768 62.6989 167.505 70.4271C159.101 70.1508 162.933 70.7095 158.476 77.1929Z" fill="#1D0101"/>
</svg>
