<svg width="410" height="382" viewBox="0 0 410 382" fill="none" xmlns="http://www.w3.org/2000/svg">
<path d="M197.603 186.691C211.761 203.206 213.787 198.32 219.673 195.04L240.405 10.7138C231.887 8.4404 227.348 6.15305 219.673 0.437778C206.537 1.99696 201.568 5.38208 197.603 16.4941H179.545C167.428 23.907 164.667 29.6586 165.5 42.1841C150.803 46.9965 144.252 52.7503 138.08 73.0122C138.533 83.9961 140.394 88.2302 148.781 89.7107C141.425 101.36 142.803 106.119 148.781 113.474C139.24 122.443 136.719 129.23 138.08 144.944C143.401 157.147 147.544 160.565 158.144 157.147C158.296 166.513 159.826 169.586 165.5 170.634H179.545C178.23 187.652 185.187 187.307 197.586 186.691L197.603 186.691Z" fill="#170101"/>
<path d="M276.813 186.691C262.655 203.206 260.629 198.32 254.743 195.04L234.01 10.7139C242.528 8.44048 247.068 6.15313 254.743 0.437859C267.879 1.99704 272.847 5.38216 276.813 16.4941H294.87C306.987 23.9071 309.749 29.6587 308.915 42.1842C323.612 46.9966 330.164 52.7504 336.336 73.0123C335.882 83.9962 334.022 88.2303 325.635 89.7108C332.991 101.36 331.612 106.119 325.635 113.474C335.176 122.443 337.696 129.23 336.336 144.944C331.014 157.147 326.872 160.565 316.272 157.147C316.119 166.513 314.59 169.586 308.915 170.634H294.87C296.186 187.652 289.229 187.307 276.829 186.691L276.813 186.691Z" fill="#170101"/>
<path d="M219.265 237.073C215.031 228.295 212.17 228.268 201.914 227.613C201.914 227.613 171.949 237.019 152.808 247.704C132.298 259.154 102.327 284.58 102.327 284.58C102.327 284.58 109.331 323.478 122.066 324.985C134.801 326.492 218.347 245.222 219.265 237.073Z" fill="#814517"/>
<path d="M93.164 208.843L68.2713 202.543C68.2713 202.543 75.3315 240.531 84.6973 266.241C94.0631 291.951 116.272 321.5 116.272 321.5C125.393 326.742 129.75 324.293 136.772 313C126.686 269.433 117.473 250.282 93.164 208.843Z" fill="#814517"/>
<path d="M79.5101 215.229C68.7617 218.325 62.8671 191.573 57.2484 174.957C57.2484 174.957 52.1449 143.742 55.5795 143.49C59.014 143.237 66.5796 169.909 66.5796 169.909C66.5796 169.909 60.8518 138.647 66.5796 137.785C72.3074 136.924 76.6841 168.829 76.6841 168.829C76.6841 168.829 77.2145 136.969 81.668 134.448C86.1215 131.927 85.6376 166.687 85.6376 166.687C85.6376 166.687 90.978 134.631 95.9604 135.968C100.943 137.305 96.7297 182.373 96.7297 182.373C106.95 171.408 111.281 169.28 116.85 171.577L104.184 195.684L94.8476 212.254L79.5101 215.229Z" fill="#814517"/>
<rect width="52.4083" height="76.5222" transform="matrix(-1 0 0 1 268.167 163.926)" fill="#814517"/>
<path d="M266.809 182.282L214.458 184.73L239.949 200.969L266.809 182.282Z" fill="#170101"/>
<ellipse cx="73.6683" cy="71.6169" rx="73.6683" ry="71.6169" transform="matrix(-1 0 0 1 309.992 45.5443)" fill="#814517"/>
<path d="M280.936 44.5409C294.827 50.8059 319.515 80.5146 313.498 83.3737C307.482 86.2328 314.963 96.9551 300.171 106.126C285.379 115.296 285.447 87.8218 289.385 84.1238C280.973 87.8138 277.796 88.7375 272.89 89.8204C264.719 88.7913 259.668 89.605 257.257 71.5497C248.451 81.7056 244.718 77.514 237.288 73.1861C229.965 80.9487 226.622 77.1329 220.463 67.6174C221.487 77.9332 215.059 82.3208 206.669 84.8795C198.28 87.4382 192.615 87.9885 191.014 80.1828C189.413 72.3771 193.948 91.3654 184.975 96.6162C174.525 99.2876 160.689 95.2373 156.956 86.3724C154.499 80.5369 159.369 70.9052 162.848 63.5846C171.611 45.1428 231.215 28.6752 280.936 44.5409Z" fill="#170101"/>
<path d="M236.89 164.754C228.654 164.754 225.087 161.577 223.33 154.444C234.477 157.488 239.983 157.484 250.83 154.444C246.756 162.823 245.126 164.754 236.89 164.754Z" fill="#46260C"/>
<path d="M216.935 151.867C234.331 159.681 240.918 158.856 256.586 151.867" stroke="#0F0101"/>
<path d="M232.284 147.356C227.889 147.544 225.19 149.848 223.33 153.8C233.248 157.746 240.645 157.841 250.191 153.8C248.239 149.71 246.154 147.386 241.877 147.356L236.761 149.289L232.284 147.356Z" fill="#46260C"/>
<path d="M158.179 117.07C164.469 116.099 170.639 120.106 170.639 120.106L171.974 148.979C159.781 149.812 156.837 145.13 149.225 132.535C148.816 122.779 151.888 118.042 158.179 117.07Z" fill="#814517"/>
<path d="M313.311 120.444C307.02 119.473 300.851 123.48 300.851 123.48L299.516 152.353C311.708 153.186 314.653 148.504 322.264 135.909C322.674 126.152 319.601 121.415 313.311 120.444Z" fill="#814517"/>
<path d="M287.874 228.381L277.229 254.629L353.25 358.167C357.727 354.944 400.831 338.921 401.215 320.785C401.6 302.65 304.862 228.071 287.874 228.381Z" fill="#814517"/>
<path d="M316.272 242.072C301.995 232.614 295.768 229.154 283.319 227.318H235.289L237.944 381.91H279.099C321.268 327.7 329.961 288.7 316.272 242.072Z" fill="#F9A620"/>
<path d="M164.361 242.072C178.219 232.614 184.263 229.154 196.345 227.318H242.963L240.386 381.91H200.441C159.513 327.7 151.075 288.7 164.361 242.072Z" fill="#F9A620"/>
<path d="M236.78 267.419C236.78 267.419 198.369 243.14 216.295 226.673L267.458 226.673C279.861 232.154 236.78 267.419 236.78 267.419Z" fill="#814517"/>
<path d="M241.495 113.848C241.495 126.391 251.515 136.546 263.86 136.546C276.206 136.546 286.226 126.391 286.226 113.848C286.226 101.306 276.206 91.1507 263.86 91.1507C251.515 91.1507 241.495 101.306 241.495 113.848Z" stroke="black"/>
<path d="M182.342 113.848C182.342 126.391 192.362 136.546 204.707 136.546C217.052 136.546 227.072 126.391 227.072 113.848C227.072 101.306 217.052 91.1507 204.707 91.1507C192.362 91.1507 182.342 101.306 182.342 113.848Z" stroke="black"/>
<line y1="-0.5" x2="15.771" y2="-0.5" transform="matrix(-1 0 -0.00399302 0.999992 242.338 114.092)" stroke="black"/>
<path d="M229.737 134.468C234.303 139.577 236.794 139.642 241.077 134.468" stroke="black"/>
<ellipse cx="4.31411" cy="7.63986" rx="4.31411" ry="7.63986" transform="matrix(-1 0 0 1 266.493 106.116)" fill="#170101"/>
<ellipse cx="4.31411" cy="7.63986" rx="4.31411" ry="7.63986" transform="matrix(-1 0 0 1 210.935 106.116)" fill="#170101"/>
<path fill-rule="evenodd" clip-rule="evenodd" d="M312.233 146.083C312.741 145.962 313.264 145.862 313.801 145.784C322.541 144.517 330.605 150.343 331.812 158.797C333.019 167.251 326.913 175.132 318.172 176.399C309.432 177.665 302.559 171.127 301.352 162.673C300.803 158.83 301.52 155.253 303.286 152.375C303.601 152.462 303.941 152.475 304.3 152.373C304.372 152.352 304.444 152.333 304.517 152.314C302.612 155.064 301.784 158.626 302.342 162.529C303.488 170.562 309.955 176.579 318.031 175.409C326.256 174.216 331.947 166.817 330.823 158.941C329.698 151.064 322.168 145.581 313.943 146.774C312.634 146.963 311.422 147.292 310.313 147.741C310.747 147.285 311.357 146.755 312.233 146.083Z" fill="#F9B505"/>
<path fill-rule="evenodd" clip-rule="evenodd" d="M161.12 142.216C160.614 142.095 160.092 141.995 159.555 141.918C150.815 140.651 142.751 146.477 141.544 154.931C140.337 163.385 146.444 171.266 155.184 172.532C163.924 173.799 170.798 167.261 172.005 158.807C172.464 155.593 172.038 152.565 170.853 149.976L169.959 150.425C171.047 152.82 171.447 155.639 171.015 158.663C169.868 166.696 163.402 172.713 155.326 171.543C147.1 170.35 141.409 162.951 142.534 155.075C143.659 147.198 151.189 141.715 159.414 142.907C160.651 143.087 161.801 143.39 162.859 143.801C162.347 143.308 161.771 142.783 161.12 142.216Z" fill="#F9B505"/>
</svg>
