<svg width="410" height="366" viewBox="0 0 410 366" fill="none" xmlns="http://www.w3.org/2000/svg">
<path d="M219.265 221.073C215.031 212.295 212.17 212.268 201.914 211.613C201.914 211.613 171.949 221.019 152.808 231.704C132.298 243.154 102.327 268.58 102.327 268.58C102.327 268.58 109.331 307.478 122.066 308.985C134.801 310.492 218.347 229.221 219.265 221.073Z" fill="#814517"/>
<path d="M93.164 192.843L68.2713 186.542C68.2713 186.542 75.3315 224.53 84.6973 250.241C94.0631 275.951 116.272 305.5 116.272 305.5C125.393 310.741 129.75 308.292 136.772 297C126.686 253.432 117.473 234.282 93.164 192.843Z" fill="#814517"/>
<path d="M79.5101 199.229C68.7617 202.325 62.8671 175.573 57.2484 158.956C57.2484 158.956 52.1449 127.742 55.5795 127.489C59.014 127.237 66.5796 153.909 66.5796 153.909C66.5796 153.909 60.8518 122.646 66.5796 121.785C72.3074 120.924 76.6841 152.829 76.6841 152.829C76.6841 152.829 77.2145 120.968 81.668 118.447C86.1215 115.926 85.6376 150.687 85.6376 150.687C85.6376 150.687 90.978 118.63 95.9604 119.968C100.943 121.305 96.7297 166.373 96.7297 166.373C106.95 155.407 111.281 153.28 116.85 155.577L104.184 179.684L94.8476 196.254L79.5101 199.229Z" fill="#814517"/>
<rect width="52.4083" height="76.5222" transform="matrix(-1 0 0 1 268.167 147.926)" fill="#814517"/>
<path d="M266.809 166.282L214.458 168.73L239.949 184.969L266.809 166.282Z" fill="#170101"/>
<ellipse cx="73.6683" cy="71.6169" rx="73.6683" ry="71.6169" transform="matrix(-1 0 0 1 309.992 29.5443)" fill="#814517"/>
<path d="M289.385 38.5C316.919 55.9352 320.184 68.3461 319 82.5C317.816 96.6539 321.292 99.8292 306.5 109C291.707 118.171 285.447 71.8217 289.385 68.1237C280.973 71.8138 277.796 72.7373 272.89 73.8203C264.719 72.7912 259.668 73.6049 257.257 55.5496C248.451 65.7055 244.717 61.5139 237.288 57.186C229.965 64.9486 226.621 61.1328 220.462 51.6173C221.487 61.9331 215.059 66.3207 206.669 68.8794C198.28 71.4381 192.614 71.9884 191.014 64.1827C189.413 56.377 180.973 96.7491 172 102C161.55 104.671 157.732 102.365 154 93.5C145.919 84.931 157.038 57.3784 167 51.6173C176.962 45.8562 178.457 30.5647 193.5 30.4999C202.325 20.9161 220.055 17.4061 237.287 23.5C261.319 13.481 275.47 22.6239 289.385 38.5Z" fill="#170101"/>
<path d="M236.89 148.754C228.654 148.754 225.087 145.577 223.331 138.444C234.477 141.489 239.984 141.484 250.831 138.444C246.757 146.824 245.126 148.754 236.89 148.754Z" fill="#46260C"/>
<path d="M216.935 135.867C234.331 143.681 240.919 142.857 256.586 135.867" stroke="#0F0101"/>
<path d="M232.284 131.356C227.889 131.544 225.19 133.849 223.331 137.8C233.248 141.746 240.645 141.841 250.191 137.8C248.24 133.71 246.154 131.386 241.877 131.356L236.761 133.289L232.284 131.356Z" fill="#46260C"/>
<path d="M158.179 101.07C164.469 100.099 170.639 104.106 170.639 104.106L171.974 132.979C159.781 133.812 156.837 129.13 149.225 116.535C148.816 106.779 151.888 102.042 158.179 101.07Z" fill="#814517"/>
<path d="M313.311 104.444C307.02 103.473 300.851 107.48 300.851 107.48L299.516 136.353C311.708 137.186 314.653 132.504 322.264 119.909C322.674 110.152 319.601 105.415 313.311 104.444Z" fill="#814517"/>
<path d="M287.874 212.381L277.229 238.629L353.25 342.167C357.727 338.944 400.831 322.921 401.215 304.785C401.6 286.65 304.862 212.071 287.874 212.381Z" fill="#814517"/>
<path d="M316.272 226.072C301.995 216.614 295.768 213.155 283.319 211.318H235.289L237.944 365.91H279.099C321.268 311.7 329.961 272.701 316.272 226.072Z" fill="#F9A620"/>
<path d="M164.361 226.072C178.219 216.614 184.263 213.155 196.345 211.318H242.963L240.386 365.91H200.441C159.512 311.7 151.075 272.701 164.361 226.072Z" fill="#F9A620"/>
<path d="M236.78 251.419C236.78 251.419 198.369 227.14 216.295 210.674L267.458 210.674C279.861 216.154 236.78 251.419 236.78 251.419Z" fill="#814517"/>
<path d="M241.495 97.8484C241.495 110.391 251.515 120.546 263.86 120.546C276.206 120.546 286.226 110.391 286.226 97.8484C286.226 85.306 276.206 75.1508 263.86 75.1508C251.515 75.1508 241.495 85.306 241.495 97.8484Z" stroke="black"/>
<path d="M182.342 97.8484C182.342 110.391 192.362 120.546 204.707 120.546C217.052 120.546 227.072 110.391 227.072 97.8484C227.072 85.306 217.052 75.1508 204.707 75.1508C192.362 75.1508 182.342 85.306 182.342 97.8484Z" stroke="black"/>
<line y1="-0.5" x2="15.771" y2="-0.5" transform="matrix(-1 0 -0.00399302 0.999992 242.338 98.0919)" stroke="black"/>
<path d="M229.737 118.468C234.303 123.577 236.794 123.642 241.077 118.468" stroke="black"/>
<ellipse cx="4.31411" cy="7.63986" rx="4.31411" ry="7.63986" transform="matrix(-1 0 0 1 266.493 90.1158)" fill="#170101"/>
<ellipse cx="4.31411" cy="7.63986" rx="4.31411" ry="7.63986" transform="matrix(-1 0 0 1 210.935 90.1158)" fill="#170101"/>
<path fill-rule="evenodd" clip-rule="evenodd" d="M312.233 130.083C312.741 129.962 313.264 129.862 313.801 129.784C322.541 128.517 330.605 134.343 331.812 142.797C333.019 151.251 326.913 159.132 318.172 160.399C309.432 161.666 302.559 155.127 301.352 146.673C300.803 142.83 301.52 139.253 303.286 136.375C303.601 136.462 303.941 136.475 304.3 136.373C304.372 136.352 304.444 136.333 304.517 136.314C302.612 139.064 301.784 142.626 302.342 146.529C303.488 154.562 309.955 160.579 318.031 159.409C326.256 158.217 331.947 150.817 330.823 142.941C329.698 135.065 322.168 129.581 313.943 130.774C312.634 130.963 311.422 131.292 310.313 131.741C310.747 131.285 311.357 130.755 312.233 130.083Z" fill="#F9B505"/>
<path fill-rule="evenodd" clip-rule="evenodd" d="M161.121 126.216C160.614 126.095 160.092 125.995 159.556 125.918C150.815 124.651 142.752 130.477 141.545 138.931C140.337 147.385 146.444 155.266 155.184 156.533C163.925 157.799 170.798 151.261 172.005 142.807C172.464 139.593 172.038 136.565 170.853 133.976L169.959 134.425C171.047 136.82 171.447 139.639 171.015 142.663C169.868 150.696 163.402 156.713 155.326 155.543C147.101 154.35 141.41 146.951 142.534 139.075C143.659 131.198 151.189 125.715 159.414 126.908C160.651 127.087 161.801 127.39 162.859 127.801C162.347 127.308 161.772 126.783 161.121 126.216Z" fill="#F9B505"/>
</svg>
