<svg width="137" height="156" viewBox="0 0 137 156" fill="none" xmlns="http://www.w3.org/2000/svg">
<path d="M64.4097 81.1966C62.6708 77.2659 61.4699 77.3491 57.1674 77.3887L15.1077 107.153C15.1077 107.153 14.5245 123.073 19.864 123.346C25.2035 123.619 63.9878 85.0078 64.4097 81.1966Z" fill="#FFD23F"/>
<path d="M21.0583 71.213L12.0526 66.3379C12.0526 66.3379 10.3864 82.2082 11.0537 93.383C11.721 104.558 16.6401 118.58 16.6401 118.58L26.2217 116.067C27.3545 97.678 25.7388 90.0954 21.0583 71.213Z" fill="#FFD23F"/>
<path d="M119.725 44.0075C119.725 30.0084 120.832 27.3922 114.28 17.0337L46.7654 42.3003C47.7924 52.6392 46.2924 58.8607 40.2317 70.6399L99.761 73.03C115.369 61.7624 118.273 56.6408 119.725 44.0075Z" fill="#0D044F"/>
<path d="M108.754 37.9197C106.108 37.5291 99.4655 37.9197 99.4655 37.9197V50.4209C99.4655 50.4209 106.551 51.2022 108.754 50.4209C110.958 49.6396 112.894 48.4175 113.601 45.8152C113.773 41.8907 111.401 38.3104 108.754 37.9197Z" fill="#6153CC"/>
<rect width="22.0479" height="30.7794" transform="matrix(-1 0 0 1 86.5693 51.9517)" fill="#FFD23F"/>
<path d="M77.0493 60.2388L64.3134 59.4496L71.6145 64.7768L77.0493 60.2388Z" fill="#261D6F"/>
<ellipse cx="30.9918" cy="28.8063" rx="30.9918" ry="28.8063" transform="matrix(-1 0 0 1 106.537 3.80957)" fill="#FFD23F"/>
<path d="M108.754 37.9197C106.108 37.5291 99.4655 37.9197 99.4655 37.9197V50.4209C99.4655 50.4209 106.551 51.2022 108.754 50.4209C110.958 49.6396 112.894 48.4175 113.601 45.8152C113.773 41.8907 111.401 38.3104 108.754 37.9197Z" fill="#FFD23F"/>
<path d="M94.446 77.2035L94.4459 91.18L121.541 126.442C121.541 126.442 130.515 121.28 131.746 112.94C132.977 104.601 100.839 72.1867 94.446 77.2035Z" fill="#FFD23F"/>
<path d="M85.4141 139.727L89.8844 150.937C89.8844 150.937 103.825 143.338 112.599 136.459C121.373 129.58 130.072 117.562 130.072 117.562L122.591 111.032C106.89 120.5 98.2289 125.156 85.4141 139.727Z" fill="#FFD23F"/>
<path d="M95.0554 77.4688H58.5348C40.9477 93.3913 44.3122 110.894 51.5116 116.983C58.711 123.072 50.4875 140.905 46.0937 156H105.206C92.0727 123.29 94.3668 107.147 95.0554 77.4688Z" fill="#6153CC"/>
<path d="M62.6498 93.9773C57.6578 92.3989 57.1215 83.7889 64.6631 77.1655L86.4421 77.507C86.4421 77.507 67.6418 95.5558 62.6498 93.9773Z" fill="#FFD23F"/>
<path d="M65.8535 30.0503C65.8535 33.9768 69.3982 37.2452 73.8815 37.2452C78.3648 37.2452 81.9094 33.9768 81.9094 30.0503C81.9094 26.1238 78.3648 22.8555 73.8815 22.8555C69.3982 22.8555 65.8535 26.1238 65.8535 30.0503Z" stroke="black"/>
<path d="M43.8057 27.2886C43.8057 31.2151 47.3503 34.4834 51.8336 34.4834C56.3169 34.4834 59.8616 31.2151 59.8616 27.2886C59.8616 23.3621 56.3169 20.0938 51.8336 20.0938C47.3503 20.0938 43.8057 23.3621 43.8057 27.2886Z" stroke="black"/>
<line y1="-0.5" x2="5.87758" y2="-0.5" transform="matrix(-0.990943 -0.134284 -0.148922 0.988849 65.7695 29.064)" stroke="black"/>
<path d="M62.752 46.8202C69.3056 47.0191 71.4005 41.6379 71.4005 41.6379L55.2581 40.2151C55.2581 40.2151 56.1984 46.6213 62.752 46.8202Z" fill="white"/>
<path d="M62.0735 32.7139C59.4448 33.8236 59.089 34.7733 60.5717 37.0762" stroke="black"/>
<ellipse cx="1.81492" cy="3.07297" rx="1.81492" ry="3.07297" transform="matrix(-1 0 0 1 75.4409 26.2524)" fill="#282729"/>
<ellipse cx="1.81492" cy="3.07297" rx="1.81492" ry="3.07297" transform="matrix(-1 0 0 1 54.3879 24.2041)" fill="#282729"/>
<path d="M70.7225 10.5462C66.3903 16.1956 57.0177 16.5157 47.8545 20.4479C49.7574 9.55779 50.8438 3.47458 61.6479 3.37585C81.3436 -6.62151 111.596 7.74941 115.007 18.3994C118.417 29.0493 110.786 35.8943 91.4126 48.4461C93.8974 38.9112 95.8305 37.1721 95.4054 32.6031C82.2394 24.2733 80.5801 21.3164 70.7225 10.5462Z" fill="#0D044F"/>
<path d="M16.6062 41.8781C21.5285 43.6382 31.0658 52.6089 28.5024 59.686C25.9391 66.7631 21.4456 75.9119 16.5233 74.1517C11.6011 72.3915 10.4164 66.1329 12.9798 59.0557C15.5432 51.9786 11.684 40.1179 16.6062 41.8781Z" fill="#FFD23F"/>
</svg>
