<svg width="1473" height="723" viewBox="0 0 1473 723" fill="none" xmlns="http://www.w3.org/2000/svg">
<path d="M12.4257 58.4883C77.4227 -21.839 111.847 -15.5155 170.802 57.5219L174.972 716.109L16.5958 717.075L12.4257 58.4883Z" fill="#F9A620"/>
<path d="M97.5695 50.439C91.277 -20.8556 62.8745 2.73603 8.68046 60.9113L9.88044 716.463L93.3492 716.973L97.5695 50.439Z" fill="#EC8E00"/>
<rect width="28.8321" height="388.794" transform="matrix(0.999768 -0.0215271 -0.00956115 0.999954 251.391 128.51)" fill="#F9A620"/>
<rect width="1292.51" height="88.8087" transform="matrix(0.999994 0.00332849 -0.00323299 0.999995 161.608 491.148)" fill="#F9A620"/>
<rect x="174.529" y="518.889" width="1128" height="61" fill="#EC8E00"/>
<path d="M1297.89 63.4802C1367.4 -16.9156 1404.2 -10.6033 1467.19 62.4471L1471.36 721.371L1302.07 722.404L1297.89 63.4802Z" fill="#F9A620"/>
<path d="M1373.33 54.0352C1380.09 -17.2986 1410.44 6.29326 1468.34 64.4759L1466.78 720.366L1377.55 720.91L1373.33 54.0352Z" fill="#EC8E00"/>
<rect width="28.8321" height="312.542" transform="matrix(0.999768 -0.0215271 -0.00956115 0.999954 506.391 192.509)" fill="#F9A620"/>
<rect width="28.8321" height="299.249" transform="matrix(0.999768 -0.0215271 -0.00956115 0.999954 648.391 206.509)" fill="#F9A620"/>
<rect width="28.8321" height="299.249" transform="matrix(0.999768 -0.0215271 -0.00956115 0.999954 790.391 218.509)" fill="#F9A620"/>
<path d="M147.529 73.8887C618.501 243.888 876.809 225.436 1331.53 73.8887V143.889C858.886 294.405 598.529 310.826 147.529 143.889V73.8887Z" fill="#F9A620"/>
<rect width="28.8321" height="299.249" transform="matrix(0.999768 -0.0215271 -0.00956115 0.999954 932.391 214.509)" fill="#F9A620"/>
<rect width="28.8321" height="299.249" transform="matrix(0.999768 -0.0215271 -0.00956115 0.999954 1074.39 205.509)" fill="#F9A620"/>
<rect width="28.8321" height="339.997" transform="matrix(0.999768 -0.0215271 -0.00956115 0.999954 1193.39 173.509)" fill="#F9A620"/>
<rect width="28.8321" height="342.177" transform="matrix(0.999768 -0.0215271 -0.00956115 0.999954 379.391 173.509)" fill="#F9A620"/>
</svg>
