<svg width="489" height="396" viewBox="0 0 489 396" fill="none" xmlns="http://www.w3.org/2000/svg">
<path d="M472.377 180.494C472.377 280.178 371.398 360.988 246.835 360.988C195.216 360.988 84.7366 355.468 46.7256 332.121C-6.9889 299.129 21.2937 238.869 21.2937 180.494C21.2937 80.8099 122.272 0 246.835 0C308.003 0 303.249 79.6786 343.878 111.317C385.987 144.108 472.377 129.76 472.377 180.494Z" fill="#0072BB"/>
<path d="M246.528 349.718L215.705 342.865L154.563 207.827L179.632 200.79C223.945 192.916 244.746 258.752 246.528 349.718Z" fill="#5F00BA"/>
<path d="M400.401 143.589C400.401 116.432 402.676 111.357 389.207 91.2616L250.404 140.277C252.516 160.334 249.432 172.403 236.972 195.254L359.357 199.891C391.446 178.032 397.416 168.097 400.401 143.589Z" fill="#0D044F"/>
<path d="M377.846 131.779C372.405 131.021 358.749 131.779 358.749 131.779V156.03C358.749 156.03 373.316 157.546 377.846 156.03C382.376 154.515 386.358 152.144 387.809 147.096C388.164 139.482 383.287 132.537 377.846 131.779Z" fill="#6153CC"/>
<rect width="45.3277" height="59.71" transform="matrix(-1 0 0 1 332.237 159.001)" fill="#FFD23F"/>
<path d="M312.665 175.076L286.482 173.545L301.492 183.88L312.665 175.076Z" fill="#261D6F"/>
<ellipse cx="63.7154" cy="55.8824" rx="63.7154" ry="55.8824" transform="matrix(-1 0 0 1 373.288 65.6082)" fill="#FFD23F"/>
<path d="M377.846 131.779C372.405 131.021 358.749 131.779 358.749 131.779V156.03C358.749 156.03 373.316 157.546 377.846 156.03C382.376 154.515 386.358 152.144 387.809 147.096C388.164 139.482 383.287 132.537 377.846 131.779Z" fill="#FFD23F"/>
<path d="M88.6754 221.034L95.8024 189.911L276.741 209.446L275.318 226.702C268.033 255.623 184.332 251.454 88.6754 221.034Z" fill="#FFD23F"/>
<path d="M348.616 207.483L335.898 229.504L449.472 341.187C449.472 341.187 482.462 319.62 481.552 305.362C480.642 291.103 360.591 207.544 348.616 207.483Z" fill="#FFD23F"/>
<path d="M452.772 300.3L476.289 317.625C476.289 317.625 448.941 349.515 421.358 367.767L357.49 363.424C397.776 324.76 403.411 325.422 452.772 300.3Z" fill="#FFD23F"/>
<path d="M346.073 208.746H273.736C238.901 237.726 245.565 269.582 259.825 280.663C274.085 291.745 258.313 322.244 249.611 349.718C300.671 362.426 313.48 372.897 354.408 361.466C328.394 301.932 344.709 262.761 346.073 208.746Z" fill="#6153CC"/>
<path d="M283.06 240.528C272.797 237.466 271.695 220.763 287.199 207.914L331.974 208.576C331.974 208.576 293.323 243.59 283.06 240.528Z" fill="#FFD23F"/>
<path d="M289.119 116.514C289.119 124.41 296.667 130.942 306.152 130.942C315.637 130.942 323.184 124.41 323.184 116.514C323.184 108.619 315.637 102.087 306.152 102.087C296.667 102.087 289.119 108.619 289.119 116.514Z" stroke="black"/>
<path d="M243.791 111.156C243.791 119.052 251.338 125.583 260.824 125.583C270.309 125.583 277.856 119.052 277.856 111.156C277.856 103.26 270.309 96.7284 260.824 96.7284C251.338 96.7284 243.791 103.26 243.791 111.156Z" stroke="black"/>
<line y1="-0.5" x2="12.0723" y2="-0.5" transform="matrix(-0.991924 -0.126837 -0.157607 0.987502 289.474 114.601)" stroke="black"/>
<path d="M283.27 149.046C296.744 149.431 301.051 138.992 301.051 138.992L267.864 136.232C267.864 136.232 269.797 148.66 283.27 149.046Z" fill="white"/>
<path d="M281.876 121.681C276.472 123.833 275.741 125.676 278.789 130.143" stroke="black"/>
<ellipse cx="3.73125" cy="5.96135" rx="3.73125" ry="5.96135" transform="matrix(-1 0 0 1 309.359 109.146)" fill="#282729"/>
<ellipse cx="3.73125" cy="5.96135" rx="3.73125" ry="5.96135" transform="matrix(-1 0 0 1 266.076 105.172)" fill="#282729"/>
<path d="M299.657 78.6766C290.751 89.6359 271.482 90.257 252.644 97.8852C256.556 76.7591 258.789 64.958 281.001 64.7665C321.493 45.3723 383.688 73.2509 390.7 93.9112C397.712 114.571 382.024 127.85 342.194 152.2C347.302 133.703 351.276 130.329 350.402 121.466C323.335 105.306 319.923 99.5699 299.657 78.6766Z" fill="#0D044F"/>
<path d="M84.3874 124.567C89.828 123.809 103.484 124.567 103.484 124.567V148.819C103.484 148.819 88.9176 150.334 84.3874 148.819C79.8571 147.303 75.8758 144.932 74.4239 139.884C74.0699 132.271 78.9467 125.325 84.3874 124.567Z" fill="#5F00BA"/>
<ellipse cx="76.544" cy="175.902" rx="76.544" ry="67.7479" fill="#0D044F"/>
<rect x="129.996" y="151.789" width="45.3277" height="59.71" fill="#5F00BA"/>
<path d="M149.568 167.865L175.752 166.334L160.741 176.668L149.568 167.865Z" fill="#261D6F"/>
<ellipse cx="152.66" cy="114.279" rx="63.7154" ry="55.8824" fill="#5F00BA"/>
<path d="M191.614 87.8202C206.153 85.1409 210.798 68.2905 199.558 55.8659C188.318 43.4413 128.754 49.1619 97.4803 76.9775C89.4126 86.0395 78.2944 114.996 95.1525 115.565C112.011 116.133 107.8 89.7341 112.547 86.0395C117.294 82.3448 115.497 102.365 131.399 102.961C147.3 103.557 154.838 79.3997 158.795 76.4746C162.751 73.5495 177.075 90.4995 191.614 87.8202Z" fill="#0D044F"/>
<path d="M84.3874 124.567C89.828 123.809 103.484 124.567 103.484 124.567V148.819C103.484 148.819 88.9176 150.334 84.3874 148.819C79.8571 147.303 75.8758 144.932 74.4239 139.884C74.0699 132.271 78.9467 125.325 84.3874 124.567Z" fill="#5F00BA"/>
<path d="M111.074 200.601L124.865 223.747L79.058 292.938C81.7048 290.831 35.9773 277.058 33.8514 264.548C31.7254 252.038 98.0892 200.665 111.074 200.601Z" fill="#5F00BA"/>
<path d="M187.298 201.547H109.471C110.938 292.965 127.594 202.949 99.6067 303.706C133.908 320.89 154.834 328.064 194.13 337.97C194.13 337.97 197.281 316.588 212.623 297.833C227.965 279.077 224.777 250.594 187.298 201.547Z" fill="#FF9505"/>
<path d="M179.173 233.316C189.436 230.254 190.829 214.396 175.324 201.547H129.996C129.996 201.547 168.91 236.378 179.173 233.316Z" fill="#5F00BA"/>
<path d="M173.114 109.303C173.114 117.199 165.566 123.73 156.081 123.73C146.596 123.73 139.049 117.199 139.049 109.303C139.049 101.407 146.596 94.8755 156.081 94.8755C165.566 94.8755 173.114 101.407 173.114 109.303Z" stroke="black"/>
<path d="M218.441 103.944C218.441 111.84 210.894 118.372 201.409 118.372C191.923 118.372 184.376 111.84 184.376 103.944C184.376 96.0484 191.923 89.5166 201.409 89.5166C210.894 89.5166 218.441 96.0484 218.441 103.944Z" stroke="black"/>
<line y1="-0.5" x2="12.0723" y2="-0.5" transform="matrix(0.991924 -0.126837 0.157607 0.987502 172.759 107.389)" stroke="black"/>
<path d="M178.963 141.834C165.49 142.22 161.183 131.781 161.183 131.781L194.369 129.021C194.369 129.021 192.436 141.449 178.963 141.834Z" fill="white"/>
<path d="M180.357 114.469C185.762 116.622 186.493 118.464 183.445 122.931" stroke="black"/>
<ellipse cx="156.606" cy="107.896" rx="3.73125" ry="5.96135" fill="#282729"/>
<ellipse cx="199.888" cy="103.921" rx="3.73125" ry="5.96135" fill="#282729"/>
<path d="M154.831 310.578L140.304 317.972C140.304 317.972 59.8423 221.983 74.5077 213.016C89.1732 204.05 107.089 198.105 107.089 198.105C134.961 245.58 147.504 271.011 154.831 310.578Z" fill="#FFD23F"/>
<path d="M129.755 355.903C122.74 351.295 112.843 333.346 121.808 322.779C130.774 312.213 144.326 298.974 151.341 303.583C158.356 308.192 156.166 318.766 147.201 329.332C138.235 339.898 136.77 360.512 129.755 355.903Z" fill="#FFD23F"/>
</svg>
