<svg width="2306" height="1699" viewBox="0 0 2306 1699" fill="none" xmlns="http://www.w3.org/2000/svg">
<path d="M1862.01 240L1833.79 255.335C1934.14 503.776 2007.52 628.034 2176.71 816.017L2204.93 800.682C2038.8 601.126 1964.29 478.009 1862.01 240Z" fill="#F9A620"/>
<path d="M35.2258 878.031L59.5001 857.001C256.824 1038.27 329.141 1202.83 445.671 1427.3L421.397 1448.33C292.958 1222.65 222.104 1057.44 35.2258 878.031Z" fill="#F9A620"/>
<path d="M2232 881.181L2208.14 859.686C2007.36 1037.12 1950.89 1206.32 1830.05 1428.5L1853.92 1449.99C1986.68 1226.84 2041.7 1056.96 2232 881.181Z" fill="#F9A620"/>
<path d="M42.4316 803.562L67.9996 823C253.342 629.498 354.545 507.887 456.5 276.437L430.932 257C317.169 490.415 217.469 612.583 42.4316 803.562Z" fill="#F9A620"/>
<path d="M337.052 862C337.052 576.575 699.318 345.192 1146.2 345.192C1593.07 345.192 1955.34 576.575 1955.34 862H1929.01" stroke="#F9A620" stroke-width="50"/>
<path d="M1108.59 27.2803C1141.47 -10.626 1158.74 -7.52758 1188.1 27.2803V339.62H1108.59V27.2803Z" fill="#F9A620"/>
<path d="M417.451 230.859C431.593 184.263 448.817 180.99 490.707 202.632L623.829 490.376L550.573 518.603L417.451 230.859Z" fill="#F9A620"/>
<path d="M1820.3 187.956C1868.67 168.232 1882.4 178.267 1890.8 221.524L1732.48 498.439L1661.98 464.871L1820.3 187.956Z" fill="#F9A620"/>
<path d="M1120.97 58.8398L1131.1 89.3142C888.078 202.256 749.601 242.913 497.62 264.682L487.491 234.207C745.149 201.898 883.667 162.844 1120.97 58.8398Z" fill="#F9A620"/>
<path d="M1165.02 57.8594L1154.82 88.3134C1397.57 201.741 1535.95 242.675 1787.88 264.946L1798.08 234.492C1540.5 201.668 1402.07 162.337 1165.02 57.8594Z" fill="#F9A620"/>
<rect width="22.5088" height="196.424" transform="matrix(0.987299 -0.158875 0.189702 0.981842 634 236.576)" fill="#F9A620"/>
<rect width="22.5088" height="196.424" transform="matrix(0.987299 -0.158875 0.189702 0.981842 975 150.576)" fill="#F9A620"/>
<rect width="22.5088" height="196.424" transform="matrix(0.987299 0.158875 -0.189702 0.981842 1617.26 225)" fill="#F9A620"/>
<rect width="22.5088" height="196.424" transform="matrix(0.987299 0.158875 -0.189702 0.981842 1450.26 178)" fill="#F9A620"/>
<rect width="22.5088" height="196.424" transform="matrix(0.987299 0.158875 -0.189702 0.981842 1282.68 141.473)" fill="#F9A620"/>
<rect width="22.5088" height="196.424" transform="matrix(0.987299 -0.158875 0.189702 0.981842 812 202.576)" fill="#F9A620"/>
<path d="M1144.05 22.0001C1147.43 -10.1384 1161.62 0.580265 1188.64 26.9681L1185.95 322.637H1144.05V22.0001Z" fill="#EC8E00"/>
<path d="M446.312 212.931C436.047 184.252 453.464 188.139 489.126 200.637L606.23 449.632L571.277 469.462L446.312 212.931Z" fill="#EC8E00"/>
<path d="M1854.87 198.814C1874.81 172.144 1881.58 187.775 1891.32 222.782L1741.5 481.994L1701.21 457.478L1854.87 198.814Z" fill="#EC8E00"/>
<path d="M1091.76 1671.32C1124.65 1709.23 1141.91 1706.13 1171.28 1671.32V1358.98H1091.76V1671.32Z" fill="#F9A620"/>
<path d="M400.627 1467.74C414.769 1514.34 431.993 1517.61 473.883 1495.97L607.005 1208.23L533.749 1180L400.627 1467.74Z" fill="#F9A620"/>
<path d="M1803.47 1510.65C1851.84 1530.37 1865.58 1520.33 1873.97 1477.08L1715.66 1200.16L1645.16 1233.73L1803.47 1510.65Z" fill="#F9A620"/>
<path d="M1104.15 1639.76L1114.28 1609.29C871.254 1496.35 732.777 1455.69 480.796 1433.92L470.667 1464.4C728.325 1496.7 866.843 1535.76 1104.15 1639.76Z" fill="#F9A620"/>
<path d="M1148.19 1640.74L1137.99 1610.29C1380.74 1496.86 1519.12 1455.93 1771.05 1433.66L1781.25 1464.11C1523.67 1496.93 1385.25 1536.27 1148.19 1640.74Z" fill="#F9A620"/>
<rect width="22.5088" height="196.424" transform="matrix(0.987299 0.158875 0.189702 -0.981842 624 1453.86)" fill="#F9A620"/>
<rect width="22.5088" height="196.424" transform="matrix(0.987299 0.158875 0.189702 -0.981842 923 1539.86)" fill="#F9A620"/>
<rect width="22.5088" height="196.424" transform="matrix(0.987299 -0.158875 -0.189702 -0.981842 1454.26 1500.43)" fill="#F9A620"/>
<rect width="22.5088" height="196.424" transform="matrix(0.987299 -0.158875 -0.189702 -0.981842 1288.26 1551.43)" fill="#F9A620"/>
<rect width="22.5088" height="196.424" transform="matrix(0.987299 0.158875 0.189702 -0.981842 785 1499.86)" fill="#F9A620"/>
<path d="M1127 1675.13C1130.42 1708.92 1144.73 1697.65 1172 1669.9L1169.29 1359H1127V1675.13Z" fill="#EC8E00"/>
<path d="M430.143 1484.33C418.817 1515.18 436.588 1510.57 473.121 1496.28L599.802 1227.63L565.032 1207.42L430.143 1484.33Z" fill="#EC8E00"/>
<path d="M1838.04 1499.79C1857.98 1526.46 1864.75 1510.83 1874.49 1475.82L1724.68 1216.61L1684.38 1241.12L1838.04 1499.79Z" fill="#EC8E00"/>
<rect width="22.5088" height="196.424" transform="matrix(0.987299 -0.158875 -0.189702 -0.981842 1623.26 1465.43)" fill="#F9A620"/>
<rect width="22.5088" height="196.424" transform="matrix(0.652474 0.757811 -0.777864 0.628433 1924.79 404)" fill="#F9A620"/>
<rect width="22.5088" height="187.574" transform="matrix(0.652474 0.757811 -0.777864 0.628433 2001.91 532.562)" fill="#F9A620"/>
<rect width="22.5088" height="187.574" transform="matrix(-0.739802 0.672824 -0.649336 -0.760501 1916.45 1303.65)" fill="#F9A620"/>
<rect width="22.5088" height="187.574" transform="matrix(-0.622307 0.782774 -0.76291 -0.646505 2004.11 1174.27)" fill="#F9A620"/>
<rect width="22.5088" height="187.574" transform="matrix(-0.126651 0.991947 -0.987497 -0.15764 2111.08 998.568)" fill="#F9A620"/>
<rect width="22.5088" height="187.574" transform="matrix(0.454769 0.89061 -0.904409 0.426667 2105 676.428)" fill="#F9A620"/>
<rect width="22.5088" height="196.424" transform="matrix(0.679864 -0.733338 0.75426 0.656575 345.301 426.528)" fill="#F9A620"/>
<rect width="22.5088" height="196.424" transform="matrix(0.494071 -0.869422 0.884461 0.466614 163 689.57)" fill="#F9A620"/>
<rect width="22.5088" height="196.424" transform="matrix(0.577081 -0.816687 0.834351 0.551233 256.592 561.812)" fill="#F9A620"/>
<path d="M27.6906 879.316C-8.42746 846.656 -4.04448 829.681 33.3928 801.017L350.431 803.29L344.728 881.588L27.6906 879.316Z" fill="#F9A620"/>
<path d="M2277.74 879.316C2313.86 846.656 2309.48 829.681 2272.04 801.017L1955 803.29L1960.7 881.588L2277.74 879.316Z" fill="#F9A620"/>
<path d="M2280.41 845.549C2312.73 842.632 2301.12 828.527 2272.97 801.577L1979.75 801.585L1976.37 841.652L2280.41 845.549Z" fill="#EC8E00"/>
<path d="M337 822C337 1107.42 699.266 1338.81 1146.14 1338.81C1593.02 1338.81 1955.29 1107.42 1955.29 822H1928.96" stroke="#F9A620" stroke-width="50"/>
<path d="M24.5234 845.557C-6.99709 842.629 4.34648 828.527 31.8442 801.585L317.857 801.686L321.097 841.755L24.5234 845.557Z" fill="#EC8E00"/>
<rect width="22.5088" height="187.574" transform="matrix(0.403842 0.914829 -0.927022 0.375008 350.885 924)" fill="#F9A620"/>
<rect width="22.5088" height="187.574" transform="matrix(0.652474 0.757811 -0.777864 0.628433 413.907 1028)" fill="#F9A620"/>
<rect width="22.5088" height="187.574" transform="matrix(0.721325 0.692596 -0.714836 0.699292 482.084 1134)" fill="#F9A620"/>
</svg>
