<svg width="64" height="33" viewBox="0 0 64 33" fill="none" xmlns="http://www.w3.org/2000/svg">
<path d="M23 1.19513L22.877 23.3977" stroke="black" stroke-width="2"/>
<path d="M34.8961 11.8679C34.5287 11.437 33.8831 11.3509 33.4541 11.6757C33.025 12.0004 32.9751 12.613 33.3424 13.0439L34.8961 11.8679ZM41.7826 22.9432L42.4478 23.7235L44.0015 22.5474L43.3362 21.7672L41.7826 22.9432ZM33.3424 13.0439L41.7826 22.9432L43.3362 21.7672L34.8961 11.8679L33.3424 13.0439Z" fill="black"/>
<path d="M22.875 1.07111C39.9458 1.07111 44.125 -0.0431017 44.125 6.54944C44.125 13.142 36.3512 12.482 28.125 12.482" stroke="black" stroke-width="2"/>
<path d="M15 1.07111L23 1.07111" stroke="black" stroke-width="2"/>
<line x1="29.125" y1="12.9781" x2="29.125" y2="23.4085" stroke="black" stroke-width="2"/>
<line y1="30.0223" x2="19.0016" y2="30.0223" stroke="black" stroke-width="0.25"/>
<path d="M24.5416 32.1473H23.9416L23.0596 30.4133C22.9916 30.2733 22.8836 30.2033 22.7356 30.2033C22.6436 30.2033 22.5296 30.2373 22.3936 30.3053C22.2576 30.3733 22.1236 30.4673 21.9916 30.5873V32.1473H21.3916V27.9353H23.1136C23.3856 27.9353 23.6156 27.9833 23.8036 28.0793C23.9916 28.1753 24.1296 28.3033 24.2176 28.4633C24.3096 28.6193 24.3556 28.7893 24.3556 28.9733C24.3556 29.1493 24.3176 29.3213 24.2416 29.4893C24.1696 29.6533 24.0576 29.7953 23.9056 29.9153C23.7576 30.0353 23.5776 30.1133 23.3656 30.1493C23.4536 30.1813 23.5236 30.2213 23.5756 30.2693C23.6276 30.3133 23.6716 30.3733 23.7076 30.4493L24.5416 32.1473ZM22.9996 30.0773C23.1636 30.0853 23.3076 30.0433 23.4316 29.9513C23.5556 29.8593 23.6496 29.7353 23.7136 29.5793C23.7816 29.4193 23.8156 29.2513 23.8156 29.0753C23.8156 28.8833 23.7756 28.7073 23.6956 28.5473C23.6156 28.3873 23.4936 28.2593 23.3296 28.1633C23.1696 28.0673 22.9736 28.0193 22.7416 28.0193H21.9916V30.5033C22.1556 30.3673 22.3236 30.2613 22.4956 30.1853C22.6676 30.1053 22.8356 30.0693 22.9996 30.0773ZM25.8647 32.0633C26.4727 32.0633 26.9667 32.0413 27.3467 31.9973C27.7267 31.9493 28.0847 31.8593 28.4207 31.7273V32.1473H25.2647V27.9353H28.3307V28.3553C28.0347 28.2313 27.6947 28.1453 27.3107 28.0973C26.9307 28.0453 26.4487 28.0193 25.8647 28.0193V29.7353H28.0127V29.8193H25.8647V32.0633ZM31.2407 32.2373C30.8007 32.2373 30.4047 32.1493 30.0527 31.9733C29.7047 31.7933 29.4287 31.5333 29.2247 31.1933C29.0247 30.8493 28.9247 30.4413 28.9247 29.9693C28.9247 29.5293 29.0267 29.1493 29.2307 28.8293C29.4387 28.5093 29.7207 28.2673 30.0767 28.1033C30.4367 27.9353 30.8387 27.8513 31.2827 27.8513C31.7507 27.8513 32.2167 27.9393 32.6807 28.1153L32.6507 28.5353C32.3867 28.3393 32.1247 28.1933 31.8647 28.0973C31.6047 27.9973 31.3567 27.9473 31.1207 27.9473C30.8127 27.9473 30.5367 28.0253 30.2927 28.1813C30.0527 28.3373 29.8647 28.5673 29.7287 28.8713C29.5927 29.1753 29.5247 29.5413 29.5247 29.9693C29.5247 30.4173 29.6047 30.8053 29.7647 31.1333C29.9287 31.4613 30.1487 31.7133 30.4247 31.8893C30.7007 32.0613 31.0067 32.1473 31.3427 32.1473C31.6147 32.1473 31.8867 32.0793 32.1587 31.9433V29.9453H32.7587V31.9013C32.2307 32.1253 31.7247 32.2373 31.2407 32.2373ZM34.2495 32.1473H33.6495V27.9353H34.2495V32.1473ZM35.0423 32.1473C35.0983 31.9233 35.1343 31.7053 35.1503 31.4933C35.1703 31.2773 35.1803 31.0213 35.1803 30.7253V27.9353H35.6483L38.3663 31.8953V29.2673C38.3663 28.7513 38.3183 28.3073 38.2223 27.9353H38.5883C38.4923 28.3073 38.4443 28.7513 38.4443 29.2673V32.1473H37.9103L35.2643 28.2773V30.7253C35.2643 31.0093 35.2743 31.2633 35.2943 31.4873C35.3143 31.7073 35.3523 31.9273 35.4083 32.1473H35.0423ZM39.9389 32.0633C40.5469 32.0633 41.0409 32.0413 41.4209 31.9973C41.8009 31.9493 42.1589 31.8593 42.4949 31.7273V32.1473H39.3389V27.9353H42.4049V28.3553C42.1089 28.2313 41.7689 28.1453 41.3849 28.0973C41.0049 28.0453 40.5229 28.0193 39.9389 28.0193V29.7353H42.0869V29.8193H39.9389V32.0633Z" fill="black"/>
<line x1="45.0016" y1="30.0223" x2="64.0033" y2="30.0223" stroke="black" stroke-width="0.25"/>
</svg>
