<svg width="61" height="48" viewBox="0 0 61 48" fill="none" xmlns="http://www.w3.org/2000/svg">
<path d="M16 2.39026L15.7539 46.7953" stroke="black" stroke-width="4"/>
<path d="M39.7922 23.7357C39.0574 22.8739 37.7662 22.7019 36.9081 23.3514C36.0501 24.0009 35.9501 25.2261 36.6849 26.0879L39.7922 23.7357ZM53.5652 45.8865L54.8956 47.4469L58.0029 45.0948L56.6725 43.5344L53.5652 45.8865ZM36.6849 26.0879L53.5652 45.8865L56.6725 43.5344L39.7922 23.7357L36.6849 26.0879Z" fill="black"/>
<path d="M15.75 2.14222C49.8916 2.14222 58.25 -0.0862034 58.25 13.0989C58.25 26.284 42.7024 24.9639 26.25 24.9639" stroke="black" stroke-width="4"/>
<path d="M0 2.14221L16 2.14221" stroke="black" stroke-width="4"/>
<line x1="28.25" y1="25.9562" x2="28.25" y2="46.817" stroke="black" stroke-width="4"/>
</svg>
