<svg width="387" height="346" viewBox="0 0 387 346" fill="none" xmlns="http://www.w3.org/2000/svg">
<path d="M387 156.039C387 254.019 295.321 346 199.5 346C103.679 346 26 272.59 26 182.033C26 91.477 131.5 -50.4195 199.5 18.0666C267.5 86.5527 387 58.0584 387 156.039Z" fill="#3C0092"/>
<path d="M153.886 194.482C164.955 207.294 166.539 203.504 171.141 200.959L187.35 57.9618C180.69 56.1982 177.141 54.4237 171.141 49.9898C160.871 51.1994 156.986 53.8256 153.886 62.4461H139.768C130.295 68.1969 128.136 72.6589 128.788 82.376C117.297 86.1094 112.175 90.5731 107.35 106.292C107.704 114.813 109.159 118.098 115.716 119.246C109.965 128.284 111.043 131.976 115.716 137.682C108.257 144.64 106.286 149.905 107.35 162.096C111.51 171.563 114.749 174.214 123.036 171.563C123.155 178.829 124.351 181.212 128.788 182.026H139.768C138.74 195.228 144.179 194.96 153.873 194.483L153.886 194.482Z" fill="#170101"/>
<path d="M215.813 194.482C204.744 207.294 203.16 203.504 198.559 200.959L182.349 57.9619C189.009 56.1982 192.558 54.4237 198.559 49.9899C208.828 51.1995 212.713 53.8256 215.813 62.4461H229.931C239.404 68.197 241.563 72.659 240.912 82.3761C252.402 86.1095 257.524 90.5732 262.349 106.292C261.995 114.813 260.54 118.098 253.983 119.246C259.734 128.284 258.657 131.976 253.983 137.682C261.442 144.64 263.413 149.905 262.349 162.096C258.189 171.563 254.95 174.214 246.663 171.563C246.544 178.829 245.348 181.213 240.912 182.026H229.931C230.96 195.228 225.52 194.96 215.826 194.483L215.813 194.482Z" fill="#170101"/>
<path d="M170.822 233.568C167.511 226.758 165.274 226.737 157.256 226.229C157.256 226.229 133.829 233.526 118.864 241.816C102.829 250.698 79.3972 270.423 79.3972 270.423C79.3972 270.423 84.8735 300.6 94.8299 301.769C104.786 302.938 170.104 239.889 170.822 233.568Z" fill="#814517"/>
<path d="M71.9534 211.117L52.7722 206.78C52.7722 206.78 57.5276 234.749 64.303 253.62C71.0783 272.491 87.1797 294.346 87.1797 294.346L103.775 285.753C96.7796 253.701 90.017 241.416 71.9534 211.117Z" fill="#814517"/>
<path d="M61.5588 216.622C53.1555 219.024 48.547 198.27 44.1542 185.379C44.1542 185.379 40.1642 161.163 42.8494 160.967C45.5346 160.771 51.4495 181.463 51.4495 181.463C51.4495 181.463 46.9714 157.21 51.4495 156.542C55.9276 155.874 59.3494 180.625 59.3494 180.625C59.3494 180.625 59.764 155.908 63.2459 153.953C66.7277 151.997 66.3494 178.964 66.3494 178.964C66.3494 178.964 70.5246 154.095 74.4199 155.132C78.3151 156.17 75.0213 191.133 75.0213 191.133C83.0114 182.626 86.3976 180.975 90.7517 182.757L80.8494 201.459L73.5499 214.314L61.5588 216.622Z" fill="#814517"/>
<rect width="40.9738" height="59.3647" transform="matrix(-1 0 0 1 209.054 176.822)" fill="#814517"/>
<path d="M207.993 191.062L167.063 192.961L186.993 205.559L207.993 191.062Z" fill="#170101"/>
<ellipse cx="57.5952" cy="55.5593" rx="57.5952" ry="55.5593" transform="matrix(-1 0 0 1 241.754 84.9828)" fill="#814517"/>
<path d="M219.037 84.2044C229.897 89.0647 249.199 112.112 244.495 114.33C239.791 116.548 245.64 124.867 234.075 131.981C222.51 139.095 222.564 117.781 225.643 114.912C219.066 117.775 216.583 118.491 212.747 119.332C206.359 118.533 202.41 119.164 200.524 105.157C193.64 113.036 190.721 109.784 184.912 106.427C179.187 112.449 176.573 109.489 171.758 102.107C172.559 110.11 167.533 113.513 160.974 115.498C154.415 117.483 149.986 117.91 148.734 111.855C147.483 105.799 151.028 120.53 144.013 124.604C135.843 126.676 125.026 123.534 122.108 116.657C120.187 112.13 123.994 104.657 126.714 98.9782C133.565 84.6713 180.165 71.896 219.037 84.2044Z" fill="#170101"/>
<path d="M184.601 177.464C178.162 177.464 175.373 174.999 174 169.466C182.715 171.827 187.019 171.824 195.5 169.466C192.315 175.966 191.04 177.464 184.601 177.464Z" fill="#46260C"/>
<path d="M169 167.466C182.6 173.528 187.75 172.889 200 167.466" stroke="#0F0101"/>
<path d="M181 163.967C177.564 164.113 175.454 165.9 174 168.966C181.753 172.027 187.537 172.101 195 168.966C193.474 165.793 191.844 163.99 188.5 163.967L184.5 165.466L181 163.967Z" fill="#46260C"/>
<path d="M123.063 140.472C127.981 139.718 132.805 142.827 132.805 142.827L133.848 165.226C124.316 165.872 122.014 162.24 116.063 152.469C115.743 144.9 118.145 141.225 123.063 140.472Z" fill="#814517"/>
<path d="M244.349 143.089C239.43 142.335 234.607 145.444 234.607 145.444L233.563 167.843C243.096 168.489 245.397 164.857 251.348 155.086C251.668 147.517 249.267 143.842 244.349 143.089Z" fill="#814517"/>
<path d="M224.461 226.824L216.139 247.187L275.574 327.51C279.074 325.01 312.773 312.58 313.074 298.51C313.375 284.441 237.743 226.584 224.461 226.824Z" fill="#814517"/>
<path d="M246.663 237.446C235.501 230.109 230.633 227.425 220.9 226H183.349L185.425 345.93H217.601C250.569 303.875 257.366 273.62 246.663 237.446Z" fill="#F9A620"/>
<path d="M127.897 237.446C138.731 230.109 143.456 227.425 152.903 226H189.349L187.334 345.93H156.104C124.106 303.875 117.51 273.62 127.897 237.446Z" fill="#F9A620"/>
<path d="M184.516 257.11C184.516 257.11 154.485 238.275 168.5 225.5L208.5 225.5C218.197 229.752 184.516 257.11 184.516 257.11Z" fill="#814517"/>
<path d="M188.31 137.972C188.31 147.638 196.093 155.468 205.687 155.468C215.28 155.468 223.063 147.638 223.063 137.972C223.063 128.306 215.28 120.476 205.687 120.476C196.093 120.476 188.31 128.306 188.31 137.972Z" stroke="black"/>
<path d="M142.063 137.972C142.063 147.638 149.846 155.468 159.44 155.468C169.034 155.468 176.816 147.638 176.816 137.972C176.816 128.306 169.034 120.476 159.44 120.476C149.846 120.476 142.063 128.306 142.063 137.972Z" stroke="black"/>
<line y1="-0.5" x2="12.3301" y2="-0.5" transform="matrix(-1 0 -0.00402407 0.999992 188.86 138.161)" stroke="black"/>
<path d="M179.009 153.969C182.579 157.932 184.526 157.982 187.875 153.969" stroke="black"/>
<ellipse cx="3.37285" cy="5.92688" rx="3.37285" ry="5.92688" transform="matrix(-1 0 0 1 207.746 131.973)" fill="#170101"/>
<ellipse cx="3.37285" cy="5.92688" rx="3.37285" ry="5.92688" transform="matrix(-1 0 0 1 164.309 131.973)" fill="#170101"/>
<path fill-rule="evenodd" clip-rule="evenodd" d="M243.506 162.979C243.903 162.885 244.312 162.807 244.732 162.747C251.565 161.764 257.87 166.284 258.813 172.843C259.757 179.401 254.983 185.515 248.149 186.498C241.316 187.48 235.942 182.408 234.999 175.849C234.57 172.868 235.13 170.093 236.51 167.86C236.757 167.928 237.023 167.938 237.303 167.859C237.463 167.813 237.629 167.774 237.798 167.74C237.785 167.759 237.771 167.777 237.758 167.795C236.228 169.898 235.55 172.66 235.989 175.707C236.871 181.836 241.831 186.396 248.007 185.508C254.332 184.598 258.683 178.959 257.823 172.985C256.964 167.011 251.199 162.827 244.874 163.737C243.701 163.905 242.631 164.218 241.67 164.651C242.008 164.212 242.557 163.701 243.506 162.979Z" fill="#F9B505"/>
<path fill-rule="evenodd" clip-rule="evenodd" d="M125.363 159.979C124.967 159.886 124.559 159.808 124.14 159.748C117.306 158.765 111.002 163.285 110.058 169.843C109.115 176.402 113.889 182.515 120.722 183.498C127.555 184.481 132.929 179.409 133.873 172.85C134.231 170.357 133.898 168.008 132.972 166L132.076 166.445C132.907 168.262 133.214 170.403 132.883 172.708C132.001 178.837 127.04 183.397 120.865 182.508C114.539 181.599 110.188 175.96 111.048 169.986C111.908 164.012 117.672 159.828 123.997 160.737C125.15 160.903 126.205 161.208 127.152 161.63C126.65 161.126 126.063 160.583 125.363 159.979Z" fill="#F9B505"/>
</svg>
