<svg width="489" height="386" viewBox="0 0 489 386" fill="none" xmlns="http://www.w3.org/2000/svg">
<path d="M211.609 54.9893C215.843 25.568 203.076 18.5184 182.205 5.57068C152.207 20.4768 140.333 64.4133 102.226 95.9033C64.1183 127.393 94.9339 172.904 94.9339 172.904C111.432 194.691 119.819 219.672 149.978 243.929C149.978 243.929 130.693 188.856 140.098 175.663C149.504 162.469 161.252 149.39 168.091 151.758C174.93 154.126 179.617 155.895 188.791 159.113C197.966 162.331 204.787 157.734 206.434 152.677C208.08 147.62 203.314 142.103 207.375 139.576C207.375 139.576 207.345 139.509 213.932 138.13C220.518 136.75 209.227 128.476 209.227 128.476C209.227 128.476 214.402 128.016 217.46 124.798C220.518 121.58 215.843 119.119 211.609 116.36C207.375 113.602 207.375 105.787 211.609 106.477C215.843 107.166 231.839 101.879 223.371 96.8227C214.902 91.7659 211.609 88.0882 211.609 88.0882C211.609 88.0882 207.375 84.4106 211.609 54.9893Z" fill="#FBD8A4"/>
<path d="M207.37 76.2383V72.688C211.905 73.7113 214.875 73.567 220.543 72.688C215.485 75.7379 212.613 76.7523 207.37 76.2383Z" fill="#FBD8A4"/>
<path d="M131.39 109.695C167.145 96.5929 167.12 13.4755 188.056 8.87841C158.417 -8.82031 106.593 -2.46712 81.7312 50.0224C62.8244 77.28 7.39792 99.6708 0.576192 146.331C-6.24554 192.991 48.5075 233.092 111.63 262.547C103.801 224.101 110.665 194.141 98.6679 170.006C86.6711 145.871 95.6347 122.796 131.39 109.695Z" fill="#854001"/>
<path d="M238.561 162.709C246.668 134.073 261.252 132.574 285.674 128.819C307.116 154.165 300.101 199.088 322.223 242.802C344.345 286.515 297.53 316.271 297.53 316.271C273.518 329.836 255.643 349.487 218.093 360.003C218.093 360.003 258.228 316.989 254.977 301.227C251.727 285.465 246.28 268.896 239.042 268.407C231.804 267.918 226.783 267.717 217.057 267.099C207.33 266.481 202.946 259.609 203.496 254.33C204.047 249.051 210.667 245.844 207.973 241.946C207.973 241.946 208.976 241.181 203.496 237.353C198.017 233.525 209.697 230.458 209.697 230.458C209.697 230.458 204.99 228.393 203.496 224.251C202.003 220.11 208.542 219.886 213.55 219.003C218.558 218.121 221.743 210.952 217.578 209.937C213.413 208.922 200.895 197.848 210.724 196.505C220.552 195.162 225.072 193.07 225.072 193.07C225.072 193.07 230.455 191.344 238.561 162.709Z" fill="#66451D"/>
<path d="M233.354 183.665L234.801 180.408C230.223 179.582 227.558 178.293 222.718 175.282C226.114 180.048 228.335 182.096 233.354 183.665Z" fill="#66451D"/>
<path d="M230.64 117.309C230.046 131.048 233.54 139.118 243.025 141.516L262.054 142.675L279.994 133.033C283.244 139.281 280.974 142.59 273.381 148.325C273.467 154.52 275.962 155.907 282.396 156.693C283.197 161.252 283.099 163.53 276.36 164.266C277.079 170.313 278.788 172.326 286.317 171.19C289.396 176.351 290.438 179.158 285.092 183.255C285.097 190.884 288.006 192.132 295.994 191.44C298.159 198.009 298.943 201.427 293.668 203.387C288.402 207.719 288.457 209.764 290.577 213.154C295.596 218.491 298.509 220.426 304.194 218.596C308.083 223.114 307.703 225.401 305.282 229.31C305.796 235.221 307.843 237.411 317.285 237.614C317.339 244.83 315.079 247.17 307.231 248.507C311.921 251.718 314.02 253.546 315.976 256.901C308.361 259.967 308.376 263.046 309.293 268.819C317.615 273.438 318.035 276.874 314.36 283.881C313.644 290.227 316.074 291.7 322.859 292.525C327.543 300.035 332.097 299.389 340.945 296.407L345.806 306.755C354.851 311.042 359.674 310.998 367.638 304.639C366.745 309.357 367.972 311.539 375.396 314.031C386.682 314.09 390.002 310.851 393.244 302.157C401.613 316.397 402.549 308.223 411.441 305.59C427.556 310.436 426.346 306.443 431.752 298.425L437.775 292.206C447.605 295.135 443.591 292.892 450.126 283.345L448.472 267.051C456.159 266.79 460.387 266.544 463 260.007C467.291 251.291 468.028 246.777 461.029 240.588L469.528 232.776L475.785 219.896C475.1 209.968 480.371 206.996 469.219 206.442C479.308 203.513 478.931 198.271 477.294 191.676L477.256 191.491C475.7 183.976 474.22 176.83 461.419 177.402C468.152 168.051 472.297 159.291 456.744 148.751L446.545 143.488L445.525 133.444C448.908 124.006 448.301 119.262 432.929 113.927C426.64 105.13 422.843 99.3756 406.293 103.518C407.051 93.5817 406.669 90.2622 392.332 81.3456C382.242 74.0501 374.963 66.0298 364.07 71.8078L350.449 68.274C334.245 66.4699 323.643 61.1497 305.321 70.5725L293.038 73.8384C278.791 76.5081 272.178 76.6293 266.991 85.3747C251.183 91.5808 245.618 95.2826 243.779 107.027C231.549 106.607 237.125 107.456 230.64 117.309Z" fill="#1D0101"/>
</svg>
