<svg width="1440" height="602" viewBox="0 0 1440 602" fill="none" xmlns="http://www.w3.org/2000/svg">
<g clip-path="url(#clip0_798_316)">
<rect width="1440" height="602" transform="matrix(1 0 0 -1 0 602)" fill="#1B0042"/>
<path d="M1020.86 540.652C1237.03 543.233 1179.56 414.641 1475.45 550.301L1475.45 17.3008L-135.695 -2.98947L-146.05 488.301C-146.05 488.301 -10.482 583.572 82.6497 529.448C175.781 475.323 301.407 381.067 516.607 383.637C731.806 386.207 804.687 538.07 1020.86 540.652Z" fill="#F9A620"/>
<path d="M926.277 409.587C1145.4 410.302 1287.43 372.042 1475.95 502.301L1470.84 13.5428L-136.05 8.30114L-151.31 492.011C-151.31 492.011 -33.3483 429.454 50.0557 429.726C133.46 429.999 224.74 540.443 441.775 529.047C658.81 517.651 707.156 408.872 926.277 409.587Z" fill="#91A6FF" fill-opacity="0.7"/>
<path d="M1027.12 473.159C1247.97 470.044 1177.96 378.173 1476.45 490.801L1480.3 -1.75474L-139.233 21.087L-146.248 489.708C-146.248 489.708 -28.1004 536.887 68.6292 486.678C165.359 436.468 296.448 349.943 516.299 346.842C736.15 343.741 806.274 476.274 1027.12 473.159Z" fill="#FBB7C0" fill-opacity="0.7"/>
<path d="M295.827 484.14C74.8467 486.336 45.6568 379.469 -151.051 511.689L-151.051 -13.7034L1479.11 -13.6995L1479.11 474.608C1479.11 474.608 1350 524.338 1254.9 474.608C1159.8 424.878 1031.57 338.302 811.583 340.489C591.598 342.675 516.807 481.944 295.827 484.14Z" fill="#3C0092"/>
<path d="M335.25 132.16C332.007 132.16 329.298 132.587 327.122 133.44C324.946 134.251 322.642 135.595 320.21 137.472V131.072H360.53V137.472C358.098 135.595 355.815 134.251 353.682 133.44C351.549 132.587 348.818 132.16 345.49 132.16V176H335.25V132.16ZM364.572 176V131.072H374.812V154.688H374.94C375.793 151.019 377.031 147.947 378.652 145.472C380.273 142.955 382.087 141.077 384.092 139.84C386.14 138.603 388.209 137.984 390.3 137.984C392.263 137.984 394.076 138.453 395.74 139.392C397.404 140.288 398.727 141.568 399.708 143.232C400.732 144.853 401.244 146.709 401.244 148.8V176H391.004L391.324 149.696C391.367 147.136 390.919 145.173 389.98 143.808C389.041 142.4 387.825 141.696 386.332 141.696C384.839 141.696 383.26 142.485 381.596 144.064C379.932 145.643 378.46 147.947 377.18 150.976C375.943 154.005 375.153 157.589 374.812 161.728V176H364.572ZM427.679 176.96C423.839 176.96 420.255 176.149 416.927 174.528C413.599 172.864 410.932 170.496 408.927 167.424C406.921 164.352 405.919 160.768 405.919 156.672C405.919 152.704 406.9 149.312 408.863 146.496C410.825 143.637 413.364 141.504 416.479 140.096C419.636 138.645 422.943 137.92 426.399 137.92C429.471 137.92 432.329 138.496 434.975 139.648C437.62 140.757 439.732 142.443 441.311 144.704C442.932 146.965 443.743 149.696 443.743 152.896C443.743 154.475 443.529 156.053 443.103 157.632H416.159C416.244 161.472 416.735 164.757 417.631 167.488C418.569 170.176 419.807 172.224 421.343 173.632C422.921 175.04 424.713 175.744 426.719 175.744C428.895 175.744 431.241 174.869 433.759 173.12C436.276 171.328 438.815 168.704 441.375 165.248L443.487 171.648C441.183 173.397 438.665 174.72 435.935 175.616C433.204 176.512 430.452 176.96 427.679 176.96ZM433.887 156.544C434.143 155.136 434.271 153.771 434.271 152.448C434.271 149.589 433.908 147.157 433.183 145.152C432.457 143.147 431.497 141.653 430.303 140.672C429.108 139.691 427.807 139.2 426.399 139.2C424.735 139.2 423.113 139.883 421.535 141.248C419.999 142.571 418.719 144.555 417.695 147.2C416.713 149.803 416.201 152.917 416.159 156.544H433.887ZM482.899 176.96C479.059 176.96 475.645 176.277 472.659 174.912C469.715 173.547 467.389 171.499 465.683 168.768C463.976 165.995 463.123 162.645 463.123 158.72V131.072H473.427V164.928C473.427 168.256 474.28 170.901 475.987 172.864C477.736 174.827 480.04 175.808 482.899 175.808C485.715 175.808 487.955 174.827 489.619 172.864C491.325 170.901 492.179 168.256 492.179 164.928V131.072H502.419V158.72C502.419 162.645 501.587 165.995 499.923 168.768C498.259 171.499 495.955 173.547 493.011 174.912C490.109 176.277 486.739 176.96 482.899 176.96ZM520.823 176H510.583V131.072H520.823V176ZM544.514 177.216C541.911 177.216 539.415 176.64 537.026 175.488C534.637 174.336 532.717 172.715 531.266 170.624C529.815 168.491 529.09 166.059 529.09 163.328V140.096H525.25V139.008H530.946C533.122 137.685 534.871 135.637 536.194 132.864C537.517 130.048 538.178 127.317 538.178 124.672H539.33V139.008H548.61V140.096H539.33V169.728C539.33 171.819 539.693 173.419 540.418 174.528C541.143 175.595 542.103 176.128 543.298 176.128C545.005 176.128 546.818 175.168 548.738 173.248C550.701 171.285 552.493 168.661 554.114 165.376L556.354 171.52C554.903 173.397 553.133 174.827 551.042 175.808C548.951 176.747 546.775 177.216 544.514 177.216ZM563.883 136.32C562.432 136.32 561.195 135.808 560.171 134.784C559.147 133.76 558.635 132.523 558.635 131.072C558.635 129.579 559.147 128.341 560.171 127.36C561.195 126.336 562.432 125.824 563.883 125.824C565.376 125.824 566.613 126.336 567.595 127.36C568.619 128.341 569.131 129.579 569.131 131.072C569.131 132.523 568.619 133.76 567.595 134.784C566.613 135.808 565.376 136.32 563.883 136.32ZM569.003 176H558.763V139.008H569.003V176ZM576.26 176V139.008H586.5V150.144H586.628C587.737 146.347 589.529 143.36 592.003 141.184C594.478 139.008 597.102 137.92 599.876 137.92C602.734 137.92 605.017 138.944 606.724 140.992C608.43 142.997 609.284 145.856 609.284 149.568H609.476C610.542 145.813 612.206 142.933 614.468 140.928C616.729 138.923 619.182 137.92 621.828 137.92C624.729 137.92 627.118 138.987 628.996 141.12C630.873 143.253 631.812 146.24 631.812 150.08V176H621.572V149.056C621.572 146.795 621.166 145.109 620.356 144C619.588 142.848 618.628 142.272 617.476 142.272C615.684 142.272 614.02 143.317 612.484 145.408C610.99 147.456 609.988 150.379 609.476 154.176V176H599.236V149.056C599.236 146.667 598.809 144.875 597.956 143.68C597.102 142.485 596.078 141.888 594.884 141.888C593.646 141.888 592.452 142.4 591.3 143.424C590.148 144.448 589.145 145.941 588.292 147.904C587.438 149.824 586.841 152.128 586.5 154.816V176H576.26ZM649.601 176.96C646.87 176.96 644.566 176.469 642.689 175.488C640.812 174.464 639.404 173.141 638.465 171.52C637.526 169.899 637.057 168.128 637.057 166.208C637.057 162.581 638.273 159.531 640.705 157.056C643.137 154.539 646.102 152.512 649.601 150.976C653.142 149.44 657.473 147.925 662.593 146.432C662.593 143.957 662.124 142.08 661.185 140.8C660.246 139.52 658.902 138.88 657.153 138.88C654.764 138.88 652.31 139.755 649.793 141.504C647.318 143.253 645.078 145.643 643.073 148.672L641.153 141.312C643.884 140.203 646.7 139.349 649.601 138.752C652.545 138.112 655.34 137.792 657.985 137.792C662.422 137.792 666.006 138.731 668.737 140.608C671.468 142.443 672.833 145.323 672.833 149.248V176H662.593V170.048C660.929 172.011 658.924 173.653 656.577 174.976C654.273 176.299 651.948 176.96 649.601 176.96ZM654.401 173.376C655.681 173.376 657.025 172.971 658.433 172.16C659.884 171.349 661.27 170.283 662.593 168.96V147.52C657.217 149.141 653.313 151.253 650.881 153.856C648.492 156.416 647.297 159.787 647.297 163.968C647.297 166.784 647.958 169.067 649.281 170.816C650.646 172.523 652.353 173.376 654.401 173.376ZM695.764 177.216C693.161 177.216 690.665 176.64 688.276 175.488C685.887 174.336 683.967 172.715 682.516 170.624C681.065 168.491 680.34 166.059 680.34 163.328V140.096H676.5V139.008H682.196C684.372 137.685 686.121 135.637 687.444 132.864C688.767 130.048 689.428 127.317 689.428 124.672H690.58V139.008H699.86V140.096H690.58V169.728C690.58 171.819 690.943 173.419 691.668 174.528C692.393 175.595 693.353 176.128 694.548 176.128C696.255 176.128 698.068 175.168 699.988 173.248C701.951 171.285 703.743 168.661 705.364 165.376L707.604 171.52C706.153 173.397 704.383 174.827 702.292 175.808C700.201 176.747 698.025 177.216 695.764 177.216ZM728.991 176.96C725.151 176.96 721.567 176.149 718.239 174.528C714.911 172.864 712.244 170.496 710.239 167.424C708.234 164.352 707.231 160.768 707.231 156.672C707.231 152.704 708.212 149.312 710.175 146.496C712.138 143.637 714.676 141.504 717.791 140.096C720.948 138.645 724.255 137.92 727.711 137.92C730.783 137.92 733.642 138.496 736.287 139.648C738.932 140.757 741.044 142.443 742.623 144.704C744.244 146.965 745.055 149.696 745.055 152.896C745.055 154.475 744.842 156.053 744.415 157.632H717.471C717.556 161.472 718.047 164.757 718.943 167.488C719.882 170.176 721.119 172.224 722.655 173.632C724.234 175.04 726.026 175.744 728.031 175.744C730.207 175.744 732.554 174.869 735.071 173.12C737.588 171.328 740.127 168.704 742.687 165.248L744.799 171.648C742.495 173.397 739.978 174.72 737.247 175.616C734.516 176.512 731.764 176.96 728.991 176.96ZM735.199 156.544C735.455 155.136 735.583 153.771 735.583 152.448C735.583 149.589 735.22 147.157 734.495 145.152C733.77 143.147 732.81 141.653 731.615 140.672C730.42 139.691 729.119 139.2 727.711 139.2C726.047 139.2 724.426 139.883 722.847 141.248C721.311 142.571 720.031 144.555 719.007 147.2C718.026 149.803 717.514 152.917 717.471 156.544H735.199ZM777.875 132.16C774.632 132.16 771.923 132.587 769.747 133.44C767.571 134.251 765.267 135.595 762.835 137.472V131.072H803.155V137.472C800.723 135.595 798.44 134.251 796.307 133.44C794.174 132.587 791.443 132.16 788.115 132.16V176H777.875V132.16ZM807.197 176V139.008H817.437V156.672H817.501C818.354 153.088 819.528 149.909 821.021 147.136C822.557 144.32 824.328 142.123 826.333 140.544C828.338 138.923 830.45 138.112 832.669 138.112C833.906 138.112 835.229 138.411 836.637 139.008L835.549 145.408C833.714 144.555 831.922 144.128 830.173 144.128C827.144 144.128 824.562 145.493 822.429 148.224C820.296 150.912 818.632 154.773 817.437 159.808V176H807.197ZM847.601 176.96C844.87 176.96 842.566 176.469 840.689 175.488C838.812 174.464 837.404 173.141 836.465 171.52C835.526 169.899 835.057 168.128 835.057 166.208C835.057 162.581 836.273 159.531 838.705 157.056C841.137 154.539 844.102 152.512 847.601 150.976C851.142 149.44 855.473 147.925 860.593 146.432C860.593 143.957 860.124 142.08 859.185 140.8C858.246 139.52 856.902 138.88 855.153 138.88C852.764 138.88 850.31 139.755 847.793 141.504C845.318 143.253 843.078 145.643 841.073 148.672L839.153 141.312C841.884 140.203 844.7 139.349 847.601 138.752C850.545 138.112 853.34 137.792 855.985 137.792C860.422 137.792 864.006 138.731 866.737 140.608C869.468 142.443 870.833 145.323 870.833 149.248V176H860.593V170.048C858.929 172.011 856.924 173.653 854.577 174.976C852.273 176.299 849.948 176.96 847.601 176.96ZM852.401 173.376C853.681 173.376 855.025 172.971 856.433 172.16C857.884 171.349 859.27 170.283 860.593 168.96V147.52C855.217 149.141 851.313 151.253 848.881 153.856C846.492 156.416 845.297 159.787 845.297 163.968C845.297 166.784 845.958 169.067 847.281 170.816C848.646 172.523 850.353 173.376 852.401 173.376ZM905.281 137.92C906.902 137.92 908.438 138.283 909.889 139.008C911.382 139.691 912.598 140.8 913.537 142.336C914.476 143.829 914.945 145.707 914.945 147.968V176H904.705V148.544C904.705 146.069 904.3 144.235 903.489 143.04C902.721 141.803 901.654 141.184 900.289 141.184C898.497 141.184 896.449 142.144 894.145 144.064C891.841 145.941 889.772 148.373 887.937 151.36V176H877.697V139.072H887.937V149.504C890.497 145.621 893.292 142.72 896.321 140.8C899.35 138.88 902.337 137.92 905.281 137.92ZM936.114 177.088C931.292 177.088 926.087 176.256 920.498 174.592L922.098 168.192C925.426 170.837 928.562 172.693 931.506 173.76C934.45 174.784 937.074 175.296 939.378 175.296C941.298 175.296 942.834 174.955 943.986 174.272C945.138 173.589 945.756 172.715 945.842 171.648C945.842 169.728 944.796 167.915 942.706 166.208C940.658 164.501 937.564 162.432 933.426 160C930.482 158.251 928.092 156.757 926.258 155.52C924.466 154.24 922.951 152.853 921.714 151.36C920.476 149.867 919.858 148.331 919.858 146.752C919.858 143.893 921.735 141.739 925.49 140.288C929.244 138.795 933.831 138.048 939.25 138.048C943.815 138.048 948.103 138.517 952.114 139.456L951.09 145.856C948.786 144.149 945.948 142.677 942.578 141.44C939.207 140.203 936.306 139.584 933.874 139.584C932.039 139.584 930.567 139.904 929.458 140.544C928.391 141.184 927.858 142.123 927.858 143.36C927.858 144.384 928.604 145.451 930.098 146.56C931.634 147.669 934.066 149.184 937.394 151.104C940.807 153.067 943.538 154.752 945.586 156.16C947.676 157.568 949.468 159.168 950.962 160.96C952.498 162.752 953.266 164.651 953.266 166.656C953.223 170.24 951.538 172.885 948.21 174.592C944.924 176.256 940.892 177.088 936.114 177.088ZM969.01 176H958.77V131.072H969.01V176ZM986.976 176.96C984.245 176.96 981.941 176.469 980.064 175.488C978.187 174.464 976.779 173.141 975.84 171.52C974.901 169.899 974.432 168.128 974.432 166.208C974.432 162.581 975.648 159.531 978.08 157.056C980.512 154.539 983.477 152.512 986.976 150.976C990.517 149.44 994.848 147.925 999.968 146.432C999.968 143.957 999.499 142.08 998.56 140.8C997.621 139.52 996.277 138.88 994.528 138.88C992.139 138.88 989.685 139.755 987.168 141.504C984.693 143.253 982.453 145.643 980.448 148.672L978.528 141.312C981.259 140.203 984.075 139.349 986.976 138.752C989.92 138.112 992.715 137.792 995.36 137.792C999.797 137.792 1003.38 138.731 1006.11 140.608C1008.84 142.443 1010.21 145.323 1010.21 149.248V176H999.968V170.048C998.304 172.011 996.299 173.653 993.952 174.976C991.648 176.299 989.323 176.96 986.976 176.96ZM991.776 173.376C993.056 173.376 994.4 172.971 995.808 172.16C997.259 171.349 998.645 170.283 999.968 168.96V147.52C994.592 149.141 990.688 151.253 988.256 153.856C985.867 156.416 984.672 159.787 984.672 163.968C984.672 166.784 985.333 169.067 986.656 170.816C988.021 172.523 989.728 173.376 991.776 173.376ZM1033.14 177.216C1030.54 177.216 1028.04 176.64 1025.65 175.488C1023.26 174.336 1021.34 172.715 1019.89 170.624C1018.44 168.491 1017.72 166.059 1017.72 163.328V140.096H1013.88V139.008H1019.57C1021.75 137.685 1023.5 135.637 1024.82 132.864C1026.14 130.048 1026.8 127.317 1026.8 124.672H1027.96V139.008H1037.24V140.096H1027.96V169.728C1027.96 171.819 1028.32 173.419 1029.04 174.528C1029.77 175.595 1030.73 176.128 1031.92 176.128C1033.63 176.128 1035.44 175.168 1037.36 173.248C1039.33 171.285 1041.12 168.661 1042.74 165.376L1044.98 171.52C1043.53 173.397 1041.76 174.827 1039.67 175.808C1037.58 176.747 1035.4 177.216 1033.14 177.216ZM1064.45 177.088C1060.44 177.088 1056.94 176.341 1053.95 174.848C1050.96 173.312 1048.66 171.093 1047.04 168.192C1045.42 165.291 1044.61 161.813 1044.61 157.76C1044.61 153.621 1045.42 150.08 1047.04 147.136C1048.66 144.149 1050.96 141.888 1053.95 140.352C1056.94 138.773 1060.44 137.984 1064.45 137.984C1068.41 137.984 1071.87 138.773 1074.81 140.352C1077.8 141.888 1080.1 144.149 1081.73 147.136C1083.35 150.08 1084.16 153.621 1084.16 157.76C1084.16 161.813 1083.35 165.291 1081.73 168.192C1080.1 171.093 1077.8 173.312 1074.81 174.848C1071.87 176.341 1068.41 177.088 1064.45 177.088ZM1064.45 175.936C1066.49 175.936 1068.29 175.061 1069.82 173.312C1071.36 171.52 1072.53 169.237 1073.34 166.464C1074.15 163.648 1074.56 160.747 1074.56 157.76C1074.56 154.944 1074.15 152.085 1073.34 149.184C1072.53 146.283 1071.36 143.872 1069.82 141.952C1068.29 140.032 1066.49 139.072 1064.45 139.072C1062.31 139.072 1060.48 140.032 1058.94 141.952C1057.41 143.829 1056.23 146.219 1055.42 149.12C1054.65 152.021 1054.27 154.901 1054.27 157.76C1054.27 160.789 1054.65 163.691 1055.42 166.464C1056.23 169.237 1057.41 171.52 1058.94 173.312C1060.48 175.061 1062.31 175.936 1064.45 175.936ZM1089.07 176V139.008H1099.31V156.672H1099.38C1100.23 153.088 1101.4 149.909 1102.9 147.136C1104.43 144.32 1106.2 142.123 1108.21 140.544C1110.21 138.923 1112.33 138.112 1114.54 138.112C1115.78 138.112 1117.1 138.411 1118.51 139.008L1117.42 145.408C1115.59 144.555 1113.8 144.128 1112.05 144.128C1109.02 144.128 1106.44 145.493 1104.3 148.224C1102.17 150.912 1100.51 154.773 1099.31 159.808V176H1089.07ZM425.318 241V213.976H435.062C435.99 213.976 436.934 214.024 437.894 214.12C438.886 214.216 439.814 214.408 440.678 214.696C441.574 214.952 442.374 215.352 443.078 215.896C443.782 216.408 444.326 217.096 444.71 217.96C445.126 218.792 445.334 219.848 445.334 221.128C445.334 222.152 445.126 223.112 444.71 224.008C444.326 224.904 443.606 225.624 442.55 226.168C441.526 226.68 440.038 226.968 438.086 227.032V227.224C440.358 227.224 442.102 227.544 443.318 228.184C444.534 228.792 445.366 229.592 445.814 230.584C446.294 231.576 446.534 232.68 446.534 233.896C446.534 235.176 446.31 236.248 445.862 237.112C445.414 237.976 444.806 238.664 444.038 239.176C443.302 239.688 442.454 240.072 441.494 240.328C440.566 240.584 439.574 240.76 438.518 240.856C437.494 240.952 436.518 241 435.59 241H425.318ZM428.39 238.408H435.35C436.822 238.408 438.15 238.312 439.334 238.12C440.55 237.896 441.51 237.448 442.214 236.776C442.95 236.072 443.318 235 443.318 233.56C443.318 232.056 442.934 230.936 442.166 230.2C441.398 229.464 440.374 228.968 439.094 228.712C437.814 228.456 436.39 228.328 434.822 228.328H428.39V238.408ZM428.39 225.832H434.726C436.23 225.832 437.542 225.736 438.662 225.544C439.782 225.352 440.646 224.952 441.254 224.344C441.894 223.704 442.214 222.728 442.214 221.416C442.214 219.912 441.862 218.824 441.158 218.152C440.486 217.48 439.574 217.064 438.422 216.904C437.302 216.712 436.086 216.616 434.773 216.616H428.39V225.832ZM457.291 241.48C456.043 241.48 454.971 241.288 454.075 240.904C453.211 240.52 452.491 240.008 451.915 239.368C451.371 238.696 450.955 237.944 450.667 237.112C450.379 236.248 450.171 235.352 450.043 234.424C449.947 233.464 449.899 232.504 449.899 231.544V221.464H452.971V231.592C452.971 232.872 453.099 234.056 453.355 235.144C453.643 236.232 454.171 237.096 454.939 237.736C455.707 238.376 456.843 238.696 458.347 238.696C459.787 238.696 460.907 238.36 461.707 237.688C462.539 237.016 463.147 236.168 463.531 235.144C463.915 234.088 464.139 232.984 464.203 231.832V221.464H467.371V241H464.731L464.203 236.632H464.107C463.979 237.048 463.755 237.528 463.435 238.072C463.147 238.616 462.731 239.144 462.187 239.656C461.643 240.168 460.955 240.6 460.123 240.952C459.323 241.304 458.379 241.48 457.291 241.48ZM472.09 241V221.464H475.21V241H472.09ZM473.674 218.536C472.874 218.536 472.33 218.328 472.042 217.912C471.754 217.496 471.61 217.016 471.61 216.472C471.61 215.96 471.754 215.512 472.042 215.128C472.33 214.712 472.874 214.504 473.674 214.504C474.474 214.504 475.002 214.712 475.258 215.128C475.514 215.512 475.642 215.96 475.642 216.472C475.642 217.016 475.514 217.496 475.258 217.912C475.002 218.328 474.474 218.536 473.674 218.536ZM480.199 241V213.976H483.223V241H480.199ZM496.423 241.48C494.567 241.48 492.999 241.048 491.719 240.184C490.471 239.288 489.527 238.088 488.887 236.584C488.247 235.08 487.927 233.384 487.927 231.496C487.927 229.544 488.247 227.816 488.887 226.312C489.559 224.776 490.519 223.592 491.767 222.76C493.047 221.896 494.615 221.464 496.471 221.464C497.783 221.464 498.887 221.688 499.783 222.136C500.679 222.552 501.383 223.064 501.895 223.672C502.439 224.28 502.839 224.84 503.095 225.352C503.351 225.864 503.511 226.2 503.575 226.36H503.671V213.976H506.839V241H504.199L503.719 236.68H503.623C503.559 236.84 503.383 237.176 503.095 237.688C502.807 238.2 502.375 238.744 501.799 239.32C501.255 239.896 500.535 240.408 499.639 240.856C498.775 241.272 497.703 241.48 496.423 241.48ZM497.191 238.744C498.471 238.744 499.591 238.456 500.551 237.88C501.511 237.304 502.263 236.472 502.807 235.384C503.351 234.264 503.623 232.968 503.623 231.496C503.623 230.024 503.367 228.744 502.855 227.656C502.343 226.568 501.623 225.736 500.695 225.16C499.767 224.584 498.679 224.296 497.431 224.296C495.927 224.296 494.695 224.648 493.735 225.352C492.775 226.024 492.071 226.904 491.623 227.992C491.175 229.08 490.951 230.248 490.951 231.496C490.951 232.712 491.143 233.88 491.527 235C491.943 236.088 492.615 236.984 493.543 237.688C494.471 238.392 495.687 238.744 497.191 238.744ZM511.605 241V221.464H514.725V241H511.605ZM513.189 218.536C512.389 218.536 511.845 218.328 511.557 217.912C511.269 217.496 511.125 217.016 511.125 216.472C511.125 215.96 511.269 215.512 511.557 215.128C511.845 214.712 512.389 214.504 513.189 214.504C513.989 214.504 514.517 214.712 514.773 215.128C515.029 215.512 515.157 215.96 515.157 216.472C515.157 217.016 515.029 217.496 514.773 217.912C514.517 218.328 513.989 218.536 513.189 218.536ZM519.043 241V221.464H521.683L522.211 226.312H522.307C522.371 226.152 522.515 225.816 522.739 225.304C522.995 224.76 523.379 224.2 523.891 223.624C524.403 223.048 525.091 222.552 525.955 222.136C526.851 221.688 527.971 221.464 529.315 221.464C530.659 221.464 531.779 221.672 532.675 222.088C533.571 222.472 534.275 223.016 534.787 223.72C535.331 224.392 535.731 225.16 535.987 226.024C536.243 226.888 536.403 227.784 536.467 228.712C536.563 229.608 536.611 230.488 536.611 231.352V241H533.635V231.352C533.635 229.944 533.475 228.712 533.155 227.656C532.867 226.568 532.339 225.736 531.571 225.16C530.803 224.552 529.715 224.248 528.307 224.248C526.867 224.248 525.699 224.6 524.803 225.304C523.907 225.976 523.251 226.888 522.835 228.04C522.419 229.16 522.211 230.392 522.211 231.736V241H519.043ZM545.265 249.064V246.136H555.009V236.68H554.913C554.849 236.84 554.673 237.176 554.385 237.688C554.129 238.2 553.713 238.744 553.137 239.32C552.593 239.896 551.873 240.408 550.977 240.856C550.113 241.272 549.057 241.48 547.809 241.48C545.921 241.48 544.337 241.048 543.057 240.184C541.809 239.288 540.865 238.088 540.225 236.584C539.585 235.08 539.265 233.384 539.265 231.496C539.265 229.544 539.585 227.816 540.225 226.312C540.865 224.776 541.825 223.592 543.105 222.76C544.385 221.896 545.969 221.464 547.857 221.464C549.137 221.464 550.225 221.688 551.121 222.136C552.017 222.552 552.721 223.064 553.233 223.672C553.777 224.28 554.177 224.84 554.433 225.352C554.689 225.864 554.849 226.2 554.913 226.36H555.009V221.464H558.177V244.36C558.177 245.384 558.049 246.248 557.793 246.952C557.569 247.656 557.153 248.184 556.545 248.536C555.969 248.888 555.185 249.064 554.193 249.064H545.265ZM548.481 238.744C549.761 238.744 550.881 238.456 551.841 237.88C552.833 237.304 553.585 236.472 554.097 235.384C554.641 234.264 554.913 232.968 554.913 231.496C554.913 230.024 554.657 228.744 554.145 227.656C553.665 226.568 552.961 225.736 552.033 225.16C551.105 224.584 550.017 224.296 548.769 224.296C547.265 224.296 546.033 224.648 545.073 225.352C544.113 226.024 543.409 226.904 542.961 227.992C542.513 229.08 542.289 230.248 542.289 231.496C542.289 232.712 542.481 233.88 542.865 235C543.281 236.088 543.937 236.984 544.833 237.688C545.761 238.392 546.977 238.744 548.481 238.744ZM573.652 241V221.464H576.532L576.676 226.312H576.772C576.836 226.088 576.98 225.72 577.204 225.208C577.46 224.664 577.812 224.104 578.26 223.528C578.74 222.952 579.364 222.472 580.132 222.088C580.9 221.672 581.876 221.464 583.06 221.464C584.276 221.464 585.268 221.704 586.036 222.184C586.804 222.632 587.396 223.224 587.812 223.96C588.228 224.696 588.548 225.48 588.772 226.312H588.868C588.932 226.056 589.092 225.672 589.348 225.16C589.604 224.648 589.988 224.104 590.5 223.528C591.012 222.952 591.668 222.472 592.468 222.088C593.3 221.672 594.308 221.464 595.492 221.464C596.74 221.464 597.764 221.72 598.564 222.232C599.396 222.712 600.052 223.368 600.532 224.2C601.012 225 601.348 225.848 601.54 226.744C601.764 227.64 601.908 228.504 601.972 229.336C602.036 230.168 602.068 230.84 602.068 231.352V241H599.044V231.352C599.044 230.808 599.012 230.152 598.948 229.384C598.916 228.584 598.756 227.8 598.468 227.032C598.212 226.232 597.78 225.576 597.172 225.064C596.564 224.52 595.7 224.248 594.58 224.248C593.364 224.248 592.356 224.6 591.556 225.304C590.788 226.008 590.228 226.936 589.876 228.088C589.524 229.208 589.348 230.424 589.348 231.736V241H586.372V231.352C586.372 230.808 586.34 230.152 586.276 229.384C586.212 228.584 586.052 227.8 585.796 227.032C585.54 226.232 585.108 225.576 584.5 225.064C583.892 224.52 583.028 224.248 581.908 224.248C580.66 224.248 579.652 224.6 578.884 225.304C578.116 226.008 577.556 226.936 577.204 228.088C576.852 229.208 576.676 230.424 576.676 231.736V241H573.652ZM603.887 249.736V247.24H606.575C606.991 247.24 607.359 247.176 607.679 247.048C607.999 246.92 608.319 246.648 608.639 246.232C608.959 245.816 609.311 245.176 609.695 244.312L611.759 239.848L604.079 221.464H607.295L613.295 236.584L619.679 221.464H622.943L612.479 244.744C611.999 245.832 611.567 246.696 611.183 247.336C610.799 248.008 610.399 248.52 609.983 248.872C609.567 249.224 609.103 249.448 608.591 249.544C608.111 249.672 607.519 249.736 606.815 249.736H603.887ZM647.689 241.48C646.441 241.48 645.385 241.272 644.521 240.856C643.657 240.408 642.937 239.896 642.361 239.32C641.817 238.744 641.401 238.2 641.113 237.688C640.857 237.176 640.697 236.84 640.633 236.68H640.537V249.064H637.369V221.464H640.009L640.537 226.36H640.633C640.697 226.2 640.857 225.864 641.113 225.352C641.369 224.84 641.753 224.28 642.265 223.672C642.809 223.064 643.513 222.552 644.377 222.136C645.273 221.688 646.377 221.464 647.689 221.464C649.577 221.464 651.161 221.896 652.441 222.76C653.721 223.624 654.681 224.824 655.321 226.36C655.961 227.864 656.281 229.592 656.281 231.544C656.281 233.464 655.945 235.176 655.273 236.68C654.633 238.184 653.673 239.368 652.393 240.232C651.113 241.064 649.545 241.48 647.689 241.48ZM647.065 238.744C648.569 238.744 649.769 238.392 650.665 237.688C651.593 236.984 652.249 236.088 652.633 235C653.049 233.88 653.257 232.712 653.257 231.496C653.257 230.248 653.033 229.08 652.585 227.992C652.137 226.904 651.433 226.024 650.473 225.352C649.545 224.648 648.313 224.296 646.777 224.296C645.529 224.296 644.441 224.584 643.513 225.16C642.585 225.736 641.865 226.568 641.353 227.656C640.873 228.744 640.633 230.024 640.633 231.496C640.633 232.968 640.889 234.264 641.401 235.384C641.945 236.472 642.697 237.304 643.657 237.88C644.649 238.456 645.785 238.744 647.065 238.744ZM668.406 241.48C666.326 241.48 664.582 241.048 663.174 240.184C661.798 239.32 660.758 238.136 660.054 236.632C659.382 235.128 659.046 233.416 659.046 231.496C659.046 229.544 659.382 227.816 660.054 226.312C660.758 224.776 661.798 223.576 663.174 222.712C664.582 221.848 666.326 221.416 668.406 221.416C671.446 221.416 673.766 222.344 675.366 224.2C676.966 226.024 677.766 228.456 677.766 231.496C677.766 233.384 677.43 235.08 676.758 236.584C676.086 238.088 675.062 239.288 673.686 240.184C672.31 241.048 670.55 241.48 668.406 241.48ZM668.406 238.792C670.102 238.792 671.398 238.424 672.294 237.688C673.19 236.952 673.814 236.024 674.166 234.904C674.55 233.752 674.742 232.584 674.742 231.4C674.742 230.216 674.55 229.048 674.166 227.896C673.814 226.744 673.19 225.8 672.294 225.064C671.398 224.328 670.102 223.96 668.406 223.96C666.774 223.96 665.478 224.328 664.518 225.064C663.59 225.8 662.95 226.744 662.598 227.896C662.246 229.048 662.07 230.216 662.07 231.4C662.07 232.584 662.246 233.752 662.598 234.904C662.95 236.024 663.59 236.952 664.518 237.688C665.478 238.424 666.774 238.792 668.406 238.792ZM681.992 241V221.464H684.776L685.112 227.08L685.064 231.304V241H681.992ZM685.064 231.88L684.92 227.608C684.984 226.872 685.176 226.136 685.496 225.4C685.816 224.664 686.264 224.008 686.84 223.432C687.448 222.824 688.216 222.344 689.144 221.992C690.072 221.64 691.16 221.464 692.408 221.464H693.32V224.872H692.359C690.824 224.872 689.576 225.048 688.616 225.4C687.656 225.72 686.92 226.2 686.408 226.84C685.896 227.448 685.544 228.184 685.352 229.048C685.16 229.912 685.064 230.856 685.064 231.88ZM702.158 241C701.006 241 700.19 240.68 699.71 240.04C699.23 239.4 698.99 238.52 698.99 237.4V223.336H701.966V238.504H706.526V241H702.158ZM695.918 223.768V221.464C696.686 221.464 697.294 221.432 697.742 221.368C698.222 221.272 698.574 221.08 698.798 220.792C699.022 220.472 699.166 219.96 699.23 219.256C699.294 218.552 699.326 217.608 699.326 216.424H701.966V221.464H706.478V223.768H695.918ZM712.351 241.144V217.144C712.351 216.024 712.591 215.144 713.071 214.504C713.551 213.864 714.367 213.544 715.519 213.544H721.327V216.088H715.471V241.144H712.351ZM709.327 223.768V221.464H720.991V223.768H709.327ZM732.203 241.48C730.123 241.48 728.379 241.048 726.971 240.184C725.595 239.32 724.555 238.136 723.851 236.632C723.179 235.128 722.843 233.416 722.843 231.496C722.843 229.544 723.179 227.816 723.851 226.312C724.555 224.776 725.595 223.576 726.971 222.712C728.379 221.848 730.123 221.416 732.203 221.416C735.243 221.416 737.563 222.344 739.163 224.2C740.763 226.024 741.563 228.456 741.563 231.496C741.563 233.384 741.227 235.08 740.555 236.584C739.883 238.088 738.859 239.288 737.483 240.184C736.107 241.048 734.347 241.48 732.203 241.48ZM732.203 238.792C733.899 238.792 735.195 238.424 736.091 237.688C736.987 236.952 737.611 236.024 737.963 234.904C738.347 233.752 738.539 232.584 738.539 231.4C738.539 230.216 738.347 229.048 737.963 227.896C737.611 226.744 736.987 225.8 736.091 225.064C735.195 224.328 733.899 223.96 732.203 223.96C730.571 223.96 729.275 224.328 728.315 225.064C727.387 225.8 726.747 226.744 726.395 227.896C726.043 229.048 725.867 230.216 725.867 231.4C725.867 232.584 726.043 233.752 726.395 234.904C726.747 236.024 727.387 236.952 728.315 237.688C729.275 238.424 730.571 238.792 732.203 238.792ZM745.98 241V213.976H749.004V241H745.98ZM753.996 241V221.464H757.116V241H753.996ZM755.58 218.536C754.78 218.536 754.236 218.328 753.948 217.912C753.66 217.496 753.516 217.016 753.516 216.472C753.516 215.96 753.66 215.512 753.948 215.128C754.236 214.712 754.78 214.504 755.58 214.504C756.38 214.504 756.908 214.712 757.164 215.128C757.42 215.512 757.548 215.96 757.548 216.472C757.548 217.016 757.42 217.496 757.164 217.912C756.908 218.328 756.38 218.536 755.58 218.536ZM770.265 241.48C768.185 241.48 766.441 241.048 765.033 240.184C763.657 239.32 762.617 238.136 761.913 236.632C761.241 235.128 760.905 233.416 760.905 231.496C760.905 229.544 761.241 227.816 761.913 226.312C762.617 224.776 763.657 223.576 765.033 222.712C766.441 221.848 768.185 221.416 770.265 221.416C773.305 221.416 775.625 222.344 777.225 224.2C778.825 226.024 779.625 228.456 779.625 231.496C779.625 233.384 779.289 235.08 778.617 236.584C777.945 238.088 776.921 239.288 775.545 240.184C774.169 241.048 772.409 241.48 770.265 241.48ZM770.265 238.792C771.961 238.792 773.257 238.424 774.153 237.688C775.049 236.952 775.673 236.024 776.025 234.904C776.409 233.752 776.601 232.584 776.601 231.4C776.601 230.216 776.409 229.048 776.025 227.896C775.673 226.744 775.049 225.8 774.153 225.064C773.257 224.328 771.961 223.96 770.265 223.96C768.633 223.96 767.337 224.328 766.377 225.064C765.449 225.8 764.809 226.744 764.457 227.896C764.105 229.048 763.929 230.216 763.929 231.4C763.929 232.584 764.105 233.752 764.457 234.904C764.809 236.024 765.449 236.952 766.377 237.688C767.337 238.424 768.633 238.792 770.265 238.792ZM796.586 241.144V217.144C796.586 216.024 796.826 215.144 797.306 214.504C797.786 213.864 798.602 213.544 799.754 213.544H805.562V216.088H799.706V241.144H796.586ZM793.562 223.768V221.464H805.226V223.768H793.562ZM808.085 241V221.464H810.869L811.205 227.08L811.157 231.304V241H808.085ZM811.157 231.88L811.013 227.608C811.077 226.872 811.269 226.136 811.589 225.4C811.909 224.664 812.357 224.008 812.933 223.432C813.541 222.824 814.309 222.344 815.237 221.992C816.165 221.64 817.253 221.464 818.501 221.464H819.413V224.872H818.453C816.917 224.872 815.669 225.048 814.709 225.4C813.749 225.72 813.013 226.2 812.501 226.84C811.989 227.448 811.637 228.184 811.445 229.048C811.253 229.912 811.157 230.856 811.157 231.88ZM830.594 241.48C828.514 241.48 826.77 241.048 825.362 240.184C823.986 239.32 822.946 238.136 822.242 236.632C821.57 235.128 821.234 233.416 821.234 231.496C821.234 229.544 821.57 227.816 822.242 226.312C822.946 224.776 823.986 223.576 825.362 222.712C826.77 221.848 828.514 221.416 830.594 221.416C833.634 221.416 835.954 222.344 837.554 224.2C839.154 226.024 839.954 228.456 839.954 231.496C839.954 233.384 839.618 235.08 838.946 236.584C838.274 238.088 837.25 239.288 835.874 240.184C834.498 241.048 832.738 241.48 830.594 241.48ZM830.594 238.792C832.29 238.792 833.586 238.424 834.482 237.688C835.378 236.952 836.002 236.024 836.354 234.904C836.738 233.752 836.93 232.584 836.93 231.4C836.93 230.216 836.738 229.048 836.354 227.896C836.002 226.744 835.378 225.8 834.482 225.064C833.586 224.328 832.29 223.96 830.594 223.96C828.962 223.96 827.666 224.328 826.706 225.064C825.778 225.8 825.138 226.744 824.786 227.896C824.434 229.048 824.258 230.216 824.258 231.4C824.258 232.584 824.434 233.752 824.786 234.904C825.138 236.024 825.778 236.952 826.706 237.688C827.666 238.424 828.962 238.792 830.594 238.792ZM843.699 241V221.464H846.579L846.723 226.312H846.819C846.883 226.088 847.027 225.72 847.251 225.208C847.507 224.664 847.859 224.104 848.307 223.528C848.787 222.952 849.411 222.472 850.179 222.088C850.947 221.672 851.923 221.464 853.107 221.464C854.323 221.464 855.315 221.704 856.083 222.184C856.851 222.632 857.443 223.224 857.859 223.96C858.275 224.696 858.595 225.48 858.819 226.312H858.915C858.979 226.056 859.139 225.672 859.395 225.16C859.651 224.648 860.035 224.104 860.547 223.528C861.059 222.952 861.715 222.472 862.515 222.088C863.347 221.672 864.355 221.464 865.539 221.464C866.787 221.464 867.811 221.72 868.611 222.232C869.443 222.712 870.099 223.368 870.579 224.2C871.059 225 871.395 225.848 871.587 226.744C871.811 227.64 871.955 228.504 872.019 229.336C872.083 230.168 872.115 230.84 872.115 231.352V241H869.091V231.352C869.091 230.808 869.059 230.152 868.995 229.384C868.963 228.584 868.803 227.8 868.515 227.032C868.259 226.232 867.827 225.576 867.219 225.064C866.611 224.52 865.747 224.248 864.627 224.248C863.411 224.248 862.403 224.6 861.603 225.304C860.835 226.008 860.275 226.936 859.923 228.088C859.571 229.208 859.395 230.424 859.395 231.736V241H856.419V231.352C856.419 230.808 856.387 230.152 856.323 229.384C856.259 228.584 856.099 227.8 855.843 227.032C855.587 226.232 855.155 225.576 854.547 225.064C853.939 224.52 853.075 224.248 851.955 224.248C850.707 224.248 849.699 224.6 848.931 225.304C848.163 226.008 847.603 226.936 847.251 228.088C846.899 229.208 846.723 230.424 846.723 231.736V241H843.699ZM895.261 241.48C894.173 241.48 893.181 241.32 892.285 241C891.389 240.712 890.605 240.312 889.933 239.8C889.293 239.288 888.733 238.744 888.253 238.168C887.805 237.56 887.469 236.952 887.245 236.344C887.021 235.736 886.909 235.192 886.909 234.712H889.885C889.885 234.744 889.917 234.984 889.981 235.432C890.045 235.88 890.237 236.392 890.557 236.968C890.877 237.544 891.405 238.056 892.141 238.504C892.877 238.92 893.917 239.128 895.261 239.128C896.221 239.128 897.085 239.016 897.853 238.792C898.621 238.568 899.213 238.216 899.629 237.736C900.077 237.256 900.285 236.664 900.253 235.96C900.253 235.032 899.933 234.328 899.293 233.848C898.685 233.336 897.885 232.952 896.893 232.696C895.901 232.408 894.861 232.136 893.773 231.88C892.685 231.624 891.645 231.304 890.653 230.92C889.661 230.504 888.861 229.928 888.253 229.192C887.645 228.456 887.357 227.432 887.389 226.12C887.421 224.52 888.141 223.256 889.549 222.328C890.989 221.368 892.829 220.888 895.069 220.888C895.997 220.888 896.941 221 897.901 221.224C898.893 221.448 899.789 221.816 900.589 222.328C901.421 222.808 902.077 223.496 902.557 224.392C903.037 225.256 903.245 226.344 903.181 227.656H900.301C900.333 226.76 900.173 226.04 899.821 225.496C899.501 224.92 899.053 224.488 898.477 224.2C897.933 223.88 897.341 223.672 896.701 223.576C896.093 223.448 895.517 223.384 894.973 223.384C893.597 223.384 892.461 223.64 891.565 224.152C890.701 224.664 890.269 225.384 890.269 226.312C890.269 227.176 890.573 227.848 891.181 228.328C891.821 228.808 892.621 229.192 893.581 229.48C894.573 229.736 895.613 229.992 896.701 230.248C897.821 230.472 898.877 230.792 899.869 231.208C900.861 231.624 901.661 232.216 902.269 232.984C902.909 233.752 903.229 234.808 903.229 236.152C903.229 237.4 902.877 238.424 902.173 239.224C901.501 239.992 900.557 240.568 899.341 240.952C898.157 241.304 896.797 241.48 895.261 241.48ZM915.581 241.48C913.757 241.48 912.125 241.096 910.685 240.328C909.245 239.56 908.109 238.44 907.277 236.968C906.445 235.496 906.029 233.72 906.029 231.64C906.093 229.592 906.525 227.8 907.325 226.264C908.157 224.728 909.293 223.544 910.733 222.712C912.173 221.848 913.821 221.416 915.677 221.416C917.405 221.416 918.909 221.752 920.189 222.424C921.469 223.064 922.493 223.928 923.261 225.016C924.029 226.072 924.509 227.256 924.701 228.568H921.869C921.581 227.192 920.893 226.12 919.805 225.352C918.717 224.552 917.373 224.152 915.773 224.152C914.397 224.152 913.213 224.472 912.221 225.112C911.229 225.72 910.461 226.584 909.917 227.704C909.373 228.792 909.085 230.056 909.053 231.496C909.053 233.672 909.645 235.416 910.829 236.728C912.013 238.04 913.645 238.696 915.725 238.696C917.261 238.696 918.589 238.312 919.709 237.544C920.861 236.776 921.581 235.672 921.869 234.232H924.701C924.509 235.544 924.013 236.76 923.213 237.88C922.445 238.968 921.405 239.848 920.093 240.52C918.813 241.16 917.309 241.48 915.581 241.48ZM928.788 241V221.464H931.572L931.908 227.08L931.86 231.304V241H928.788ZM931.86 231.88L931.716 227.608C931.78 226.872 931.972 226.136 932.292 225.4C932.612 224.664 933.06 224.008 933.636 223.432C934.244 222.824 935.012 222.344 935.94 221.992C936.868 221.64 937.956 221.464 939.204 221.464H940.116V224.872H939.156C937.62 224.872 936.372 225.048 935.412 225.4C934.452 225.72 933.716 226.2 933.204 226.84C932.692 227.448 932.34 228.184 932.148 229.048C931.956 229.912 931.86 230.856 931.86 231.88ZM949.657 241.432C947.865 241.432 946.393 241 945.241 240.136C944.089 239.24 943.225 238.04 942.649 236.536C942.105 235.032 941.833 233.32 941.833 231.4C941.833 229.416 942.121 227.672 942.697 226.168C943.273 224.664 944.137 223.48 945.289 222.616C946.473 221.72 947.929 221.272 949.657 221.272C950.681 221.272 951.561 221.416 952.297 221.704C953.065 221.96 953.721 222.312 954.265 222.76C954.809 223.208 955.257 223.688 955.609 224.2C955.993 224.68 956.281 225.144 956.473 225.592H956.521V221.464H959.689V241H957.049L956.569 237.208H956.473C956.249 237.688 955.961 238.184 955.609 238.696C955.257 239.176 954.793 239.624 954.217 240.04C953.673 240.456 953.017 240.792 952.249 241.048C951.513 241.304 950.649 241.432 949.657 241.432ZM950.857 238.696C952.201 238.696 953.273 238.408 954.073 237.832C954.905 237.224 955.513 236.376 955.897 235.288C956.281 234.2 956.473 232.92 956.473 231.448C956.473 229.88 956.265 228.552 955.849 227.464C955.465 226.376 954.857 225.56 954.025 225.016C953.193 224.44 952.137 224.152 950.857 224.152C949.449 224.152 948.297 224.472 947.401 225.112C946.537 225.752 945.913 226.616 945.529 227.704C945.145 228.792 944.953 230.024 944.953 231.4C944.953 232.808 945.145 234.072 945.529 235.192C945.945 236.28 946.585 237.144 947.449 237.784C948.345 238.392 949.481 238.696 950.857 238.696ZM968.173 241C967.021 241 966.205 240.68 965.725 240.04C965.245 239.4 965.005 238.52 965.005 237.4V223.336H967.981V238.504H972.541V241H968.173ZM961.933 223.768V221.464C962.701 221.464 963.309 221.432 963.757 221.368C964.237 221.272 964.589 221.08 964.813 220.792C965.037 220.472 965.181 219.96 965.245 219.256C965.309 218.552 965.341 217.608 965.341 216.424H967.981V221.464H972.493V223.768H961.933ZM984.909 241.48C983.085 241.48 981.453 241.096 980.013 240.328C978.573 239.56 977.437 238.44 976.605 236.968C975.773 235.496 975.357 233.72 975.357 231.64C975.421 229.592 975.853 227.8 976.653 226.264C977.485 224.728 978.621 223.544 980.061 222.712C981.501 221.848 983.149 221.416 985.005 221.416C986.733 221.416 988.237 221.752 989.517 222.424C990.797 223.064 991.821 223.928 992.589 225.016C993.357 226.072 993.837 227.256 994.029 228.568H991.197C990.909 227.192 990.221 226.12 989.133 225.352C988.045 224.552 986.701 224.152 985.101 224.152C983.725 224.152 982.541 224.472 981.549 225.112C980.557 225.72 979.789 226.584 979.245 227.704C978.701 228.792 978.413 230.056 978.381 231.496C978.381 233.672 978.973 235.416 980.157 236.728C981.341 238.04 982.973 238.696 985.053 238.696C986.589 238.696 987.917 238.312 989.037 237.544C990.189 236.776 990.909 235.672 991.197 234.232H994.029C993.837 235.544 993.341 236.76 992.541 237.88C991.773 238.968 990.733 239.848 989.421 240.52C988.141 241.16 986.637 241.48 984.909 241.48ZM997.829 241V213.976H1000.95V226.312H1001.04C1001.11 226.152 1001.25 225.816 1001.48 225.304C1001.73 224.76 1002.12 224.2 1002.63 223.624C1003.14 223.048 1003.83 222.552 1004.69 222.136C1005.56 221.688 1006.64 221.464 1007.96 221.464C1009.3 221.464 1010.42 221.672 1011.32 222.088C1012.21 222.472 1012.93 223.016 1013.48 223.72C1014.02 224.424 1014.42 225.224 1014.68 226.12C1014.96 226.984 1015.16 227.864 1015.25 228.76C1015.35 229.656 1015.4 230.52 1015.4 231.352V241H1012.37V231.352C1012.37 229.944 1012.21 228.712 1011.89 227.656C1011.6 226.568 1011.08 225.736 1010.31 225.16C1009.57 224.552 1008.5 224.248 1007.09 224.248C1005.62 224.248 1004.44 224.6 1003.54 225.304C1002.64 225.976 1001.99 226.888 1001.57 228.04C1001.16 229.16 1000.95 230.392 1000.95 231.736V241H997.829Z" fill="white"/>
</g>
<defs>
<clipPath id="clip0_798_316">
<rect width="1440" height="602" fill="white" transform="matrix(1 0 0 -1 0 602)"/>
</clipPath>
</defs>
</svg>
