<svg width="1440" height="602" viewBox="0 0 1440 602" fill="none" xmlns="http://www.w3.org/2000/svg">
<rect width="1440" height="602" fill="url(#paint0_linear_1684_85)"/>
<path d="M1057.53 141.095C1062.48 104.662 1047.54 95.932 1023.13 79.8983C988.041 98.3572 974.153 152.766 929.577 191.761C885.001 230.756 921.047 287.115 921.047 287.115C940.346 314.094 950.157 345.029 985.434 375.068C985.434 375.068 962.876 306.868 973.878 290.53C984.88 274.192 998.622 257.996 1006.62 260.928C1014.62 263.86 1020.1 266.051 1030.84 270.036C1041.57 274.021 1049.55 268.329 1051.47 262.066C1053.4 255.804 1047.82 248.972 1052.57 245.842C1052.57 245.842 1052.54 245.759 1060.24 244.052C1067.95 242.344 1054.74 232.097 1054.74 232.097C1054.74 232.097 1060.79 231.528 1064.37 227.543C1067.95 223.558 1062.48 220.509 1057.53 217.094C1052.57 213.678 1052.57 204 1057.53 204.854C1062.48 205.708 1081.19 199.162 1071.28 192.9C1061.38 186.637 1057.53 182.083 1057.53 182.083C1057.53 182.083 1052.57 177.529 1057.53 141.095Z" fill="#FBD8A4"/>
<path d="M1052.57 167.409V163.013C1057.87 164.28 1061.35 164.101 1067.98 163.013C1062.06 166.79 1058.7 168.046 1052.57 167.409Z" fill="#FBD8A4"/>
<path d="M963.691 208.839C1005.52 192.615 1005.49 89.6873 1029.98 83.9945C995.306 62.0774 934.686 69.9449 905.604 134.945C883.488 168.699 818.654 196.427 810.674 254.208C802.694 311.989 866.741 361.648 940.578 398.124C931.42 350.514 939.448 313.413 925.415 283.526C911.382 253.639 921.867 225.064 963.691 208.839Z" fill="#854001"/>
<path d="M1089.05 274.489C1098.54 239.028 1115.6 237.173 1144.16 232.522C1169.24 263.909 1161.04 319.539 1186.92 373.671C1212.79 427.804 1158.03 464.652 1158.03 464.652C1129.94 481.45 1109.03 505.785 1065.11 518.806C1065.11 518.806 1112.06 465.541 1108.26 446.022C1104.45 426.503 1098.08 405.985 1089.62 405.379C1081.15 404.774 1075.28 404.525 1063.9 403.76C1052.52 402.994 1047.39 394.485 1048.04 387.948C1048.68 381.41 1056.42 377.439 1053.27 372.612C1053.27 372.612 1054.45 371.665 1048.04 366.924C1041.63 362.184 1055.29 358.385 1055.29 358.385C1055.29 358.385 1049.78 355.829 1048.04 350.7C1046.29 345.571 1053.94 345.294 1059.8 344.201C1065.65 343.108 1069.38 334.231 1064.51 332.974C1059.64 331.717 1044.99 318.004 1056.49 316.341C1067.99 314.677 1073.27 312.086 1073.27 312.086C1073.27 312.086 1079.57 309.949 1089.05 274.489Z" fill="#66451D"/>
<path d="M1082.96 300.44L1084.65 296.407C1079.3 295.383 1076.18 293.788 1070.52 290.059C1074.49 295.961 1077.09 298.497 1082.96 300.44Z" fill="#66451D"/>
<path d="M1079.79 218.268C1079.09 235.283 1083.18 245.275 1094.27 248.246L1116.53 249.68L1137.52 237.74C1141.32 245.478 1138.66 249.575 1129.78 256.677C1129.88 264.348 1132.8 266.066 1140.33 267.04C1141.27 272.685 1141.15 275.505 1133.27 276.417C1134.11 283.906 1136.11 286.398 1144.91 284.992C1148.52 291.382 1149.73 294.858 1143.48 299.933C1143.49 309.379 1146.89 310.925 1156.23 310.069C1158.77 318.203 1159.68 322.435 1153.51 324.863C1147.35 330.227 1147.42 332.76 1149.9 336.957C1155.77 343.567 1159.18 345.962 1165.83 343.697C1170.38 349.291 1169.93 352.123 1167.1 356.965C1167.7 364.284 1170.09 366.996 1181.14 367.248C1181.2 376.183 1178.56 379.081 1169.38 380.736C1174.86 384.713 1177.32 386.976 1179.61 391.131C1170.7 394.928 1170.72 398.741 1171.79 405.89C1181.53 411.61 1182.02 415.864 1177.72 424.542C1176.88 432.4 1179.72 434.224 1187.66 435.245C1193.14 444.545 1198.47 443.746 1208.81 440.053L1214.5 452.868C1225.08 458.176 1230.72 458.121 1240.04 450.247C1238.99 456.09 1240.43 458.792 1249.11 461.877C1262.31 461.951 1266.2 457.939 1269.99 447.174C1279.78 464.807 1280.87 454.685 1291.28 451.425C1310.13 457.426 1308.71 452.481 1315.03 442.552L1322.08 434.851C1333.58 438.477 1328.88 435.7 1336.53 423.878L1334.59 403.7C1343.58 403.377 1348.53 403.073 1351.59 394.978C1356.61 384.184 1357.47 378.595 1349.28 370.93L1359.22 361.257L1366.54 345.306C1365.74 333.012 1371.91 329.332 1358.86 328.646C1370.66 325.019 1370.22 318.527 1368.31 310.36L1368.26 310.132C1366.44 300.826 1364.71 291.976 1349.74 292.684C1357.61 281.104 1362.46 270.257 1344.27 257.204L1332.34 250.687L1331.15 238.249C1335.1 226.561 1334.39 220.687 1316.41 214.08C1309.05 203.186 1304.61 196.061 1285.25 201.19C1286.14 188.886 1285.69 184.775 1268.92 173.734C1257.12 164.699 1248.61 154.767 1235.87 161.923L1219.93 157.546C1200.98 155.312 1188.58 148.724 1167.14 160.393L1152.78 164.437C1136.11 167.743 1128.38 167.893 1122.31 178.723C1103.82 186.408 1097.31 190.992 1095.16 205.536C1080.85 205.016 1087.37 206.067 1079.79 218.268Z" fill="#1D0101"/>
<g filter="url(#filter0_d_1684_85)">
<path d="M174.504 134.52V219H150.056L123.816 173.304L117.416 160.76H117.288L117.8 176.376L117.8 219H98.344L98.344 134.52H122.792L149.032 180.216L155.432 192.76H155.56L155.048 177.144V134.52H174.504ZM227.145 178.424C227.145 175.437 226.292 173.091 224.585 171.384C222.964 169.592 220.745 168.696 217.929 168.696C215.113 168.696 212.681 169.421 210.633 170.872C208.67 172.237 207.305 174.712 206.537 178.296L188.105 173.944C189.3 167.8 192.457 162.893 197.577 159.224C202.697 155.555 209.908 153.72 219.209 153.72C225.438 153.72 230.729 154.659 235.081 156.536C239.518 158.328 242.889 161.059 245.193 164.728C247.582 168.312 248.777 172.749 248.777 178.04V201.464C248.777 204.792 250.27 206.456 253.257 206.456C254.793 206.456 256.03 206.285 256.969 205.944L255.689 218.36C253.129 219.555 250.014 220.152 246.345 220.152C243.017 220.152 240.073 219.64 237.513 218.616C234.953 217.507 232.948 215.885 231.497 213.752C230.046 211.533 229.321 208.76 229.321 205.432V204.664L231.753 203.768C231.753 207.437 230.644 210.509 228.425 212.984C226.292 215.459 223.476 217.293 219.977 218.488C216.564 219.683 212.98 220.28 209.225 220.28C204.873 220.28 201.076 219.597 197.833 218.232C194.59 216.867 192.073 214.904 190.281 212.344C188.574 209.699 187.721 206.456 187.721 202.616C187.721 198.008 189.086 194.211 191.817 191.224C194.633 188.152 199.028 186.019 205.001 184.824L229.193 179.832L229.065 191.352L216.777 193.912C214.217 194.424 212.297 195.192 211.017 196.216C209.822 197.155 209.225 198.605 209.225 200.568C209.225 202.445 209.908 203.853 211.273 204.792C212.638 205.731 214.26 206.2 216.137 206.2C217.588 206.2 218.953 205.987 220.233 205.56C221.598 205.133 222.793 204.493 223.817 203.64C224.841 202.701 225.652 201.549 226.249 200.184C226.846 198.819 227.145 197.197 227.145 195.32V178.424ZM289.81 134.648V196.216C289.81 199.288 290.535 201.507 291.986 202.872C293.522 204.152 295.613 204.792 298.258 204.792C300.306 204.792 302.055 204.579 303.506 204.152C305.042 203.64 306.407 202.915 307.602 201.976L309.906 215.416C307.773 216.952 305.085 218.147 301.842 219C298.599 219.853 295.271 220.28 291.858 220.28C286.994 220.28 282.77 219.597 279.186 218.232C275.687 216.867 272.957 214.691 270.994 211.704C269.117 208.717 268.135 204.749 268.05 199.8V140.664L289.81 134.648ZM308.882 155V170.488L257.042 170.488V155H308.882ZM340.565 220.28C336.213 220.28 332.373 219.555 329.045 218.104C325.802 216.568 323.242 214.136 321.365 210.808C319.488 207.48 318.549 203.128 318.549 197.752V155H340.309V192.632C340.309 196.728 341.12 199.587 342.741 201.208C344.362 202.829 346.666 203.64 349.653 203.64C351.189 203.64 352.64 203.384 354.005 202.872C355.37 202.275 356.565 201.421 357.589 200.312C358.613 199.117 359.381 197.624 359.893 195.832C360.49 193.955 360.789 191.779 360.789 189.304V155H382.549V219H363.093L362.453 206.968C360.405 211.491 357.546 214.861 353.877 217.08C350.208 219.213 345.77 220.28 340.565 220.28ZM398.183 219V155H417.383L418.279 168.824C419.9 164.045 422.29 160.333 425.447 157.688C428.69 155.043 432.786 153.72 437.735 153.72C439.356 153.72 440.722 153.848 441.831 154.104C443.026 154.36 443.964 154.701 444.647 155.128L442.471 173.048C441.618 172.707 440.508 172.451 439.143 172.28C437.863 172.024 436.284 171.896 434.407 171.896C431.847 171.896 429.458 172.451 427.239 173.56C425.02 174.669 423.228 176.333 421.863 178.552C420.583 180.685 419.943 183.416 419.943 186.744V219L398.183 219ZM488.27 178.424C488.27 175.437 487.417 173.091 485.71 171.384C484.089 169.592 481.87 168.696 479.054 168.696C476.238 168.696 473.806 169.421 471.758 170.872C469.795 172.237 468.43 174.712 467.662 178.296L449.23 173.944C450.425 167.8 453.582 162.893 458.702 159.224C463.822 155.555 471.033 153.72 480.334 153.72C486.563 153.72 491.854 154.659 496.206 156.536C500.643 158.328 504.014 161.059 506.318 164.728C508.707 168.312 509.902 172.749 509.902 178.04V201.464C509.902 204.792 511.395 206.456 514.382 206.456C515.918 206.456 517.155 206.285 518.094 205.944L516.814 218.36C514.254 219.555 511.139 220.152 507.47 220.152C504.142 220.152 501.198 219.64 498.638 218.616C496.078 217.507 494.073 215.885 492.622 213.752C491.171 211.533 490.446 208.76 490.446 205.432V204.664L492.878 203.768C492.878 207.437 491.769 210.509 489.55 212.984C487.417 215.459 484.601 217.293 481.102 218.488C477.689 219.683 474.105 220.28 470.35 220.28C465.998 220.28 462.201 219.597 458.958 218.232C455.715 216.867 453.198 214.904 451.406 212.344C449.699 209.699 448.846 206.456 448.846 202.616C448.846 198.008 450.211 194.211 452.942 191.224C455.758 188.152 460.153 186.019 466.126 184.824L490.318 179.832L490.19 191.352L477.902 193.912C475.342 194.424 473.422 195.192 472.142 196.216C470.947 197.155 470.35 198.605 470.35 200.568C470.35 202.445 471.033 203.853 472.398 204.792C473.763 205.731 475.385 206.2 477.262 206.2C478.713 206.2 480.078 205.987 481.358 205.56C482.723 205.133 483.918 204.493 484.942 203.64C485.966 202.701 486.777 201.549 487.374 200.184C487.971 198.819 488.27 197.197 488.27 195.32V178.424ZM548.187 127.864V197.24C548.187 200.056 548.656 202.061 549.595 203.256C550.534 204.451 552.112 205.048 554.331 205.048C555.611 205.048 556.678 204.963 557.531 204.792C558.384 204.621 559.408 204.365 560.603 204.024L559.195 217.08C557.659 218.019 555.654 218.787 553.179 219.384C550.704 219.981 548.272 220.28 545.883 220.28C539.056 220.28 534.107 218.701 531.035 215.544C527.963 212.387 526.427 207.224 526.427 200.056V127.864H548.187ZM643.2 134.52V184.568C643.2 196.515 640 205.475 633.6 211.448C627.285 217.336 617.899 220.28 605.44 220.28C593.067 220.28 583.68 217.336 577.28 211.448C570.88 205.475 567.68 196.515 567.68 184.568V134.52H589.824V184.952C589.824 191.011 591.104 195.533 593.664 198.52C596.309 201.507 600.235 203 605.44 203C610.731 203 614.656 201.507 617.216 198.52C619.861 195.533 621.184 191.011 621.184 184.952V134.52H643.2Z" fill="white"/>
</g>
<path d="M132.824 301H129.764L127.244 294.412H116.48L113.96 301H110.936L120.188 277.24H123.608L132.824 301ZM117.524 291.712H126.2L121.844 280.012L117.524 291.712ZM137.114 301V283H139.634L139.886 287.032L139.418 286.636C139.802 285.676 140.318 284.908 140.966 284.332C141.614 283.732 142.358 283.3 143.198 283.036C144.062 282.772 144.95 282.64 145.862 282.64C147.158 282.64 148.334 282.892 149.39 283.396C150.446 283.876 151.286 284.62 151.91 285.628C152.558 286.636 152.882 287.92 152.882 289.48V301H150.002V290.488C150.002 288.496 149.57 287.116 148.706 286.348C147.866 285.556 146.822 285.16 145.574 285.16C144.71 285.16 143.846 285.364 142.982 285.772C142.118 286.18 141.398 286.84 140.822 287.752C140.27 288.664 139.994 289.888 139.994 291.424V301H137.114ZM182.184 289.372C182.184 288.028 181.824 286.996 181.104 286.276C180.384 285.532 179.364 285.16 178.044 285.16C176.796 285.16 175.74 285.436 174.876 285.988C174.012 286.516 173.376 287.38 172.968 288.58L170.628 287.14C171.108 285.796 171.996 284.716 173.292 283.9C174.588 283.06 176.196 282.64 178.116 282.64C179.412 282.64 180.588 282.868 181.644 283.324C182.7 283.756 183.528 284.428 184.128 285.34C184.752 286.228 185.064 287.38 185.064 288.796V297.508C185.064 298.372 185.52 298.804 186.432 298.804C186.888 298.804 187.332 298.744 187.764 298.624L187.62 300.892C187.14 301.132 186.516 301.252 185.748 301.252C185.052 301.252 184.428 301.12 183.876 300.856C183.324 300.592 182.892 300.196 182.58 299.668C182.268 299.116 182.112 298.432 182.112 297.616V297.256L182.832 297.364C182.544 298.3 182.052 299.068 181.356 299.668C180.66 300.244 179.88 300.676 179.016 300.964C178.152 301.228 177.3 301.36 176.46 301.36C175.404 301.36 174.42 301.18 173.508 300.82C172.596 300.46 171.864 299.92 171.312 299.2C170.784 298.456 170.52 297.544 170.52 296.464C170.52 295.12 170.964 294.016 171.852 293.152C172.764 292.264 174.024 291.664 175.632 291.352L182.76 289.948V292.324L176.964 293.512C175.788 293.752 174.912 294.088 174.336 294.52C173.76 294.952 173.472 295.552 173.472 296.32C173.472 297.064 173.76 297.676 174.336 298.156C174.936 298.612 175.776 298.84 176.856 298.84C177.552 298.84 178.212 298.756 178.836 298.588C179.484 298.396 180.06 298.12 180.564 297.76C181.068 297.376 181.464 296.908 181.752 296.356C182.04 295.78 182.184 295.108 182.184 294.34V289.372ZM192.063 308.56V283H194.583L194.835 287.392L194.439 286.888C194.751 286.048 195.219 285.316 195.843 284.692C196.467 284.044 197.223 283.54 198.111 283.18C198.999 282.82 199.959 282.64 200.991 282.64C202.455 282.64 203.799 283.012 205.023 283.756C206.271 284.5 207.267 285.568 208.011 286.96C208.755 288.352 209.127 290.032 209.127 292C209.127 293.944 208.743 295.624 207.975 297.04C207.231 298.432 206.235 299.5 204.987 300.244C203.739 300.988 202.371 301.36 200.883 301.36C199.395 301.36 198.087 301 196.959 300.28C195.855 299.536 195.063 298.6 194.583 297.472L194.943 296.932V308.56H192.063ZM200.595 298.84C202.371 298.84 203.751 298.216 204.735 296.968C205.743 295.72 206.247 294.064 206.247 292C206.247 289.936 205.755 288.28 204.771 287.032C203.811 285.784 202.455 285.16 200.703 285.16C199.551 285.16 198.543 285.448 197.679 286.024C196.815 286.576 196.143 287.368 195.663 288.4C195.183 289.408 194.943 290.608 194.943 292C194.943 293.368 195.171 294.568 195.627 295.6C196.107 296.632 196.767 297.436 197.607 298.012C198.471 298.564 199.467 298.84 200.595 298.84ZM214.633 308.56V283H217.153L217.405 287.392L217.009 286.888C217.321 286.048 217.789 285.316 218.413 284.692C219.037 284.044 219.793 283.54 220.681 283.18C221.569 282.82 222.529 282.64 223.561 282.64C225.025 282.64 226.369 283.012 227.593 283.756C228.841 284.5 229.837 285.568 230.581 286.96C231.325 288.352 231.697 290.032 231.697 292C231.697 293.944 231.313 295.624 230.545 297.04C229.801 298.432 228.805 299.5 227.557 300.244C226.309 300.988 224.941 301.36 223.453 301.36C221.965 301.36 220.657 301 219.529 300.28C218.425 299.536 217.633 298.6 217.153 297.472L217.513 296.932V308.56H214.633ZM223.165 298.84C224.941 298.84 226.321 298.216 227.305 296.968C228.313 295.72 228.817 294.064 228.817 292C228.817 289.936 228.325 288.28 227.341 287.032C226.381 285.784 225.025 285.16 223.273 285.16C222.121 285.16 221.113 285.448 220.249 286.024C219.385 286.576 218.713 287.368 218.233 288.4C217.753 289.408 217.513 290.608 217.513 292C217.513 293.368 217.741 294.568 218.197 295.6C218.677 296.632 219.337 297.436 220.177 298.012C221.041 298.564 222.037 298.84 223.165 298.84ZM259.985 289.372C259.985 288.028 259.625 286.996 258.905 286.276C258.185 285.532 257.165 285.16 255.845 285.16C254.597 285.16 253.541 285.436 252.677 285.988C251.813 286.516 251.177 287.38 250.769 288.58L248.429 287.14C248.909 285.796 249.797 284.716 251.093 283.9C252.389 283.06 253.997 282.64 255.917 282.64C257.213 282.64 258.389 282.868 259.445 283.324C260.501 283.756 261.329 284.428 261.929 285.34C262.553 286.228 262.865 287.38 262.865 288.796V297.508C262.865 298.372 263.321 298.804 264.233 298.804C264.689 298.804 265.133 298.744 265.565 298.624L265.421 300.892C264.941 301.132 264.317 301.252 263.549 301.252C262.853 301.252 262.229 301.12 261.677 300.856C261.125 300.592 260.693 300.196 260.381 299.668C260.069 299.116 259.913 298.432 259.913 297.616V297.256L260.633 297.364C260.345 298.3 259.853 299.068 259.157 299.668C258.461 300.244 257.681 300.676 256.817 300.964C255.953 301.228 255.101 301.36 254.261 301.36C253.205 301.36 252.221 301.18 251.309 300.82C250.397 300.46 249.665 299.92 249.113 299.2C248.585 298.456 248.321 297.544 248.321 296.464C248.321 295.12 248.765 294.016 249.653 293.152C250.565 292.264 251.825 291.664 253.433 291.352L260.561 289.948V292.324L254.765 293.512C253.589 293.752 252.713 294.088 252.137 294.52C251.561 294.952 251.273 295.552 251.273 296.32C251.273 297.064 251.561 297.676 252.137 298.156C252.737 298.612 253.577 298.84 254.657 298.84C255.353 298.84 256.013 298.756 256.637 298.588C257.285 298.396 257.861 298.12 258.365 297.76C258.869 297.376 259.265 296.908 259.553 296.356C259.841 295.78 259.985 295.108 259.985 294.34V289.372ZM272.6 274.72V296.428C272.6 297.34 272.768 297.976 273.104 298.336C273.44 298.672 273.98 298.84 274.724 298.84C275.204 298.84 275.6 298.804 275.912 298.732C276.224 298.66 276.644 298.528 277.172 298.336L276.704 300.856C276.32 301.024 275.9 301.144 275.444 301.216C274.988 301.312 274.52 301.36 274.04 301.36C272.576 301.36 271.484 300.964 270.764 300.172C270.068 299.38 269.72 298.168 269.72 296.536V274.72H272.6ZM283.604 274.72V296.428C283.604 297.34 283.772 297.976 284.108 298.336C284.444 298.672 284.984 298.84 285.728 298.84C286.208 298.84 286.604 298.804 286.916 298.732C287.228 298.66 287.648 298.528 288.176 298.336L287.708 300.856C287.324 301.024 286.904 301.144 286.448 301.216C285.992 301.312 285.524 301.36 285.044 301.36C283.58 301.36 282.488 300.964 281.768 300.172C281.072 299.38 280.724 298.168 280.724 296.536V274.72H283.604ZM313.387 289.372C313.387 288.028 313.027 286.996 312.307 286.276C311.587 285.532 310.567 285.16 309.247 285.16C307.999 285.16 306.943 285.436 306.079 285.988C305.215 286.516 304.579 287.38 304.171 288.58L301.831 287.14C302.311 285.796 303.199 284.716 304.495 283.9C305.791 283.06 307.399 282.64 309.319 282.64C310.615 282.64 311.791 282.868 312.847 283.324C313.903 283.756 314.731 284.428 315.331 285.34C315.955 286.228 316.267 287.38 316.267 288.796V297.508C316.267 298.372 316.723 298.804 317.635 298.804C318.091 298.804 318.535 298.744 318.967 298.624L318.823 300.892C318.343 301.132 317.719 301.252 316.951 301.252C316.255 301.252 315.631 301.12 315.079 300.856C314.527 300.592 314.095 300.196 313.783 299.668C313.471 299.116 313.315 298.432 313.315 297.616V297.256L314.035 297.364C313.747 298.3 313.255 299.068 312.559 299.668C311.863 300.244 311.083 300.676 310.219 300.964C309.355 301.228 308.503 301.36 307.663 301.36C306.607 301.36 305.623 301.18 304.711 300.82C303.799 300.46 303.067 299.92 302.515 299.2C301.987 298.456 301.723 297.544 301.723 296.464C301.723 295.12 302.167 294.016 303.055 293.152C303.967 292.264 305.227 291.664 306.835 291.352L313.963 289.948V292.324L308.167 293.512C306.991 293.752 306.115 294.088 305.539 294.52C304.963 294.952 304.675 295.552 304.675 296.32C304.675 297.064 304.963 297.676 305.539 298.156C306.139 298.612 306.979 298.84 308.059 298.84C308.755 298.84 309.415 298.756 310.039 298.588C310.687 298.396 311.263 298.12 311.767 297.76C312.271 297.376 312.667 296.908 312.955 296.356C313.243 295.78 313.387 295.108 313.387 294.34V289.372ZM332.086 301.36C331.078 301.36 330.142 301.18 329.278 300.82C328.414 300.46 327.67 299.956 327.046 299.308C326.422 298.66 325.954 297.928 325.642 297.112L326.038 296.608L325.786 301H323.266V274.72H326.146V287.068L325.786 286.528C326.266 285.4 327.07 284.476 328.198 283.756C329.35 283.012 330.658 282.64 332.122 282.64C333.61 282.64 334.978 283.012 336.226 283.756C337.474 284.5 338.47 285.568 339.214 286.96C339.958 288.352 340.33 290.032 340.33 292C340.33 293.944 339.946 295.624 339.178 297.04C338.434 298.432 337.438 299.5 336.19 300.244C334.942 300.988 333.574 301.36 332.086 301.36ZM331.798 298.84C333.574 298.84 334.954 298.216 335.938 296.968C336.946 295.72 337.45 294.064 337.45 292C337.45 289.936 336.958 288.28 335.974 287.032C334.99 285.784 333.61 285.16 331.834 285.16C330.706 285.16 329.71 285.448 328.846 286.024C328.006 286.6 327.346 287.404 326.866 288.436C326.386 289.468 326.146 290.68 326.146 292.072C326.146 293.44 326.374 294.64 326.83 295.672C327.31 296.68 327.97 297.46 328.81 298.012C329.674 298.564 330.67 298.84 331.798 298.84ZM353.288 282.64C354.992 282.64 356.492 283.012 357.788 283.756C359.108 284.5 360.14 285.58 360.884 286.996C361.628 288.388 362 290.056 362 292C362 293.944 361.628 295.624 360.884 297.04C360.14 298.432 359.108 299.5 357.788 300.244C356.492 300.988 354.992 301.36 353.288 301.36C351.608 301.36 350.108 300.988 348.788 300.244C347.468 299.5 346.436 298.432 345.692 297.04C344.948 295.624 344.576 293.944 344.576 292C344.576 290.056 344.948 288.388 345.692 286.996C346.436 285.58 347.468 284.5 348.788 283.756C350.108 283.012 351.608 282.64 353.288 282.64ZM353.288 285.124C352.064 285.124 351.02 285.4 350.156 285.952C349.292 286.504 348.62 287.296 348.14 288.328C347.684 289.336 347.456 290.56 347.456 292C347.456 293.416 347.684 294.64 348.14 295.672C348.62 296.704 349.292 297.496 350.156 298.048C351.02 298.6 352.064 298.876 353.288 298.876C354.512 298.876 355.556 298.6 356.42 298.048C357.284 297.496 357.944 296.704 358.4 295.672C358.88 294.64 359.12 293.416 359.12 292C359.12 290.56 358.88 289.336 358.4 288.328C357.944 287.296 357.284 286.504 356.42 285.952C355.556 285.4 354.512 285.124 353.288 285.124ZM373.938 301.36C372.786 301.36 371.694 301.144 370.662 300.712C369.654 300.28 368.826 299.584 368.178 298.624C367.554 297.64 367.242 296.368 367.242 294.808V283H370.122V294.052C370.122 295.876 370.518 297.136 371.31 297.832C372.102 298.504 373.218 298.84 374.658 298.84C375.33 298.84 375.99 298.732 376.638 298.516C377.286 298.276 377.862 297.916 378.366 297.436C378.894 296.932 379.302 296.296 379.59 295.528C379.902 294.76 380.058 293.848 380.058 292.792V283H382.938V301H380.418L380.238 298.264C379.614 299.344 378.762 300.136 377.682 300.64C376.626 301.12 375.378 301.36 373.938 301.36ZM393.889 277.888V296.032C393.889 296.92 394.141 297.58 394.645 298.012C395.149 298.444 395.797 298.66 396.589 298.66C397.285 298.66 397.885 298.54 398.389 298.3C398.893 298.06 399.349 297.736 399.757 297.328L400.765 299.74C400.213 300.244 399.553 300.64 398.785 300.928C398.041 301.216 397.177 301.36 396.193 301.36C395.281 301.36 394.429 301.204 393.637 300.892C392.845 300.556 392.209 300.04 391.729 299.344C391.273 298.624 391.033 297.688 391.009 296.536V278.68L393.889 277.888ZM400.441 283V285.484H387.409V283H400.441ZM420.537 277.888V296.032C420.537 296.92 420.789 297.58 421.293 298.012C421.797 298.444 422.445 298.66 423.237 298.66C423.933 298.66 424.533 298.54 425.037 298.3C425.541 298.06 425.997 297.736 426.405 297.328L427.413 299.74C426.861 300.244 426.201 300.64 425.433 300.928C424.689 301.216 423.825 301.36 422.841 301.36C421.929 301.36 421.077 301.204 420.285 300.892C419.493 300.556 418.857 300.04 418.377 299.344C417.921 298.624 417.681 297.688 417.657 296.536V278.68L420.537 277.888ZM427.089 283V285.484H414.057V283H427.089ZM431.371 301V274.72H434.251V285.7C434.875 284.62 435.703 283.84 436.735 283.36C437.767 282.88 438.895 282.64 440.119 282.64C441.415 282.64 442.591 282.892 443.647 283.396C444.703 283.876 445.543 284.62 446.167 285.628C446.815 286.636 447.139 287.92 447.139 289.48V301H444.259V290.488C444.259 288.496 443.827 287.116 442.963 286.348C442.123 285.556 441.079 285.16 439.831 285.16C438.967 285.16 438.103 285.364 437.239 285.772C436.375 286.18 435.655 286.852 435.079 287.788C434.527 288.7 434.251 289.924 434.251 291.46V301H431.371ZM461.185 301.36C459.481 301.36 457.957 300.988 456.613 300.244C455.293 299.5 454.261 298.432 453.517 297.04C452.773 295.624 452.401 293.944 452.401 292C452.401 290.056 452.773 288.388 453.517 286.996C454.261 285.58 455.281 284.5 456.577 283.756C457.873 283.012 459.349 282.64 461.005 282.64C462.685 282.64 464.113 283 465.289 283.72C466.489 284.44 467.401 285.424 468.025 286.672C468.649 287.896 468.961 289.276 468.961 290.812C468.961 291.22 468.949 291.592 468.925 291.928C468.901 292.264 468.865 292.564 468.816 292.828H454.273V290.272H467.557L466.081 290.56C466.081 288.832 465.601 287.5 464.641 286.564C463.705 285.628 462.469 285.16 460.933 285.16C459.757 285.16 458.737 285.436 457.873 285.988C457.033 286.516 456.373 287.296 455.893 288.328C455.437 289.336 455.209 290.56 455.209 292C455.209 293.416 455.449 294.64 455.929 295.672C456.409 296.704 457.081 297.496 457.945 298.048C458.833 298.576 459.889 298.84 461.113 298.84C462.433 298.84 463.501 298.588 464.317 298.084C465.157 297.58 465.829 296.896 466.333 296.032L468.601 297.364C468.145 298.18 467.557 298.888 466.837 299.488C466.141 300.088 465.313 300.556 464.353 300.892C463.417 301.204 462.361 301.36 461.185 301.36ZM675.003 282.64C676.707 282.64 678.207 283.012 679.503 283.756C680.823 284.5 681.855 285.58 682.599 286.996C683.343 288.388 683.715 290.056 683.715 292C683.715 293.944 683.343 295.624 682.599 297.04C681.855 298.432 680.823 299.5 679.503 300.244C678.207 300.988 676.707 301.36 675.003 301.36C673.323 301.36 671.823 300.988 670.503 300.244C669.183 299.5 668.151 298.432 667.407 297.04C666.663 295.624 666.291 293.944 666.291 292C666.291 290.056 666.663 288.388 667.407 286.996C668.151 285.58 669.183 284.5 670.503 283.756C671.823 283.012 673.323 282.64 675.003 282.64ZM675.003 285.124C673.779 285.124 672.735 285.4 671.871 285.952C671.007 286.504 670.335 287.296 669.855 288.328C669.399 289.336 669.171 290.56 669.171 292C669.171 293.416 669.399 294.64 669.855 295.672C670.335 296.704 671.007 297.496 671.871 298.048C672.735 298.6 673.779 298.876 675.003 298.876C676.227 298.876 677.271 298.6 678.135 298.048C678.999 297.496 679.659 296.704 680.115 295.672C680.595 294.64 680.835 293.416 680.835 292C680.835 290.56 680.595 289.336 680.115 288.328C679.659 287.296 678.999 286.504 678.135 285.952C677.271 285.4 676.227 285.124 675.003 285.124ZM696.129 274.54C696.753 274.54 697.341 274.612 697.893 274.756C698.445 274.9 698.877 275.104 699.189 275.368L698.433 277.708C698.145 277.516 697.833 277.384 697.497 277.312C697.161 277.216 696.789 277.168 696.381 277.168C695.349 277.168 694.545 277.42 693.969 277.924C693.393 278.404 693.105 279.184 693.105 280.264V283V283.936V301H690.225V279.976C690.225 279.184 690.345 278.452 690.585 277.78C690.825 277.108 691.185 276.532 691.665 276.052C692.169 275.572 692.793 275.2 693.537 274.936C694.281 274.672 695.145 274.54 696.129 274.54ZM699.117 283V285.484H686.625V283H699.117ZM128.144 325L119.684 346.024C119.228 347.2 118.724 348.124 118.172 348.796C117.644 349.492 117.044 349.984 116.372 350.272C115.724 350.584 114.968 350.74 114.104 350.74C113.288 350.74 112.532 350.62 111.836 350.38C111.164 350.164 110.564 349.864 110.036 349.48L110.828 346.96C111.308 347.392 111.812 347.704 112.34 347.896C112.892 348.112 113.432 348.22 113.96 348.22C114.584 348.22 115.172 348.028 115.724 347.644C116.276 347.26 116.78 346.48 117.236 345.304L118.172 342.964L116.372 338.68L110.648 325H113.924L118.424 336.736L119.54 339.94L120.836 336.376L125.048 325H128.144ZM139.363 324.64C141.067 324.64 142.567 325.012 143.863 325.756C145.183 326.5 146.215 327.58 146.959 328.996C147.703 330.388 148.075 332.056 148.075 334C148.075 335.944 147.703 337.624 146.959 339.04C146.215 340.432 145.183 341.5 143.863 342.244C142.567 342.988 141.067 343.36 139.363 343.36C137.683 343.36 136.183 342.988 134.863 342.244C133.543 341.5 132.511 340.432 131.767 339.04C131.023 337.624 130.651 335.944 130.651 334C130.651 332.056 131.023 330.388 131.767 328.996C132.511 327.58 133.543 326.5 134.863 325.756C136.183 325.012 137.683 324.64 139.363 324.64ZM139.363 327.124C138.139 327.124 137.095 327.4 136.231 327.952C135.367 328.504 134.695 329.296 134.215 330.328C133.759 331.336 133.531 332.56 133.531 334C133.531 335.416 133.759 336.64 134.215 337.672C134.695 338.704 135.367 339.496 136.231 340.048C137.095 340.6 138.139 340.876 139.363 340.876C140.587 340.876 141.631 340.6 142.495 340.048C143.359 339.496 144.019 338.704 144.475 337.672C144.955 336.64 145.195 335.416 145.195 334C145.195 332.56 144.955 331.336 144.475 330.328C144.019 329.296 143.359 328.504 142.495 327.952C141.631 327.4 140.587 327.124 139.363 327.124ZM160.012 343.36C158.86 343.36 157.768 343.144 156.736 342.712C155.728 342.28 154.9 341.584 154.252 340.624C153.628 339.64 153.316 338.368 153.316 336.808V325H156.196V336.052C156.196 337.876 156.592 339.136 157.384 339.832C158.176 340.504 159.292 340.84 160.732 340.84C161.404 340.84 162.064 340.732 162.712 340.516C163.36 340.276 163.936 339.916 164.44 339.436C164.968 338.932 165.376 338.296 165.664 337.528C165.976 336.76 166.132 335.848 166.132 334.792V325H169.012V343H166.492L166.312 340.264C165.688 341.344 164.836 342.136 163.756 342.64C162.7 343.12 161.452 343.36 160.012 343.36ZM175.715 343V325H178.055L178.451 327.952C178.955 326.848 179.687 326.02 180.647 325.468C181.631 324.916 182.819 324.64 184.211 324.64C184.523 324.64 184.859 324.664 185.219 324.712C185.603 324.76 185.927 324.856 186.191 325L185.687 327.628C185.423 327.532 185.135 327.46 184.823 327.412C184.511 327.364 184.067 327.34 183.491 327.34C182.747 327.34 181.991 327.556 181.223 327.988C180.479 328.42 179.855 329.08 179.351 329.968C178.847 330.832 178.595 331.936 178.595 333.28V343H175.715ZM201.836 343V316.72H204.716V327.7C205.34 326.62 206.168 325.84 207.2 325.36C208.232 324.88 209.36 324.64 210.584 324.64C211.88 324.64 213.056 324.892 214.112 325.396C215.168 325.876 216.008 326.62 216.632 327.628C217.28 328.636 217.604 329.92 217.604 331.48V343H214.724V332.488C214.724 330.496 214.292 329.116 213.428 328.348C212.588 327.556 211.544 327.16 210.296 327.16C209.432 327.16 208.568 327.364 207.704 327.772C206.84 328.18 206.12 328.852 205.544 329.788C204.992 330.7 204.716 331.924 204.716 333.46V343H201.836ZM234.637 331.372C234.637 330.028 234.277 328.996 233.557 328.276C232.837 327.532 231.817 327.16 230.497 327.16C229.249 327.16 228.193 327.436 227.329 327.988C226.465 328.516 225.829 329.38 225.421 330.58L223.081 329.14C223.561 327.796 224.449 326.716 225.745 325.9C227.041 325.06 228.649 324.64 230.569 324.64C231.865 324.64 233.041 324.868 234.097 325.324C235.153 325.756 235.981 326.428 236.581 327.34C237.205 328.228 237.517 329.38 237.517 330.796V339.508C237.517 340.372 237.973 340.804 238.885 340.804C239.341 340.804 239.785 340.744 240.217 340.624L240.073 342.892C239.593 343.132 238.969 343.252 238.201 343.252C237.505 343.252 236.881 343.12 236.329 342.856C235.777 342.592 235.345 342.196 235.033 341.668C234.721 341.116 234.565 340.432 234.565 339.616V339.256L235.285 339.364C234.997 340.3 234.505 341.068 233.809 341.668C233.113 342.244 232.333 342.676 231.469 342.964C230.605 343.228 229.753 343.36 228.913 343.36C227.857 343.36 226.873 343.18 225.961 342.82C225.049 342.46 224.317 341.92 223.765 341.2C223.237 340.456 222.973 339.544 222.973 338.464C222.973 337.12 223.417 336.016 224.305 335.152C225.217 334.264 226.477 333.664 228.085 333.352L235.213 331.948V334.324L229.417 335.512C228.241 335.752 227.365 336.088 226.789 336.52C226.213 336.952 225.925 337.552 225.925 338.32C225.925 339.064 226.213 339.676 226.789 340.156C227.389 340.612 228.229 340.84 229.309 340.84C230.005 340.84 230.665 340.756 231.289 340.588C231.937 340.396 232.513 340.12 233.017 339.76C233.521 339.376 233.917 338.908 234.205 338.356C234.493 337.78 234.637 337.108 234.637 336.34V331.372ZM245.956 321.544C245.308 321.544 244.78 321.352 244.372 320.968C243.988 320.56 243.796 320.032 243.796 319.384C243.796 318.736 243.988 318.22 244.372 317.836C244.78 317.428 245.308 317.224 245.956 317.224C246.604 317.224 247.12 317.428 247.504 317.836C247.912 318.22 248.116 318.736 248.116 319.384C248.116 320.032 247.912 320.56 247.504 320.968C247.12 321.352 246.604 321.544 245.956 321.544ZM247.396 325V343H244.516V325H247.396ZM254.078 343V325H256.418L256.814 327.952C257.318 326.848 258.05 326.02 259.01 325.468C259.994 324.916 261.182 324.64 262.574 324.64C262.886 324.64 263.222 324.664 263.582 324.712C263.966 324.76 264.29 324.856 264.554 325L264.05 327.628C263.786 327.532 263.498 327.46 263.186 327.412C262.874 327.364 262.43 327.34 261.854 327.34C261.11 327.34 260.354 327.556 259.586 327.988C258.842 328.42 258.218 329.08 257.714 329.968C257.21 330.832 256.958 331.936 256.958 333.28V343H254.078ZM283.744 319.888V338.032C283.744 338.92 283.996 339.58 284.5 340.012C285.004 340.444 285.652 340.66 286.444 340.66C287.14 340.66 287.74 340.54 288.244 340.3C288.748 340.06 289.204 339.736 289.612 339.328L290.62 341.74C290.068 342.244 289.408 342.64 288.64 342.928C287.896 343.216 287.032 343.36 286.048 343.36C285.136 343.36 284.284 343.204 283.492 342.892C282.7 342.556 282.064 342.04 281.584 341.344C281.128 340.624 280.888 339.688 280.864 338.536V320.68L283.744 319.888ZM290.296 325V327.484H277.264V325H290.296ZM309.374 325L300.914 346.024C300.458 347.2 299.954 348.124 299.402 348.796C298.874 349.492 298.274 349.984 297.602 350.272C296.954 350.584 296.198 350.74 295.334 350.74C294.518 350.74 293.762 350.62 293.066 350.38C292.394 350.164 291.794 349.864 291.266 349.48L292.058 346.96C292.538 347.392 293.042 347.704 293.57 347.896C294.122 348.112 294.662 348.22 295.19 348.22C295.814 348.22 296.402 348.028 296.954 347.644C297.506 347.26 298.01 346.48 298.466 345.304L299.402 342.964L297.602 338.68L291.878 325H295.154L299.654 336.736L300.77 339.94L302.066 336.376L306.278 325H309.374ZM313.141 350.56V325H315.661L315.913 329.392L315.517 328.888C315.829 328.048 316.297 327.316 316.921 326.692C317.545 326.044 318.301 325.54 319.189 325.18C320.077 324.82 321.037 324.64 322.069 324.64C323.533 324.64 324.877 325.012 326.101 325.756C327.349 326.5 328.345 327.568 329.089 328.96C329.833 330.352 330.205 332.032 330.205 334C330.205 335.944 329.821 337.624 329.053 339.04C328.309 340.432 327.313 341.5 326.065 342.244C324.817 342.988 323.449 343.36 321.961 343.36C320.473 343.36 319.165 343 318.037 342.28C316.933 341.536 316.141 340.6 315.661 339.472L316.021 338.932V350.56H313.141ZM321.673 340.84C323.449 340.84 324.829 340.216 325.813 338.968C326.821 337.72 327.325 336.064 327.325 334C327.325 331.936 326.833 330.28 325.849 329.032C324.889 327.784 323.533 327.16 321.781 327.16C320.629 327.16 319.621 327.448 318.757 328.024C317.893 328.576 317.221 329.368 316.741 330.4C316.261 331.408 316.021 332.608 316.021 334C316.021 335.368 316.249 336.568 316.705 337.6C317.185 338.632 317.845 339.436 318.685 340.012C319.549 340.564 320.545 340.84 321.673 340.84ZM343.235 343.36C341.531 343.36 340.007 342.988 338.663 342.244C337.343 341.5 336.311 340.432 335.567 339.04C334.823 337.624 334.451 335.944 334.451 334C334.451 332.056 334.823 330.388 335.567 328.996C336.311 327.58 337.331 326.5 338.627 325.756C339.923 325.012 341.399 324.64 343.055 324.64C344.735 324.64 346.163 325 347.339 325.72C348.539 326.44 349.451 327.424 350.075 328.672C350.699 329.896 351.011 331.276 351.011 332.812C351.011 333.22 350.999 333.592 350.975 333.928C350.951 334.264 350.915 334.564 350.867 334.828H336.323V332.272H349.607L348.131 332.56C348.131 330.832 347.651 329.5 346.691 328.564C345.755 327.628 344.519 327.16 342.983 327.16C341.807 327.16 340.787 327.436 339.923 327.988C339.083 328.516 338.423 329.296 337.943 330.328C337.487 331.336 337.259 332.56 337.259 334C337.259 335.416 337.499 336.64 337.979 337.672C338.459 338.704 339.131 339.496 339.995 340.048C340.883 340.576 341.939 340.84 343.163 340.84C344.483 340.84 345.551 340.588 346.367 340.084C347.207 339.58 347.879 338.896 348.383 338.032L350.651 339.364C350.195 340.18 349.607 340.888 348.887 341.488C348.191 342.088 347.363 342.556 346.403 342.892C345.467 343.204 344.411 343.36 343.235 343.36Z" fill="white"/>
<path d="M490.739 301.324C489.539 301.324 488.459 301.048 487.499 300.496C486.563 299.92 485.819 299.104 485.267 298.048C484.739 296.968 484.475 295.648 484.475 294.088C484.475 292.648 484.679 291.244 485.087 289.876C485.495 288.508 486.083 287.284 486.851 286.204C487.643 285.1 488.579 284.236 489.659 283.612C490.763 282.964 491.999 282.64 493.367 282.64C494.159 282.64 494.915 282.784 495.635 283.072C496.379 283.36 497.003 283.804 497.507 284.404C498.035 285.004 498.395 285.796 498.587 286.78L501.215 275.368H507.335L501.395 301H495.851L496.463 297.616C495.887 298.768 495.095 299.68 494.087 300.352C493.079 301 491.963 301.324 490.739 301.324ZM493.403 296.86C494.003 296.86 494.555 296.668 495.059 296.284C495.563 295.9 495.995 295.396 496.355 294.772C496.739 294.124 497.027 293.428 497.219 292.684C497.435 291.916 497.543 291.16 497.543 290.416C497.543 289.744 497.423 289.168 497.183 288.688C496.967 288.184 496.655 287.8 496.247 287.536C495.839 287.272 495.347 287.14 494.771 287.14C494.099 287.14 493.499 287.344 492.971 287.752C492.443 288.136 491.999 288.64 491.639 289.264C491.279 289.888 491.003 290.572 490.811 291.316C490.619 292.036 490.523 292.732 490.523 293.404C490.523 294.124 490.631 294.748 490.847 295.276C491.063 295.78 491.375 296.176 491.783 296.464C492.215 296.728 492.755 296.86 493.403 296.86ZM513.713 280.912C512.657 280.912 511.829 280.696 511.229 280.264C510.653 279.832 510.425 279.136 510.545 278.176C510.665 277.072 511.037 276.28 511.661 275.8C512.285 275.296 513.161 275.044 514.289 275.044C515.369 275.044 516.197 275.272 516.773 275.728C517.373 276.184 517.613 276.856 517.493 277.744C517.373 278.92 516.989 279.748 516.341 280.228C515.717 280.684 514.841 280.912 513.713 280.912ZM515.945 283L511.769 301H505.649L509.825 283H515.945ZM525.128 301.396C523.856 301.396 522.608 301.216 521.384 300.856C520.16 300.496 519.056 299.98 518.072 299.308C517.112 298.612 516.32 297.796 515.696 296.86L518.9 293.944C519.524 294.928 520.34 295.732 521.348 296.356C522.356 296.956 523.424 297.256 524.552 297.256C525.296 297.256 525.872 297.148 526.28 296.932C526.688 296.716 526.892 296.38 526.892 295.924C526.892 295.588 526.76 295.3 526.496 295.06C526.256 294.82 525.884 294.628 525.38 294.484L523.22 293.836C521.42 293.26 520.124 292.552 519.332 291.712C518.564 290.848 518.18 289.792 518.18 288.544C518.18 287.32 518.504 286.276 519.152 285.412C519.8 284.524 520.712 283.84 521.888 283.36C523.064 282.88 524.42 282.64 525.956 282.64C527.852 282.64 529.52 282.964 530.96 283.612C532.4 284.26 533.54 285.172 534.38 286.348L531.32 289.372C531.008 288.868 530.576 288.424 530.024 288.04C529.496 287.632 528.908 287.32 528.26 287.104C527.612 286.864 526.928 286.744 526.208 286.744C525.464 286.744 524.9 286.864 524.516 287.104C524.132 287.32 523.94 287.632 523.94 288.04C523.94 288.4 524.108 288.688 524.444 288.904C524.78 289.096 525.164 289.264 525.596 289.408L529.016 290.452C530.288 290.86 531.26 291.472 531.932 292.288C532.628 293.08 532.976 294.04 532.976 295.168C532.976 296.44 532.664 297.544 532.04 298.48C531.416 299.416 530.516 300.136 529.34 300.64C528.164 301.144 526.76 301.396 525.128 301.396ZM544.843 301.36C542.947 301.36 541.315 301.012 539.947 300.316C538.603 299.596 537.571 298.624 536.851 297.4C536.131 296.152 535.771 294.736 535.771 293.152C535.771 291.208 536.167 289.444 536.959 287.86C537.775 286.276 538.951 285.016 540.487 284.08C542.047 283.12 543.919 282.64 546.103 282.64C547.759 282.64 549.199 282.916 550.423 283.468C551.671 284.02 552.643 284.788 553.339 285.772C554.059 286.756 554.443 287.908 554.491 289.228L548.623 290.164C548.695 289.228 548.527 288.472 548.119 287.896C547.735 287.32 547.051 287.032 546.067 287.032C545.395 287.032 544.795 287.236 544.267 287.644C543.739 288.028 543.283 288.544 542.899 289.192C542.539 289.84 542.251 290.56 542.035 291.352C541.843 292.12 541.747 292.9 541.747 293.692C541.747 294.364 541.867 294.952 542.107 295.456C542.371 295.96 542.731 296.356 543.187 296.644C543.667 296.908 544.231 297.04 544.879 297.04C545.527 297.04 546.127 296.824 546.679 296.392C547.255 295.936 547.651 295.336 547.867 294.592L553.339 296.356C552.667 297.916 551.587 299.14 550.099 300.028C548.635 300.916 546.883 301.36 544.843 301.36ZM564.878 301.36C563.054 301.36 561.47 301 560.126 300.28C558.806 299.56 557.786 298.588 557.066 297.364C556.346 296.116 555.986 294.724 555.986 293.188C555.986 291.244 556.382 289.48 557.174 287.896C557.99 286.288 559.154 285.016 560.666 284.08C562.202 283.12 564.062 282.64 566.246 282.64C568.094 282.64 569.678 283 570.998 283.72C572.318 284.44 573.338 285.412 574.058 286.636C574.778 287.86 575.138 289.252 575.138 290.812C575.138 292.732 574.73 294.496 573.914 296.104C573.122 297.712 571.958 298.996 570.422 299.956C568.91 300.892 567.062 301.36 564.878 301.36ZM564.95 297.04C565.574 297.04 566.138 296.848 566.642 296.464C567.17 296.056 567.614 295.516 567.974 294.844C568.358 294.172 568.646 293.452 568.838 292.684C569.03 291.892 569.126 291.1 569.126 290.308C569.126 289.612 569.006 289.024 568.766 288.544C568.55 288.04 568.214 287.656 567.758 287.392C567.326 287.104 566.786 286.96 566.138 286.96C565.538 286.96 564.974 287.164 564.446 287.572C563.942 287.956 563.498 288.484 563.114 289.156C562.754 289.804 562.466 290.524 562.25 291.316C562.058 292.108 561.962 292.9 561.962 293.692C561.962 294.364 562.07 294.952 562.286 295.456C562.526 295.96 562.874 296.356 563.33 296.644C563.786 296.908 564.326 297.04 564.95 297.04ZM590.625 283H597.501L586.989 301H579.645L577.413 283H583.461L584.181 299.632L582.993 299.416L590.625 283ZM605.836 301.324C604.06 301.324 602.5 300.988 601.156 300.316C599.812 299.62 598.768 298.66 598.024 297.436C597.28 296.212 596.908 294.784 596.908 293.152C596.908 291.136 597.316 289.348 598.132 287.788C598.972 286.204 600.148 284.956 601.66 284.044C603.196 283.132 605.02 282.676 607.132 282.676C608.884 282.676 610.372 283.012 611.596 283.684C612.844 284.332 613.792 285.256 614.44 286.456C615.088 287.656 615.412 289.072 615.412 290.704C615.412 291.16 615.388 291.64 615.34 292.144C615.292 292.648 615.196 293.14 615.052 293.62H600.868V290.308H611.056L609.364 291.244C609.46 290.908 609.52 290.62 609.544 290.38C609.568 290.14 609.58 289.912 609.58 289.696C609.58 289.072 609.472 288.556 609.256 288.148C609.04 287.74 608.74 287.44 608.356 287.248C607.972 287.032 607.516 286.924 606.988 286.924C606.124 286.924 605.404 287.128 604.828 287.536C604.276 287.944 603.832 288.484 603.496 289.156C603.16 289.804 602.92 290.512 602.776 291.28C602.656 292.048 602.596 292.792 602.596 293.512C602.596 294.28 602.74 294.928 603.028 295.456C603.34 295.984 603.748 296.392 604.252 296.68C604.78 296.944 605.392 297.076 606.088 297.076C606.952 297.076 607.648 296.884 608.176 296.5C608.704 296.092 609.112 295.588 609.4 294.988L614.44 296.968C614.032 297.88 613.396 298.66 612.532 299.308C611.692 299.956 610.696 300.46 609.544 300.82C608.416 301.156 607.18 301.324 605.836 301.324ZM616.637 301L620.813 283H626.249L625.133 289.552L624.881 288.94C625.265 287.668 625.769 286.564 626.393 285.628C627.017 284.692 627.785 283.96 628.697 283.432C629.609 282.904 630.641 282.64 631.793 282.64C632.201 282.64 632.537 282.676 632.801 282.748C633.089 282.796 633.329 282.868 633.521 282.964L632.045 288.112C631.805 287.992 631.517 287.908 631.181 287.86C630.869 287.788 630.461 287.752 629.957 287.752C629.213 287.752 628.481 287.92 627.761 288.256C627.065 288.568 626.453 289.084 625.925 289.804C625.397 290.524 624.989 291.484 624.701 292.684L622.757 301H616.637ZM633.443 308.74C632.411 308.74 631.463 308.62 630.599 308.38C629.735 308.164 629.051 307.864 628.547 307.48L630.239 303.196C631.079 303.892 632.111 304.24 633.335 304.24C634.007 304.24 634.595 304.108 635.099 303.844C635.627 303.58 636.071 303.16 636.431 302.584L637.151 301.396L633.983 283H640.175L640.715 292.684L640.859 297.076L642.911 292.792L647.663 283H654.179L642.587 302.512C641.723 304 640.835 305.2 639.923 306.112C639.011 307.048 638.027 307.72 636.971 308.128C635.939 308.536 634.763 308.74 633.443 308.74Z" fill="#F9F9F9"/>
<defs>
<filter id="filter0_d_1684_85" x="78.344" y="117.864" width="584.856" height="132.416" filterUnits="userSpaceOnUse" color-interpolation-filters="sRGB">
<feFlood flood-opacity="0" result="BackgroundImageFix"/>
<feColorMatrix in="SourceAlpha" type="matrix" values="0 0 0 0 0 0 0 0 0 0 0 0 0 0 0 0 0 0 127 0" result="hardAlpha"/>
<feOffset dy="10"/>
<feGaussianBlur stdDeviation="10"/>
<feComposite in2="hardAlpha" operator="out"/>
<feColorMatrix type="matrix" values="0 0 0 0 0 0 0 0 0 0 0 0 0 0 0 0 0 0 0.25 0"/>
<feBlend mode="normal" in2="BackgroundImageFix" result="effect1_dropShadow_1684_85"/>
<feBlend mode="normal" in="SourceGraphic" in2="effect1_dropShadow_1684_85" result="shape"/>
</filter>
<linearGradient id="paint0_linear_1684_85" x1="1421" y1="602" x2="8.01269" y2="10.97" gradientUnits="userSpaceOnUse">
<stop offset="0.065" stop-color="#9263FF"/>
<stop offset="0.485" stop-color="#BA62B1"/>
<stop offset="0.955" stop-color="#E5625E"/>
</linearGradient>
</defs>
</svg>
