<svg width="32" height="24" viewBox="0 0 32 24" fill="none" xmlns="http://www.w3.org/2000/svg">
<path d="M31.0183 7.925C31.2561 7.73125 31.6098 7.9125 31.6098 8.21875V21C31.6098 22.6562 30.2988 24 28.6829 24H3.31709C1.70123 24 0.390259 22.6562 0.390259 21V8.225C0.390259 7.9125 0.73782 7.7375 0.981722 7.93125C2.34758 9.01875 4.15855 10.4 10.3781 15.0312C11.6646 15.9937 13.8354 18.0188 16 18.0063C18.1768 18.025 20.3903 15.9563 21.6281 15.0312C27.8476 10.4 29.6525 9.0125 31.0183 7.925ZM16 16C17.4146 16.025 19.4512 14.175 20.4756 13.4125C28.5671 7.39375 29.1829 6.86875 31.0488 5.36875C31.4025 5.0875 31.6098 4.65 31.6098 4.1875V3C31.6098 1.34375 30.2988 0 28.6829 0H3.31709C1.70123 0 0.390259 1.34375 0.390259 3V4.1875C0.390259 4.65 0.597576 5.08125 0.951234 5.36875C2.81709 6.8625 3.43294 7.39375 11.5244 13.4125C12.5488 14.175 14.5854 16.025 16 16Z" fill="#3C0092"/>
</svg>
