<svg width="32" height="33" viewBox="0 0 32 33" fill="none" xmlns="http://www.w3.org/2000/svg">
<path d="M7.58019 32.4001H1.13469V11.0354H7.58019V32.4001ZM4.35397 8.12103C2.29291 8.12103 0.621155 6.36385 0.621155 4.24238C0.621155 3.22335 1.01443 2.24607 1.71447 1.52551C2.41451 0.804952 3.36396 0.400146 4.35397 0.400146C5.34397 0.400146 6.29343 0.804952 6.99347 1.52551C7.6935 2.24607 8.08678 3.22335 8.08678 4.24238C8.08678 6.36385 6.41434 8.12103 4.35397 8.12103ZM31.7036 32.4001H25.272V21.9999C25.272 19.5213 25.2234 16.3426 21.9209 16.3426C18.5697 16.3426 18.0562 19.0356 18.0562 21.8213V32.4001H11.6177V11.0354H17.7995V13.9497H17.8897C18.7502 12.2711 20.8522 10.4997 23.9882 10.4997C30.5114 10.4997 31.7106 14.9212 31.7106 20.6642V32.4001H31.7036Z" fill="#3C0092"/>
</svg>
